<svg width="28" height="18" viewBox="0 0 28 18" fill="none" xmlns="http://www.w3.org/2000/svg">
<path d="M2.50833 0.00125225L1.97867 0.00475256C1.80367 0.0105859 1.62517 0.0199192 1.45133 0.0514192C1.18862 0.0929355 0.939523 0.196233 0.724528 0.352815C0.509533 0.509396 0.334787 0.714785 0.214667 0.952086C0.133 1.11309 0.0816667 1.27642 0.0513333 1.45375C0.0186667 1.62642 0.00816667 1.80375 0.00466667 1.97875L0 2.22259V15.7058C0 15.7866 0.00116667 15.8671 0.0035 15.9473C0.00816667 16.1223 0.0186667 16.3008 0.0501667 16.4746C0.0805 16.6488 0.135722 16.8156 0.215833 16.9751C0.376974 17.2916 0.634295 17.5489 0.950833 17.7101C1.11183 17.7918 1.27517 17.8443 1.4525 17.8758C1.62517 17.9073 1.8025 17.9178 1.9775 17.9224L2.22017 17.9259H25.7798L26.0213 17.9224C26.1963 17.9178 26.3748 17.9073 26.5487 17.8758C26.7225 17.8443 26.8882 17.7929 27.048 17.7113C27.3656 17.5507 27.6236 17.2927 27.7842 16.9751C27.8658 16.8141 27.9183 16.6508 27.9487 16.4734C27.9802 16.3008 27.9907 16.1234 27.9953 15.9484C27.9977 15.8675 27.9988 15.7866 27.9988 15.7058L28 15.4188V2.22142C28 2.14053 27.9984 2.06003 27.9953 1.97992C27.9931 1.80322 27.9775 1.62693 27.9487 1.45259C27.8922 1.10153 27.7265 0.77721 27.4752 0.525681C27.2239 0.274151 26.8997 0.108207 26.5487 0.0514192C26.3743 0.0225732 26.198 0.00697306 26.0213 0.00475256C25.8452 -4.18841e-05 25.669 -0.0012091 25.4928 0.00125225H2.50833ZM2.50833 0.598586H25.774C25.8502 0.598586 25.9268 0.599753 26.0038 0.602086C26.138 0.606753 26.2955 0.613752 26.4413 0.639419C26.5685 0.662752 26.6747 0.697753 26.7762 0.749086C26.9807 0.853169 27.1469 1.01941 27.251 1.22392C27.3044 1.3297 27.3414 1.443 27.3607 1.55992C27.3863 1.70342 27.3933 1.86092 27.3968 1.99625C27.3992 2.0717 27.4003 2.14831 27.4003 2.22609V15.7034C27.4003 15.7789 27.3992 15.8551 27.3968 15.9321C27.3933 16.0663 27.3863 16.2238 27.3595 16.3696C27.334 16.5412 27.2677 16.7041 27.1662 16.8448C27.0647 16.9855 26.9309 17.0998 26.7762 17.1781C26.6711 17.2313 26.5586 17.2682 26.4425 17.2878C26.2984 17.3092 26.153 17.3217 26.0073 17.3251L25.774 17.3286H2.22367C2.14589 17.3286 2.06967 17.3274 1.995 17.3251C1.84853 17.3218 1.70241 17.3093 1.5575 17.2878C1.43033 17.2644 1.32417 17.2294 1.2215 17.1781C1.01595 17.0758 0.849567 16.9091 0.747833 16.7033C0.694426 16.5975 0.657446 16.4842 0.638167 16.3673C0.614864 16.2233 0.602384 16.0779 0.600833 15.9321L0.5985 15.7023V2.22492L0.600833 1.99509C0.6055 1.86209 0.6125 1.70575 0.638167 1.55759C0.6615 1.43159 0.6965 1.32542 0.747833 1.22275C0.852115 1.01868 1.01834 0.852865 1.22267 0.749086C1.32808 0.695791 1.44098 0.658813 1.5575 0.639419C1.70333 0.613752 1.86083 0.605586 1.995 0.602086L2.22367 0.598586H2.50833ZM8.00333 4.91525C7.65333 4.93392 7.224 5.14742 6.97667 5.44725C6.75383 5.70392 6.55667 6.12392 6.608 6.51825C7.00233 6.55325 7.3955 6.32109 7.644 6.03059C7.88317 5.72959 8.0465 5.32709 8.00333 4.91642V4.91525ZM10.5782 5.40525V11.8138H11.5722V9.62392H12.9488C14.2065 9.62392 15.0897 8.76175 15.0897 7.50992C15.0897 6.26159 14.224 5.40409 12.9803 5.40409L10.5782 5.40525ZM11.5722 6.24409H12.7178C13.58 6.24409 14.0723 6.70609 14.0723 7.51459C14.0723 8.32192 13.58 8.78859 12.7143 8.78859H11.5722V6.24409ZM7.8925 6.59409C7.3675 6.60575 6.92417 6.92075 6.6675 6.92075C6.39333 6.92075 5.97567 6.61275 5.523 6.62092C5.22865 6.62873 4.94143 6.71324 4.68976 6.86609C4.43808 7.01894 4.23066 7.23483 4.088 7.49242C3.47317 8.55175 3.92583 10.1233 4.52433 10.9866C4.81483 11.4136 5.16483 11.8838 5.62567 11.8663C6.06083 11.8499 6.23233 11.5839 6.76083 11.5839C7.2905 11.5839 7.4445 11.8663 7.90417 11.8581C8.3825 11.8499 8.68233 11.4311 8.97167 11.0029C9.30533 10.5164 9.44183 10.0463 9.45 10.0218C9.44183 10.0124 8.52833 9.66242 8.52017 8.61125C8.51083 7.73159 9.23767 7.31275 9.2715 7.28709C8.86083 6.68042 8.2215 6.61275 7.99983 6.59525L7.8925 6.59409ZM17.4638 7.05725C16.3088 7.05725 15.5902 7.67909 15.5365 8.52259H16.443C16.527 8.10492 16.8735 7.83892 17.4288 7.83892C18.0145 7.83892 18.3657 8.14925 18.3657 8.66842V9.02892L17.0858 9.10359C15.9763 9.16659 15.3498 9.66825 15.3498 10.4849C15.3498 11.3249 15.9892 11.8931 16.9038 11.8931C17.5175 11.8931 18.1078 11.5653 18.3785 11.0449H18.4007V11.8138H19.32V8.59375C19.32 7.65692 18.5967 7.05725 17.4638 7.05725ZM19.7272 7.14125L21.4142 11.8184C21.4142 11.8219 21.329 12.0984 21.329 12.1066C21.1832 12.5849 20.944 12.7728 20.4995 12.7728C20.419 12.7728 20.2592 12.7728 20.188 12.7553V13.5323C20.258 13.5451 20.4995 13.5544 20.5788 13.5544C21.5472 13.5544 22.0092 13.1904 22.4082 12.0576L24.1582 7.14125H23.1455L21.9648 10.9434H21.9473L20.7655 7.14009L19.7272 7.14125ZM18.3657 9.69509V10.0638C18.3657 10.6716 17.8407 11.1336 17.171 11.1336C16.6553 11.1336 16.3182 10.8676 16.3182 10.4581C16.3182 10.0591 16.6425 9.80475 17.2153 9.76625L18.3657 9.69509Z" fill="#292929"/>
</svg>
