<svg width="196" height="196" viewBox="0 0 196 196" fill="none" xmlns="http://www.w3.org/2000/svg">
<g filter="url(#filter0_f_3652_1053)">
<path d="M120.051 116.443L89.0986 141.241L61.1838 134.09L89.0544 93.0693L120.051 116.443Z" fill="url(#paint0_linear_3652_1053)"/>
</g>
<path d="M69.2082 94.8112C68.2871 92.511 69.078 88.9878 70.7995 87.7228L100.368 65.994C101.54 65.133 102.786 65.621 103.412 67.1867L121.257 111.748C122.178 114.048 121.387 117.571 119.666 118.836L90.097 140.565C88.9254 141.427 87.6796 140.938 87.0526 139.372L69.2082 94.8112Z" fill="#AAAAAA"/>
<path d="M68.1762 92.2341C67.7536 91.1787 68.0485 89.577 68.8022 88.8352L96.8719 61.2058C97.1829 60.9 97.5438 60.9963 97.718 61.4313L117.751 111.459C117.963 111.987 117.815 112.787 117.438 113.158L91.9077 138.288C89.7336 140.428 87.2057 139.755 85.9865 136.71L68.1762 92.2341Z" fill="#D9D9D9"/>
<path d="M68.1762 92.2341C67.7536 91.1787 68.0485 89.577 68.8022 88.8352L96.8719 61.2058C97.1829 60.9 97.5438 60.9963 97.718 61.4313L117.751 111.459C117.963 111.987 117.815 112.787 117.438 113.158L91.9077 138.288C89.7336 140.428 87.2057 139.755 85.9865 136.71L68.1762 92.2341Z" stroke="#AAAAAA" stroke-width="0.9375" stroke-linejoin="round"/>
<path d="M87.4316 58.7978C87.7596 58.272 88.151 57.8832 88.5644 57.6695L88.7426 57.589L90.2314 57.0093L92.0295 58.0739C92.3066 58.2383 92.5393 58.5378 92.7002 58.9398L110.632 103.719C111.246 105.253 111.002 107.505 110.08 108.979L109.989 109.119L90.4219 137.917C89.337 139.514 87.8285 139.465 87.0835 137.85L87.0139 137.689L68.897 92.9124C68.2992 91.4351 68.4991 89.2731 69.356 87.7865L69.441 87.6452L87.4316 58.7978Z" fill="#AAAAAA" stroke="#AAAAAA" stroke-width="0.9375" stroke-linejoin="round"/>
<path d="M87.5586 58.3314C88.6767 56.5423 90.3259 56.5899 91.0635 58.4318L108.988 103.192C109.579 104.672 109.377 106.828 108.522 108.31L108.436 108.451L90.0029 137.94C88.8847 139.729 87.2354 139.683 86.4977 137.841L67.9632 91.5563C67.7174 90.9426 67.7911 90.0567 68.1288 89.4247L68.1992 89.3019L87.5586 58.3314Z" fill="url(#paint1_linear_3652_1053)"/>
<path d="M87.5586 58.3314C88.6767 56.5423 90.3259 56.5899 91.0635 58.4318L108.988 103.192C109.579 104.672 109.377 106.828 108.522 108.31L108.436 108.451L90.0029 137.94C88.8847 139.729 87.2354 139.683 86.4977 137.841L67.9632 91.5563C67.7174 90.9426 67.7911 90.0567 68.1288 89.4247L68.1992 89.3019L87.5586 58.3314Z" fill="url(#paint2_linear_3652_1053)"/>
<path d="M87.5586 58.3314C88.6767 56.5423 90.3259 56.5899 91.0635 58.4318L108.988 103.192C109.579 104.672 109.377 106.828 108.522 108.31L108.436 108.451L90.0029 137.94C88.8847 139.729 87.2354 139.683 86.4977 137.841L67.9632 91.5563C67.7174 90.9426 67.7911 90.0567 68.1288 89.4247L68.1992 89.3019L87.5586 58.3314Z" stroke="#AAAAAA" stroke-width="0.9375" stroke-linejoin="round"/>
<path d="M87.621 58.4978C88.7393 56.7049 90.3899 56.7498 91.1281 58.5932L109.052 103.352C109.644 104.831 109.442 106.985 108.588 108.467L108.503 108.608L92.8705 133.674C92.3913 134.442 91.6835 134.422 91.3673 133.633L72.0375 85.3601L71.9924 85.2335C71.8029 84.63 71.8877 83.8208 72.2019 83.231L72.2728 83.1077L87.621 58.4978Z" fill="#1C1C1C" stroke="#AAAAAA" stroke-width="0.9375" stroke-linejoin="round"/>
<path d="M74.9507 87.0638C74.6176 86.4697 74.6807 85.4485 75.0917 84.7826L76.9523 81.7688C77.3633 81.1031 77.9666 81.045 78.2997 81.639C78.6328 82.2331 78.5697 83.2544 78.1586 83.9202L76.2981 86.934C75.8871 87.5997 75.2839 87.6579 74.9507 87.0638Z" fill="#AAAAAA"/>
<path d="M79.0441 80.4335C78.7109 79.8394 78.7741 78.8181 79.1851 78.1523L79.5572 77.5496C79.9682 76.8838 80.5715 76.8256 80.9046 77.4198C81.2377 78.0138 81.1746 79.0351 80.7636 79.7009L80.3915 80.3037C79.9804 80.9694 79.3772 81.0276 79.0441 80.4335Z" fill="#AAAAAA"/>
<path d="M81.6486 76.2144C81.3154 75.6204 81.3786 74.599 81.7896 73.9333L82.1617 73.3305C82.5727 72.6647 83.176 72.6066 83.5091 73.2007C83.8422 73.7948 83.7791 74.816 83.3681 75.4819L82.9959 76.0846C82.5849 76.7504 81.9817 76.8085 81.6486 76.2144Z" fill="#AAAAAA"/>
<path d="M71.2744 84.5029L91.7238 135.569" stroke="#AAAAAA" stroke-width="0.9375" stroke-linecap="round"/>
<path d="M66.1396 85.5653C66.8941 86.7457 68.4957 87.0088 69.5872 86.1604L69.6909 86.0745L70.2932 85.5489L69.926 86.2573C69.2799 87.501 69.8517 89.0193 71.1324 89.539L71.259 89.5862L72.0134 89.8446L71.2151 89.8807C69.8152 89.9446 68.7852 91.1975 68.9744 92.5663L68.9965 92.6996L69.1498 93.4848L68.7189 92.8108C67.9643 91.6303 66.363 91.367 65.2716 92.2164L65.1679 92.3023L64.565 92.8264L64.9335 92.1192C65.5797 90.8754 65.0073 89.3574 63.7263 88.8378L63.6005 88.7903L62.8454 88.5322L63.6437 88.4961C65.0437 88.4322 66.0744 87.1789 65.8848 85.8095L65.862 85.6765L65.7084 84.8907L66.1396 85.5653Z" fill="#1C1C1C" stroke="#AAAAAA" stroke-width="0.9375" stroke-linejoin="round"/>
<path d="M59.1422 82.5088L59.6704 83.335C59.8578 83.6283 60.2626 83.6864 60.5256 83.4575L61.2659 82.8128L60.8134 83.6835C60.6528 83.9926 60.8047 84.3719 61.1342 84.4847L62.0626 84.8024L61.082 84.8468C60.7337 84.8627 60.4808 85.184 60.5476 85.5256L60.7357 86.488L60.2076 85.6618C60.0201 85.3685 59.6153 85.3104 59.3524 85.5394L58.6121 86.1842L59.0646 85.3135C59.2252 85.0044 59.0733 84.6251 58.7438 84.5122L57.8154 84.1945L58.796 84.1501C59.1443 84.1342 59.3972 83.8129 59.3304 83.4712L59.1422 82.5088Z" fill="#AAAAAA"/>
<path d="M67.7038 80.4509L68.2319 81.2772C68.4194 81.5704 68.8242 81.6286 69.0872 81.3997L69.8274 80.755L69.3749 81.6257C69.2143 81.9348 69.3662 82.3141 69.6958 82.4269L70.6242 82.7446L69.6435 82.789C69.2953 82.8049 69.0423 83.1261 69.1091 83.4678L69.2973 84.4302L68.7691 83.604C68.5816 83.3106 68.1768 83.2526 67.9139 83.4816L67.1737 84.1263L67.6262 83.2557C67.7868 82.9466 67.6349 82.5673 67.3053 82.4544L66.3769 82.1367L67.3576 82.0923C67.7058 82.0764 67.9588 81.7551 67.8919 81.4133L67.7038 80.4509Z" fill="#AAAAAA"/>
<path d="M115.236 98.2847C115.991 99.4653 117.592 99.7279 118.684 98.8799L118.788 98.7939L119.39 98.2682L119.023 98.9767C118.377 100.221 118.949 101.739 120.229 102.259L120.356 102.306L121.111 102.564L120.312 102.6C118.912 102.664 117.882 103.916 118.071 105.286L118.093 105.419L118.247 106.204L117.815 105.53C117.061 104.349 115.46 104.086 114.368 104.936L114.265 105.022L113.662 105.546L114.03 104.839C114.676 103.595 114.104 102.077 112.823 101.557L112.697 101.51L111.942 101.252L112.741 101.215C114.141 101.151 115.171 99.898 114.981 98.529L114.958 98.3959L114.805 97.6098L115.236 98.2847Z" fill="#1C1C1C" stroke="#AAAAAA" stroke-width="0.9375" stroke-linejoin="round"/>
<path d="M121.247 104.272L121.775 105.099C121.962 105.392 122.367 105.45 122.63 105.222L123.371 104.577L122.918 105.447C122.758 105.756 122.909 106.136 123.239 106.248L124.167 106.566L123.186 106.61C122.838 106.626 122.585 106.948 122.652 107.289L122.84 108.252L122.312 107.425C122.125 107.132 121.72 107.074 121.457 107.303L120.717 107.948L121.169 107.077C121.33 106.768 121.178 106.389 120.848 106.276L119.92 105.958L120.9 105.914C121.249 105.898 121.502 105.577 121.435 105.235L121.247 104.272Z" fill="#AAAAAA"/>
<path d="M122.432 97.2335L122.96 98.0598C123.148 98.3533 123.553 98.4115 123.816 98.1826L124.556 97.5379L124.103 98.4084C123.942 98.7176 124.094 99.0969 124.424 99.2098L125.352 99.5273L124.372 99.5715C124.024 99.5879 123.771 99.909 123.838 100.251L124.026 101.213L123.497 100.387C123.31 100.093 122.905 100.035 122.642 100.264L121.902 100.909L122.355 100.038C122.515 99.7292 122.363 99.3498 122.034 99.237L121.105 98.9195L122.086 98.8753C122.435 98.8593 122.687 98.5377 122.62 98.196L122.432 97.2335Z" fill="#AAAAAA"/>
<defs>
<filter id="filter0_f_3652_1053" x="60.2461" y="92.1318" width="60.7422" height="50.0467" filterUnits="userSpaceOnUse" color-interpolation-filters="sRGB">
<feFlood flood-opacity="0" result="BackgroundImageFix"/>
<feBlend mode="normal" in="SourceGraphic" in2="BackgroundImageFix" result="shape"/>
<feGaussianBlur stdDeviation="0.46875" result="effect1_foregroundBlur_3652_1053"/>
</filter>
<linearGradient id="paint0_linear_3652_1053" x1="75.0283" y1="112.679" x2="100.947" y2="121.975" gradientUnits="userSpaceOnUse">
<stop offset="0.107334" stop-color="#1C1C1C" stop-opacity="0"/>
<stop offset="0.545039" stop-color="white" stop-opacity="0.15"/>
<stop offset="1" stop-color="white" stop-opacity="0.5"/>
</linearGradient>
<linearGradient id="paint1_linear_3652_1053" x1="77.4247" y1="69.7778" x2="119.018" y2="102.481" gradientUnits="userSpaceOnUse">
<stop stop-color="#5349C1"/>
<stop offset="1" stop-color="#977FED"/>
</linearGradient>
<linearGradient id="paint2_linear_3652_1053" x1="73.1108" y1="104.411" x2="104.45" y2="91.8612" gradientUnits="userSpaceOnUse">
<stop stop-color="#6D08E8"/>
<stop offset="1" stop-color="#CB63FE"/>
</linearGradient>
</defs>
</svg>
