<svg width="58" height="47" viewBox="0 0 58 47" fill="none" xmlns="http://www.w3.org/2000/svg">
<g filter="url(#filter0_f_1270_100072)">
<path d="M50.6996 27.9574L23.2211 43.4584L1.20312 35.0035L40.2544 9.57227L50.6996 27.9574Z" fill="url(#paint0_linear_1270_100072)"/>
</g>
<path d="M43.9236 0.844109L50.1936 3.3387C50.4835 3.38662 50.608 3.50357 50.608 3.50357L50.1936 3.3387C49.8112 3.27544 49.141 3.33266 48.0918 3.93872L29.2936 15.7898C29.2936 15.7898 27.549 16.4339 27.549 19.8829L27.3709 44.8222L21.1038 42.6046C21.1038 42.6046 19.0859 41.8899 19.0859 38.6741V17.3232C19.0859 13.5643 21.1038 12.4881 21.1038 12.4881L40.8618 1.00832C41.6794 0.533249 42.9685 0.464116 43.9236 0.844109Z" fill="black"/>
<path d="M50.1936 3.3387L43.9236 0.844109C42.9685 0.464116 41.6794 0.533249 40.8618 1.00832L21.1038 12.4881C21.1038 12.4881 19.0859 13.5643 19.0859 17.3232V38.6741C19.0859 41.8899 21.1038 42.6046 21.1038 42.6046L27.3709 44.8222L27.549 19.8829C27.549 16.4339 29.2936 15.7898 29.2936 15.7898L48.0918 3.93872C49.141 3.33266 49.8112 3.27544 50.1936 3.3387ZM50.1936 3.3387L50.608 3.50357C50.608 3.50357 50.4835 3.38662 50.1936 3.3387Z" stroke="black" stroke-width="1.2" stroke-linejoin="round"/>
<path d="M48.3544 3.80093L29.1246 14.9033C27.4076 15.8946 26.0156 18.3055 26.0156 20.2882V42.4929C26.0156 44.4756 27.4076 45.2792 29.1246 44.2879L48.3544 33.1855C50.0715 32.1942 51.4634 29.7833 51.4634 27.8006V5.59591C51.4634 3.61322 50.0715 2.80958 48.3544 3.80093Z" fill="url(#paint1_linear_1270_100072)" stroke="black" stroke-width="1.2" stroke-linejoin="round"/>
<path d="M47.6585 6.98926L30.4863 16.9036C29.3936 17.5345 28.5078 19.0687 28.5078 20.3304V40.1592C28.5078 41.4209 29.3936 41.9323 30.4863 41.3014L47.6585 31.3871C48.7511 30.7562 49.6369 29.222 49.6369 27.9603V8.13152C49.6369 6.86981 48.7511 6.3584 47.6585 6.98926Z" fill="white" stroke="black" stroke-width="1.2" stroke-linejoin="round"/>
<path d="M40.1328 25.2741V16.5596" stroke="url(#paint2_linear_1270_100072)" stroke-width="2" stroke-linecap="round" stroke-linejoin="round"/>
<path d="M40.6719 25.6263L43.9757 19.9043" stroke="url(#paint3_linear_1270_100072)" stroke-width="2" stroke-linecap="round" stroke-linejoin="round"/>
<path d="M31.5017 8.7594C32.2822 8.30881 32.9149 8.67411 32.9149 9.5753V9.74953C32.9148 9.92973 32.7885 10.1487 32.6325 10.2387L26.8293 13.5892C26.6733 13.6793 26.5469 13.6062 26.5469 13.4261V13.2519C26.5469 12.3507 27.1796 11.2548 27.96 10.8042L31.5017 8.7594Z" fill="white" stroke="black" stroke-width="1.2" stroke-linejoin="round"/>
<path d="M45.0568 0.926395C45.8374 0.475799 46.47 0.841106 46.47 1.7423V1.91652C46.47 2.09672 46.3432 2.31566 46.1876 2.40573L40.3844 5.75621C40.2283 5.84628 40.1021 5.77323 40.1016 5.59314V5.41891C40.1016 4.51767 40.7347 3.4218 41.5152 2.97121L45.0568 0.926395Z" fill="white" stroke="black" stroke-width="1.2" stroke-linejoin="round"/>
<path d="M37.0804 4.87464C37.8609 4.42404 38.4935 4.78935 38.4935 5.69054V6.45651C38.4935 6.63671 38.3673 6.85559 38.2112 6.94578L35.0715 8.75844C34.9154 8.84852 34.7891 8.77552 34.7891 8.59537V7.8294C34.7891 6.92815 35.4218 5.83229 36.2022 5.38169L37.0804 4.87464Z" fill="url(#paint4_linear_1270_100072)" stroke="black" stroke-width="1.2" stroke-linejoin="round"/>
<path d="M21.5299 9.84163C21.712 10.7999 22.6791 11.3844 23.6042 11.1186L23.6934 11.0899L24.2187 10.9061L23.7981 11.2689C23.0586 11.9055 23.0352 13.0349 23.7284 13.7023L23.7981 13.7655L24.2187 14.1278L23.6934 13.9445C22.7721 13.6234 21.7821 14.1666 21.5501 15.1003L21.5299 15.1923L21.4258 15.7394L21.3216 15.1923C21.1395 14.234 20.1726 13.6493 19.2474 13.9158L19.1581 13.9445L18.6328 14.1272L19.054 13.7655C19.7936 13.1288 19.8165 11.9995 19.1231 11.3321L19.054 11.2689L18.6328 10.9067L19.1581 11.0899C20.0795 11.411 21.0701 10.8677 21.302 9.9335L21.3216 9.84163L21.4258 9.29395L21.5299 9.84163Z" fill="white" stroke="black" stroke-width="1.2" stroke-linejoin="round"/>
<path d="M17.7939 6.05469L17.9214 6.72541C17.9667 6.96349 18.2133 7.10579 18.4425 7.02594L19.0878 6.80086L18.57 7.24645C18.3862 7.40468 18.3862 7.68916 18.57 7.84739L19.0878 8.29303L18.4425 8.0679C18.2133 7.98805 17.9667 8.13023 17.9214 8.36831L17.7939 9.03904L17.6664 8.36831C17.6212 8.13023 17.3745 7.98789 17.1453 8.0679L16.5 8.29303L17.0178 7.84739C17.2016 7.68916 17.2016 7.40468 17.0178 7.24645L16.5 6.80086L17.1453 7.02594C17.3745 7.10579 17.6212 6.9636 17.6664 6.72541L17.7939 6.05469Z" fill="black"/>
<path d="M23.8564 6.94043L23.9839 7.61116C24.0292 7.84924 24.2758 7.99153 24.5049 7.91168L25.1503 7.6866L24.6325 8.13219C24.4487 8.29042 24.4487 8.5749 24.6325 8.73313L25.1503 9.17878L24.5049 8.95364C24.2758 8.87379 24.0292 9.01598 23.9839 9.25406L23.8564 9.92478L23.7289 9.25406C23.6837 9.01598 23.437 8.87363 23.2078 8.95364L22.5625 9.17878L23.0803 8.73313C23.2641 8.5749 23.2641 8.29042 23.0803 8.13219L22.5625 7.6866L23.2078 7.91168C23.437 7.99153 23.6837 7.84935 23.7289 7.61116L23.8564 6.94043Z" fill="black"/>
<path d="M50.929 22.9103C51.3527 23.7887 52.4384 24.1031 53.263 23.6069L53.3419 23.5561L53.8015 23.2425L53.4893 23.7019C52.9399 24.5082 53.2097 25.6051 54.0517 26.0704L54.1355 26.1133L54.6354 26.3543L54.0806 26.3135C53.1075 26.2417 52.2921 27.0228 52.3095 27.9845L52.3139 28.0786L52.3547 28.6339L52.1126 28.1324C51.6889 27.254 50.6037 26.9396 49.7786 27.4362L49.6997 27.4873L49.2401 27.7995L49.5529 27.341C50.1028 26.5349 49.8324 25.4381 48.9899 24.9729L48.9067 24.9297L48.4062 24.6888L48.9611 24.7299C49.9342 24.8016 50.7506 24.0204 50.7327 23.058L50.7278 22.9642L50.687 22.4082L50.929 22.9103Z" fill="white" stroke="black" stroke-width="1.2" stroke-linejoin="round"/>
<path d="M56.2232 22.5381L56.351 23.2088C56.3961 23.4469 56.6425 23.5892 56.8721 23.5094L57.5172 23.2843L56.9994 23.7299C56.8155 23.8881 56.8155 24.1726 56.9994 24.3308L57.5172 24.7764L56.8721 24.5514C56.6425 24.4714 56.3961 24.6136 56.351 24.8517L56.2232 25.5224L56.0959 24.8517C56.0507 24.6136 55.8038 24.4713 55.5748 24.5514L54.9297 24.7764L55.4475 24.3308C55.6314 24.1726 55.6314 23.8881 55.4475 23.7299L54.9297 23.2843L55.5748 23.5094C55.8038 23.5892 56.0507 23.4471 56.0959 23.2088L56.2232 22.5381Z" fill="black"/>
<path d="M54.9268 27.4414L55.0541 28.1121C55.0993 28.3503 55.3462 28.4923 55.5752 28.4129L56.2209 28.1877L55.703 28.6332C55.5192 28.7915 55.5192 29.0759 55.703 29.2342L56.2209 29.6797L55.5752 29.4545C55.3462 29.3746 55.0993 29.5171 55.0541 29.7548L54.9268 30.426L54.799 29.7548C54.7539 29.5171 54.5075 29.3746 54.2779 29.4545L53.6328 29.6797L54.1506 29.2342C54.3345 29.0759 54.3345 28.7915 54.1506 28.6332L53.6328 28.1877L54.2779 28.4129C54.5075 28.4923 54.7539 28.3503 54.799 28.1121L54.9268 27.4414Z" fill="black"/>
<defs>
<filter id="filter0_f_1270_100072" x="0.00312495" y="8.37227" width="51.9" height="36.2857" filterUnits="userSpaceOnUse" color-interpolation-filters="sRGB">
<feFlood flood-opacity="0" result="BackgroundImageFix"/>
<feBlend mode="normal" in="SourceGraphic" in2="BackgroundImageFix" result="shape"/>
<feGaussianBlur stdDeviation="0.6" result="effect1_foregroundBlur_1270_100072"/>
</filter>
<linearGradient id="paint0_linear_1270_100072" x1="23.4998" y1="18.2544" x2="42.496" y2="40.6517" gradientUnits="userSpaceOnUse">
<stop stop-color="white" stop-opacity="0"/>
<stop offset="1"/>
</linearGradient>
<linearGradient id="paint1_linear_1270_100072" x1="38.7774" y1="9.16706" x2="51.7839" y2="31.6951" gradientUnits="userSpaceOnUse">
<stop stop-color="#5349C1"/>
<stop offset="1" stop-color="#977FED"/>
</linearGradient>
<linearGradient id="paint2_linear_1270_100072" x1="nan" y1="nan" x2="nan" y2="nan" gradientUnits="userSpaceOnUse">
<stop stop-color="#5349C1"/>
<stop offset="1" stop-color="#977FED"/>
</linearGradient>
<linearGradient id="paint3_linear_1270_100072" x1="44.1422" y1="20.0005" x2="40.8389" y2="25.7224" gradientUnits="userSpaceOnUse">
<stop stop-color="#5349C1"/>
<stop offset="1" stop-color="#977FED"/>
</linearGradient>
<linearGradient id="paint4_linear_1270_100072" x1="36.6413" y1="5.45436" x2="37.5383" y2="7.008" gradientUnits="userSpaceOnUse">
<stop stop-color="#5349C1"/>
<stop offset="1" stop-color="#977FED"/>
</linearGradient>
</defs>
</svg>
