<svg width="35" height="24" viewBox="0 0 35 24" fill="none" xmlns="http://www.w3.org/2000/svg">
<rect x="0.5" y="0.5" width="34" height="23" rx="3.5" fill="white" stroke="#E2E2E2"/>
<path d="M15 23L34 17.25V20C34 21.6569 32.6569 23 31 23H15Z" fill="#FD6020"/>
<path d="M15.1846 9.1106C15.5504 9.1106 15.9687 9.16434 16.2822 9.37915V10.4543C16.0209 10.132 15.6027 9.91724 15.1846 9.91724C14.3484 9.97102 13.6694 10.7227 13.7217 11.5823V11.6897C13.7217 12.5493 14.4011 13.1946 15.2373 13.1946C15.6553 13.1944 16.021 12.9788 16.2822 12.6565V13.7317C15.9165 13.8928 15.5507 14.0002 15.1328 14.0002C13.8262 14.0002 12.7803 12.8717 12.7803 11.5286C12.7803 10.1317 13.8258 9.00321 15.1846 9.1106ZM23.3906 12.3342L24.6445 9.1106H25.585L23.6514 14.0002H23.1807L21.2471 9.1106H22.1885L23.3906 12.3342ZM11.0039 9.00317C11.4741 9.00331 11.9448 9.21802 12.3105 9.54028L11.8398 10.1858C11.6309 9.97099 11.3696 9.80998 11.1084 9.80981C10.7948 9.75609 10.5327 10.0246 10.4805 10.3469C10.4806 10.6153 10.6377 10.7229 11.1602 10.9377C12.2053 11.3675 12.4672 11.6897 12.5195 12.3342V12.4954C12.4673 13.355 11.7874 14.0003 10.9512 13.9465C10.324 13.9465 9.6964 13.6235 9.38281 13.0325L9.95801 12.4417C10.1148 12.8177 10.4813 13.0872 10.8994 13.0872H10.9512C11.2648 13.0872 11.5781 12.764 11.5781 12.3879C11.578 12.1732 11.474 12.0119 11.3174 11.9045C11.1083 11.7971 10.8985 11.6897 10.6895 11.636C9.85368 11.3674 9.59286 10.9913 9.59277 10.3469V10.2932C9.64504 9.54104 10.2722 8.94945 11.0039 9.00317ZM5.56836 9.1106C6.82242 9.16454 7.81479 10.2394 7.7627 11.5286C7.76262 12.2268 7.44919 12.8713 6.92676 13.3547C6.45638 13.7308 5.88155 13.9456 5.30664 13.8918H4V9.1106H5.56836ZM9.01758 13.8928H8.12891V9.1106H9.01758V13.8928ZM28.5117 9.91724H26.8916V10.9915H28.46V11.7971H26.8916V13.0872H28.5117V13.8928H26.0039V9.1106H28.5117V9.91724ZM30.3936 9.1106C31.4386 9.1106 32.0134 9.59418 32.0137 10.5071C32.0659 11.2054 31.5958 11.797 30.9688 11.9045L32.3799 13.8918H31.2822L30.0801 11.9583H29.9756V13.8918H29.0869V9.1106H30.3936ZM5.14941 9.91626H4.88867V13.0862H5.14941C5.56746 13.1399 6.03797 12.9788 6.35156 12.7102C6.66499 12.3879 6.8222 11.9582 6.82227 11.4749C6.82219 11.0451 6.66508 10.6145 6.35156 10.2922C6.03798 10.0239 5.56729 9.86258 5.14941 9.91626ZM29.9756 11.3137H30.2363C30.8112 11.3137 31.0732 11.0443 31.0732 10.5608C31.0729 10.1314 30.8109 9.86255 30.2363 9.86255H29.9756V11.3137Z" fill="black"/>
<path fill-rule="evenodd" clip-rule="evenodd" d="M18.9476 9C17.641 9 16.5435 10.0745 16.5435 11.4714C16.5435 12.8146 17.5888 13.9429 18.9476 13.9966C20.3065 14.0503 21.3518 12.9221 21.4041 11.5252C21.3518 10.1283 20.3065 9 18.9476 9V9Z" fill="#FD6020"/>
</svg>
