<svg width="88" height="88" viewBox="0 0 88 88" fill="none" xmlns="http://www.w3.org/2000/svg">
<path d="M71.5 48.9727H16.5V74.4267C16.5 75.6408 17.2961 76.7119 18.4594 77.0612C23.9855 78.718 39.5257 83.3807 43.2094 84.4862C43.725 84.6402 44.275 84.6402 44.7906 84.4862C48.4743 83.3807 64.0145 78.718 69.5406 77.0612C70.7039 76.7119 71.5 75.6408 71.5 74.4267C71.5 68.0522 71.5 48.9727 71.5 48.9727Z" fill="#F2F3F5"/>
<path d="M71.4936 48.9727H43.9936C43.9936 48.9727 43.7268 84.6017 43.9936 84.6017C44.2603 84.6017 44.5257 84.5632 44.7842 84.4862C48.4678 83.3807 64.0081 78.718 69.5342 77.0612C70.6974 76.7119 71.4936 75.6408 71.4936 74.4267C71.4936 68.0522 71.4936 48.9727 71.4936 48.9727Z" fill="#C4C9D2"/>
<path d="M43.995 57.895L16.495 48.9727C16.495 48.9727 11.6729 56.1227 9.51685 59.3182C9.27485 59.677 9.21573 60.1267 9.35598 60.535C9.4976 60.9434 9.82073 61.261 10.2319 61.3958C15.4555 63.0925 30.9187 68.1168 34.975 69.434C35.5566 69.6238 36.1946 69.4052 36.5383 68.8978C38.3822 66.1767 43.995 57.895 43.995 57.895Z" fill="#D6DAE1"/>
<path d="M71.5 48.9727L44 57.895C44 57.895 49.6128 66.1767 51.4566 68.8978C51.8004 69.4052 52.4384 69.6238 53.02 69.434C57.0763 68.1168 72.5395 63.0925 77.7631 61.3958C78.1743 61.261 78.4974 60.9434 78.639 60.535C78.7793 60.1267 78.7201 59.677 78.4781 59.3182C76.3221 56.1227 71.5 48.9727 71.5 48.9727Z" fill="#D6DAE1"/>
<path d="M37.3352 30.2302C36.9915 29.7255 36.3549 29.5069 35.7732 29.6967C31.7197 31.0125 16.2524 36.0382 11.0287 37.7363C10.6176 37.8697 10.2931 38.1873 10.1529 38.5957C10.0126 39.004 10.0717 39.455 10.3137 39.8125C12.2992 42.7578 16.4916 48.9728 16.4916 48.9728L43.9916 40.0202C43.9916 40.0202 39.0526 32.756 37.3352 30.2302Z" fill="#F2F3F5"/>
<path d="M77.6779 39.8125C77.9199 39.455 77.979 39.004 77.8388 38.5957C77.6985 38.1873 77.374 37.8697 76.9629 37.7363C71.7393 36.0382 56.2719 31.0125 52.2184 29.6967C51.6368 29.5069 51.0001 29.7255 50.6564 30.2302C48.939 32.756 44 40.0202 44 40.0202L71.5 48.9728C71.5 48.9728 75.6924 42.7578 77.6779 39.8125Z" fill="#D6DAE1"/>
<path d="M71.5 48.9722L44 40.0195L16.5 48.9722L44 57.8945L71.5 48.9722Z" fill="#F2F3F5"/>
<path d="M44 57.8945V40.0195L16.5 48.9722L44 57.8945Z" fill="#C4C9D2"/>
<path d="M38.4671 43.9691C37.8951 43.5951 37.3795 43.195 36.9216 42.7756C36.3633 42.2627 35.493 42.2998 34.9787 42.8595C34.4658 43.4177 34.503 44.2881 35.0626 44.801C35.625 45.318 36.2588 45.8102 36.9628 46.2708C37.5981 46.6861 38.4506 46.5073 38.8658 45.8721C39.2811 45.2368 39.1023 44.3843 38.4671 43.9691Z" fill="#A3A9B3"/>
<path d="M34.1847 39.7438C33.7763 39.1896 33.4312 38.6328 33.1479 38.0759C32.8042 37.3994 31.975 37.1299 31.2985 37.4736C30.622 37.8174 30.3525 38.6465 30.6963 39.323C31.0455 40.0078 31.469 40.6939 31.9709 41.3745C32.4205 41.985 33.2813 42.1156 33.8932 41.666C34.5037 41.215 34.6343 40.3543 34.1847 39.7438Z" fill="#A3A9B3"/>
<path d="M32.1723 34.1352C32.186 33.581 32.2671 33.0434 32.4156 32.5278C32.6246 31.799 32.2025 31.0359 31.4724 30.8269C30.7436 30.6179 29.9805 31.04 29.7715 31.7702C29.5611 32.5072 29.4429 33.2758 29.4223 34.0664C29.4044 34.8254 30.0039 35.4565 30.7629 35.4744C31.5219 35.4937 32.153 34.8942 32.1723 34.1352Z" fill="#A3A9B3"/>
<path d="M34.2855 29.5429C34.6389 29.2157 35.0349 28.9132 35.468 28.6396C36.1101 28.2339 36.3026 27.3842 35.8984 26.7434C35.4928 26.1013 34.643 25.9088 34.0009 26.3131C33.4193 26.6802 32.8913 27.0858 32.4169 27.5258C31.86 28.0414 31.827 28.9118 32.3426 29.4687C32.8583 30.0256 33.7286 30.0586 34.2855 29.5429Z" fill="#A3A9B3"/>
<path d="M39.3987 27.1715C40.0903 27.0437 40.8232 26.9612 41.5959 26.9295C42.3549 26.8965 42.9434 26.2544 42.9118 25.4968C42.8802 24.7392 42.238 24.1493 41.479 24.1809C40.5715 24.2194 39.7108 24.317 38.8982 24.4669C38.1529 24.6058 37.6579 25.3235 37.7968 26.0688C37.9343 26.8154 38.652 27.309 39.3987 27.1715Z" fill="#A3A9B3"/>
<path d="M46.5696 27.0879C47.7424 27.1017 48.8342 27.0604 49.8476 26.9711C50.6038 26.9037 51.1634 26.2354 51.0961 25.4792C51.0287 24.7243 50.3604 24.1647 49.6042 24.2321C48.6761 24.3132 47.6764 24.3517 46.6012 24.3379C45.8422 24.3297 45.2193 24.9388 45.2111 25.6964C45.2014 26.4554 45.8106 27.0797 46.5696 27.0879Z" fill="#A3A9B3"/>
<path d="M54.3626 26.1283C55.7239 25.7117 56.8734 25.1782 57.8359 24.5663C58.4753 24.1579 58.665 23.3082 58.2566 22.6674C57.8496 22.0281 56.9985 21.8383 56.3578 22.2467C55.5836 22.7389 54.6555 23.1624 53.5583 23.4979C52.8336 23.7207 52.4239 24.4893 52.6466 25.2153C52.868 25.9413 53.638 26.3497 54.3626 26.1283Z" fill="#A3A9B3"/>
<path d="M61.3635 20.717C62.0125 19.375 62.2614 17.956 62.1981 16.5879C62.1624 15.8289 61.5175 15.2431 60.7599 15.2789C60.0022 15.3146 59.4151 15.9581 59.4509 16.7158C59.4949 17.6453 59.3271 18.6091 58.8871 19.5208C58.5571 20.2041 58.8431 21.0278 59.5265 21.3578C60.2099 21.6878 61.0335 21.4004 61.3635 20.717Z" fill="#A3A9B3"/>
<path d="M60.4884 11.7271C59.486 10.3727 58.1262 9.42944 56.6439 9.12557C55.9 8.97432 55.1727 9.45282 55.02 10.1967C54.8688 10.9406 55.3487 11.6679 56.0912 11.8206C56.9464 11.9952 57.6999 12.5823 58.2788 13.3647C58.7312 13.9738 59.5933 14.1017 60.2024 13.6507C60.8129 13.1983 60.9408 12.3362 60.4884 11.7271Z" fill="#A3A9B3"/>
<path d="M42.5312 9.39333C44.019 0.968704 56.9124 1.5132 49.4062 9.39333H42.5312Z" fill="#F2F3F5"/>
<path d="M42.5312 11.5273C44.019 19.9506 56.9124 19.4075 49.4062 11.5273H42.5312Z" fill="#F2F3F5"/>
<path d="M42.4062 11.8477H51.6133C52.3723 11.8477 52.9883 11.2317 52.9883 10.4727C52.9883 9.71366 52.3723 9.09766 51.6133 9.09766H42.4062C41.6486 9.09766 41.0312 9.71366 41.0312 10.4727C41.0312 11.2317 41.6486 11.8477 42.4062 11.8477Z" fill="#C4C9D2"/>
</svg>
