<svg width="202" height="202" viewBox="0 0 202 202" fill="none" xmlns="http://www.w3.org/2000/svg">
<mask id="mask0_3652_1008" style="mask-type:luminance" maskUnits="userSpaceOnUse" x="0" y="0" width="202" height="202">
<path d="M159.373 0.960446L0.960938 43.4068L43.4073 201.819L201.819 159.372L159.373 0.960446Z" fill="white"/>
</mask>
<g mask="url(#mask0_3652_1008)">
<g filter="url(#filter0_f_3652_1008)">
<path d="M152.038 102.649L107.104 148.412L75.7618 138.749L117.298 88.3344L152.038 102.649Z" fill="url(#paint0_linear_3652_1008)"/>
</g>
<g filter="url(#filter1_f_3652_1008)">
<path d="M121.019 97.6024L76.0842 143.366L11.7317 125.537L64.3252 74.2292L121.019 97.6024Z" fill="url(#paint1_linear_3652_1008)"/>
</g>
<path d="M57.198 96.1449C57.0814 95.7096 57.2058 95.2452 57.5243 94.9265L66.41 86.0357C66.6512 85.7943 66.9801 85.6609 67.3214 85.6661L72.3367 85.7421L74.891 86.5075L104.501 57.3016C104.74 57.0656 105.063 56.935 105.399 56.9383L109.59 56.9799L120.238 96.72C120.352 97.1437 120.237 97.5961 119.936 97.9142L76.6413 143.59L70.3159 142.363C69.8422 142.271 69.4625 141.916 69.3376 141.45L57.198 96.1449Z" fill="#AAAAAA"/>
<path d="M63.4903 94.9873L71.8496 86.6281C71.9408 86.537 72.0394 86.487 72.1318 86.4828L72.2216 86.4949L78.0152 88.2783C78.3639 88.3857 78.7676 88.2401 79.1324 87.8753L109.22 57.7878C109.466 57.5418 109.738 57.6156 109.829 57.952L120.689 98.4822C120.779 98.8185 120.653 99.2904 120.406 99.5367L77.1431 142.801C76.9305 143.012 76.6982 142.987 76.5805 142.759L76.5374 142.649L63.2111 96.0548C63.1149 95.7186 63.2406 95.2371 63.4903 94.9873Z" fill="#D9D9D9"/>
<path d="M63.4903 94.9873L71.8496 86.6281C71.9408 86.537 72.0394 86.487 72.1318 86.4828L72.2216 86.4949L78.0152 88.2783C78.3639 88.3857 78.7676 88.2401 79.1324 87.8753L109.22 57.7878C109.466 57.5418 109.738 57.6156 109.829 57.952L120.689 98.4822C120.779 98.8185 120.653 99.2904 120.406 99.5367L77.1431 142.801C76.9305 143.012 76.6982 142.987 76.5805 142.759L76.5374 142.649L63.2111 96.0548C63.1149 95.7186 63.2406 95.2371 63.4903 94.9873Z" stroke="#AAAAAA" stroke-width="1.26154" stroke-linejoin="round"/>
<path d="M88.2019 101.139C88.0853 100.704 88.2097 100.24 88.5282 99.9209L97.4139 91.0301C97.6552 90.7886 97.984 90.6553 98.3253 90.6605L103.341 90.7365L105.895 91.502L135.505 62.2959C135.744 62.0602 136.068 61.9292 136.404 61.9325L140.593 61.9745L151.241 101.711C151.355 102.136 151.238 102.591 150.934 102.91L106.95 148.826L101.263 147.389C100.82 147.276 100.472 146.933 100.354 146.492L88.2019 101.139Z" fill="#AAAAAA"/>
<path d="M94.4777 99.9989L102.854 91.6222C102.946 91.5311 103.044 91.4811 103.136 91.477L103.227 91.489L109.02 93.2725C109.369 93.3798 109.773 93.2342 110.137 92.8694L140.225 62.7818C140.471 62.5357 140.744 62.6097 140.834 62.946L151.691 103.467C151.782 103.805 151.654 104.281 151.406 104.526L107.338 148.012C107.092 148.254 106.822 148.178 106.733 147.844L94.1954 101.055C94.1052 100.718 94.2314 100.245 94.4777 99.9989Z" fill="url(#paint2_linear_3652_1008)"/>
<path d="M94.4777 99.9989L102.854 91.6222C102.946 91.5311 103.044 91.4811 103.136 91.477L103.227 91.489L109.02 93.2725C109.369 93.3798 109.773 93.2342 110.137 92.8694L140.225 62.7818C140.471 62.5357 140.744 62.6097 140.834 62.946L151.691 103.467C151.782 103.805 151.654 104.281 151.406 104.526L107.338 148.012C107.092 148.254 106.822 148.178 106.733 147.844L94.1954 101.055C94.1052 100.718 94.2314 100.245 94.4777 99.9989Z" fill="url(#paint3_linear_3652_1008)"/>
<path d="M94.4777 99.9989L102.854 91.6222C102.946 91.5311 103.044 91.4811 103.136 91.477L103.227 91.489L109.02 93.2725C109.369 93.3798 109.773 93.2342 110.137 92.8694L140.225 62.7818C140.471 62.5357 140.744 62.6097 140.834 62.946L151.691 103.467C151.782 103.805 151.654 104.281 151.406 104.526L107.338 148.012C107.092 148.254 106.822 148.178 106.733 147.844L94.1954 101.055C94.1052 100.718 94.2314 100.245 94.4777 99.9989Z" stroke="#AAAAAA" stroke-width="1.26154" stroke-linejoin="round"/>
<path d="M101.05 106.5C101.454 106.095 101.662 105.32 101.514 104.768C101.366 104.215 100.918 104.096 100.514 104.5C100.11 104.904 99.9022 105.679 100.05 106.232C100.198 106.784 100.646 106.904 101.05 106.5Z" fill="white"/>
<path d="M103.734 103.816C104.138 103.411 104.346 102.636 104.198 102.084C104.05 101.532 103.602 101.412 103.198 101.816C102.794 102.22 102.586 102.995 102.734 103.548C102.882 104.1 103.329 104.22 103.734 103.816Z" fill="white"/>
<path d="M106.417 101.132C106.822 100.728 107.029 99.9522 106.881 99.4C106.733 98.8477 106.286 98.7278 105.881 99.132C105.477 99.5363 105.269 100.312 105.417 100.864C105.565 101.416 106.013 101.536 106.417 101.132Z" fill="white"/>
<path d="M56.7558 92.4879C57.5752 94.1857 59.673 94.7931 61.267 93.8341L61.4192 93.736L62.308 93.1301L61.7041 94.0178C60.642 95.5762 61.1633 97.6962 62.7914 98.5954L62.9529 98.6786L63.9195 99.1446L62.8471 99.0651C60.9665 98.9267 59.39 100.436 59.424 102.295L59.4323 102.477L59.5116 103.55L59.0436 102.581C58.2241 100.883 56.1266 100.275 54.5326 101.236L54.3803 101.334L53.491 101.938L54.0964 101.052C55.1585 99.4932 54.6365 97.3735 53.0081 96.4744L52.8476 96.3909L51.88 95.9253L52.9524 96.0047C54.8332 96.1432 56.4105 94.6333 56.3762 92.7734L56.367 92.592L56.2874 91.5175L56.7558 92.4879Z" fill="#1C1C1C" stroke="#AAAAAA" stroke-width="1.26154" stroke-linejoin="round"/>
<path d="M49.8394 86.9691L50.413 88.1574C50.6166 88.5793 51.1481 88.7216 51.5361 88.4578L52.6282 87.7148L51.8844 88.8057C51.6205 89.193 51.7628 89.7241 52.185 89.9276L53.3747 90.5006L52.0573 90.4031C51.5895 90.3687 51.2003 90.7574 51.2349 91.2245L51.3323 92.5405L50.7587 91.3521C50.5551 90.9303 50.0235 90.7879 49.6357 91.0519L48.5435 91.7951L49.2874 90.704C49.5513 90.3167 49.409 89.7856 48.9868 89.5822L47.7971 89.0093L49.1145 89.1067C49.5823 89.1411 49.9716 88.7523 49.9369 88.285L49.8394 86.9691Z" fill="#AAAAAA"/>
<path d="M46.5875 97.1576L47.1611 98.3459C47.3647 98.7677 47.8963 98.9101 48.2841 98.6463L49.3764 97.9033L48.6325 98.9943C48.3686 99.3815 48.5109 99.9127 48.9331 100.116L50.1228 100.689L48.8054 100.592C48.3376 100.557 47.9483 100.946 47.9829 101.413L48.0803 102.729L47.5068 101.541C47.3032 101.119 46.7716 100.976 46.3838 101.24L45.2916 101.984L46.0355 100.893C46.2994 100.505 46.157 99.9741 45.7349 99.7707L44.5451 99.1978L45.8626 99.2952C46.3304 99.3297 46.7196 98.9409 46.6849 98.4735L46.5875 97.1576Z" fill="#AAAAAA"/>
<path d="M147.464 87.0894C148.283 88.7872 150.381 89.3946 151.975 88.4355L152.127 88.3374L153.015 87.7317L152.412 88.6193C151.349 90.1779 151.871 92.2984 153.499 93.1974L153.661 93.2804L154.627 93.7464L153.555 93.6667C151.675 93.5285 150.098 95.0372 150.132 96.8969L150.14 97.0786L150.22 98.1521L149.751 97.1828C148.932 95.4847 146.835 94.8766 145.241 95.837L145.089 95.9354L144.199 96.5395L144.804 95.6536C145.866 94.0944 145.344 91.975 143.716 91.076L143.555 90.9925L142.588 90.5268L143.661 90.6061C145.541 90.7446 147.119 89.2348 147.084 87.3749L147.075 87.1936L146.996 86.1189L147.464 87.0894Z" fill="#1C1C1C" stroke="#AAAAAA" stroke-width="1.26154" stroke-linejoin="round"/>
<path d="M150.411 80.7971L150.984 81.9856C151.187 82.4076 151.72 82.5497 152.107 82.2861L153.199 81.5431L152.455 82.6341C152.192 83.0212 152.334 83.5523 152.756 83.756L153.945 84.3289L152.628 84.2313C152.161 84.1968 151.771 84.5858 151.806 85.0528L151.904 86.3686L151.33 85.1804C151.126 84.7585 150.595 84.616 150.207 84.8802L149.115 85.6232L149.859 84.5323C150.123 84.1449 149.98 83.6138 149.558 83.4104L148.368 82.8374L149.685 82.935C150.154 82.9693 150.543 82.5806 150.508 82.1132L150.411 80.7971Z" fill="#AAAAAA"/>
<path d="M156.536 87.2662L157.11 88.4544C157.313 88.8763 157.845 89.0188 158.233 88.7548L159.325 88.0119L158.581 89.1029C158.317 89.4902 158.459 90.0214 158.882 90.2248L160.071 90.7979L158.754 90.7002C158.286 90.6658 157.897 91.0541 157.932 91.5214L158.029 92.8374L157.456 91.649C157.252 91.2268 156.72 91.0853 156.333 91.3492L155.241 92.0923L155.985 91.0011C156.249 90.6137 156.106 90.0825 155.684 89.8792L154.494 89.3062L155.811 89.4037C156.279 89.4384 156.669 89.0494 156.634 88.582L156.536 87.2662Z" fill="#AAAAAA"/>
</g>
<defs>
<filter id="filter0_f_3652_1008" x="74.5002" y="87.0728" width="78.7994" height="62.6003" filterUnits="userSpaceOnUse" color-interpolation-filters="sRGB">
<feFlood flood-opacity="0" result="BackgroundImageFix"/>
<feBlend mode="normal" in="SourceGraphic" in2="BackgroundImageFix" result="shape"/>
<feGaussianBlur stdDeviation="0.630769" result="effect1_foregroundBlur_3652_1008"/>
</filter>
<filter id="filter1_f_3652_1008" x="10.4699" y="72.9677" width="111.81" height="71.6596" filterUnits="userSpaceOnUse" color-interpolation-filters="sRGB">
<feFlood flood-opacity="0" result="BackgroundImageFix"/>
<feBlend mode="normal" in="SourceGraphic" in2="BackgroundImageFix" result="shape"/>
<feGaussianBlur stdDeviation="0.630769" result="effect1_foregroundBlur_3652_1008"/>
</filter>
<linearGradient id="paint0_linear_3652_1008" x1="88.2874" y1="119.862" x2="128.636" y2="139.792" gradientUnits="userSpaceOnUse">
<stop offset="0.107334" stop-color="#1C1C1C" stop-opacity="0"/>
<stop offset="0.368938" stop-color="white" stop-opacity="0.15"/>
<stop offset="1" stop-color="white" stop-opacity="0.5"/>
</linearGradient>
<linearGradient id="paint1_linear_3652_1008" x1="44.7201" y1="100.473" x2="93.8251" y2="127.743" gradientUnits="userSpaceOnUse">
<stop offset="0.107334" stop-color="#1C1C1C" stop-opacity="0"/>
<stop offset="0.545039" stop-color="white" stop-opacity="0.15"/>
<stop offset="1" stop-color="white" stop-opacity="0.5"/>
</linearGradient>
<linearGradient id="paint2_linear_3652_1008" x1="116.287" y1="77.418" x2="147.792" y2="108.924" gradientUnits="userSpaceOnUse">
<stop stop-color="#5349C1"/>
<stop offset="1" stop-color="#977FED"/>
</linearGradient>
<linearGradient id="paint3_linear_3652_1008" x1="97.2626" y1="112.501" x2="150.304" y2="98.2889" gradientUnits="userSpaceOnUse">
<stop stop-color="#6D08E8"/>
<stop offset="1" stop-color="#CB63FE"/>
</linearGradient>
</defs>
</svg>
