<svg width="200" height="200" viewBox="0 0 200 200" fill="none" xmlns="http://www.w3.org/2000/svg">
<mask id="mask0_1272_92124" style="mask-type:luminance" maskUnits="userSpaceOnUse" x="0" y="0" width="200" height="200">
<path d="M200 0H0V200H200V0Z" fill="white"/>
</mask>
<g mask="url(#mask0_1272_92124)">
<g filter="url(#filter0_f_1272_92124)">
<path d="M131.348 98.3983L54.4147 136.153L0.632812 107.116L82.9178 62.1484L131.348 98.3983Z" fill="url(#paint0_linear_1272_92124)"/>
</g>
<path d="M152.114 78.3836C152.482 78.1715 152.779 78.3445 152.779 78.7692V132.416L99.9715 162.906C99.6037 163.117 99.3048 162.945 99.3047 162.521V108.874L152.114 78.3836Z" fill="white" stroke="black" stroke-width="1.2" stroke-linejoin="round"/>
<path d="M99.0888 108.175L48.1824 78.7842C47.8146 78.5719 47.5156 78.7445 47.5156 79.1692V131.593C47.5158 131.962 47.7415 132.402 48.0425 132.65L48.177 132.743L99.0833 162.623L99.219 162.685C99.5243 162.793 99.7556 162.615 99.7556 162.241V109.33C99.7556 108.959 99.5268 108.516 99.2232 108.269L99.0888 108.175Z" fill="#D9D9D9"/>
<path d="M99.0888 108.175L48.1824 78.7842C47.8146 78.5719 47.5156 78.7445 47.5156 79.1692V131.593C47.5158 131.962 47.7415 132.402 48.0425 132.65L48.177 132.743L99.0833 162.623L99.219 162.685C99.5243 162.793 99.7556 162.615 99.7556 162.241V109.33C99.7556 108.959 99.5268 108.516 99.2232 108.269L99.0888 108.175Z" stroke="black" stroke-width="1.2" stroke-linejoin="round"/>
<path d="M152.36 77.7409L100.979 48.076C100.611 47.8636 100.014 47.8636 99.6463 48.076L47.5334 78.1635C47.1655 78.3759 47.1655 78.7203 47.5334 78.9327L98.9144 108.598C99.2823 108.81 99.8789 108.81 100.247 108.598L152.36 78.5101C152.728 78.2977 152.728 77.9533 152.36 77.7409Z" fill="white" stroke="black" stroke-width="1.2" stroke-linejoin="round"/>
<path d="M101.65 38.9515L155.034 69.7731V81.4353C155.034 81.7257 154.833 82.004 154.477 82.2083L99.5766 113.6L45.4151 82.511C45.0594 82.3069 44.8594 82.0292 44.8594 81.7395V70.201L98.9853 38.9515C99.721 38.5266 100.914 38.5266 101.65 38.9515Z" fill="url(#paint1_linear_1272_92124)"/>
<path d="M155.034 69.7731L101.65 38.9515C100.914 38.5266 99.721 38.5266 98.9853 38.9515L44.8594 70.201M155.034 69.7731V81.4353C155.034 81.7257 154.833 82.004 154.477 82.2083L99.5766 113.6M155.034 69.7731L99.5766 100.708M44.8594 70.201V81.7395C44.8594 82.0292 45.0594 82.3069 45.4151 82.511L99.5766 113.6M44.8594 70.201L99.5766 100.708M99.5766 113.6V100.708" stroke="black" stroke-width="1.2" stroke-linejoin="round"/>
<path d="M133.99 81.7854L133.909 92.8475L133.245 93.8791L132.347 95.2726C132.197 95.5051 132.112 95.7698 132.112 95.9962L132.11 144.465L121.682 150.487L121.667 102.164L122.309 101.21L123.208 99.8774C123.372 99.6332 123.465 99.349 123.462 99.11L123.247 87.4732C123.245 87.3259 123.205 87.2051 123.133 87.1245L123.053 87.0576L69.2812 56.0918L79.0754 50.4258L133.99 81.7854Z" fill="black" stroke="black" stroke-width="1.2" stroke-linejoin="round"/>
<path d="M105.602 66.4733C107.262 67.4322 106.075 69.6708 106.022 69.7652C106.008 69.7902 105.985 69.813 105.952 69.8316C105.92 69.8503 105.88 69.8642 105.838 69.872C105.674 69.9021 101.797 70.5881 100.135 69.6292C99.7458 69.4036 99.5314 69.0956 99.5393 68.7726C99.5471 68.4495 99.7765 68.138 100.177 67.9062C100.681 67.6152 101.333 67.4821 101.964 67.529C101.883 67.1645 102.114 66.7883 102.617 66.4972C103.019 66.266 103.559 66.1335 104.118 66.129C104.678 66.1244 105.211 66.2483 105.602 66.4733Z" fill="white"/>
<path d="M75.5747 70.0744C71.4684 72.5345 71.1992 77.7627 73.861 81.411L74.2181 81.8699C76.0825 84.123 79.1286 85.704 83.1523 85.655C87.4279 85.6031 92.7616 83.716 98.9866 78.9531C99.2377 78.7609 99.3459 78.4346 99.2591 78.1306L97.6396 72.476C97.5663 72.2201 97.3652 72.0196 97.1091 71.9472C96.8532 71.8749 96.5779 71.9396 96.3815 72.1189L96.3797 72.1209C96.378 72.1224 96.375 72.1248 96.3715 72.128C96.3645 72.1344 96.3531 72.144 96.3384 72.1572C96.3092 72.1835 96.2654 72.2237 96.2072 72.2755C96.0909 72.3789 95.9188 72.5313 95.6963 72.7228C95.2513 73.1059 94.6061 73.6474 93.8128 74.2781C92.2237 75.5412 90.0464 77.1527 87.6814 78.563C85.3064 79.9792 82.7919 81.1616 80.5191 81.6117C78.3132 82.0485 76.4705 81.7739 75.1421 80.5214C75.1128 80.3992 75.1238 80.2759 75.1778 80.1331C75.2595 79.9177 75.45 79.6403 75.8132 79.309C76.5443 78.6421 77.7964 77.9163 79.5304 77.1586C82.9779 75.6519 88.0727 74.125 93.9678 72.6603C94.0678 72.6354 94.161 72.59 94.2429 72.5286L94.3215 72.4617L98.701 68.151C98.9128 67.9424 98.986 67.6307 98.8882 67.35C98.7904 67.0692 98.5393 66.8698 98.2438 66.838L98.2398 66.8382C98.2378 66.8381 98.2347 66.8377 98.2311 66.8373C98.2236 66.8365 98.2127 66.8346 98.1986 66.8332C98.17 66.8303 98.1281 66.8267 98.0737 66.8215C97.9648 66.8112 97.8051 66.7969 97.6002 66.7801C97.1907 66.7465 96.5992 66.7032 95.8665 66.666C94.4018 66.5918 92.3679 66.5401 90.0902 66.6287C85.7114 66.799 80.3015 67.4921 76.333 69.6485L75.5747 70.0744Z" fill="black" stroke="black" stroke-width="1.2" stroke-linejoin="round"/>
<path d="M95.2709 70.0474L100.492 68.3895L101.286 68.1367L101.473 68.9489L101.475 68.9509C101.475 68.9522 101.475 68.9541 101.476 68.9566C101.477 68.9617 101.478 68.9702 101.481 68.9807C101.486 69.0018 101.494 69.0334 101.504 69.0752C101.523 69.1593 101.552 69.285 101.591 69.448C101.668 69.7738 101.783 70.2512 101.931 70.8558C102.227 72.0652 102.658 73.7836 103.195 75.8177C104.269 79.8884 105.768 85.2152 107.468 90.2545L107.991 91.8025L106.464 91.2193L101.683 89.3908L100.228 91.9863L99.3249 93.5962L98.8177 91.8218L98.8173 91.8192C98.8168 91.8174 98.8153 91.8142 98.8143 91.8106C98.8122 91.8035 98.8098 91.793 98.806 91.7795C98.7982 91.7521 98.7866 91.7112 98.7716 91.658C98.7417 91.5516 98.6977 91.3949 98.6419 91.1938C98.5305 90.7912 98.3718 90.2095 98.1813 89.4909C97.8 88.0538 97.2913 86.0668 96.7825 83.87C95.7714 79.5041 94.7355 74.2156 94.7344 70.7807V70.2179L95.2709 70.0474Z" fill="black" stroke="black" stroke-width="1.2"/>
<path d="M104.249 44.2936C107.285 40.593 112.496 41.0942 115.714 44.2627L116.115 44.6833C118.071 46.8584 119.187 50.1035 118.549 54.0763C117.869 58.2981 115.219 63.297 109.595 68.7553C109.368 68.9754 109.028 69.0347 108.741 68.904L103.385 66.472C103.143 66.3618 102.974 66.1336 102.94 65.8695C102.906 65.6058 103.01 65.3431 103.216 65.1751L103.218 65.1749L103.219 65.1736C103.219 65.1736 103.223 65.1695 103.227 65.1666C103.234 65.1604 103.246 65.1506 103.261 65.1381C103.291 65.1131 103.337 65.0756 103.397 65.0257C103.516 64.9258 103.692 64.778 103.914 64.5859C104.359 64.202 104.989 63.6434 105.73 62.9512C107.212 61.5648 109.126 59.6476 110.868 57.5153C112.618 55.374 114.156 53.0602 114.935 50.8781C115.691 48.7603 115.69 46.8972 114.646 45.3994C114.53 45.3525 114.406 45.3452 114.256 45.3777C114.032 45.4268 113.73 45.5745 113.349 45.8852C112.581 46.5106 111.68 47.6425 110.676 49.2463C108.928 52.0367 106.982 56.0717 104.972 60.799L104.106 62.8671C104.054 62.9942 103.968 63.1049 103.858 63.1877L98.9512 66.887C98.7139 67.0659 98.3946 67.0925 98.1313 66.9545C97.868 66.8166 97.7074 66.539 97.7194 66.242L97.7192 66.2407L97.7203 66.2381C97.7203 66.2381 97.7205 66.233 97.7207 66.2293C97.721 66.2217 97.7207 66.2107 97.7213 66.1966C97.7227 66.1679 97.7253 66.1258 97.7282 66.0713C97.7339 65.9621 97.7433 65.802 97.7568 65.597C97.7836 65.187 97.8276 64.5954 97.8983 63.8652C98.04 62.4054 98.2875 60.3859 98.7094 58.1461C99.5207 53.8395 101 48.59 103.716 44.9812L104.249 44.2936Z" fill="black" stroke="black" stroke-width="1.2" stroke-linejoin="round"/>
<path d="M104.105 65.0313L103.741 69.575L103.672 70.4306L104.53 70.4052L104.532 70.4063L104.566 70.4044C104.59 70.4037 104.627 70.4035 104.675 70.4023C104.77 70.3999 104.913 70.3958 105.098 70.3919C105.468 70.3841 106.01 70.3747 106.694 70.3668C108.062 70.3508 109.998 70.3422 112.264 70.3717C116.8 70.4306 122.645 70.6424 127.914 71.2488L130.818 71.5823L128.455 69.862L124.586 67.0449L126.598 65.2742L127.982 64.054L126.141 63.9294L126.14 63.9288L126.139 63.9295C126.136 63.9294 126.134 63.9286 126.13 63.9283C126.122 63.9278 126.112 63.9277 126.098 63.9268C126.068 63.9249 126.026 63.9221 125.971 63.9186C125.86 63.9115 125.699 63.9013 125.49 63.889C125.073 63.8644 124.471 63.8308 123.728 63.7949C122.244 63.7228 120.194 63.6413 117.94 63.6035C113.459 63.5285 108.071 63.6224 104.711 64.3401L104.151 64.4606L104.105 65.0313Z" fill="black" stroke="black" stroke-width="1.2"/>
<path d="M93.722 60.5087L94.0143 60.3094C95.5102 59.334 97.504 58.6674 99.6181 58.4467L100.041 58.4087C102.15 58.2496 104.19 58.5511 105.758 59.2639L105.759 59.2644L106.076 59.4175C109.285 61.0438 109.918 63.9926 109.815 66.4475C109.708 69.0087 108.783 71.2464 108.687 71.4662L108.69 71.4661C108.613 71.6489 108.462 71.8231 108.251 71.9729C108.042 72.1217 107.78 72.2425 107.486 72.3257L107.487 72.3263C107.163 72.419 103.522 73.4316 99.1422 74.0582C94.8304 74.6749 89.4462 74.9702 85.9613 73.3817L85.6552 73.2338C84.1712 72.4724 83.2983 71.3724 83.2103 70.1471L83.2031 69.9019C83.2198 68.6742 84.0172 67.431 85.4416 66.4133L85.8035 66.1671C87.3668 65.154 89.3366 64.4939 91.3835 64.2829C91.287 63.0046 92.1066 61.6606 93.722 60.5087Z" fill="white" stroke="black" stroke-width="1.2" stroke-linejoin="round"/>
<path d="M102.342 63.3016C105.816 64.8852 103.888 69.5465 103.802 69.7434C103.78 69.7955 103.737 69.8453 103.677 69.8884C103.616 69.9315 103.54 69.9665 103.456 69.9902C103.138 70.0811 95.5873 72.1788 92.1136 70.5952C91.2987 70.2228 90.8153 69.6534 90.7692 69.012C90.7232 68.3706 91.1183 67.7094 91.868 67.1738C92.8109 66.5015 94.0771 66.1137 95.3365 66.0862C95.1063 65.3797 95.4913 64.5901 96.4341 63.9178C97.1857 63.3829 98.2298 63.0178 99.3372 62.9023C100.445 62.7867 101.525 62.9303 102.342 63.3016Z" fill="black"/>
<path d="M45.7035 66.7401C46.1328 68.9987 48.4122 70.3764 50.5926 69.7499L50.8028 69.6823L52.041 69.2491L51.0495 70.1042C49.3065 71.6047 49.2514 74.2665 50.8855 75.8396L51.0495 75.9886L52.041 76.8424L50.8028 76.4105C48.6313 75.6538 46.2978 76.9341 45.751 79.1349L45.7035 79.3515L45.4581 80.641L45.2127 79.3515C44.7833 77.0928 42.5044 75.7147 40.3236 76.3429L40.1132 76.4105L38.875 76.8413L39.8678 75.9886C41.6109 74.4879 41.665 71.8263 40.0306 70.2532L39.8678 70.1042L38.875 69.2504L40.1132 69.6823C42.285 70.4391 44.6196 69.1584 45.1663 66.9567L45.2127 66.7401L45.4581 65.4492L45.7035 66.7401Z" fill="white" stroke="black" stroke-width="1.2" stroke-linejoin="round"/>
<path d="M39.2841 58.0566L39.5848 59.6375C39.6914 60.1987 40.2727 60.5342 40.8128 60.346L42.3339 59.8154L41.1133 60.8657C40.6803 61.2387 40.6803 61.9092 41.1133 62.2822L42.3339 63.3324L40.8128 62.8019C40.2727 62.6137 39.6914 62.9487 39.5848 63.51L39.2841 65.0909L38.9836 63.51C38.8769 62.9487 38.2957 62.6133 37.7555 62.8019L36.2344 63.3324L37.455 62.2822C37.8881 61.9092 37.8881 61.2387 37.455 60.8657L36.2344 59.8154L37.7555 60.346C38.2957 60.5342 38.8769 60.1991 38.9836 59.6375L39.2841 58.0566Z" fill="black"/>
<path d="M32.2451 69.0312L32.5456 70.6121C32.6522 71.1733 33.2335 71.5088 33.7736 71.3205L35.2948 70.79L34.0743 71.8402C33.6411 72.2132 33.6411 72.8838 34.0743 73.2566L35.2948 74.307L33.7736 73.7764C33.2335 73.5882 32.6522 73.9233 32.5456 74.4845L32.2451 76.0654L31.9445 74.4845C31.8379 73.9233 31.2566 73.5878 30.7163 73.7764L29.1953 74.307L30.4158 73.2566C30.849 72.8838 30.849 72.2132 30.4158 71.8402L29.1953 70.79L30.7163 71.3205C31.2566 71.5088 31.8379 71.1737 31.9445 70.6121L32.2451 69.0312Z" fill="black"/>
<path d="M152.906 110.205C153.336 112.464 155.615 113.841 157.796 113.215L158.006 113.147L159.245 112.714L158.252 113.569C156.51 115.069 156.455 117.732 158.088 119.305L158.252 119.454L159.245 120.308L158.006 119.876C155.835 119.119 153.501 120.399 152.954 122.6L152.906 122.817L152.661 124.106L152.417 122.817C151.987 120.558 149.708 119.179 147.527 119.808L147.317 119.876L146.078 120.306L147.072 119.454C148.814 117.953 148.868 115.291 147.235 113.718L147.072 113.569L146.078 112.715L147.317 113.147C149.488 113.904 151.823 112.623 152.369 110.422L152.417 110.205L152.661 108.914L152.906 110.205Z" fill="white" stroke="black" stroke-width="1.2" stroke-linejoin="round"/>
<path d="M158.237 103.16L158.538 104.741C158.644 105.303 159.226 105.637 159.766 105.449L161.287 104.919L160.067 105.97C159.634 106.343 159.634 107.013 160.067 107.386L161.287 108.436L159.766 107.905C159.226 107.717 158.644 108.053 158.538 108.613L158.237 110.194L157.936 108.613C157.83 108.053 157.249 107.717 156.708 107.905L155.188 108.436L156.408 107.386C156.841 107.013 156.841 106.343 156.408 105.97L155.188 104.919L156.708 105.449C157.249 105.637 157.83 105.303 157.936 104.741L158.237 103.16Z" fill="black"/>
<path d="M164.222 112.994L164.522 114.575C164.628 115.136 165.21 115.471 165.75 115.284L167.271 114.753L166.05 115.803C165.617 116.176 165.617 116.847 166.05 117.22L167.271 118.27L165.75 117.739C165.21 117.551 164.628 117.886 164.522 118.448L164.222 120.029L163.921 118.448C163.814 117.886 163.233 117.551 162.692 117.739L161.172 118.27L162.392 117.22C162.826 116.847 162.826 116.176 162.392 115.803L161.172 114.753L162.692 115.284C163.233 115.471 163.814 115.136 163.921 114.575L164.222 112.994Z" fill="black"/>
</g>
<defs>
<filter id="filter0_f_1272_92124" x="-0.567188" y="60.9484" width="133.111" height="76.4039" filterUnits="userSpaceOnUse" color-interpolation-filters="sRGB">
<feFlood flood-opacity="0" result="BackgroundImageFix"/>
<feBlend mode="normal" in="SourceGraphic" in2="BackgroundImageFix" result="shape"/>
<feGaussianBlur stdDeviation="0.6" result="effect1_foregroundBlur_1272_92124"/>
</filter>
<linearGradient id="paint0_linear_1272_92124" x1="31.3204" y1="79.5965" x2="96.7283" y2="108.198" gradientUnits="userSpaceOnUse">
<stop stop-color="white" stop-opacity="0"/>
<stop offset="1"/>
</linearGradient>
<linearGradient id="paint1_linear_1272_92124" x1="132.923" y1="57.0066" x2="100.001" y2="114.028" gradientUnits="userSpaceOnUse">
<stop stop-color="#5349C1"/>
<stop offset="1" stop-color="#977FED"/>
</linearGradient>
</defs>
</svg>
