<svg width="30" height="17" viewBox="0 0 30 17" fill="none" xmlns="http://www.w3.org/2000/svg">
<rect x="0.291341" y="0.292318" width="28.5833" height="15.8499" rx="2.04167" stroke="#292929" stroke-width="0.583333"/>
<g clip-path="url(#clip0_1564_91281)">
<path d="M19.0932 6.28858C19.6705 6.28858 20.1166 6.44226 20.4577 6.74963C20.7988 7.05696 20.9562 7.46678 20.9562 7.97904V10.4378H20.2215V9.87442H20.1953C19.8804 10.3355 19.4343 10.566 18.9095 10.566C18.4634 10.566 18.0698 10.4379 17.755 10.1818C17.4663 9.92567 17.2826 9.56709 17.2826 9.1829C17.2826 8.77307 17.4401 8.44009 17.755 8.18396C18.0698 7.92783 18.5159 7.82539 19.0407 7.82539C19.513 7.82539 19.8804 7.90225 20.169 8.08152V7.90225C20.169 7.66318 20.0776 7.42414 19.8947 7.26838L19.8541 7.23631C19.6442 7.057 19.3818 6.95456 19.0932 6.95456C18.6471 6.95456 18.306 7.13385 18.0698 7.49244L17.3876 7.08255C17.8074 6.54467 18.3585 6.28858 19.0932 6.28858ZM15.3934 4.54688C15.8642 4.54688 16.3117 4.70681 16.6694 5.00505L16.7316 5.05909C17.099 5.36646 17.2826 5.82752 17.2826 6.31416C17.2826 6.8008 17.099 7.23623 16.7316 7.56918C16.3643 7.90213 15.9182 8.08144 15.3934 8.08144L14.1339 8.05582V10.4378H13.3467V4.54688H15.3934ZM19.1981 8.44005C18.8833 8.44005 18.6209 8.51689 18.411 8.67056C18.201 8.79861 18.0961 8.97789 18.0961 9.2084C18.0961 9.41333 18.2011 9.59259 18.3585 9.69508C18.5422 9.82314 18.7521 9.89997 18.962 9.89997C19.2559 9.89997 19.5498 9.78839 19.7796 9.58611L19.8279 9.54139C20.0903 9.31088 20.2215 9.02913 20.2215 8.72176C19.9854 8.5425 19.6442 8.44001 19.1982 8.44001M15.4459 5.26398H14.134V7.31313H15.4459C15.7345 7.31313 16.0232 7.21069 16.2069 7.0058C16.6267 6.62161 16.6267 5.98129 16.2331 5.59705L16.2069 5.57143C15.9969 5.36654 15.7345 5.23848 15.4459 5.2641M25.2071 6.41664L22.6093 12.2308H21.8221L22.793 10.2074L21.0874 6.44226H21.9271L23.1603 9.3365H23.1866L24.3936 6.44226H25.2071V6.41664Z" fill="#292929"/>
<path d="M11.0111 7.54504C11.0111 7.31453 10.9848 7.08402 10.9586 6.85352H7.67871V8.15978H9.5417C9.463 8.56956 9.22685 8.95375 8.8595 9.1843V10.0295H9.98779C10.6438 9.44043 11.0111 8.56956 11.0111 7.54508" fill="#4285F4"/>
<path d="M7.67928 10.8461C8.62388 10.8461 9.41107 10.5387 9.98836 10.0264L8.86007 9.18123C8.54518 9.38611 8.15158 9.51418 7.67928 9.51418C6.7871 9.51418 5.9999 8.9251 5.73751 8.10547H4.58301V8.9763C5.18651 10.1289 6.36729 10.8461 7.67928 10.8461Z" fill="#34A853"/>
<path d="M5.73645 8.10678C5.57904 7.69697 5.57904 7.23595 5.73645 6.80052V5.92969H4.58195C4.08336 6.87738 4.08336 8.00434 4.58195 8.97762L5.73645 8.10678Z" fill="#FBBC04"/>
<path d="M7.67847 5.41725C8.17701 5.41725 8.64931 5.59655 9.0167 5.9295L10.0138 4.95623C9.38401 4.39273 8.54436 4.05978 7.70467 4.08536C6.39268 4.08536 5.18569 4.80254 4.6084 5.95513L5.76294 6.82596C5.99909 6.00633 6.78628 5.41725 7.67847 5.41725Z" fill="#EA4335"/>
</g>
<defs>
<clipPath id="clip0_1564_91281">
<rect width="20.7492" height="8.2666" fill="white" transform="translate(4.20801 4.08398)"/>
</clipPath>
</defs>
</svg>
