<svg width="70" height="47" viewBox="0 0 70 47" fill="none" xmlns="http://www.w3.org/2000/svg">
<g filter="url(#filter0_f_1270_125487)">
<path d="M53.6853 14.6266L12.6886 35.9391L-0.1875 27.355L36.8776 1.2002L53.6853 14.6266Z" fill="url(#paint0_linear_1270_125487)"/>
</g>
<path d="M11.7656 32.1006L27.9195 41.3314V44.5626L11.7656 35.3318V32.1006Z" fill="black" stroke="black" stroke-width="0.5" stroke-linejoin="round"/>
<path d="M58.2332 23.7363L27.9453 41.3323V44.5636L58.2332 26.9679V23.7363Z" fill="white" stroke="black" stroke-width="0.5" stroke-linejoin="bevel"/>
<path d="M11.7656 31.9781L42.0537 14.0938L58.2075 23.613L27.9189 41.2094L11.7656 31.9781Z" fill="#D9D9D9"/>
<path d="M11.7656 31.9781L42.0537 14.0938L58.2075 23.613L27.9189 41.2094L11.7656 31.9781Z" stroke="black" stroke-width="0.5" stroke-linejoin="round"/>
<mask id="mask0_1270_125487" style="mask-type:luminance" maskUnits="userSpaceOnUse" x="19" y="12" width="12" height="13">
<path d="M30.537 12.7432H19.1641V24.1161H30.537V12.7432Z" fill="white"/>
</mask>
<g mask="url(#mask0_1270_125487)">
<path d="M29.5416 19.2761C29.5416 20.6094 27.6142 21.8467 24.9422 21.8467C22.2701 21.8467 20.1041 20.6094 20.1041 19.2761C19.9177 16.4819 22.2702 15.5605 24.9423 15.5605C27.6143 15.5605 29.7259 16.2362 29.5416 19.2761Z" fill="#D9D9D9"/>
<path d="M24.8546 19.4963C27.4063 19.4963 29.4749 18.5416 29.4749 17.3639C29.4749 16.1862 27.4063 15.2314 24.8546 15.2314C22.3029 15.2314 20.2344 16.1862 20.2344 17.3639C20.2344 18.5416 22.3029 19.4963 24.8546 19.4963Z" stroke="black" stroke-width="0.5" stroke-linecap="round" stroke-linejoin="round"/>
<path d="M24.8203 19.4951V21.6276" stroke="black" stroke-width="0.5" stroke-linecap="round" stroke-linejoin="round"/>
<path d="M20.2344 17.3633V19.4957C20.2344 20.5619 22.0114 21.6281 24.8546 21.6281C27.6979 21.6281 29.4749 20.5619 29.4749 19.4957V17.3633" stroke="black" stroke-width="0.5" stroke-linecap="round" stroke-linejoin="round"/>
<path d="M27.6719 19.0557V21.1881" stroke="black" stroke-width="0.5" stroke-linecap="round" stroke-linejoin="round"/>
<path d="M22.0078 19.0557V21.1881" stroke="black" stroke-width="0.5" stroke-linecap="round" stroke-linejoin="round"/>
<path d="M24.8546 19.3378C27.4063 19.3378 29.4749 18.4538 29.4749 17.3632C29.4749 16.2727 27.4063 15.3887 24.8546 15.3887C22.3029 15.3887 20.2344 16.2727 20.2344 17.3632C20.2344 18.4538 22.3029 19.3378 24.8546 19.3378Z" fill="white"/>
</g>
<mask id="mask1_1270_125487" style="mask-type:luminance" maskUnits="userSpaceOnUse" x="19" y="10" width="12" height="12">
<path d="M30.537 10.6025H19.1641V21.9755H30.537V10.6025Z" fill="white"/>
</mask>
<g mask="url(#mask1_1270_125487)">
<path d="M24.8546 17.1962C27.4063 17.1962 29.4749 16.3122 29.4749 15.2216C29.4749 14.1311 27.4063 13.2471 24.8546 13.2471C22.3029 13.2471 20.2344 14.1311 20.2344 15.2216C20.2344 16.3122 22.3029 17.1962 24.8546 17.1962Z" fill="white"/>
<path d="M29.5416 16.9705C29.5416 18.3038 27.6142 19.5411 24.9422 19.5411C22.2701 19.5411 20.1041 18.3038 20.1041 16.9705C19.9177 14.1763 22.2702 13.2549 24.9423 13.2549C27.6143 13.2549 29.7259 13.9306 29.5416 16.9705Z" fill="url(#paint1_linear_1270_125487)"/>
<path d="M24.8546 17.3557C27.4063 17.3557 29.4749 16.401 29.4749 15.2232C29.4749 14.0455 27.4063 13.0908 24.8546 13.0908C22.3029 13.0908 20.2344 14.0455 20.2344 15.2232C20.2344 16.401 22.3029 17.3557 24.8546 17.3557Z" stroke="black" stroke-width="0.5" stroke-linecap="round" stroke-linejoin="round"/>
<path d="M24.8203 17.3535V19.486" stroke="black" stroke-width="0.5" stroke-linecap="round" stroke-linejoin="round"/>
<path d="M20.2344 15.2227V17.3551C20.2344 18.4213 22.0114 19.4875 24.8546 19.4875C27.6979 19.4875 29.4749 18.4213 29.4749 17.3551V15.2227" stroke="black" stroke-width="0.5" stroke-linecap="round" stroke-linejoin="round"/>
<path d="M27.6719 16.9141V19.0465" stroke="black" stroke-width="0.5" stroke-linecap="round" stroke-linejoin="round"/>
<path d="M21.2266 16.9141V18.4196" stroke="black" stroke-width="0.5" stroke-linecap="round" stroke-linejoin="round"/>
</g>
<mask id="mask2_1270_125487" style="mask-type:luminance" maskUnits="userSpaceOnUse" x="17" y="8" width="13" height="12">
<path d="M29.1074 8.45703H17.7344V19.83H29.1074V8.45703Z" fill="white"/>
</mask>
<g mask="url(#mask2_1270_125487)">
<path d="M28.1588 14.6599C28.1588 15.9933 26.2314 17.2305 23.5593 17.2305C20.8873 17.2305 18.7213 15.9933 18.7213 14.6599C18.5349 11.8657 20.8874 10.9443 23.5594 10.9443C26.2315 10.9443 28.343 11.62 28.1588 14.6599Z" fill="white"/>
<path d="M23.4249 15.2092C25.9767 15.2092 28.0452 14.2545 28.0452 13.0767C28.0452 11.899 25.9767 10.9443 23.4249 10.9443C20.8732 10.9443 18.8047 11.899 18.8047 13.0767C18.8047 14.2545 20.8732 15.2092 23.4249 15.2092Z" stroke="black" stroke-width="0.5" stroke-linecap="round" stroke-linejoin="round"/>
<path d="M24.0156 15.2129V17.2328" stroke="black" stroke-width="0.5" stroke-linecap="round" stroke-linejoin="round"/>
<path d="M18.8047 13.0811V15.2135C18.8047 16.2797 20.5817 17.3459 23.4249 17.3459C26.2682 17.3459 28.0452 16.2797 28.0452 15.2135V13.0811" stroke="black" stroke-width="0.5" stroke-linecap="round" stroke-linejoin="round"/>
<path d="M26.8594 14.7734V16.9059" stroke="black" stroke-width="0.5" stroke-linecap="round" stroke-linejoin="round"/>
<path d="M21.1562 14.7734V16.9059" stroke="black" stroke-width="0.5" stroke-linecap="round" stroke-linejoin="round"/>
</g>
<mask id="mask3_1270_125487" style="mask-type:luminance" maskUnits="userSpaceOnUse" x="19" y="6" width="12" height="12">
<path d="M30.537 6.31543H19.1641V17.6884H30.537V6.31543Z" fill="white"/>
</mask>
<g mask="url(#mask3_1270_125487)">
<path d="M24.8546 12.9091C27.4063 12.9091 29.4749 12.0251 29.4749 10.9345C29.4749 9.84401 27.4063 8.95996 24.8546 8.95996C22.3029 8.95996 20.2344 9.84401 20.2344 10.9345C20.2344 12.0251 22.3029 12.9091 24.8546 12.9091Z" fill="white"/>
<path d="M29.4244 12.5193C29.4244 13.8527 27.497 15.0899 24.825 15.0899C22.1529 15.0899 19.9869 13.8527 19.9869 12.5193C19.8005 9.7251 22.153 8.80371 24.8251 8.80371C27.4971 8.80371 29.6087 9.47938 29.4244 12.5193Z" fill="url(#paint2_linear_1270_125487)"/>
<path d="M24.8546 13.0686C27.4063 13.0686 29.4749 12.1139 29.4749 10.9361C29.4749 9.75842 27.4063 8.80371 24.8546 8.80371C22.3029 8.80371 20.2344 9.75842 20.2344 10.9361C20.2344 12.1139 22.3029 13.0686 24.8546 13.0686Z" stroke="black" stroke-width="0.5" stroke-linecap="round" stroke-linejoin="round"/>
<path d="M24.8203 13.0684V15.2008" stroke="black" stroke-width="0.5" stroke-linecap="round" stroke-linejoin="round"/>
<path d="M20.2344 10.9355V13.068C20.2344 14.1342 22.0114 15.2004 24.8546 15.2004C27.6979 15.2004 29.4749 14.1342 29.4749 13.068V10.9355" stroke="black" stroke-width="0.5" stroke-linecap="round" stroke-linejoin="round"/>
<path d="M27.6719 12.6289V14.7614" stroke="black" stroke-width="0.5" stroke-linecap="round" stroke-linejoin="round"/>
<path d="M22.0078 12.6289V14.7614" stroke="black" stroke-width="0.5" stroke-linecap="round" stroke-linejoin="round"/>
</g>
<path d="M16.9062 25.8809L33.0601 35.1116V38.3433L16.9062 29.1125V25.8809Z" fill="black" stroke="black" stroke-width="0.5" stroke-linejoin="bevel"/>
<path d="M63.3348 17.5166L33.0469 35.1125V38.3442L63.3348 20.748V17.5166Z" fill="white" stroke="black" stroke-width="0.5" stroke-linejoin="round"/>
<path d="M16.9141 25.7586L47.2021 7.87402L63.3559 17.3933L33.0674 34.9896L16.9141 25.7586Z" fill="#D9D9D9"/>
<path d="M16.9141 25.7586L47.2021 7.87402L63.3559 17.3933L33.0674 34.9896L16.9141 25.7586Z" stroke="black" stroke-width="0.5" stroke-linejoin="round"/>
<path d="M12.5234 25.0701L42.8115 7.18555L58.9653 16.7048L28.6768 34.3012L12.5234 25.0701Z" fill="url(#paint3_linear_1270_125487)"/>
<path d="M12.5234 25.0701L42.8115 7.18555L58.9653 16.7048L28.6768 34.3012L12.5234 25.0701Z" fill="url(#paint4_linear_1270_125487)" stroke="black" stroke-width="0.5" stroke-linejoin="round"/>
<path d="M31.7012 18.2497C30.8739 18.7272 30.3106 19.3357 30.0824 19.9981C29.8542 20.6605 29.9713 21.3472 30.419 21.9712C30.8667 22.5952 31.6248 23.1285 32.5975 23.5037C33.5701 23.8789 34.7137 24.0792 35.8835 24.0792C37.0533 24.0792 38.1968 23.8789 39.1695 23.5037C40.1423 23.1285 40.9005 22.5952 41.3481 21.9712C41.7957 21.3472 41.913 20.6605 41.6846 19.9981C41.4563 19.3357 40.8928 18.7272 40.0659 18.2497C38.9558 17.6102 37.4516 17.251 35.8835 17.251C34.3153 17.251 32.8112 17.6102 31.7012 18.2497ZM39.4226 22.7075C38.7225 23.1117 37.8307 23.3868 36.8599 23.4983C35.889 23.6098 34.8827 23.5526 33.9682 23.3339C33.0538 23.1152 32.2721 22.7448 31.7222 22.2697C31.1723 21.7945 30.8787 21.2358 30.8787 20.6643C30.8787 20.0929 31.1723 19.5342 31.7222 19.059C32.2721 18.5839 33.0538 18.2135 33.9682 17.9948C34.8827 17.7761 35.889 17.7189 36.8599 17.8304C37.8307 17.9418 38.7225 18.217 39.4226 18.6212C40.3596 19.1635 40.8861 19.8983 40.8861 20.6643C40.8861 21.4304 40.3596 22.1652 39.4226 22.7075ZM38.2964 20.2C38.595 20.3724 38.7627 20.6063 38.7627 20.8501C38.7627 21.0939 38.595 21.3278 38.2964 21.5002L38.1355 21.593L38.4572 21.7788C38.5426 21.8281 38.5905 21.8949 38.5905 21.9645C38.5905 22.0342 38.5426 22.101 38.4572 22.1503C38.3719 22.1995 38.2562 22.2272 38.1355 22.2272C38.0148 22.2272 37.8991 22.1995 37.8138 22.1503L37.4921 21.9645L36.8486 22.336C36.7633 22.3853 36.6476 22.413 36.5269 22.413C36.4063 22.413 36.2905 22.3853 36.2052 22.336C36.1199 22.2868 36.0719 22.22 36.0719 22.1503C36.0719 22.0806 36.1199 22.0138 36.2052 21.9645L37.6529 21.1287C37.7809 21.0548 37.8528 20.9546 37.8528 20.8501C37.8528 20.7456 37.7809 20.6454 37.6529 20.5715C37.525 20.4976 37.3513 20.4561 37.1703 20.4561C36.9893 20.4561 36.8158 20.4976 36.6878 20.5715L35.7226 21.1287C35.424 21.3011 35.0189 21.398 34.5966 21.398C34.1743 21.398 33.7692 21.3011 33.4706 21.1287C33.172 20.9563 33.0042 20.7224 33.0042 20.4786C33.0042 20.2348 33.172 20.0009 33.4706 19.8285L33.6314 19.7356L33.3097 19.5499C33.2244 19.5006 33.1765 19.4338 33.1765 19.3642C33.1765 19.2945 33.2244 19.2277 33.3097 19.1784C33.3951 19.1292 33.5108 19.1015 33.6314 19.1015C33.7521 19.1015 33.8678 19.1292 33.9532 19.1784L34.2749 19.3642L34.9183 18.9927C35.0037 18.9434 35.1194 18.9157 35.2401 18.9157C35.3607 18.9157 35.4764 18.9434 35.5617 18.9927C35.6471 19.0419 35.695 19.1087 35.695 19.1784C35.695 19.248 35.6471 19.3149 35.5617 19.3642L34.114 20.2C33.9861 20.2739 33.9141 20.3741 33.9141 20.4786C33.9141 20.5831 33.9861 20.6833 34.114 20.7572C34.242 20.8311 34.4156 20.8726 34.5966 20.8726C34.7776 20.8726 34.9512 20.8311 35.0792 20.7572L36.0443 20.2C36.343 20.0276 36.748 19.9307 37.1703 19.9307C37.5927 19.9307 37.9977 20.0276 38.2964 20.2Z" fill="black"/>
<path d="M12.5234 25.0693L28.6773 34.3003V37.5316L12.5234 28.3008V25.0693Z" fill="black" stroke="black" stroke-width="0.5" stroke-linejoin="round"/>
<path d="M58.9754 16.7051L28.6875 34.3009V37.5327L58.9754 19.9366V16.7051Z" fill="white" stroke="black" stroke-width="0.5" stroke-linejoin="bevel"/>
<mask id="mask4_1270_125487" style="mask-type:luminance" maskUnits="userSpaceOnUse" x="35" y="34" width="13" height="13">
<path d="M47.0683 34.9941H35.6953V46.3671H47.0683V34.9941Z" fill="white"/>
</mask>
<g mask="url(#mask4_1270_125487)">
<path d="M41.3859 41.5878C43.9376 41.5878 46.0062 40.7038 46.0062 39.6132C46.0062 38.5227 43.9376 37.6387 41.3859 37.6387C38.8342 37.6387 36.7656 38.5227 36.7656 39.6132C36.7656 40.7038 38.8342 41.5878 41.3859 41.5878Z" fill="white"/>
<path d="M46.1116 41.1978C46.1116 42.531 44.1842 43.7685 41.5126 43.7685C38.8404 43.7685 36.6744 42.531 36.6744 41.1978C36.488 38.4036 38.8405 37.4824 41.5126 37.4824C44.1847 37.4824 46.2963 38.1579 46.1116 41.1978Z" fill="white"/>
<path d="M41.3861 41.7473C43.9376 41.7473 46.0063 40.7925 46.0063 39.6146C46.0063 38.4372 43.9376 37.4824 41.3861 37.4824C38.8342 37.4824 36.7656 38.4372 36.7656 39.6146C36.7656 40.7925 38.8342 41.7473 41.3861 41.7473Z" stroke="black" stroke-width="0.5" stroke-linecap="round" stroke-linejoin="round"/>
<path d="M41.9688 41.7461V43.8783" stroke="black" stroke-width="0.5" stroke-linecap="round" stroke-linejoin="round"/>
<path d="M36.7656 39.6133V41.746C36.7656 42.8118 38.5426 43.8782 41.3861 43.8782C44.2289 43.8782 46.0063 42.8118 46.0063 41.746V39.6133" stroke="black" stroke-width="0.5" stroke-linecap="round" stroke-linejoin="round"/>
<path d="M44.7812 41.3066V43.0903" stroke="black" stroke-width="0.5" stroke-linecap="round" stroke-linejoin="round"/>
<path d="M39.125 41.7637V43.4372" stroke="black" stroke-width="0.5" stroke-linecap="round" stroke-linejoin="round"/>
</g>
<mask id="mask5_1270_125487" style="mask-type:luminance" maskUnits="userSpaceOnUse" x="37" y="31" width="12" height="12">
<path d="M48.6152 31.6143H37.2422V42.9872H48.6152V31.6143Z" fill="white"/>
</mask>
<g mask="url(#mask5_1270_125487)">
<path d="M42.8937 38.2089C45.4454 38.2089 47.514 37.3249 47.514 36.2343C47.514 35.1438 45.4454 34.2598 42.8937 34.2598C40.342 34.2598 38.2734 35.1438 38.2734 36.2343C38.2734 37.3249 40.342 38.2089 42.8937 38.2089Z" fill="white"/>
<path d="M47.5729 37.8692C47.5729 39.2024 45.6455 40.4394 42.9734 40.4394C40.3013 40.4394 38.1354 39.2024 38.1354 37.8692C37.949 35.075 40.3013 34.1533 42.9734 34.1533C45.6455 34.1533 47.7571 34.8293 47.5729 37.8692Z" fill="url(#paint5_linear_1270_125487)"/>
<path d="M42.8935 38.365C45.4455 38.365 47.5137 37.4107 47.5137 36.2328C47.5137 35.0549 45.4455 34.1006 42.8935 34.1006C40.3421 34.1006 38.2734 35.0549 38.2734 36.2328C38.2734 37.4107 40.3421 38.365 42.8935 38.365Z" stroke="black" stroke-width="0.5" stroke-linecap="round" stroke-linejoin="round"/>
<path d="M42.8984 38.3662V40.4984" stroke="black" stroke-width="0.5" stroke-linecap="round" stroke-linejoin="round"/>
<path d="M38.2734 36.2334V38.3656C38.2734 39.432 40.0503 40.4983 42.8935 40.4983C45.7368 40.4983 47.5137 39.432 47.5137 38.3656V36.2334" stroke="black" stroke-width="0.5" stroke-linecap="round" stroke-linejoin="round"/>
<path d="M45.75 37.9268V40.059" stroke="black" stroke-width="0.5" stroke-linecap="round" stroke-linejoin="round"/>
<path d="M40.0547 37.9268V40.059" stroke="black" stroke-width="0.5" stroke-linecap="round" stroke-linejoin="round"/>
</g>
<mask id="mask6_1270_125487" style="mask-type:luminance" maskUnits="userSpaceOnUse" x="49" y="27" width="12" height="12">
<path d="M60.5058 27.5322H49.1328V38.9052H60.5058V27.5322Z" fill="white"/>
</mask>
<g mask="url(#mask6_1270_125487)">
<path d="M54.8312 34.1269C57.3829 34.1269 59.4515 33.2428 59.4515 32.1523C59.4515 31.0618 57.3829 30.1777 54.8312 30.1777C52.2795 30.1777 50.2109 31.0618 50.2109 32.1523C50.2109 33.2428 52.2795 34.1269 54.8312 34.1269Z" fill="white"/>
<path d="M59.5572 33.7364C59.5572 35.0695 57.6298 36.307 54.9577 36.307C52.2861 36.307 50.1197 35.0695 50.1197 33.7364C49.9337 30.9421 52.2861 30.0205 54.9582 30.0205C57.6298 30.0205 59.7418 30.6965 59.5572 33.7364Z" fill="white"/>
<path d="M54.8311 34.2854C57.3831 34.2854 59.4513 33.3311 59.4513 32.1532C59.4513 30.9753 57.3831 30.0205 54.8311 30.0205C52.2797 30.0205 50.2109 30.9753 50.2109 32.1532C50.2109 33.3311 52.2797 34.2854 54.8311 34.2854Z" stroke="black" stroke-width="0.5" stroke-linecap="round" stroke-linejoin="round"/>
<path d="M55.3359 34.1943V36.3265" stroke="black" stroke-width="0.5" stroke-linecap="round" stroke-linejoin="round"/>
<path d="M50.2109 32.1523V34.2846C50.2109 35.3509 51.9879 36.4172 54.8311 36.4172C57.6744 36.4172 59.4513 35.3509 59.4513 34.2846V32.1523" stroke="black" stroke-width="0.5" stroke-linecap="round" stroke-linejoin="round"/>
<path d="M58.1797 33.4922V35.6244" stroke="black" stroke-width="0.5" stroke-linecap="round" stroke-linejoin="round"/>
<path d="M52.5234 33.8447V35.9774" stroke="black" stroke-width="0.5" stroke-linecap="round" stroke-linejoin="round"/>
</g>
<mask id="mask7_1270_125487" style="mask-type:luminance" maskUnits="userSpaceOnUse" x="50" y="25" width="12" height="12">
<path d="M61.662 25.3896H50.2891V36.7626H61.662V25.3896Z" fill="white"/>
</mask>
<g mask="url(#mask7_1270_125487)">
<path d="M55.9875 31.9794C58.5392 31.9794 60.6077 31.0954 60.6077 30.0048C60.6077 28.9143 58.5392 28.0303 55.9875 28.0303C53.4358 28.0303 51.3672 28.9143 51.3672 30.0048C51.3672 31.0954 53.4358 31.9794 55.9875 31.9794Z" fill="white"/>
<path d="M60.6822 31.8326C60.6822 33.1662 58.7548 34.4032 56.0832 34.4032C53.4111 34.4032 51.2447 33.1662 51.2447 31.8326C51.0587 29.0383 53.4111 28.1172 56.0832 28.1172C58.7553 28.1172 60.8668 28.7927 60.6822 31.8326Z" fill="white"/>
<path d="M55.9874 32.1331C58.5393 32.1331 60.6076 31.1783 60.6076 30.0009C60.6076 28.823 58.5393 27.8682 55.9874 27.8682C53.4359 27.8682 51.3672 28.823 51.3672 30.0009C51.3672 31.1783 53.4359 32.1331 55.9874 32.1331Z" stroke="black" stroke-width="0.5" stroke-linecap="round" stroke-linejoin="round"/>
<path d="M56.5625 32.1377V34.142" stroke="black" stroke-width="0.5" stroke-linecap="round" stroke-linejoin="round"/>
<path d="M51.3672 30.0049V32.1371C51.3672 33.2034 53.1441 34.2698 55.9874 34.2698C58.8307 34.2698 60.6076 33.2034 60.6076 32.1371V30.0049" stroke="black" stroke-width="0.5" stroke-linecap="round" stroke-linejoin="round"/>
<path d="M53.7188 31.6982V33.8309" stroke="black" stroke-width="0.5" stroke-linecap="round" stroke-linejoin="round"/>
</g>
<mask id="mask8_1270_125487" style="mask-type:luminance" maskUnits="userSpaceOnUse" x="47" y="23" width="13" height="12">
<path d="M59.3027 23.0703H47.9297V34.4433H59.3027V23.0703Z" fill="white"/>
</mask>
<g mask="url(#mask8_1270_125487)">
<path d="M53.6203 29.663C56.172 29.663 58.2405 28.779 58.2405 27.6884C58.2405 26.5979 56.172 25.7139 53.6203 25.7139C51.0686 25.7139 49 26.5979 49 27.6884C49 28.779 51.0686 29.663 53.6203 29.663Z" fill="white"/>
<path d="M58.4166 29.2349C58.4166 30.5685 56.4892 31.8055 53.8171 31.8055C51.1454 31.8055 48.9791 30.5685 48.9791 29.2349C48.793 26.4411 51.1454 25.5195 53.8176 25.5195C56.4892 25.5195 58.6012 26.1952 58.4166 29.2349Z" fill="url(#paint6_linear_1270_125487)"/>
<path d="M53.6202 29.8216C56.1721 29.8216 58.2409 28.8668 58.2409 27.6889C58.2409 26.5115 56.1721 25.5566 53.6202 25.5566C51.0687 25.5566 49 26.5115 49 27.6889C49 28.8668 51.0687 29.8216 53.6202 29.8216Z" stroke="black" stroke-width="0.5" stroke-linecap="round" stroke-linejoin="round"/>
<path d="M52.8906 29.8213V31.8064" stroke="black" stroke-width="0.5" stroke-linecap="round" stroke-linejoin="round"/>
<path d="M49 27.6895V29.8221C49 30.888 50.7774 31.9544 53.6202 31.9544C56.4635 31.9544 58.2409 30.888 58.2409 29.8221V27.6895" stroke="black" stroke-width="0.5" stroke-linecap="round" stroke-linejoin="round"/>
<path d="M55.7422 29.3818V31.514" stroke="black" stroke-width="0.5" stroke-linecap="round" stroke-linejoin="round"/>
<path d="M50.0469 29.083V31.2157" stroke="black" stroke-width="0.5" stroke-linecap="round" stroke-linejoin="round"/>
<path d="M58.9688 31.6982V33.6487" stroke="black" stroke-width="0.5" stroke-linecap="round" stroke-linejoin="round"/>
</g>
<mask id="mask9_1270_125487" style="mask-type:luminance" maskUnits="userSpaceOnUse" x="49" y="20" width="12" height="13">
<path d="M60.5058 20.7812H49.1328V32.1542H60.5058V20.7812Z" fill="white"/>
</mask>
<g mask="url(#mask9_1270_125487)">
<path d="M54.8312 27.3749C57.3829 27.3749 59.4515 26.4909 59.4515 25.4003C59.4515 24.3098 57.3829 23.4258 54.8312 23.4258C52.2795 23.4258 50.2109 24.3098 50.2109 25.4003C50.2109 26.4909 52.2795 27.3749 54.8312 27.3749Z" fill="white"/>
<path d="M59.4166 27.0923C59.4166 28.426 57.4892 29.663 54.8171 29.663C52.145 29.663 49.9791 28.426 49.9791 27.0923C49.7926 24.2984 52.1455 23.377 54.8171 23.377C57.4892 23.377 59.6008 24.0527 59.4166 27.0923Z" fill="url(#paint7_linear_1270_125487)"/>
<path d="M54.8311 27.5335C57.3831 27.5335 59.4513 26.5787 59.4513 25.401C59.4513 24.2233 57.3831 23.2686 54.8311 23.2686C52.2797 23.2686 50.2109 24.2233 50.2109 25.401C50.2109 26.5787 52.2797 27.5335 54.8311 27.5335Z" stroke="black" stroke-width="0.5" stroke-linecap="round" stroke-linejoin="round"/>
<path d="M54.8359 27.5322V29.6644" stroke="black" stroke-width="0.5" stroke-linecap="round" stroke-linejoin="round"/>
<path d="M50.2109 25.4014V27.5339C50.2109 28.6002 51.9879 29.6661 54.8311 29.6661C57.6744 29.6661 59.4513 28.6002 59.4513 27.5339V25.4014" stroke="black" stroke-width="0.5" stroke-linecap="round" stroke-linejoin="round"/>
<path d="M57.6484 27.0928V29.225" stroke="black" stroke-width="0.5" stroke-linecap="round" stroke-linejoin="round"/>
<path d="M51.9922 27.0928V29.225" stroke="black" stroke-width="0.5" stroke-linecap="round" stroke-linejoin="round"/>
</g>
<path d="M65.0996 31.5978C65.0319 32.4574 65.7208 33.1805 66.5713 33.1689L66.6544 33.1651L67.1448 33.1305L66.702 33.342C65.9232 33.7132 65.641 34.6709 66.077 35.4012L66.1218 35.4714L66.3963 35.8781L65.9905 35.5992C65.2794 35.1117 64.3093 35.3444 63.8943 36.0867L63.8559 36.1608L63.6395 36.6031L63.678 36.1122C63.7453 35.2526 63.0569 34.5295 62.2059 34.5415L62.1232 34.5454L61.6328 34.579L62.0761 34.3685C62.8549 33.9973 63.1367 33.0396 62.7006 32.3093L62.6564 32.2391L62.3814 31.8324L62.7867 32.1108C63.4977 32.5988 64.4689 32.3661 64.8838 31.6233L64.9218 31.5492L65.1381 31.1064L65.0996 31.5978Z" fill="white" stroke="black" stroke-width="0.5" stroke-linejoin="round"/>
<path d="M67.7256 29.792L67.6785 30.3934C67.6617 30.6069 67.8386 30.7857 68.053 30.7708L68.6554 30.729L68.1102 30.9886C67.917 31.0809 67.8506 31.3232 67.9708 31.5011L68.3088 32.0011L67.8107 31.6593C67.6338 31.5381 67.3905 31.6021 67.2963 31.7944L67.0318 32.3367L67.079 31.7353C67.0958 31.5218 66.9184 31.343 66.7044 31.3579L66.1016 31.3997L66.6468 31.1401C66.8405 31.0478 66.9069 30.8055 66.7867 30.6276L66.4487 30.1271L66.9468 30.4694C67.1237 30.5905 67.3669 30.5266 67.4607 30.3343L67.7256 29.792Z" fill="black"/>
<path d="M68.6319 33.7568L68.5843 34.3583C68.5679 34.5722 68.7448 34.7506 68.9588 34.7357L69.5617 34.6939L69.0165 34.9535C68.8227 35.0458 68.7569 35.2886 68.8766 35.466L69.2145 35.9665L68.717 35.6246C68.54 35.503 68.2963 35.5669 68.2025 35.7597L67.9381 36.302L67.9852 35.7001C68.002 35.4866 67.8246 35.3078 67.6107 35.3227L67.0078 35.365L67.553 35.1054C67.7468 35.0131 67.8126 34.7703 67.6929 34.5929L67.3549 34.0924L67.853 34.4342C68.0295 34.5559 68.2732 34.4919 68.3669 34.2991L68.6319 33.7568Z" fill="black"/>
<defs>
<filter id="filter0_f_1270_125487" x="-1.3875" y="0.000195265" width="56.275" height="37.1393" filterUnits="userSpaceOnUse" color-interpolation-filters="sRGB">
<feFlood flood-opacity="0" result="BackgroundImageFix"/>
<feBlend mode="normal" in="SourceGraphic" in2="BackgroundImageFix" result="shape"/>
<feGaussianBlur stdDeviation="0.6" result="effect1_foregroundBlur_1270_125487"/>
</filter>
<linearGradient id="paint0_linear_1270_125487" x1="20.2367" y1="19.7409" x2="27.9022" y2="31.8564" gradientUnits="userSpaceOnUse">
<stop stop-color="white" stop-opacity="0"/>
<stop offset="1"/>
</linearGradient>
<linearGradient id="paint1_linear_1270_125487" x1="24.8233" y1="13.2549" x2="24.8233" y2="19.5411" gradientUnits="userSpaceOnUse">
<stop stop-color="#5349C1"/>
<stop offset="1" stop-color="#977FED"/>
</linearGradient>
<linearGradient id="paint2_linear_1270_125487" x1="24.7061" y1="8.80371" x2="24.7061" y2="15.0899" gradientUnits="userSpaceOnUse">
<stop stop-color="#5349C1"/>
<stop offset="1" stop-color="#977FED"/>
</linearGradient>
<linearGradient id="paint3_linear_1270_125487" x1="31.578" y1="13.6712" x2="39.7855" y2="27.8872" gradientUnits="userSpaceOnUse">
<stop stop-color="#5349C1"/>
<stop offset="1" stop-color="#977FED"/>
</linearGradient>
<linearGradient id="paint4_linear_1270_125487" x1="31.578" y1="13.6712" x2="39.7855" y2="27.8872" gradientUnits="userSpaceOnUse">
<stop stop-color="#5349C1"/>
<stop offset="1" stop-color="#977FED"/>
</linearGradient>
<linearGradient id="paint5_linear_1270_125487" x1="42.8547" y1="34.1533" x2="42.8547" y2="40.4394" gradientUnits="userSpaceOnUse">
<stop stop-color="#5349C1"/>
<stop offset="1" stop-color="#977FED"/>
</linearGradient>
<linearGradient id="paint6_linear_1270_125487" x1="53.6983" y1="25.5195" x2="53.6983" y2="31.8055" gradientUnits="userSpaceOnUse">
<stop stop-color="#5349C1"/>
<stop offset="1" stop-color="#977FED"/>
</linearGradient>
<linearGradient id="paint7_linear_1270_125487" x1="54.6984" y1="23.377" x2="54.6984" y2="29.663" gradientUnits="userSpaceOnUse">
<stop stop-color="#5349C1"/>
<stop offset="1" stop-color="#977FED"/>
</linearGradient>
</defs>
</svg>
