<svg width="44" height="30" viewBox="0 0 44 30" fill="none" xmlns="http://www.w3.org/2000/svg">
<rect x="0.5" y="0.5" width="43" height="29" rx="3.5" fill="white" stroke="#E2E2E2"/>
<path d="M27.6179 10.3379H24.8952C24.7093 10.3379 24.5509 10.4732 24.5218 10.6571L23.4208 17.6378C23.3989 17.7755 23.5056 17.8997 23.6445 17.8997H25.0417C25.1715 17.8997 25.2825 17.805 25.3028 17.676L25.6153 15.6973C25.644 15.513 25.8028 15.3776 25.9887 15.3776H26.8501C28.6437 15.3776 29.6782 14.5099 29.9489 12.7903C30.0711 12.038 29.9537 11.4469 29.6014 11.0329C29.2149 10.5783 28.5291 10.3379 27.6179 10.3379ZM27.932 12.8874C27.7835 13.8642 27.0371 13.8642 26.3151 13.8642H25.9047L26.1933 12.04C26.2104 11.9297 26.3051 11.8485 26.417 11.8485H26.6053C27.0965 11.8485 27.5606 11.8485 27.8002 12.1287C27.9431 12.2959 27.9865 12.5443 27.932 12.8874Z" fill="#179BD7"/>
<path d="M35.754 12.856H34.4512C34.3393 12.856 34.2442 12.9372 34.2274 13.0475L34.1697 13.4121L34.0782 13.2799C33.796 12.8703 33.167 12.7334 32.5389 12.7334C31.0983 12.7334 29.8684 13.8245 29.6287 15.355C29.5045 16.1184 29.6809 16.8485 30.114 17.3576C30.512 17.8257 31.0796 18.0207 31.7559 18.0207C32.9167 18.0207 33.5603 17.2744 33.5603 17.2744L33.5022 17.6366C33.4803 17.7751 33.587 17.8993 33.7267 17.8993H34.9006C35.0864 17.8993 35.2449 17.764 35.2739 17.5797L35.9789 13.1179C36.0004 12.9806 35.8937 12.856 35.754 12.856ZM33.9369 15.3932C33.8119 16.138 33.22 16.6379 32.4661 16.6379C32.0883 16.6379 31.785 16.5165 31.5907 16.2864C31.3981 16.0579 31.3256 15.7327 31.3861 15.3705C31.5044 14.6321 32.1046 14.1158 32.847 14.1158C33.2172 14.1158 33.5181 14.2388 33.7163 14.4709C33.9158 14.7054 33.9946 15.0326 33.9369 15.3932Z" fill="#179BD7"/>
<path d="M37.2921 10.5288L36.1747 17.6372C36.1528 17.7749 36.2595 17.8991 36.3984 17.8991H37.5217C37.7084 17.8991 37.8669 17.7638 37.8955 17.5795L38.9973 10.5992C39.0192 10.4615 38.9125 10.3369 38.7736 10.3369H37.5158C37.4047 10.3373 37.3092 10.4185 37.2921 10.5288Z" fill="#179BD7"/>
<path d="M8.19994 10.3379H5.47765C5.29136 10.3379 5.13293 10.4732 5.10387 10.6571L4.00286 17.6378C3.98096 17.7755 4.08764 17.8997 4.22736 17.8997H5.527C5.71329 17.8997 5.87172 17.7644 5.90078 17.5801L6.19773 15.6973C6.22639 15.513 6.38521 15.3776 6.5711 15.3776H7.43289C9.22612 15.3776 10.2611 14.5099 10.5313 12.7903C10.6531 12.038 10.5365 11.4469 10.1842 11.0329C9.79733 10.5783 9.11108 10.3379 8.19994 10.3379ZM8.514 12.8874C8.36513 13.8642 7.61878 13.8642 6.89711 13.8642H6.48631L6.77451 12.04C6.79162 11.9297 6.88716 11.8485 6.99861 11.8485H7.18689C7.67849 11.8485 8.14222 11.8485 8.38185 12.1287C8.52475 12.2959 8.56853 12.5443 8.514 12.8874Z" fill="#253B80"/>
<path d="M16.3377 12.856H15.0341C14.923 12.856 14.8271 12.9372 14.81 13.0475L14.7523 13.4121L14.6611 13.2799C14.3789 12.8703 13.7496 12.7334 13.1214 12.7334C11.6809 12.7334 10.4505 13.8245 10.2109 15.355C10.0863 16.1184 10.2634 16.8485 10.6965 17.3576C11.0938 17.8257 11.6622 18.0207 12.3385 18.0207C13.4992 18.0207 14.1428 17.2744 14.1428 17.2744L14.0847 17.6366C14.0628 17.7751 14.1695 17.8993 14.3084 17.8993H15.4827C15.6694 17.8993 15.827 17.764 15.8565 17.5797L16.561 13.1179C16.5833 12.9806 16.477 12.856 16.3377 12.856ZM14.5206 15.3932C14.3948 16.138 13.8037 16.6379 13.0498 16.6379C12.6712 16.6379 12.3687 16.5165 12.1745 16.2864C11.9818 16.0579 11.9086 15.7327 11.9699 15.3705C12.0873 14.6321 12.6884 14.1158 13.4307 14.1158C13.8009 14.1158 14.1018 14.2388 14.3001 14.4709C14.4987 14.7054 14.5775 15.0326 14.5206 15.3932Z" fill="#253B80"/>
<path d="M23.2808 12.8555H21.9708C21.8458 12.8555 21.7284 12.9176 21.6575 13.0215L19.8508 15.6828L19.0849 13.1253C19.0367 12.9653 18.8891 12.8555 18.7219 12.8555H17.4346C17.2781 12.8555 17.1695 13.0083 17.2192 13.1556L18.6622 17.3901L17.3056 19.3051C17.1989 19.456 17.3064 19.6634 17.4907 19.6634H18.7991C18.9233 19.6634 19.0395 19.6029 19.11 19.501L23.4671 13.2117C23.5714 13.0613 23.4643 12.8555 23.2808 12.8555Z" fill="#253B80"/>
</svg>
