<svg width="59" height="43" viewBox="0 0 59 43" fill="none" xmlns="http://www.w3.org/2000/svg">
<g filter="url(#filter0_f_1164_76159)">
<path d="M43.8132 20.2615L20.1555 33.6068L1.19922 26.3275L34.8204 4.43262L43.8132 20.2615Z" fill="url(#paint0_linear_1164_76159)"/>
</g>
<g filter="url(#filter1_f_1164_76159)">
<path d="M53.6157 28.9765L31.8919 41.3636L12.9355 34.0843L43.9092 15.2578L53.6157 28.9765Z" fill="url(#paint1_linear_1164_76159)"/>
</g>
<path d="M42.5016 17.792C43.5698 20.3628 42.5016 23.5812 31.4874 29.9403C26.7452 32.6784 24.7035 34.7881 22.7883 34.5254C21.9793 34.4144 20.6898 34.1217 20.3626 33.8417C19.7148 33.2872 19.8634 32.0771 20.4737 30.5097C22.0867 26.3671 24.6859 22.3201 27.5867 19.5538C26.1518 19.3986 25.037 18.5433 24.4135 17.1194C23.7899 15.6955 23.6921 13.7817 24.1351 11.6718C24.5781 9.56196 25.5373 7.37275 26.8655 5.44035C28.1937 3.50795 29.8175 1.93924 31.4874 0.975148C32.921 0.147427 34.2453 -0.0823225 35.4964 0.0244501C36.7476 0.131269 37.7493 0.428455 38.1898 0.616618C39.5039 1.17788 38.4799 1.88403 38.8396 3.18216C39.2826 4.78051 39.1848 6.80727 38.5612 8.9512C37.9377 11.0951 36.8229 13.2377 35.388 15.0497C38.2888 14.4665 41.4334 15.2212 42.5016 17.792Z" fill="black"/>
<path d="M33.2106 1.64048C34.7768 0.736242 36.3012 0.429786 37.564 0.76242L37.6852 0.796747C38.9308 1.17068 39.8413 2.16489 40.2867 3.63329L40.3284 3.77669C40.7437 5.27539 40.6679 7.16334 40.1143 9.1665L40.0591 9.36061C39.6156 10.8864 38.9144 12.4118 38.0223 13.8097L37.8413 14.0875C37.6028 14.4464 37.5149 14.8373 37.547 15.1236C37.5771 15.3926 37.7168 15.5994 37.9707 15.6024L38.023 15.6001C40.5016 15.3719 42.9293 16.1614 43.908 18.2071L43.998 18.409C44.2579 19.0352 44.3735 19.6689 44.2649 20.3467C44.1591 21.0082 43.8322 21.7603 43.1236 22.6618C42.4071 23.5727 41.3094 24.6235 39.691 25.8491C38.0757 27.0727 35.9571 28.4584 33.2106 30.0441C30.4642 31.6298 28.3113 32.7115 26.6527 33.3803C24.9908 34.0499 23.8411 34.2982 23.0898 34.234C22.3441 34.1703 22.0105 33.8027 21.9289 33.2637C21.8506 32.7457 21.9963 32.0156 22.3368 31.0992L22.4074 30.9137C23.7638 27.43 25.8292 24.0185 28.1759 21.4096L28.4041 21.16C28.6884 20.8526 28.8434 20.4551 28.8749 20.1313C28.9044 19.8282 28.8296 19.5543 28.6235 19.4524L28.5803 19.4343C27.6629 19.1132 26.9324 18.4406 26.4547 17.4671L26.3624 17.2684C25.7777 15.9333 25.6706 14.1532 26.0543 12.1867L26.093 11.9955C26.5084 10.0171 27.3928 7.96643 28.6167 6.13945L28.7359 5.9636C30.0217 4.09293 31.5938 2.57395 33.2106 1.64048Z" fill="#D9D9D9"/>
<path d="M33.2106 1.64048C34.7768 0.736242 36.3012 0.429786 37.564 0.76242L37.6852 0.796747C38.9308 1.17068 39.8413 2.16489 40.2867 3.63329L40.3284 3.77669C40.7437 5.27539 40.6679 7.16334 40.1143 9.1665L40.0591 9.36061C39.6156 10.8864 38.9144 12.4118 38.0223 13.8097L37.8413 14.0875C37.6028 14.4464 37.5149 14.8373 37.547 15.1236C37.5771 15.3926 37.7168 15.5994 37.9707 15.6024L38.023 15.6001C40.5016 15.3719 42.9293 16.1614 43.908 18.2071L43.998 18.409C44.2579 19.0352 44.3735 19.6689 44.2649 20.3467C44.1591 21.0082 43.8322 21.7603 43.1236 22.6618C42.4071 23.5727 41.3094 24.6235 39.691 25.8491C38.0757 27.0727 35.9571 28.4584 33.2106 30.0441C30.4642 31.6298 28.3113 32.7115 26.6527 33.3803C24.9908 34.0499 23.8411 34.2982 23.0898 34.234C22.3441 34.1703 22.0105 33.8027 21.9289 33.2637C21.8506 32.7457 21.9963 32.0156 22.3368 31.0992L22.4074 30.9137C23.7638 27.43 25.8292 24.0185 28.1759 21.4096L28.4041 21.16C28.6884 20.8526 28.8434 20.4551 28.8749 20.1313C28.9044 19.8282 28.8296 19.5543 28.6235 19.4524L28.5803 19.4343C27.6629 19.1132 26.9324 18.4406 26.4547 17.4671L26.3624 17.2684C25.7777 15.9333 25.6706 14.1532 26.0543 12.1867L26.093 11.9955C26.5084 10.0171 27.3928 7.96643 28.6167 6.13945L28.7359 5.96361C30.0217 4.09293 31.5938 2.57395 33.2106 1.64048Z" stroke="black" stroke-width="1.2" stroke-linejoin="round"/>
<path d="M53.4383 22.8683C54.609 25.7151 53.4383 29.2667 41.365 36.2374C36.5598 39.0116 33.4372 40.8487 31.4701 41.2173C28.9476 40.4587 28.2277 39.56 29.2921 36.8087C31.0603 32.2386 33.9094 27.7794 37.0892 24.7369C35.5163 24.558 34.2943 23.6069 33.6108 22.0296C32.9273 20.4526 32.82 18.3368 33.3056 16.0072C33.7912 13.6775 34.8427 11.2629 36.2986 9.1341C37.7545 7.00526 39.5344 5.27999 41.365 4.22318C43.1952 3.16636 45.3465 3.21474 47.0273 3.46251C48.6036 3.78077 49.3205 3.85514 49.8062 5.6241C50.2918 7.39301 49.8024 10.7097 49.1187 13.076C48.4354 15.4423 47.2132 17.8045 45.6406 19.7998C48.8204 19.1704 52.2671 20.0211 53.4383 22.8683Z" fill="black"/>
<path d="M43.1218 4.94904C44.8433 3.9553 46.5184 3.62356 47.9064 3.99895L48.0399 4.03758C49.4097 4.45868 50.4104 5.56602 50.9003 7.19679L50.9462 7.35592C51.4032 9.02026 51.3194 11.1137 50.7101 13.3322L50.6497 13.5474C49.9857 15.8454 48.7995 18.1389 47.2723 20.0759C47.1909 20.1796 47.145 20.3123 47.1557 20.4155C47.166 20.5187 47.2307 20.5738 47.3211 20.5559C50.4142 19.9437 53.7279 20.7599 54.9127 23.4173L54.9679 23.5451C55.2536 24.2405 55.3819 24.9472 55.2616 25.7054C55.144 26.4472 54.7797 27.2864 53.9986 28.2843C53.2099 29.2921 52.0036 30.4502 50.2283 31.7975C48.4562 33.142 46.133 34.6631 43.1218 36.4014C40.1106 38.1402 37.7494 39.3255 35.9299 40.0565C34.1072 40.7884 32.844 41.0572 32.0168 40.9823C31.1956 40.9078 30.8231 40.4971 30.7321 39.8898C30.6448 39.3077 30.8072 38.4928 31.1819 37.478L31.26 37.2724C33.0014 32.7711 35.8052 28.3874 38.9221 25.4052C39.0125 25.3186 39.0771 25.1889 39.0876 25.0737C39.0968 24.9725 39.0631 24.8985 38.9997 24.8756L38.9708 24.869C37.4916 24.7004 36.3319 23.8284 35.6574 22.3814L35.5936 22.24C34.9298 20.7084 34.8254 18.6536 35.297 16.3911C35.7538 14.1992 36.7266 11.9302 38.0721 9.91148L38.2032 9.71685C39.6166 7.65001 41.3451 5.9749 43.1218 4.94904Z" fill="url(#paint2_linear_1164_76159)" stroke="black" stroke-width="1.2" stroke-linejoin="round"/>
<path d="M42.0176 24.9554C42.0176 24.5588 42.2962 24.0759 42.6399 23.8774C42.8048 23.7823 42.9631 23.7664 43.0802 23.8338L43.1555 23.8774C43.4993 24.0759 44.0566 23.7542 44.4003 23.159L44.4757 23.0284C44.5923 22.826 44.7506 22.6589 44.9159 22.5633C45.2596 22.3652 45.5383 22.5259 45.5383 22.923V23.7125C45.5383 24.0338 45.3776 24.4225 45.1285 24.71C44.8499 25.0317 44.5094 25.1675 44.2893 25.0402C44.0069 24.8772 43.5489 25.1418 43.2665 25.6312C43.0464 26.0124 42.706 26.2695 42.4273 26.2695C42.1782 26.2695 42.0176 26.0667 42.0176 25.745V24.9554Z" fill="white"/>
<path d="M26.3341 6.17661C26.4909 7.00162 27.3235 7.50485 28.12 7.27599L28.1968 7.25132L28.6491 7.09308L28.2869 7.40543C27.6502 7.95353 27.6301 8.92582 28.227 9.50042L28.2869 9.55484L28.6491 9.86673L28.1968 9.70896C27.4036 9.43257 26.5512 9.90021 26.3515 10.7041L26.3341 10.7832L26.2445 11.2543L26.1548 10.7832C25.998 9.95819 25.1656 9.45481 24.369 9.68428L24.2921 9.70896L23.8398 9.86631L24.2025 9.55484C24.8392 9.00669 24.859 8.03445 24.262 7.45985L24.2025 7.40543L23.8398 7.09355L24.2921 7.25132C25.0854 7.52775 25.9382 7.05997 26.1379 6.25571L26.1548 6.17661L26.2445 5.70508L26.3341 6.17661Z" fill="white" stroke="black" stroke-width="1.2" stroke-linejoin="round"/>
<path d="M23.9929 3.00391L24.1027 3.58137C24.1416 3.78639 24.354 3.9089 24.5513 3.84015L25.1069 3.64632L24.6611 4.03C24.5028 4.16623 24.5028 4.41115 24.6611 4.54738L25.1069 4.93106L24.5513 4.73723C24.354 4.66848 24.1416 4.79089 24.1027 4.99587L23.9929 5.57333L23.8831 4.99587C23.8441 4.79089 23.6318 4.66834 23.4345 4.73723L22.8789 4.93106L23.3247 4.54738C23.483 4.41115 23.483 4.16623 23.3247 4.03L22.8789 3.64632L23.4345 3.84015C23.6318 3.9089 23.8441 3.78648 23.8831 3.58137L23.9929 3.00391Z" fill="black"/>
<path d="M21.4206 7.01367L21.5304 7.59113C21.5694 7.79611 21.7817 7.91866 21.979 7.84987L22.5346 7.65608L22.0888 8.03972C21.9306 8.17595 21.9306 8.42092 22.0888 8.5571L22.5346 8.94078L21.979 8.74699C21.7817 8.6782 21.5694 8.80061 21.5304 9.00559L21.4206 9.58305L21.3109 9.00559C21.2719 8.80061 21.0596 8.67806 20.8623 8.74699L20.3066 8.94078L20.7525 8.5571C20.9107 8.42092 20.9107 8.17595 20.7525 8.03972L20.3066 7.65608L20.8623 7.84987C21.0596 7.91866 21.2719 7.79625 21.3109 7.59113L21.4206 7.01367Z" fill="black"/>
<path d="M53.3282 19.9832C53.485 20.8082 54.3177 21.3114 55.1143 21.0828L55.1911 21.058L55.643 20.8997L55.281 21.2121C54.6441 21.76 54.6239 22.7326 55.221 23.3072L55.281 23.3616L55.643 23.6735L55.1911 23.5156C54.3978 23.2393 53.5454 23.7067 53.3455 24.5108L53.3282 24.5899L53.2387 25.061L53.1488 24.5899C52.9919 23.7648 52.1597 23.2614 51.3632 23.4908L51.2864 23.5156L50.834 23.673L51.1965 23.3616C51.8333 22.8132 51.853 21.841 51.2559 21.2664L51.1965 21.2121L50.834 20.9002L51.2864 21.058C52.0797 21.3343 52.9324 20.8666 53.1319 20.0623L53.1488 19.9832L53.2387 19.5117L53.3282 19.9832Z" fill="white" stroke="black" stroke-width="1.2" stroke-linejoin="round"/>
<path d="M55.3211 17.6152L55.4307 18.1927C55.4696 18.3977 55.6822 18.5202 55.8793 18.4514L56.4347 18.2577L55.9889 18.6413C55.8311 18.7775 55.8311 19.0225 55.9889 19.1587L56.4347 19.5423L55.8793 19.3486C55.6822 19.2798 55.4696 19.4022 55.4307 19.6072L55.3211 20.1846L55.2111 19.6072C55.1722 19.4022 54.9601 19.2796 54.7624 19.3486L54.207 19.5423L54.6529 19.1587C54.8111 19.0225 54.8111 18.7775 54.6529 18.6413L54.207 18.2577L54.7624 18.4514C54.9601 18.5202 55.1722 18.3978 55.2111 18.1927L55.3211 17.6152Z" fill="black"/>
<path d="M57.2098 21.1045L57.3198 21.6819C57.3587 21.8866 57.5709 22.0092 57.768 21.9404L58.3239 21.7465L57.8781 22.1305C57.7198 22.2668 57.7198 22.5117 57.8781 22.648L58.3239 23.0315L57.768 22.8377C57.5709 22.7688 57.3587 22.8911 57.3198 23.0962L57.2098 23.6736L57.1002 23.0962C57.0609 22.8911 56.8487 22.7688 56.6516 22.8377L56.0957 23.0315L56.5415 22.648C56.6998 22.5117 56.6998 22.2668 56.5415 22.1305L56.0957 21.7465L56.6516 21.9404C56.8487 22.0092 57.0609 21.887 57.1002 21.6819L57.2098 21.1045Z" fill="black"/>
<defs>
<filter id="filter0_f_1164_76159" x="-0.000781298" y="3.23262" width="45.0133" height="31.5738" filterUnits="userSpaceOnUse" color-interpolation-filters="sRGB">
<feFlood flood-opacity="0" result="BackgroundImageFix"/>
<feBlend mode="normal" in="SourceGraphic" in2="BackgroundImageFix" result="shape"/>
<feGaussianBlur stdDeviation="0.6" result="effect1_foregroundBlur_1164_76159"/>
</filter>
<filter id="filter1_f_1164_76159" x="11.7355" y="14.0578" width="43.0797" height="28.5055" filterUnits="userSpaceOnUse" color-interpolation-filters="sRGB">
<feFlood flood-opacity="0" result="BackgroundImageFix"/>
<feBlend mode="normal" in="SourceGraphic" in2="BackgroundImageFix" result="shape"/>
<feGaussianBlur stdDeviation="0.6" result="effect1_foregroundBlur_1164_76159"/>
</filter>
<linearGradient id="paint0_linear_1164_76159" x1="20.3955" y1="11.9075" x2="36.7503" y2="31.1903" gradientUnits="userSpaceOnUse">
<stop stop-color="white" stop-opacity="0"/>
<stop offset="1"/>
</linearGradient>
<linearGradient id="paint1_linear_1164_76159" x1="32.1319" y1="19.6644" x2="48.4868" y2="38.9471" gradientUnits="userSpaceOnUse">
<stop stop-color="white" stop-opacity="0"/>
<stop offset="1"/>
</linearGradient>
<linearGradient id="paint2_linear_1164_76159" x1="43.008" y1="4.73404" x2="56.8702" y2="28.7447" gradientUnits="userSpaceOnUse">
<stop stop-color="#5349C1"/>
<stop offset="1" stop-color="#977FED"/>
</linearGradient>
</defs>
</svg>
