<svg width="126" height="126" viewBox="0 0 126 126" fill="none" xmlns="http://www.w3.org/2000/svg">
<g opacity="0.7">
<mask id="mask0_159_8215" style="mask-type:luminance" maskUnits="userSpaceOnUse" x="0" y="0" width="126" height="126">
<path d="M0 0H126V126H0V0Z" fill="white"/>
</mask>
<g mask="url(#mask0_159_8215)">
<path d="M90.6495 78.2331C75.6481 72.5462 58.6706 72.0737 42.6493 77.9448L41.8876 78.2291C41.0161 78.5611 40.1478 78.9108 39.2828 79.2799L38.4194 79.6547C19.6866 87.9448 6.47514 103.574 0.661377 121.678H131.879C131.145 119.397 130.285 117.132 129.297 114.89L129.298 114.889C127.654 111.165 125.724 107.663 123.542 104.393L123.535 104.383C123.473 104.284 123.411 104.195 123.336 104.083L123.335 104.083C122.951 103.511 122.557 102.947 122.155 102.391L121.75 101.836C113.994 91.2701 103.529 83.3636 91.7893 78.6766L90.6495 78.2331Z" fill="#AAAAAA" stroke="#AAAAAA" stroke-width="1.2" stroke-linejoin="round"/>
<path d="M86.166 80.8831C71.6843 75.3932 55.2648 75.016 39.8282 80.8791C39.0003 81.1941 38.1749 81.5277 37.3526 81.8782L36.532 82.2344C18.7418 90.1078 6.19107 104.947 0.660805 122.138H125.336C124.736 120.277 124.049 118.426 123.271 116.593L122.893 115.72C121.429 112.4 119.725 109.267 117.809 106.329L117.423 105.744L117.416 105.733C117.357 105.64 117.3 105.555 117.227 105.447L117.227 105.448C116.861 104.904 116.487 104.368 116.105 103.84L115.721 103.314V103.313C108.35 93.2715 98.4062 85.7592 87.2498 81.3047L86.166 80.8831Z" fill="#1C1C1C" stroke="#AAAAAA" stroke-width="1.2" stroke-linejoin="round"/>
<path d="M115.64 103.48C111.982 103.263 108.229 103.838 104.626 105.303L103.907 105.609C97.063 108.638 92.2192 114.325 90.0512 120.923L89.8501 121.565C89.7673 121.841 89.9753 122.137 90.2981 122.137H124.683C124.993 122.137 125.208 121.859 125.151 121.578L125.136 121.521C124.568 119.816 123.924 118.121 123.206 116.438L122.894 115.719C121.429 112.4 119.725 109.267 117.809 106.328L117.424 105.743L117.416 105.733C117.358 105.64 117.3 105.555 117.228 105.447L117.227 105.448C117.025 105.147 116.82 104.848 116.612 104.552L115.983 103.67C115.921 103.585 115.834 103.525 115.738 103.497L115.64 103.48Z" fill="#D9D9D9"/>
<path d="M115.64 103.48C111.982 103.263 108.229 103.838 104.626 105.303L103.907 105.609C97.063 108.638 92.2192 114.325 90.0512 120.923L89.8501 121.565C89.7673 121.841 89.9753 122.137 90.2981 122.137H124.683C124.993 122.137 125.208 121.859 125.151 121.578L125.136 121.521C124.568 119.816 123.924 118.121 123.206 116.438L122.894 115.719C121.429 112.4 119.725 109.267 117.809 106.328L117.424 105.743L117.416 105.733C117.358 105.64 117.3 105.555 117.228 105.447L117.227 105.448C117.025 105.147 116.82 104.848 116.612 104.552L115.983 103.67C115.921 103.585 115.834 103.525 115.738 103.497L115.64 103.48Z" stroke="#AAAAAA" stroke-width="1.2" stroke-linejoin="round"/>
<path d="M45.0979 95.4168C37.4014 92.4324 28.7607 96.1558 25.6051 103.744L25.4581 104.108C22.9227 110.666 25.2352 117.909 30.6459 121.871L30.906 122.057C30.9787 122.108 31.0699 122.137 31.1669 122.137H48.0638C48.1373 122.137 48.2067 122.122 48.2673 122.092L48.3255 122.058C50.5628 120.492 52.4019 118.307 53.5545 115.63L53.7766 115.088C56.757 107.379 53.0375 98.7235 45.4622 95.5638L45.0979 95.4168Z" fill="#D9D9D9"/>
<path d="M45.0979 95.4168C37.4014 92.4324 28.7607 96.1558 25.6051 103.744L25.4581 104.108C22.9227 110.666 25.2352 117.909 30.6459 121.871L30.906 122.057C30.9787 122.108 31.0699 122.137 31.1669 122.137H48.0638C48.1373 122.137 48.2067 122.122 48.2673 122.092L48.3255 122.058C50.5628 120.492 52.4019 118.307 53.5545 115.63L53.7766 115.088C56.757 107.379 53.0375 98.7235 45.4622 95.5638L45.0979 95.4168Z" stroke="#AAAAAA" stroke-width="1.2" stroke-linejoin="round"/>
<path d="M81.5011 89.9565C79.2994 87.7515 75.7292 87.7515 73.5273 89.9565C71.3253 92.1615 71.3253 95.7371 73.5271 97.9429C75.729 100.148 79.2991 100.148 81.501 97.9429C83.7027 95.7379 83.7028 92.1615 81.5011 89.9565Z" fill="#D9D9D9"/>
<path d="M81.5011 89.9565C79.2994 87.7515 75.7292 87.7515 73.5273 89.9565C71.3253 92.1615 71.3253 95.7371 73.5271 97.9429C75.729 100.148 79.2991 100.148 81.501 97.9429C83.7027 95.7379 83.7028 92.1615 81.5011 89.9565Z" stroke="#AAAAAA" stroke-width="1.2" stroke-linejoin="round"/>
<path d="M70.4388 118.656C69.2201 115.892 66.0576 114.594 63.2729 115.662L63.0047 115.773C60.6873 116.798 59.4005 119.197 59.6808 121.593L59.7131 121.825C59.7381 121.982 59.8927 122.131 60.1241 122.131H70.4404C70.643 122.131 70.7867 122.017 70.8363 121.883L70.8513 121.825C71.0066 120.852 70.9095 119.827 70.5208 118.851L70.4388 118.656Z" fill="#D9D9D9"/>
<path d="M70.4388 118.656C69.2201 115.892 66.0576 114.594 63.2729 115.662L63.0047 115.773C60.6873 116.798 59.4005 119.197 59.6808 121.593L59.7131 121.825C59.7381 121.982 59.8927 122.131 60.1241 122.131H70.4404C70.643 122.131 70.7867 122.017 70.8363 121.883L70.8513 121.825C71.0066 120.852 70.9095 119.827 70.5208 118.851L70.4388 118.656Z" stroke="#AAAAAA" stroke-width="1.2" stroke-linejoin="round"/>
<path d="M97.7517 91.855C96.8077 91.2953 95.5888 91.6078 95.0292 92.5536C94.4696 93.5003 94.7818 94.7207 95.7257 95.2812C96.6698 95.8409 97.8893 95.5292 98.4489 94.5826C99.0084 93.6368 98.6956 92.4155 97.7517 91.855Z" fill="#D9D9D9"/>
<path d="M97.7517 91.855C96.8077 91.2953 95.5888 91.6078 95.0292 92.5536C94.4696 93.5003 94.7818 94.7207 95.7257 95.2812C96.6698 95.8409 97.8893 95.5292 98.4489 94.5826C99.0084 93.6368 98.6956 92.4155 97.7517 91.855Z" stroke="#AAAAAA" stroke-width="1.2" stroke-linejoin="round"/>
<path d="M58.2523 89.2251C57.3065 88.6678 56.0884 88.9828 55.5311 89.9303C54.9738 90.8777 55.288 92.0981 56.2338 92.6554C57.1788 93.2135 58.3976 92.8985 58.9549 91.9511C59.5123 91.0037 59.1973 89.7833 58.2523 89.2251Z" fill="#D9D9D9"/>
<path d="M58.2523 89.2251C57.3065 88.6678 56.0884 88.9828 55.5311 89.9303C54.9738 90.8777 55.288 92.0981 56.2338 92.6554C57.1788 93.2135 58.3976 92.8985 58.9549 91.9511C59.5123 91.0037 59.1973 89.7833 58.2523 89.2251Z" stroke="#AAAAAA" stroke-width="1.2" stroke-linejoin="round"/>
<path d="M79.8232 109.102C79.1575 108.227 77.9104 108.06 77.0379 108.726C76.1653 109.393 75.9971 110.642 76.6627 111.515C77.3284 112.39 78.5759 112.559 79.4484 111.892C80.3208 111.225 80.4889 109.976 79.8232 109.102Z" fill="#D9D9D9"/>
<path d="M79.8232 109.102C79.1575 108.227 77.9104 108.06 77.0379 108.726C76.1653 109.393 75.9971 110.642 76.6627 111.515C77.3284 112.39 78.5759 112.559 79.4484 111.892C80.3208 111.225 80.4889 109.976 79.8232 109.102Z" stroke="#AAAAAA" stroke-width="1.2" stroke-linejoin="round"/>
<path d="M14.2087 114.27C13.489 113.441 12.233 113.352 11.4043 114.073C10.5757 114.794 10.4876 116.051 11.2073 116.881C11.9269 117.711 13.1821 117.8 14.0108 117.08C14.8395 116.358 14.9283 115.101 14.2087 114.27Z" fill="#D9D9D9"/>
<path d="M14.2087 114.27C13.489 113.441 12.233 113.352 11.4043 114.073C10.5757 114.794 10.4876 116.051 11.2073 116.881C11.9269 117.711 13.1821 117.8 14.0108 117.08C14.8395 116.358 14.9283 115.101 14.2087 114.27Z" stroke="#AAAAAA" stroke-width="1.2" stroke-linejoin="round"/>
<g filter="url(#filter0_f_159_8215)">
<path d="M64.6688 94.3305C45.0869 94.3305 29.2127 93.4885 29.2127 92.4499C29.2127 91.4113 45.0869 90.5693 64.6688 90.5693C84.2507 90.5693 100.125 91.4113 100.125 92.4499C100.125 93.4885 84.2507 94.3305 64.6688 94.3305Z" fill="url(#paint0_linear_159_8215)"/>
</g>
<path d="M77.0535 71.4361C76.7256 70.9313 76.257 70.5961 75.7562 70.3732C75.2532 70.1487 74.733 70.0453 74.3317 69.9993C74.1398 69.9774 73.9788 69.9678 73.8649 69.9653L66.8279 77.0019C67.1075 77.1078 67.441 77.2491 67.7894 77.4308C68.6299 77.8678 69.6445 78.5842 70.1152 79.6738L70.2023 79.8967C70.5053 80.7714 70.9375 81.3619 71.4309 81.7593C71.926 82.1574 72.5093 82.382 73.1426 82.4821C74.2662 82.6614 75.5091 82.4458 76.585 82.1566L77.0351 82.029C77.6953 81.8328 78.2517 81.8311 78.7329 82.0347C79.2048 82.2342 79.5284 82.6009 79.7864 82.974C79.9163 83.1622 80.0379 83.3658 80.1556 83.5644C80.2758 83.768 80.3918 83.9675 80.5198 84.1694C80.7423 84.5208 80.9884 84.8584 81.3012 85.1572L81.4395 85.2824C81.7714 85.5691 82.2377 85.7363 82.7976 85.805C83.355 85.8728 83.9672 85.8381 84.5473 85.7549C84.8189 85.7161 85.0799 85.6677 85.3203 85.616C84.9325 85.41 84.4656 85.1314 83.9203 84.7534C83.3978 84.3915 83.093 83.9529 82.9371 83.4603C82.7869 82.9861 82.7842 82.4886 82.8082 82.025C82.8558 81.1099 82.9931 80.2981 82.7402 79.4614L82.6844 79.2942C82.1554 77.8484 81.0677 77.6497 79.8321 77.2507C79.2416 77.0601 78.5837 76.8057 78.1182 76.2387C77.671 75.6935 77.46 74.9375 77.5058 73.8786L77.5186 73.6621C77.5927 72.6444 77.3787 71.9361 77.0535 71.4361Z" fill="#AAAAAA" stroke="#AAAAAA" stroke-width="1.2" stroke-linejoin="round"/>
<path d="M64.6463 52.3681C64.6234 52.7301 64.6008 53.244 64.5967 53.8478C64.5884 55.0605 64.6563 56.615 64.9436 58.0276C65.2362 59.4662 65.7335 60.6392 66.4925 61.2228C66.8557 61.5021 67.2921 61.6568 67.8399 61.6333C68.3294 61.6123 68.9263 61.4473 69.6487 61.0683L69.966 60.8926C75.2571 57.8128 79.4598 59.1092 81.5235 60.1899C81.5481 60.1615 81.5634 60.1323 81.5703 60.1118C79.4672 55.2854 75.3994 53.2321 71.6972 52.424C69.8415 52.0188 68.0892 51.9305 66.7501 51.9632C66.0814 51.9796 65.5188 52.0257 65.1015 52.077C64.9281 52.0983 64.7811 52.1206 64.6636 52.1412C64.6585 52.2077 64.6517 52.2838 64.6463 52.3681Z" fill="#AAAAAA" stroke="#AAAAAA" stroke-width="1.2" stroke-linejoin="round"/>
<path d="M48.5606 68.4537C48.9225 68.4302 49.4362 68.4076 50.0403 68.4036C51.2535 68.3947 52.8075 68.4625 54.2201 68.7501C55.6586 69.0425 56.8322 69.54 57.4153 70.2992C57.6948 70.6619 57.8499 71.0988 57.8257 71.6465C57.8047 72.1359 57.6399 72.7328 57.2611 73.4557L57.085 73.7731C54.1555 78.805 55.1845 82.8524 56.2216 85.0122C55.951 85.0832 55.5803 85.1559 55.1837 85.2173C54.7548 85.2827 54.3122 85.3336 53.96 85.3595C53.7823 85.3716 53.6353 85.378 53.5271 85.3772C53.4762 85.3764 53.4399 85.374 53.4173 85.3716C48.6373 83.2869 47.2901 79.2711 47.1851 75.5904C47.0922 72.3467 47.971 69.4221 48.2933 68.4739C48.3692 68.4674 48.4588 68.4601 48.5606 68.4537Z" fill="#AAAAAA" stroke="#AAAAAA" stroke-width="1.2" stroke-linejoin="round"/>
<path d="M72.25 63.4579C66.318 52.6899 58.6412 44.2726 50.8542 38.84C43.1109 33.4376 35.3175 31.0262 29.0417 32.0936C27.7615 38.58 30.0675 46.482 35.4701 54.227C40.901 62.0139 49.4254 69.5843 60.4091 75.2987L72.25 63.4579Z" fill="#AAAAAA" stroke="#AAAAAA" stroke-width="1.2" stroke-linejoin="round"/>
<path d="M70.7623 65.2823L74.2695 68.7896L65.6668 77.3923L62.1596 73.8851L70.7623 65.2823Z" fill="#AAAAAA" stroke="#AAAAAA" stroke-width="1.2" stroke-linejoin="round"/>
<path d="M36.0588 39.3878C35.0347 40.4118 34.71 42.0389 35.1275 43.9295C35.5443 45.8135 36.6888 47.8886 38.4851 49.6847C40.934 52.1341 43.8765 53.3522 46.1469 53.2007L46.365 53.1818H46.3682C47.3382 53.0832 48.1621 52.723 48.7775 52.1076C49.6741 51.211 50.0327 49.8545 49.8259 48.2559C49.6321 46.7579 48.9439 45.0881 47.7962 43.5067L47.5604 43.1915C47.5499 43.1773 47.5377 43.161 47.5329 43.1542V43.1525C47.1743 42.6949 46.7809 42.2461 46.352 41.8173C44.5565 40.0211 42.48 38.8762 40.5964 38.4597C38.8244 38.068 37.2849 38.3284 36.2575 39.2049L36.0588 39.3878Z" fill="#AAAAAA" stroke="#AAAAAA" stroke-width="1.2" stroke-linejoin="round"/>
<path d="M73.8504 71.4361C73.5225 70.9313 73.0539 70.5961 72.5531 70.3732C72.0501 70.1487 71.5299 70.0453 71.1286 69.9993C70.9367 69.9774 70.7757 69.9678 70.6618 69.9653L63.6248 77.0019C63.9044 77.1078 64.2379 77.2491 64.5863 77.4308C65.4268 77.8678 66.4413 78.5842 66.9121 79.6738L66.9991 79.8967C67.3022 80.7714 67.7344 81.3619 68.2278 81.7593C68.7229 82.1574 69.3062 82.382 69.9395 82.4821C71.0631 82.6614 72.306 82.4458 73.3818 82.1566L73.832 82.029C74.4922 81.8328 75.0486 81.8311 75.5297 82.0347C76.0017 82.2342 76.3253 82.6009 76.5833 82.974C76.7132 83.1622 76.8348 83.3658 76.9525 83.5644C77.0727 83.768 77.1887 83.9675 77.3167 84.1694C77.5392 84.5208 77.7853 84.8584 78.0981 85.1572L78.2364 85.2824C78.5683 85.5691 79.0346 85.7363 79.5945 85.805C80.1519 85.8728 80.7641 85.8381 81.3441 85.7549C81.6158 85.7161 81.8768 85.6677 82.1172 85.616C81.7293 85.41 81.2625 85.1314 80.7172 84.7534C80.1946 84.3915 79.8899 83.9529 79.7339 83.4603C79.5838 82.9861 79.581 82.4886 79.6051 82.025C79.6527 81.1099 79.79 80.2981 79.5371 79.4614L79.4813 79.2942C78.9523 77.8484 77.8645 77.6497 76.629 77.2507C76.0385 77.0601 75.3806 76.8057 74.9151 76.2387C74.4679 75.6935 74.2569 74.9375 74.3027 73.8786L74.3155 73.6621C74.3896 72.6444 74.1756 71.9361 73.8504 71.4361Z" fill="url(#paint1_linear_159_8215)" stroke="#AAAAAA" stroke-width="1.2" stroke-linejoin="round"/>
<path d="M61.4432 52.3681C61.4203 52.7301 61.3977 53.244 61.3935 53.8478C61.3853 55.0605 61.4531 56.615 61.7404 58.0276C62.0331 59.4662 62.5304 60.6392 63.2893 61.2228C63.6526 61.5021 64.089 61.6568 64.6368 61.6333C65.1263 61.6123 65.7232 61.4473 66.4456 61.0683L66.7629 60.8926C72.054 57.8128 76.2567 59.1092 78.3203 60.1899C78.345 60.1615 78.3603 60.1323 78.3672 60.1118C76.2641 55.2854 72.1963 53.2321 68.4941 52.424C66.6384 52.0188 64.8861 51.9305 63.547 51.9632C62.8782 51.9796 62.3157 52.0257 61.8983 52.077C61.725 52.0983 61.578 52.1206 61.4605 52.1412C61.4554 52.2077 61.4485 52.2838 61.4432 52.3681Z" fill="#D9D9D9"/>
<path d="M61.4432 52.3681C61.4203 52.7301 61.3977 53.244 61.3935 53.8478C61.3853 55.0605 61.4531 56.615 61.7404 58.0276C62.0331 59.4662 62.5304 60.6392 63.2893 61.2228C63.6526 61.5021 64.089 61.6569 64.6368 61.6333C65.1263 61.6123 65.7232 61.4473 66.4456 61.0683L66.7629 60.8926C72.054 57.8128 76.2567 59.1092 78.3203 60.1899C78.345 60.1615 78.3603 60.1323 78.3672 60.1118C76.2641 55.2854 72.1963 53.2321 68.4941 52.424C66.6384 52.0188 64.8861 51.9305 63.547 51.9632C62.8782 51.9796 62.3157 52.0257 61.8983 52.077C61.725 52.0983 61.578 52.1206 61.4605 52.1412C61.4554 52.2077 61.4485 52.2838 61.4432 52.3681Z" stroke="#AAAAAA" stroke-width="1.2" stroke-linejoin="round"/>
<path d="M45.3568 68.4527C45.7187 68.4301 46.2332 68.4075 46.8365 68.4035C48.0497 68.3954 49.6037 68.4632 51.0163 68.75C52.4548 69.0431 53.6284 69.5399 54.2116 70.2991C54.491 70.6626 54.6461 71.0987 54.6227 71.6463C54.6009 72.1358 54.4361 72.7327 54.0573 73.4556L53.882 73.773C50.8015 79.0642 52.0986 83.2666 53.1785 85.3303L53.1793 85.3311C53.1511 85.3553 53.1212 85.3698 53.101 85.3771C48.2742 83.2739 46.2211 79.2063 45.4126 75.5039C45.0079 73.6478 44.9199 71.8959 44.9522 70.5568C44.9683 69.888 45.0144 69.3258 45.0661 68.9083C45.0871 68.7346 45.1097 68.5876 45.1299 68.4705C45.1969 68.4656 45.2728 68.4584 45.3568 68.4527Z" fill="#D9D9D9"/>
<path d="M45.3568 68.4527C45.7187 68.4301 46.2332 68.4075 46.8365 68.4035C48.0497 68.3954 49.6037 68.4632 51.0163 68.75C52.4548 69.0431 53.6284 69.5399 54.2116 70.2991C54.491 70.6626 54.6461 71.0987 54.6227 71.6463C54.6009 72.1358 54.4361 72.7327 54.0573 73.4556L53.882 73.773C50.8015 79.0642 52.0986 83.2666 53.1785 85.3303L53.1793 85.3311C53.1511 85.3553 53.1212 85.3698 53.101 85.3771C48.2742 83.2739 46.2211 79.2063 45.4126 75.5039C45.0079 73.6478 44.9199 71.8959 44.9522 70.5568C44.9683 69.888 45.0144 69.3258 45.0661 68.9083C45.0871 68.7346 45.1097 68.5876 45.1299 68.4705C45.1969 68.4656 45.2728 68.4584 45.3568 68.4527Z" stroke="#AAAAAA" stroke-width="1.2" stroke-linejoin="round"/>
<path d="M69.0469 63.4579C63.1149 52.6899 55.4387 44.2726 47.6518 38.84C39.9076 33.4376 32.1142 31.0262 25.8384 32.0936C24.559 38.58 26.865 46.482 32.2668 54.227C37.6986 62.0139 46.2221 69.5843 57.2059 75.2987L69.0469 63.4579Z" fill="url(#paint2_linear_159_8215)" stroke="#AAAAAA" stroke-width="1.2" stroke-linejoin="round"/>
<path d="M67.5592 65.2823L71.0664 68.7896L62.4637 77.3923L58.9564 73.8851L67.5592 65.2823Z" fill="#AAAAAA" stroke="#AAAAAA" stroke-width="1.2" stroke-linejoin="round"/>
<path d="M32.8557 39.3878C31.8315 40.4118 31.5077 42.0389 31.9252 43.9295C32.3412 45.8135 33.4857 47.8886 35.282 49.6847C37.7309 52.1341 40.6733 53.3522 42.9446 53.2007L43.1618 53.1818H43.1651C44.1351 53.0832 44.959 52.723 45.5744 52.1076C46.471 51.211 46.8296 49.8545 46.6228 48.2559C46.429 46.7579 45.7416 45.0881 44.5931 43.5067L44.3572 43.1915C44.3467 43.1773 44.3346 43.161 44.3298 43.1542V43.1525C43.972 42.6949 43.5778 42.2461 43.1497 41.8173C41.3534 40.0211 39.2776 38.8762 37.3933 38.4597C35.6212 38.068 34.0818 38.3284 33.0544 39.2049L32.8557 39.3878Z" fill="#1C1C1C" stroke="#AAAAAA" stroke-width="1.2" stroke-linejoin="round"/>
</g>
</g>
<defs>
<filter id="filter0_f_159_8215" x="28.0109" y="89.3693" width="73.3141" height="6.16123" filterUnits="userSpaceOnUse" color-interpolation-filters="sRGB">
<feFlood flood-opacity="0" result="BackgroundImageFix"/>
<feBlend mode="normal" in="SourceGraphic" in2="BackgroundImageFix" result="shape"/>
<feGaussianBlur stdDeviation="0.6" result="effect1_foregroundBlur_159_8215"/>
</filter>
<linearGradient id="paint0_linear_159_8215" x1="98.1877" y1="90.5688" x2="12.2834" y2="95.5337" gradientUnits="userSpaceOnUse">
<stop stop-color="white" stop-opacity="0"/>
<stop offset="1"/>
</linearGradient>
<linearGradient id="paint1_linear_159_8215" x1="78.9048" y1="75.725" x2="70.0672" y2="84.5628" gradientUnits="userSpaceOnUse">
<stop stop-color="#5349C1"/>
<stop offset="1" stop-color="#977FED"/>
</linearGradient>
<linearGradient id="paint2_linear_159_8215" x1="52.9672" y1="42.1773" x2="35.6414" y2="59.5034" gradientUnits="userSpaceOnUse">
<stop stop-color="#5349C1"/>
<stop offset="1" stop-color="#977FED"/>
</linearGradient>
</defs>
</svg>
