<svg width="54" height="54" viewBox="0 0 54 54" fill="none" xmlns="http://www.w3.org/2000/svg">
<mask id="mask0_1176_80403" style="mask-type:luminance" maskUnits="userSpaceOnUse" x="0" y="0" width="54" height="54">
<path d="M54 0H0V54H54V0Z" fill="white"/>
</mask>
<g mask="url(#mask0_1176_80403)">
<path d="M15.1502 34.768C21.5794 32.3308 28.8555 32.1283 35.7218 34.6444L36.0482 34.7663C36.4217 34.9086 36.7938 35.0584 37.1646 35.2166L37.5346 35.3773C45.5629 38.9302 51.225 45.6283 53.7166 53.3873H-2.51953C-2.20495 52.4098 -1.8366 51.4388 -1.41315 50.4782C-0.708697 48.8818 0.118403 47.3808 1.05354 45.9796L1.05658 45.9751C1.08306 45.9329 1.10941 45.8944 1.14177 45.8463L1.14212 45.8467C1.30685 45.6013 1.47574 45.36 1.64781 45.1215L1.82124 44.8837C5.14539 40.3553 9.63019 36.9668 14.6617 34.9581L15.1502 34.768Z" fill="black" stroke="black" stroke-width="1.2" stroke-linejoin="round"/>
<path d="M17.0684 35.9041C23.2748 33.5513 30.3119 33.3896 36.9272 35.9024C37.2824 36.0374 37.6361 36.1803 37.9885 36.3305L38.3399 36.4835C45.9646 39.8575 51.3435 46.217 53.7132 53.5846H0.28125C0.538373 52.787 0.832846 51.994 1.16623 51.2082L1.32816 50.834C1.95584 49.4117 2.68602 48.0686 3.50716 46.8093L3.67248 46.5587L3.67553 46.5539C3.70059 46.514 3.72541 46.4777 3.75632 46.4317L3.75663 46.432C3.91323 46.1987 4.07375 45.9692 4.23734 45.7428L4.40197 45.5171V45.5168C7.5608 41.2134 11.8226 37.9938 16.6039 36.0848L17.0684 35.9041Z" fill="white" stroke="black" stroke-width="1.2" stroke-linejoin="round"/>
<path d="M4.43937 45.5864C6.00706 45.4933 7.6154 45.7394 9.15976 46.3677L9.4677 46.4986C12.401 47.7966 14.4769 50.2339 15.4061 53.062L15.4923 53.3368C15.5277 53.4552 15.4386 53.5819 15.3003 53.5819H0.563726C0.431149 53.5819 0.338968 53.4628 0.363268 53.3424L0.369672 53.3185C0.61333 52.5874 0.888972 51.8608 1.19688 51.1401L1.33073 50.8314C1.95841 49.409 2.68863 48.0663 3.50974 46.807L3.67506 46.556L3.67811 46.5519C3.70317 46.5121 3.72799 46.4754 3.7589 46.4293L3.75921 46.4297C3.84592 46.3006 3.93388 46.1728 4.02288 46.0458L4.29263 45.6674C4.31915 45.6311 4.35633 45.6055 4.39745 45.5934L4.43937 45.5864Z" fill="#D9D9D9"/>
<path d="M4.43937 45.5864C6.00706 45.4933 7.6154 45.7394 9.15976 46.3677L9.4677 46.4986C12.401 47.7966 14.4769 50.2339 15.4061 53.062L15.4923 53.3368C15.5277 53.4552 15.4386 53.5819 15.3003 53.5819H0.563726C0.431149 53.5819 0.338968 53.4628 0.363268 53.3424L0.369672 53.3185C0.61333 52.5874 0.888972 51.8608 1.19688 51.1401L1.33073 50.8314C1.95841 49.409 2.68863 48.0663 3.50974 46.807L3.67506 46.556L3.67811 46.5519C3.70317 46.5121 3.72799 46.4754 3.7589 46.4293L3.75921 46.4297C3.84592 46.3006 3.93388 46.1728 4.02288 46.0458L4.29263 45.6674C4.31915 45.6311 4.35633 45.6055 4.39745 45.5934L4.43937 45.5864Z" stroke="black" stroke-width="1.2" stroke-linejoin="round"/>
<path d="M34.6754 42.1317C37.9739 40.8526 41.677 42.4484 43.0298 45.7005L43.0924 45.8566C44.179 48.6671 43.188 51.7714 40.8691 53.4693L40.7576 53.5492C40.7265 53.5707 40.6877 53.5831 40.6458 53.5831H33.4043C33.3728 53.5831 33.343 53.5766 33.3171 53.5641L33.2925 53.5496C32.3333 52.8784 31.5451 51.9417 31.0511 50.7949L30.9563 50.5626C29.679 47.2582 31.2727 43.5488 34.5196 42.1947L34.6754 42.1317Z" fill="#D9D9D9"/>
<path d="M34.6754 42.1317C37.9739 40.8526 41.677 42.4484 43.0298 45.7005L43.0924 45.8566C44.179 48.6671 43.188 51.7714 40.8691 53.4693L40.7576 53.5492C40.7265 53.5707 40.6877 53.5831 40.6458 53.5831H33.4043C33.3728 53.5831 33.343 53.5766 33.3171 53.5641L33.2925 53.5496C32.3333 52.8784 31.5451 51.9417 31.0511 50.7949L30.9563 50.5626C29.679 47.2582 31.2727 43.5488 34.5196 42.1947L34.6754 42.1317Z" stroke="black" stroke-width="1.2" stroke-linejoin="round"/>
<path d="M19.0709 39.7898C20.0146 38.8448 21.5446 38.8448 22.4883 39.7898C23.432 40.7348 23.432 42.2672 22.4884 43.2126C21.5447 44.1576 20.0147 44.1576 19.071 43.2126C18.1274 42.2676 18.1274 40.7352 19.0709 39.7898Z" fill="#D9D9D9"/>
<path d="M19.0709 39.7898C20.0146 38.8448 21.5446 38.8448 22.4883 39.7898C23.432 40.7348 23.432 42.2672 22.4884 43.2126C21.5447 44.1576 20.0147 44.1576 19.071 43.2126C18.1274 42.2676 18.1274 40.7352 19.0709 39.7898Z" stroke="black" stroke-width="1.2" stroke-linejoin="round"/>
<path d="M23.8125 52.0903C24.3348 50.9055 25.6902 50.3495 26.8836 50.8072L26.9985 50.8546C27.9917 51.2938 28.5429 52.3219 28.4231 53.349L28.4093 53.4483C28.3986 53.5158 28.3322 53.5795 28.2331 53.5795H23.8118C23.725 53.5795 23.6634 53.5307 23.6421 53.4732L23.6357 53.4483C23.5692 53.0312 23.6108 52.5923 23.7773 52.1738L23.8125 52.0903Z" fill="#D9D9D9"/>
<path d="M23.8125 52.0903C24.3348 50.9055 25.6902 50.3495 26.8836 50.8072L26.9985 50.8546C27.9917 51.2938 28.5429 52.3219 28.4231 53.349L28.4093 53.4483C28.3986 53.5158 28.3322 53.5795 28.2331 53.5795H23.8118C23.725 53.5795 23.6634 53.5307 23.6421 53.4732L23.6357 53.4483C23.5692 53.0312 23.6108 52.5923 23.7773 52.1738L23.8125 52.0903Z" stroke="black" stroke-width="1.2" stroke-linejoin="round"/>
<path d="M12.1092 40.6034C12.5138 40.3635 13.0361 40.4975 13.276 40.9032C13.5158 41.3086 13.382 41.8319 12.9775 42.0718C12.5729 42.3117 12.0502 42.1781 11.8104 41.7724C11.5706 41.367 11.7047 40.8437 12.1092 40.6034Z" fill="#D9D9D9"/>
<path d="M12.1092 40.6034C12.5138 40.3635 13.0361 40.4975 13.276 40.9032C13.5158 41.3086 13.382 41.8319 12.9775 42.0718C12.5729 42.3117 12.0502 42.1781 11.8104 41.7724C11.5706 41.367 11.7047 40.8437 12.1092 40.6034Z" stroke="black" stroke-width="1.2" stroke-linejoin="round"/>
<path d="M29.0366 39.4784C29.4416 39.2395 29.9639 39.3745 30.2028 39.7806C30.4416 40.1866 30.3066 40.7097 29.9016 40.9485C29.4966 41.1877 28.9743 41.0527 28.7354 40.6467C28.4962 40.2406 28.6316 39.7176 29.0366 39.4784Z" fill="#D9D9D9"/>
<path d="M29.0366 39.4784C29.4416 39.2395 29.9639 39.3745 30.2028 39.7806C30.4416 40.1866 30.3066 40.7097 29.9016 40.9485C29.4966 41.1877 28.9743 41.0527 28.7354 40.6467C28.4962 40.2406 28.6316 39.7176 29.0366 39.4784Z" stroke="black" stroke-width="1.2" stroke-linejoin="round"/>
<path d="M19.7917 47.994C20.077 47.6191 20.6115 47.5475 20.9854 47.833C21.3594 48.1186 21.4315 48.6538 21.1463 49.0283C20.861 49.4032 20.3263 49.4755 19.9523 49.1896C19.5785 48.904 19.5065 48.3685 19.7917 47.994Z" fill="#D9D9D9"/>
<path d="M19.7917 47.994C20.077 47.6191 20.6115 47.5475 20.9854 47.833C21.3594 48.1186 21.4315 48.6538 21.1463 49.0283C20.861 49.4032 20.3263 49.4755 19.9523 49.1896C19.5785 48.904 19.5065 48.3685 19.7917 47.994Z" stroke="black" stroke-width="1.2" stroke-linejoin="round"/>
<path d="M47.9156 50.2109C48.224 49.855 48.7623 49.817 49.1174 50.1261C49.4726 50.4348 49.5103 50.9735 49.2019 51.3293C48.8935 51.6851 48.3556 51.7232 48.0004 51.4145C47.6453 51.1057 47.6072 50.5664 47.9156 50.2109Z" fill="#D9D9D9"/>
<path d="M47.9156 50.2109C48.224 49.855 48.7623 49.817 49.1174 50.1261C49.4726 50.4348 49.5103 50.9735 49.2019 51.3293C48.8935 51.6851 48.3556 51.7232 48.0004 51.4145C47.6453 51.1057 47.6072 50.5664 47.9156 50.2109Z" stroke="black" stroke-width="1.2" stroke-linejoin="round"/>
<g filter="url(#filter0_f_1176_80403)">
<path d="M26.2814 41.6656C34.6737 41.6656 41.4769 41.3048 41.4769 40.8597C41.4769 40.4146 34.6737 40.0537 26.2814 40.0537C17.8892 40.0537 11.0859 40.4146 11.0859 40.8597C11.0859 41.3048 17.8892 41.6656 26.2814 41.6656Z" fill="url(#paint0_linear_1176_80403)"/>
</g>
<path d="M20.9804 31.852C21.121 31.6357 21.3218 31.492 21.5364 31.3961C21.752 31.3003 21.9749 31.2559 22.1469 31.2362C22.2291 31.2265 22.2982 31.2227 22.347 31.2217L25.3628 34.2374C25.243 34.2827 25.1001 34.3433 24.9507 34.4208C24.5905 34.6084 24.1557 34.9155 23.954 35.3824L23.9167 35.478C23.7868 35.8529 23.6016 36.1059 23.3901 36.2762C23.1779 36.4469 22.9279 36.5428 22.6565 36.586C22.1749 36.6629 21.6423 36.5704 21.1812 36.4465L20.9883 36.3918C20.7054 36.3077 20.4669 36.307 20.2607 36.3943C20.0584 36.4798 19.9197 36.6369 19.8092 36.7968C19.7535 36.8775 19.7014 36.9644 19.6509 37.0499C19.5994 37.1371 19.5497 37.2226 19.4949 37.3091C19.3995 37.4597 19.294 37.6044 19.16 37.7325L19.1007 37.7861C18.9585 37.909 18.7586 37.9807 18.5186 38.0101C18.2798 38.0392 18.0174 38.0243 17.7688 37.9886C17.6524 37.972 17.5405 37.9513 17.4375 37.9291C17.6037 37.8408 17.8038 37.7214 18.0375 37.5594C18.2614 37.4043 18.3921 37.2164 18.4589 37.0052C18.5232 36.802 18.5244 36.5888 18.5141 36.3901C18.4937 35.9979 18.4349 35.65 18.5433 35.2914L18.5672 35.2198C18.7939 34.6001 19.2601 34.515 19.7896 34.344C20.0427 34.2623 20.3246 34.1533 20.5241 33.9103C20.7158 33.6766 20.8062 33.3526 20.7866 32.8984L20.7811 32.806C20.7493 32.3699 20.8411 32.0663 20.9804 31.852Z" fill="black" stroke="black" stroke-width="1.2" stroke-linejoin="round"/>
<path d="M26.2961 23.6801C26.3059 23.8352 26.3156 24.0555 26.3174 24.3143C26.321 24.834 26.2918 25.5002 26.1687 26.1056C26.0433 26.7221 25.8302 27.2249 25.5049 27.4749C25.3493 27.5946 25.1622 27.661 24.9274 27.6509C24.7176 27.6419 24.4618 27.5712 24.1523 27.4088L24.0162 27.3335C21.7486 26.0135 19.9475 26.5692 19.063 27.0323C19.0525 27.0201 19.0459 27.0076 19.043 26.9988C19.9443 24.9304 21.6877 24.0504 23.2743 23.704C24.0696 23.5304 24.8206 23.4926 25.3945 23.5066C25.6811 23.5136 25.9222 23.5333 26.1011 23.5553C26.1754 23.5645 26.2383 23.574 26.2887 23.5828C26.2909 23.6113 26.2938 23.644 26.2961 23.6801Z" fill="black"/>
<path d="M26.2961 23.6801C26.3059 23.8352 26.3156 24.0555 26.3174 24.3143C26.321 24.834 26.2918 25.5002 26.1687 26.1056C26.0433 26.7221 25.8302 27.2249 25.5049 27.4749C25.3493 27.5946 25.1622 27.661 24.9274 27.6509C24.7176 27.6419 24.4618 27.5712 24.1523 27.4088L24.0162 27.3335C21.7486 26.0135 19.9475 26.5692 19.063 27.0323C19.0525 27.0201 19.0459 27.0076 19.043 26.9988C19.9443 24.9304 21.6877 24.0504 23.2743 23.704C24.0696 23.5304 24.8206 23.4926 25.3945 23.5066C25.6811 23.5136 25.9222 23.5333 26.1011 23.5553C26.1754 23.5645 26.2383 23.574 26.2887 23.5828C26.2909 23.6113 26.2938 23.644 26.2961 23.6801Z" stroke="black" stroke-width="1.2" stroke-linejoin="round"/>
<path d="M33.1869 30.5755C33.0318 30.5655 32.8113 30.5558 32.5524 30.554C32.0328 30.5502 31.3665 30.5793 30.7614 30.7025C30.1446 30.8278 29.642 31.0411 29.392 31.3665C29.2723 31.5219 29.2058 31.7091 29.2158 31.9438C29.2248 32.1536 29.2958 32.4094 29.4581 32.7189L29.5336 32.8553C30.7888 35.0118 30.3478 36.7464 29.9033 37.672C30.0196 37.7025 30.1785 37.7336 30.3481 37.7596C30.5319 37.788 30.7216 37.8098 30.8729 37.8208C30.9487 37.826 31.012 37.8288 31.0584 37.8285C31.0802 37.8281 31.0958 37.8271 31.1055 37.826C33.154 36.9326 33.7311 35.2115 33.7764 33.6341C33.8162 32.244 33.4396 30.9905 33.3011 30.5841C33.269 30.5814 33.2305 30.5783 33.1869 30.5755Z" fill="black"/>
<path d="M33.1869 30.5755C33.0318 30.5655 32.8113 30.5558 32.5524 30.554C32.0328 30.5502 31.3665 30.5793 30.7614 30.7025C30.1446 30.8278 29.642 31.0411 29.392 31.3665C29.2723 31.5219 29.2058 31.7091 29.2158 31.9438C29.2248 32.1536 29.2958 32.4094 29.4581 32.7189L29.5336 32.8553C30.7888 35.0118 30.3478 36.7464 29.9033 37.672C30.0196 37.7025 30.1785 37.7336 30.3481 37.7596C30.5319 37.788 30.7216 37.8098 30.8729 37.8208C30.9487 37.826 31.012 37.8288 31.0584 37.8285C31.0802 37.8281 31.0958 37.8271 31.1055 37.826C33.154 36.9326 33.7311 35.2115 33.7764 33.6341C33.8162 32.244 33.4396 30.9905 33.3011 30.5841C33.269 30.5814 33.2305 30.5783 33.1869 30.5755Z" stroke="black" stroke-width="1.2" stroke-linejoin="round"/>
<path d="M23.0352 28.4346C25.5774 23.8197 28.8675 20.2123 32.2047 17.8841C35.5233 15.5688 38.8634 14.5353 41.553 14.9928C42.1016 17.7727 41.1134 21.1592 38.7979 24.4785C36.4704 27.8158 32.8171 31.0602 28.1098 33.5093L23.0352 28.4346Z" fill="black" stroke="black" stroke-width="1.2" stroke-linejoin="round"/>
<path d="M23.6711 29.2147L22.168 30.7178L25.8549 34.4047L27.358 32.9016L23.6711 29.2147Z" fill="black" stroke="black" stroke-width="1.2" stroke-linejoin="round"/>
<path d="M38.5496 18.1174C38.9885 18.5562 39.1276 19.2536 38.9487 20.0638C38.7701 20.8712 38.2796 21.7606 37.5097 22.5303C36.4602 23.5801 35.1995 24.1021 34.2261 24.0372L34.1326 24.0291H34.1313C33.7155 23.9868 33.3625 23.8325 33.0987 23.5687C32.7145 23.1844 32.5608 22.6031 32.6494 21.918C32.7325 21.276 33.0274 20.5604 33.5193 19.8826L33.6203 19.7475C33.6252 19.7415 33.63 19.7345 33.6321 19.7316L33.6325 19.7308C33.7858 19.5347 33.9544 19.3423 34.1382 19.1586C34.908 18.3888 35.7976 17.8981 36.6049 17.7196C37.3643 17.5517 38.0241 17.6634 38.4644 18.039L38.5496 18.1174Z" fill="black" stroke="black" stroke-width="1.2" stroke-linejoin="round"/>
<path d="M22.3515 31.854C22.4921 31.6376 22.6929 31.494 22.9075 31.3981C23.1231 31.3022 23.346 31.2579 23.518 31.2382C23.6002 31.2285 23.6693 31.2247 23.7181 31.2236L26.7339 34.2393C26.6141 34.2847 26.4712 34.3452 26.3218 34.4228C25.9616 34.6104 25.5269 34.9174 25.3251 35.3844L25.2878 35.4799C25.1579 35.8548 24.9727 36.1079 24.7612 36.2782C24.549 36.4488 24.299 36.5447 24.0276 36.588C23.5461 36.6648 23.0134 36.5724 22.5523 36.4485L22.3594 36.3938C22.0765 36.3097 21.838 36.309 21.6318 36.3962C21.4295 36.4817 21.2908 36.6389 21.1803 36.7988C21.1246 36.8794 21.0725 36.9663 21.022 37.0518C20.9705 37.1391 20.9208 37.2246 20.866 37.3111C20.7706 37.4617 20.6651 37.6064 20.5311 37.7344L20.4718 37.7881C20.3296 37.911 20.1297 37.9826 19.8897 38.0121C19.6509 38.0411 19.3885 38.0262 19.1399 37.9906C19.0235 37.974 18.9116 37.9532 18.8086 37.9311C18.9748 37.8428 19.1749 37.7234 19.4086 37.5614C19.6325 37.4063 19.7631 37.2183 19.83 37.0072C19.8943 36.804 19.8955 36.5907 19.8852 36.3921C19.8648 35.9999 19.806 35.652 19.9143 35.2934L19.9383 35.2217C20.165 34.6021 20.6312 34.5169 21.1607 34.3459C21.4137 34.2642 21.6957 34.1552 21.8952 33.9122C22.0869 33.6786 22.1773 33.3546 22.1577 32.9004L22.1522 32.808C22.1204 32.3718 22.2122 32.0682 22.3515 31.854Z" fill="url(#paint1_linear_1176_80403)" stroke="black" stroke-width="1.2" stroke-linejoin="round"/>
<path d="M27.6711 23.6801C27.681 23.8352 27.6906 24.0555 27.6924 24.3143C27.696 24.834 27.6668 25.5002 27.5437 26.1056C27.4183 26.7221 27.2052 27.2249 26.8799 27.4749C26.7243 27.5946 26.5372 27.661 26.3024 27.6509C26.0926 27.6419 25.8368 27.5712 25.5273 27.4088L25.3913 27.3335C23.1236 26.0135 21.3225 26.5692 20.438 27.0323C20.4275 27.0201 20.4209 27.0076 20.418 26.9988C21.3193 24.9304 23.0627 24.0504 24.6493 23.704C25.4446 23.5304 26.1956 23.4926 26.7695 23.5066C27.0561 23.5136 27.2972 23.5333 27.4761 23.5553C27.5504 23.5645 27.6133 23.574 27.6637 23.5828C27.6659 23.6113 27.6689 23.644 27.6711 23.6801Z" fill="#D9D9D9"/>
<path d="M27.6711 23.6801C27.681 23.8352 27.6906 24.0555 27.6924 24.3143C27.696 24.834 27.6668 25.5002 27.5437 26.1056C27.4183 26.7221 27.2052 27.2249 26.8799 27.4749C26.7243 27.5946 26.5372 27.661 26.3024 27.6509C26.0926 27.6419 25.8368 27.5712 25.5273 27.4088L25.3913 27.3335C23.1236 26.0135 21.3225 26.5692 20.438 27.0323C20.4275 27.0201 20.4209 27.0076 20.418 26.9988C21.3193 24.9304 23.0627 24.0504 24.6493 23.704C25.4446 23.5304 26.1956 23.4926 26.7695 23.5066C27.0561 23.5136 27.2972 23.5333 27.4761 23.5553C27.5504 23.5645 27.6133 23.574 27.6637 23.5828C27.6659 23.6113 27.6689 23.644 27.6711 23.6801Z" stroke="black" stroke-width="1.2" stroke-linejoin="round"/>
<path d="M34.5616 30.5751C34.4065 30.5654 34.1863 30.5557 33.9274 30.554C33.4078 30.5505 32.7415 30.5796 32.1361 30.7025C31.5196 30.8281 31.017 31.041 30.7667 31.3664C30.6473 31.5222 30.5808 31.7091 30.5908 31.9438C30.5998 32.1536 30.6705 32.4094 30.8331 32.7192L30.9083 32.8552C32.2281 35.1229 31.6726 36.9239 31.2094 37.8083C31.2215 37.8187 31.2343 37.8253 31.243 37.8284C33.3113 36.927 34.1915 35.1838 34.5377 33.597C34.7115 32.8016 34.7492 32.0507 34.7353 31.4768C34.7281 31.1902 34.7083 30.9493 34.6865 30.7703C34.6772 30.6959 34.6678 30.6329 34.6588 30.5827C34.6305 30.5803 34.5979 30.5775 34.5616 30.5751Z" fill="#D9D9D9"/>
<path d="M34.5616 30.5751C34.4065 30.5654 34.1863 30.5557 33.9274 30.554C33.4078 30.5505 32.7415 30.5796 32.1361 30.7025C31.5196 30.8281 31.017 31.041 30.7667 31.3664C30.6473 31.5222 30.5808 31.7091 30.5908 31.9438C30.5998 32.1536 30.6705 32.4094 30.8331 32.7192L30.9083 32.8552C32.2281 35.1229 31.6726 36.9239 31.2094 37.8083C31.2215 37.8187 31.2343 37.8253 31.243 37.8284C33.3113 36.927 34.1915 35.1838 34.5377 33.597C34.7115 32.8016 34.7492 32.0507 34.7353 31.4768C34.7281 31.1902 34.7083 30.9493 34.6865 30.7703C34.6772 30.6959 34.6678 30.6329 34.6588 30.5827C34.6305 30.5803 34.5979 30.5775 34.5616 30.5751Z" stroke="black" stroke-width="1.2" stroke-linejoin="round"/>
<path d="M24.4102 28.4346C26.9524 23.8197 30.2423 20.2123 33.5795 17.8841C36.8985 15.5688 40.2385 14.5353 42.9281 14.9928C43.4764 17.7727 42.4881 21.1592 40.1731 24.4785C37.8452 27.8158 34.1922 31.0602 29.4849 33.5093L24.4102 28.4346Z" fill="url(#paint2_linear_1176_80403)" stroke="black" stroke-width="1.2" stroke-linejoin="round"/>
<path d="M25.0461 29.2147L23.543 30.7178L27.2299 34.4047L28.733 32.9016L25.0461 29.2147Z" fill="white" stroke="black" stroke-width="1.2" stroke-linejoin="round"/>
<path d="M39.9207 18.1174C40.3592 18.5562 40.4984 19.2536 40.3194 20.0638C40.1412 20.8712 39.6507 21.7606 38.8808 22.5303C37.8309 23.5801 36.5702 24.1021 35.5969 24.0372L35.5037 24.0291H35.5024C35.0866 23.9868 34.7335 23.8325 34.4698 23.5687C34.0855 23.1844 33.9319 22.6031 34.0205 21.918C34.1032 21.276 34.3981 20.5604 34.89 19.8826L34.9914 19.7475C34.9959 19.7415 35.0008 19.7345 35.0029 19.7316L35.0032 19.7308C35.1565 19.5347 35.3251 19.3423 35.5089 19.1586C36.2788 18.3888 37.1684 17.8981 37.976 17.7196C38.7354 17.5517 39.3952 17.6634 39.8355 18.039L39.9207 18.1174Z" fill="white" stroke="black" stroke-width="1.2" stroke-linejoin="round"/>
<path d="M43.1914 37.6886C43.4614 38.2477 44.152 38.4478 44.6767 38.1321L44.7269 38.0999L45.0198 37.9001L44.8207 38.1926C44.4711 38.7056 44.6428 39.4038 45.1787 39.6998L45.232 39.7271L45.5501 39.8805L45.197 39.8545C44.5781 39.8088 44.0589 40.3059 44.0699 40.9179L44.0727 40.9778L44.099 41.3312L43.9446 41.0121C43.675 40.453 42.9844 40.2529 42.4593 40.569L42.4094 40.6015L42.1166 40.8002L42.316 40.5084C42.6656 39.9954 42.4936 39.2976 41.9574 39.0013L41.9047 38.9739L41.5859 38.8206L41.939 38.8469C42.5583 38.8922 43.0779 38.3951 43.0664 37.7828L43.0633 37.7229L43.0374 37.3691L43.1914 37.6886Z" fill="white" stroke="black" stroke-width="1.2" stroke-linejoin="round"/>
<path d="M46.5579 37.4531L46.6389 37.8799C46.6676 38.0315 46.8248 38.1219 46.9705 38.0714L47.381 37.928L47.0515 38.2115C46.9345 38.3123 46.9345 38.4933 47.0515 38.594L47.381 38.8776L46.9705 38.7342C46.8248 38.6834 46.6676 38.7741 46.6389 38.9253L46.5579 39.3525L46.4765 38.9253C46.4478 38.7741 46.291 38.6834 46.1449 38.7342L45.7344 38.8776L46.0639 38.594C46.1809 38.4933 46.1809 38.3123 46.0639 38.2115L45.7344 37.928L46.1449 38.0714C46.291 38.1219 46.4478 38.0315 46.4765 37.8799L46.5579 37.4531Z" fill="black"/>
<path d="M45.7337 40.5732L45.8147 41C45.8434 41.1517 46.0005 41.242 46.1463 41.1911L46.5568 41.0482L46.2273 41.3317C46.1106 41.4324 46.1106 41.6134 46.2273 41.7142L46.5568 41.9977L46.1463 41.8544C46.0005 41.8035 45.8434 41.8942 45.8147 42.0454L45.7337 42.4722L45.6523 42.0454C45.6236 41.8942 45.4668 41.8035 45.3207 41.8544L44.9102 41.9977L45.2397 41.7142C45.3567 41.6134 45.3567 41.4324 45.2397 41.3317L44.9102 41.0482L45.3207 41.1911C45.4668 41.242 45.6236 41.1517 45.6523 41L45.7337 40.5732Z" fill="black"/>
<path d="M19.0312 25.3749C19.1471 25.9847 19.7625 26.3567 20.3512 26.1875L20.408 26.1693L20.7423 26.0523L20.4746 26.2832C20.004 26.6884 19.9891 27.407 20.4303 27.8318L20.4746 27.872L20.7423 28.1025L20.408 27.9859C19.8217 27.7816 19.1917 28.1273 19.044 28.7216L19.0312 28.7801L18.9649 29.1283L18.8986 28.7801C18.7827 28.1701 18.1674 27.7981 17.5786 27.9676L17.5218 27.9859L17.1875 28.1022L17.4556 27.872C17.9262 27.4668 17.9408 26.7481 17.4995 26.3234L17.4556 26.2832L17.1875 26.0526L17.5218 26.1693C18.1082 26.3736 18.7385 26.0279 18.8861 25.4334L18.8986 25.3749L18.9649 25.0264L19.0312 25.3749Z" fill="white" stroke="black" stroke-width="1.2" stroke-linejoin="round"/>
<path d="M15.9523 26.1299L16.0335 26.5567C16.0623 26.7082 16.2192 26.7988 16.3651 26.748L16.7758 26.6047L16.4462 26.8883C16.3293 26.989 16.3293 27.17 16.4462 27.2707L16.7758 27.5543L16.3651 27.4111C16.2192 27.3603 16.0623 27.4507 16.0335 27.6022L15.9523 28.0291L15.8712 27.6022C15.8424 27.4507 15.6855 27.3601 15.5396 27.4111L15.1289 27.5543L15.4585 27.2707C15.5754 27.17 15.5754 26.989 15.4585 26.8883L15.1289 26.6047L15.5396 26.748C15.6855 26.7988 15.8424 26.7083 15.8712 26.5567L15.9523 26.1299Z" fill="black"/>
<path d="M17.5969 23.2568L17.678 23.6837C17.7068 23.8352 17.8638 23.9258 18.0096 23.8749L18.4203 23.7317L18.0908 24.0153C17.9738 24.116 17.9738 24.297 18.0908 24.3977L18.4203 24.6813L18.0096 24.5381C17.8638 24.4872 17.7068 24.5777 17.678 24.7292L17.5969 25.156L17.5157 24.7292C17.4869 24.5777 17.33 24.4871 17.1841 24.5381L16.7734 24.6813L17.103 24.3977C17.2199 24.297 17.2199 24.116 17.103 24.0153L16.7734 23.7317L17.1841 23.8749C17.33 23.9258 17.4869 23.8353 17.5157 23.6837L17.5969 23.2568Z" fill="black"/>
</g>
<defs>
<filter id="filter0_f_1176_80403" x="9.88594" y="38.8537" width="32.7906" height="4.0123" filterUnits="userSpaceOnUse" color-interpolation-filters="sRGB">
<feFlood flood-opacity="0" result="BackgroundImageFix"/>
<feBlend mode="normal" in="SourceGraphic" in2="BackgroundImageFix" result="shape"/>
<feGaussianBlur stdDeviation="0.6" result="effect1_foregroundBlur_1176_80403"/>
</filter>
<linearGradient id="paint0_linear_1176_80403" x1="7.4112" y1="40.0535" x2="56.8057" y2="43.7144" gradientUnits="userSpaceOnUse">
<stop stop-color="white" stop-opacity="0"/>
<stop offset="1"/>
</linearGradient>
<linearGradient id="paint1_linear_1176_80403" x1="20.1854" y1="33.6921" x2="23.9729" y2="37.4797" gradientUnits="userSpaceOnUse">
<stop stop-color="#5349C1"/>
<stop offset="1" stop-color="#977FED"/>
</linearGradient>
<linearGradient id="paint2_linear_1176_80403" x1="31.3011" y1="19.3144" x2="38.7268" y2="26.7398" gradientUnits="userSpaceOnUse">
<stop stop-color="#5349C1"/>
<stop offset="1" stop-color="#977FED"/>
</linearGradient>
</defs>
</svg>
