<svg width="61" height="51" viewBox="0 0 61 51" fill="none" xmlns="http://www.w3.org/2000/svg">
<g filter="url(#filter0_f_1626_125503)">
<path d="M53.9821 31.0908L29.4993 49.2289L1.20312 31.0908L28.291 1.19922L53.9821 31.0908Z" fill="url(#paint0_linear_1626_125503)"/>
</g>
<path d="M30.3281 49.6073C30.3281 49.6073 26.6263 49.7079 23 45.7306C20.0074 42.4465 20.6314 38.9284 23.2798 30.5358C25.8416 22.4128 20.6328 22.326 20.6328 22.326L27.8483 11.0381C28.8961 11.3714 30.1954 11.0667 31.4997 10.1817C33.3729 8.95526 35.1521 7.04018 36.556 4.73943C37.9599 5.41914 39.7392 5.2797 41.6126 4.34325C42.9167 3.72182 44.2163 2.52587 45.2635 0.982422L52.4789 3.93862C52.4789 3.93862 47.2705 10.0382 49.8322 15.2049C52.4789 20.5403 53.1049 23.337 50.1121 30.0766C46.486 38.2421 30.3281 49.6073 30.3281 49.6073Z" fill="black"/>
<path d="M40.0395 6.96019C41.5144 7.53483 43.3461 7.32648 45.271 6.36072C46.6211 5.71274 47.966 4.52196 49.0782 2.99609L56.0712 5.62348C55.9413 5.79268 55.7838 6.0023 55.6108 6.24904C55.128 6.93714 54.5096 7.91451 53.9768 9.06327C52.9325 11.313 52.2324 14.1858 53.4457 16.7838L53.5693 17.0341C54.947 19.6877 55.7718 21.6705 55.8861 23.8133C55.9913 25.7957 55.4878 27.9484 54.1642 30.975L53.8883 31.5929C52.06 35.6035 48.6143 39.5717 45.5727 42.5696C44.06 44.0605 42.6621 45.2968 41.6437 46.1595C41.1344 46.5912 40.72 46.9285 40.4337 47.1579C40.2906 47.2728 40.1796 47.3602 40.1046 47.4188C40.0785 47.4389 40.0567 47.4562 40.0395 47.4694C40.0224 47.4757 40.001 47.4838 39.9753 47.4935C39.9003 47.5211 39.7889 47.5625 39.6457 47.6131C39.3594 47.7142 38.945 47.855 38.4359 48.012C37.417 48.3252 36.0202 48.7022 34.5073 48.958C31.5606 49.4563 28.2342 49.4828 26.3673 47.7568L26.1913 47.5838C24.6617 45.994 24.0809 44.3565 24.193 42.1121C24.2996 39.9803 25.0315 37.2669 26.2584 33.4384L26.5102 32.6579C27.8918 28.4007 27.1809 26.2356 26.1029 25.1579C25.5697 24.6249 24.9518 24.3612 24.4691 24.2303C24.2958 24.1834 24.1379 24.1556 24.0078 24.1363L31.0012 13.4335C32.1137 13.6746 33.4589 13.3127 34.8091 12.4013C36.7334 11.1451 38.5643 9.238 40.0395 6.96019Z" fill="url(#paint1_linear_1626_125503)" stroke="black" stroke-width="1.2" stroke-linejoin="round"/>
<path d="M45.6133 21.0632L43.7419 22.1437V20.5229C43.7419 19.6632 43.4465 19.0095 42.92 18.7055C42.3935 18.4015 41.6791 18.4723 40.9348 18.9022C40.1903 19.332 39.4763 20.0858 38.9498 20.9976C38.4233 21.9095 38.1275 22.9048 38.1275 23.7644V25.3852L36.2561 26.4657C36.0079 26.609 35.7699 26.8603 35.5944 27.1642C35.4189 27.4681 35.3203 27.7999 35.3203 28.0865V35.6501C35.3203 35.9369 35.4189 36.1547 35.5944 36.2559C35.7699 36.357 36.0079 36.3335 36.2561 36.1904L45.6133 30.7877C45.8616 30.6445 46.0996 30.3934 46.2754 30.0893C46.4507 29.7853 46.549 29.4536 46.549 29.1668V21.6035C46.549 21.3169 46.4507 21.0989 46.2754 20.9976C46.0996 20.8963 45.8616 20.9199 45.6133 21.0632ZM40.9348 29.437C40.796 29.5174 40.6603 29.5479 40.5449 29.5255C40.4295 29.5031 40.3395 29.4284 40.2864 29.3111C40.2333 29.1939 40.2194 29.0387 40.2465 28.8662C40.2736 28.6932 40.3404 28.5102 40.4386 28.3402C40.5367 28.1702 40.6617 28.0208 40.7979 27.911C40.9342 27.8011 41.0751 27.7357 41.2032 27.723C41.3314 27.7103 41.4412 27.7509 41.5182 27.8396C41.5952 27.9284 41.6366 28.0613 41.6366 28.2215C41.6366 28.4365 41.5624 28.6853 41.4308 28.9134C41.2992 29.141 41.121 29.3295 40.9348 29.437ZM42.8062 22.6839L39.0633 24.845V23.2242C39.0633 22.6511 39.2605 21.9876 39.6114 21.3796C39.9624 20.7717 40.4385 20.2692 40.9348 19.9826C41.4314 19.6961 41.9073 19.6489 42.2579 19.8516C42.6091 20.0542 42.8062 20.49 42.8062 21.0632V22.6839Z" fill="white"/>
<path d="M24.9675 15.0611C25.1599 16.0737 26.1818 16.6913 27.1593 16.4104L27.2536 16.3802L27.8087 16.1859L27.3642 16.5693C26.5828 17.242 26.5581 18.4353 27.2906 19.1405L27.3642 19.2073L27.8087 19.5902L27.2536 19.3965C26.2801 19.0573 25.234 19.6312 24.9888 20.6178L24.9675 20.715L24.8575 21.2931L24.7474 20.715C24.555 19.7024 23.5333 19.0846 22.5557 19.3662L22.4614 19.3965L21.9062 19.5896L22.3513 19.2073C23.1328 18.5346 23.157 17.3413 22.4243 16.6361L22.3513 16.5693L21.9062 16.1865L22.4614 16.3802C23.4349 16.7194 24.4816 16.1454 24.7267 15.1582L24.7474 15.0611L24.8575 14.4824L24.9675 15.0611Z" fill="white" stroke="black" stroke-width="1.2" stroke-linejoin="round"/>
<path d="M22.1016 11.1699L22.2364 11.8786C22.2842 12.1302 22.5447 12.2806 22.7869 12.1962L23.4688 11.9584L22.9217 12.4292C22.7275 12.5964 22.7275 12.897 22.9217 13.0642L23.4688 13.5351L22.7869 13.2972C22.5447 13.2128 22.2842 13.3631 22.2364 13.6146L22.1016 14.3234L21.9669 13.6146C21.9191 13.3631 21.6585 13.2127 21.4163 13.2972L20.7344 13.5351L21.2816 13.0642C21.4757 12.897 21.4757 12.5964 21.2816 12.4292L20.7344 11.9584L21.4163 12.1962C21.6585 12.2806 21.9191 12.1304 21.9669 11.8786L22.1016 11.1699Z" fill="black"/>
<path d="M18.9375 16.0898L19.0723 16.7986C19.1201 17.0501 19.3807 17.2006 19.6228 17.1161L20.3048 16.8783L19.7576 17.3492C19.5634 17.5163 19.5634 17.817 19.7576 17.9842L20.3048 18.455L19.6228 18.2172C19.3807 18.1328 19.1201 18.283 19.0723 18.5346L18.9375 19.2433L18.8028 18.5346C18.7549 18.283 18.4944 18.1326 18.2522 18.2172L17.5703 18.455L18.1175 17.9842C18.3117 17.817 18.3117 17.5163 18.1175 17.3492L17.5703 16.8783L18.2522 17.1161C18.4944 17.2006 18.7549 17.0503 18.8028 16.7986L18.9375 16.0898Z" fill="black"/>
<path d="M54.3893 31.2995C54.5818 32.3122 55.6032 32.9295 56.5808 32.649L56.6751 32.6185L57.2303 32.4243L56.786 32.8076C56.0043 33.4807 55.9796 34.6739 56.7124 35.3791L56.786 35.4458L57.2303 35.8286L56.6751 35.6349C55.7014 35.2958 54.6554 35.8694 54.4105 36.8562L54.3893 36.9534L54.2789 37.5316L54.1691 36.9534C53.9766 35.9406 52.9547 35.3228 51.977 35.6044L51.8828 35.6349L51.3281 35.828L51.773 35.4458C52.5547 34.7727 52.5788 33.5795 51.846 32.8743L51.773 32.8076L51.3281 32.4249L51.8828 32.6185C52.8564 32.9577 53.903 32.3835 54.1485 31.3966L54.1691 31.2995L54.2789 30.7207L54.3893 31.2995Z" fill="white" stroke="black" stroke-width="1.2" stroke-linejoin="round"/>
<path d="M58.8361 32.3262L58.9706 33.0348C59.0183 33.2866 59.2792 33.4372 59.5212 33.3527L60.2034 33.1147L59.6563 33.5855C59.462 33.7527 59.462 34.0533 59.6563 34.2206L60.2034 34.6913L59.5212 34.4539C59.2792 34.3694 59.0183 34.5194 58.9706 34.7712L58.8361 35.4799L58.701 34.7712C58.6533 34.5194 58.393 34.3689 58.1504 34.4539L57.4688 34.6913L58.0159 34.2206C58.2102 34.0533 58.2102 33.7527 58.0159 33.5855L57.4688 33.1147L58.1504 33.3527C58.393 33.4372 58.6533 33.2866 58.701 33.0348L58.8361 32.3262Z" fill="black"/>
<path d="M56.5939 28.875L56.729 29.5837C56.7767 29.8354 57.037 29.986 57.2796 29.9015L57.9612 29.6636L57.4141 30.1343C57.2198 30.3015 57.2198 30.6021 57.4141 30.7694L57.9612 31.2401L57.2796 31.0027C57.037 30.9183 56.7767 31.0683 56.729 31.32L56.5939 32.0287L56.4594 31.32C56.4117 31.0683 56.1508 30.9177 55.9088 31.0027L55.2266 31.2401L55.7737 30.7694C55.968 30.6021 55.968 30.3015 55.7737 30.1343L55.2266 29.6636L55.9088 29.9015C56.1508 29.986 56.4117 29.8354 56.4594 29.5837L56.5939 28.875Z" fill="black"/>
<defs>
<filter id="filter0_f_1626_125503" x="0.00312495" y="-0.000781298" width="55.1813" height="50.4293" filterUnits="userSpaceOnUse" color-interpolation-filters="sRGB">
<feFlood flood-opacity="0" result="BackgroundImageFix"/>
<feBlend mode="normal" in="SourceGraphic" in2="BackgroundImageFix" result="shape"/>
<feGaussianBlur stdDeviation="0.6" result="effect1_foregroundBlur_1626_125503"/>
</filter>
<linearGradient id="paint0_linear_1626_125503" x1="27.2562" y1="11.8332" x2="52.2101" y2="40.5254" gradientUnits="userSpaceOnUse">
<stop stop-color="white" stop-opacity="0"/>
<stop offset="1"/>
</linearGradient>
<linearGradient id="paint1_linear_1626_125503" x1="40.0398" y1="6.50532" x2="57.9294" y2="37.4905" gradientUnits="userSpaceOnUse">
<stop stop-color="#5349C1"/>
<stop offset="1" stop-color="#977FED"/>
</linearGradient>
</defs>
</svg>
