<svg width="83" height="83" viewBox="0 0 83 83" fill="none" xmlns="http://www.w3.org/2000/svg">
<g filter="url(#filter0_f_3652_1074)">
<path d="M28.1975 39.328L42.5553 57.7921C47.813 56.9774 51.9921 56.8078 57.8548 51.7902C62.4631 47.846 62.9923 38.284 62.9923 38.284L43.1656 26.3969L28.1975 39.328Z" fill="url(#paint0_linear_3652_1074)"/>
</g>
<path d="M39.7696 26.3273C32.4839 30.8303 27.7498 41.3245 29.1953 49.7667C29.8725 53.719 32.3058 56.6002 34.8953 58.0007C34.8953 58.0007 41.0379 59.3058 45.0056 56.8991C45.2664 56.7407 45.524 56.5746 45.7782 56.4011C52.6336 51.7184 56.9738 41.5999 55.5796 33.4596C54.7818 28.8011 52.1694 26.267 47.3959 24.151C47.3959 24.151 42.4288 24.6837 39.7696 26.3273Z" fill="#AAAAAA"/>
<path d="M26.9967 48.7718C25.5742 40.4658 30.232 30.1408 37.4003 25.7104C44.5687 21.2799 51.5329 24.4217 52.9555 32.7277C54.378 41.0337 49.7202 51.3587 42.5519 55.7892C35.3835 60.2196 28.4193 57.0778 26.9967 48.7718Z" fill="url(#paint1_linear_3652_1074)"/>
<path d="M26.9967 48.7718C25.5742 40.4658 30.232 30.1408 37.4003 25.7104C44.5687 21.2799 51.5329 24.4217 52.9555 32.7277C54.378 41.0337 49.7202 51.3587 42.5519 55.7892C35.3835 60.2196 28.4193 57.0778 26.9967 48.7718Z" fill="url(#paint2_linear_3652_1074)"/>
<path d="M26.9967 48.7718C25.5742 40.4658 30.232 30.1408 37.4003 25.7104C44.5687 21.2799 51.5329 24.4217 52.9555 32.7277C54.378 41.0337 49.7202 51.3587 42.5519 55.7892C35.3835 60.2196 28.4193 57.0778 26.9967 48.7718Z" stroke="#AAAAAA" stroke-width="0.5" stroke-linejoin="round"/>
<path d="M29.9121 46.9694C28.8092 40.5294 32.4206 32.524 37.9785 29.0889C43.5364 25.6538 48.9361 28.0897 50.039 34.5298C51.142 40.9698 47.5306 48.9751 41.9727 52.4103C36.4148 55.8454 31.0151 53.4094 29.9121 46.9694Z" fill="#1C1C1C"/>
<path d="M32.9582 45.0865C32.1891 40.5961 34.7073 35.0141 38.5827 32.6188C42.4581 30.2236 46.2232 31.9221 46.9922 36.4126C47.7613 40.9031 45.2431 46.4851 41.3677 48.8803C37.4923 51.2756 33.7272 49.577 32.9582 45.0865Z" fill="#D9D9D9"/>
<path d="M39.415 35.8784C37.3712 37.1416 36.0431 40.0854 36.4489 42.4536C36.8543 44.8218 38.8399 45.7177 40.8837 44.4542C42.9276 43.191 44.2556 40.2473 43.85 37.8792C43.4444 35.511 41.4588 34.6152 39.415 35.8784Z" fill="#AAAAAA"/>
<path d="M21.9033 39.9031L38.9951 39.3902L39.0142 40.0278L21.9224 40.5406L21.9033 39.9031Z" fill="#AAAAAA"/>
<path d="M25.5654 38.8337L21.6459 38.9513L22.289 39.8915L26.2085 39.7739L25.5654 38.8337Z" fill="#AAAAAA"/>
<path d="M25.642 41.3886L21.7225 41.5062L22.3081 40.5291L26.2275 40.4115L25.642 41.3886Z" fill="#AAAAAA"/>
<g opacity="0.4" filter="url(#filter1_f_3652_1074)">
<path d="M29.5277 54.2947L40.1436 40.8896L40.6436 41.2856L30.0277 54.6906L29.5277 54.2947Z" fill="#AAAAAA"/>
<path opacity="0.5" d="M31.0828 51.2911L28.6485 54.3651L29.782 54.4787L32.2163 51.4043L31.0828 51.2911Z" fill="#AAAAAA"/>
<path opacity="0.5" d="M33.0873 52.878L30.6526 55.952L30.2826 54.8743L32.7169 51.8003L33.0873 52.878Z" fill="#AAAAAA"/>
</g>
<path d="M52.7777 27.047C52.6603 27.7849 51.9332 28.2547 51.2188 28.0724L51.1499 28.0525L50.7434 27.9239L51.0738 28.192C51.6547 28.6624 51.6985 29.5266 51.183 30.0535L51.1312 30.1035L50.8174 30.3906L51.2154 30.2382C51.9135 29.9712 52.684 30.3644 52.8831 31.074L52.9007 31.1439L52.9929 31.5604L53.0601 31.1391C53.1775 30.4012 53.9044 29.9313 54.619 30.1141L54.688 30.134L55.0944 30.2619L54.7636 29.9946C54.1827 29.5241 54.1392 28.6599 54.6548 28.133L54.7063 28.083L55.0204 27.7959L54.6224 27.9483C53.9243 28.2153 53.1534 27.8221 52.9543 27.1121L52.9372 27.0423L52.8449 26.6253L52.7777 27.047Z" fill="#1C1C1C" stroke="#AAAAAA" stroke-width="0.5" stroke-linejoin="round"/>
<path d="M56.184 27.8516L56.1018 28.3681C56.0726 28.5514 55.8871 28.666 55.7098 28.6102L55.2105 28.4526L55.6172 28.7819C55.7616 28.8989 55.7681 29.1167 55.631 29.2421L55.2447 29.5952L55.7337 29.408C55.9074 29.3416 56.0995 29.4448 56.1396 29.626L56.2526 30.1367L56.3349 29.6202C56.364 29.4368 56.5496 29.3222 56.7269 29.3782L57.2262 29.5357L56.8195 29.2064C56.6751 29.0895 56.6686 28.8716 56.8057 28.7463L57.1919 28.3932L56.703 28.5804C56.5293 28.6468 56.3372 28.5436 56.2971 28.3622L56.184 27.8516Z" fill="#AAAAAA"/>
<path d="M54.6724 24.9081L54.5902 25.4245C54.561 25.6079 54.3754 25.7225 54.1981 25.6666L53.6988 25.5091L54.1055 25.8384C54.2499 25.9553 54.2564 26.1732 54.1193 26.2986L53.7331 26.6516L54.222 26.4645C54.3957 26.398 54.5878 26.5012 54.6279 26.6825L54.7409 27.1931L54.8232 26.6766C54.8524 26.4933 55.0379 26.3787 55.2152 26.4347L55.7145 26.5922L55.3078 26.2629C55.1634 26.146 55.1569 25.9281 55.294 25.8028L55.6802 25.4497L55.1913 25.6368C55.0176 25.7033 54.8256 25.6001 54.7854 25.4187L54.6724 24.9081Z" fill="#AAAAAA"/>
<path d="M26.5561 47.1421C26.4386 47.8797 25.7116 48.3496 24.997 48.1672L24.9281 48.1476L24.5215 48.0189L24.8522 48.2871C25.4328 48.7574 25.4767 49.6214 24.9614 50.1484L24.9096 50.1983L24.5955 50.4853L24.9936 50.3333C25.6918 50.066 26.4622 50.4593 26.6615 51.1691L26.6791 51.239L26.7712 51.6552L26.8386 51.2342C26.9561 50.4962 27.6827 50.0263 28.3973 50.2091L28.4662 50.2291L28.8728 50.357L28.5421 50.0893C27.9611 49.619 27.9176 48.7549 28.4333 48.228L28.4847 48.1781L28.7988 47.891L28.4007 48.0434C27.7025 48.3103 26.9316 47.917 26.7328 47.2073L26.7156 47.1373L26.6231 46.7203L26.5561 47.1421Z" fill="#1C1C1C" stroke="#AAAAAA" stroke-width="0.5" stroke-linejoin="round"/>
<path d="M22.9481 48.5276L22.8656 49.0441C22.8365 49.2275 22.6511 49.3419 22.4735 49.2859L21.9744 49.1287L22.3811 49.4579C22.5256 49.5749 22.5321 49.7927 22.395 49.9182L22.0087 50.2712L22.4975 50.0839C22.6714 50.0174 22.8633 50.1209 22.9034 50.3018L23.0166 50.8124L23.0987 50.296C23.1278 50.1129 23.3136 49.9981 23.4908 50.0541L23.9899 50.2117L23.5832 49.8825C23.4392 49.7655 23.4327 49.5477 23.5694 49.4223L23.9556 49.0693L23.4668 49.2561C23.2933 49.3226 23.101 49.2196 23.061 49.0382L22.9481 48.5276Z" fill="#AAAAAA"/>
<path d="M24.8207 44.8252L24.7387 45.3417C24.7096 45.5251 24.5238 45.6399 24.3466 45.584L23.8475 45.4264L24.2542 45.7556C24.3986 45.8725 24.4051 46.0903 24.268 46.2158L23.8818 46.5688L24.3705 46.3815C24.544 46.3154 24.7364 46.4185 24.7764 46.5999L24.8893 47.1105L24.9718 46.594C25.0008 46.4105 25.1862 46.2958 25.3638 46.3517L25.8629 46.5093L25.4562 46.1801C25.3118 46.0631 25.3053 45.8453 25.4424 45.7199L25.8287 45.3669L25.3399 45.5542C25.166 45.6206 24.974 45.5172 24.934 45.3358L24.8207 44.8252Z" fill="#AAAAAA"/>
<defs>
<filter id="filter0_f_3652_1074" x="27.6973" y="25.8969" width="35.7949" height="32.3952" filterUnits="userSpaceOnUse" color-interpolation-filters="sRGB">
<feFlood flood-opacity="0" result="BackgroundImageFix"/>
<feBlend mode="normal" in="SourceGraphic" in2="BackgroundImageFix" result="shape"/>
<feGaussianBlur stdDeviation="0.25" result="effect1_foregroundBlur_3652_1074"/>
</filter>
<filter id="filter1_f_3652_1074" x="27.1484" y="39.3896" width="14.9951" height="18.0624" filterUnits="userSpaceOnUse" color-interpolation-filters="sRGB">
<feFlood flood-opacity="0" result="BackgroundImageFix"/>
<feBlend mode="normal" in="SourceGraphic" in2="BackgroundImageFix" result="shape"/>
<feGaussianBlur stdDeviation="0.75" result="effect1_foregroundBlur_3652_1074"/>
</filter>
<linearGradient id="paint0_linear_3652_1074" x1="51.0604" y1="35.2711" x2="37.5703" y2="45.5995" gradientUnits="userSpaceOnUse">
<stop offset="0.107334" stop-color="#1C1C1C" stop-opacity="0"/>
<stop offset="0.545039" stop-color="white" stop-opacity="0.15"/>
<stop offset="1" stop-color="white" stop-opacity="0.5"/>
</linearGradient>
<linearGradient id="paint1_linear_3652_1074" x1="53.1682" y1="32.5963" x2="24.8226" y2="37.4509" gradientUnits="userSpaceOnUse">
<stop stop-color="#5349C1"/>
<stop offset="1" stop-color="#977FED"/>
</linearGradient>
<linearGradient id="paint2_linear_3652_1074" x1="42.5519" y1="55.7892" x2="27.676" y2="31.7206" gradientUnits="userSpaceOnUse">
<stop stop-color="#6D08E8"/>
<stop offset="1" stop-color="#CB63FE"/>
</linearGradient>
</defs>
</svg>
