<svg width="61" height="42" viewBox="0 0 61 42" fill="none" xmlns="http://www.w3.org/2000/svg">
<g filter="url(#filter0_f_1182_104470)">
<path d="M55.247 18.5488L17.6454 40.2011L-3.67188 24.9075L33.904 1.2002L55.247 18.5488Z" fill="url(#paint0_linear_1182_104470)"/>
</g>
<g filter="url(#filter1_f_1182_104470)">
<path d="M42.1724 32.3652L36.0907 35.9426L14.7734 20.6495L20.8292 15.0166L42.1724 32.3652Z" fill="url(#paint1_linear_1182_104470)"/>
</g>
<path d="M37.7106 4.26327C39.3942 3.29141 41.0871 3.10352 42.3042 3.10352C43.0223 3.10352 44.8841 4.43593 46.3112 5.51201L47.1051 8.24408L46.5932 12.5545C47.814 12.4588 55.3131 11.6807 55.3131 13.3142C55.3131 14.4539 54.8968 15.7216 54.2308 16.8302C53.6502 17.7968 52.8139 18.4096 52.0159 18.8701L19.8008 38.4683L17.3405 40.169C16.3838 39.4403 15.2742 38.6344 15.0752 38.0122C14.9502 37.6213 14.8828 37.1676 14.8828 36.6567C14.8828 33.9904 16.7184 30.7596 19.0101 29.3538C19.0092 29.3007 19.0084 29.2472 19.0084 29.1932C19.0084 24.3701 22.3946 18.5049 26.5717 16.0931C27.6585 15.4656 28.6918 15.1341 29.6258 15.0714C30.9754 10.6801 34.0873 6.35524 37.7106 4.26327Z" fill="black"/>
<path d="M39.5177 6.01489C43.798 3.54354 47.3449 5.12352 47.9782 9.496C47.9929 9.59869 48.0645 9.64563 48.1568 9.61928L48.1974 9.60349C51.4872 7.99415 54.1692 9.24649 54.8094 12.5327C54.8251 12.6126 54.8777 12.6567 54.9497 12.6511C56.086 12.562 56.8808 13.4084 56.8808 14.9274L56.8757 15.1276C56.8342 16.0672 56.5037 17.0849 55.9872 18.0029L55.8737 18.1983C55.3642 19.0456 54.6114 19.613 53.8231 20.0682L20.3689 39.3827L20.1031 39.5295C19.4816 39.8576 18.8614 40.0736 18.3423 40.0916C17.7899 40.1101 17.3612 39.9047 17.1506 39.3813L17.1112 39.2724C16.9933 38.9036 16.9297 38.4758 16.9297 37.993L16.9348 37.7553C17.0385 35.2879 18.73 32.3862 20.8248 31.1008C20.9559 31.0205 21.0594 30.835 21.0571 30.685C21.0563 30.6315 21.0556 30.5807 21.0556 30.5295L21.0579 30.3098C21.1567 25.7558 24.2954 20.3193 28.1897 17.957L28.379 17.845C29.4317 17.2372 30.4321 16.9158 31.3362 16.8552C31.3947 16.8512 31.4609 16.8146 31.5204 16.7533C31.58 16.692 31.6278 16.6113 31.6532 16.5288C32.9456 12.3233 35.8993 8.18108 39.3529 6.11177L39.5177 6.01489Z" fill="url(#paint2_linear_1182_104470)" stroke="black" stroke-width="1.2" stroke-linejoin="round"/>
<path d="M37.4795 14.7393L39.4558 16.1254L43.6544 20.2086L40.6129 21.9648V30.9989L36.324 35.9909L34.346 34.6174V27.224L33.2801 28.7102L31.3047 27.3389L37.4795 14.7393Z" fill="black"/>
<path d="M45.1339 21.5877L42.5871 23.0577C42.4547 23.1343 42.3476 23.3203 42.3476 23.4735V32.2308L36.56 35.5723V26.8151C36.56 26.6618 36.4527 26.5995 36.3203 26.6761L33.7734 28.1466L39.4537 16.5566L45.1339 21.5877Z" fill="#D9D9D9"/>
<path d="M45.1339 21.5877L42.5871 23.0577C42.4547 23.1343 42.3476 23.3203 42.3476 23.4735V32.2308L36.56 35.5723V26.8151C36.56 26.6618 36.4527 26.5995 36.3203 26.6761L33.7734 28.1466L39.4537 16.5566L45.1339 21.5877Z" stroke="black" stroke-width="1.2" stroke-linejoin="round"/>
<path d="M23.5911 18.1424C23.7456 18.9555 24.5662 19.4515 25.3511 19.226L25.4269 19.2016L25.8726 19.0456L25.5156 19.3535C24.8882 19.8936 24.8683 20.8518 25.4566 21.4181L25.5156 21.4721L25.8726 21.7795L25.4269 21.6239C24.6451 21.3512 23.805 21.8122 23.6082 22.6047L23.5911 22.6827L23.5027 23.1465L23.4144 22.6827C23.2598 21.8695 22.4394 21.3733 21.6543 21.5995L21.5786 21.6239L21.1328 21.779L21.4903 21.4721C22.1178 20.9316 22.1372 19.9735 21.5488 19.4072L21.4903 19.3535L21.1328 19.0461L21.5786 19.2016C22.3604 19.4741 23.2009 19.0131 23.3977 18.2204L23.4144 18.1424L23.5027 17.6777L23.5911 18.1424Z" fill="white" stroke="black" stroke-width="1.2" stroke-linejoin="round"/>
<path d="M21.2854 15.0166L21.3936 15.5857C21.432 15.7877 21.6413 15.9085 21.8357 15.8407L22.3833 15.6497L21.9439 16.0279C21.788 16.1621 21.788 16.4035 21.9439 16.5377L22.3833 16.9159L21.8357 16.7249C21.6413 16.6571 21.432 16.7777 21.3936 16.9798L21.2854 17.5489L21.1772 16.9798C21.1388 16.7777 20.9296 16.657 20.7351 16.7249L20.1875 16.9159L20.6269 16.5377C20.7828 16.4035 20.7828 16.1621 20.6269 16.0279L20.1875 15.6497L20.7351 15.8407C20.9296 15.9085 21.1388 15.7879 21.1772 15.5857L21.2854 15.0166Z" fill="black"/>
<path d="M18.7464 18.9668L18.8546 19.5359C18.893 19.738 19.1022 19.8585 19.2967 19.7912L19.8443 19.5999L19.4049 19.9781C19.249 20.1124 19.249 20.3538 19.4049 20.4881L19.8443 20.8661L19.2967 20.675C19.1022 20.6071 18.893 20.7281 18.8546 20.9298L18.7464 21.4993L18.6382 20.9298C18.5998 20.7281 18.3905 20.6071 18.1961 20.675L17.6484 20.8661L18.0879 20.4881C18.2438 20.3538 18.2438 20.1124 18.0879 19.9781L17.6484 19.5999L18.1961 19.7912C18.3905 19.8585 18.5998 19.7381 18.6382 19.5359L18.7464 18.9668Z" fill="black"/>
<path d="M57.1774 14.2996C57.3315 15.1128 58.1521 15.6087 58.9372 15.3832L59.0129 15.3589L59.4588 15.2029L59.1015 15.5108C58.4743 16.0509 58.4544 17.0092 59.0429 17.5755L59.1015 17.6291L59.4588 17.9365L59.0129 17.781C58.2311 17.5086 57.3911 17.9695 57.1944 18.7618L57.1774 18.8398L57.0888 19.304L57.0006 18.8398C56.846 18.0267 56.0254 17.5305 55.2403 17.7567L55.1646 17.781L54.7188 17.9361L55.0764 17.6291C55.7037 17.0889 55.7235 16.1307 55.1351 15.5644L55.0764 15.5108L54.7188 15.2033L55.1646 15.3589C55.9464 15.6313 56.7869 15.1703 56.984 14.3776L57.0006 14.2996L57.0888 13.835L57.1774 14.2996Z" fill="white" stroke="black" stroke-width="1.2" stroke-linejoin="round"/>
<path d="M58.9183 11.2803L59.0268 11.8494C59.0651 12.0514 59.2742 12.1722 59.4689 12.1044L60.0163 11.9134L59.5769 12.2916C59.4209 12.4258 59.4209 12.6672 59.5769 12.8015L60.0163 13.1795L59.4689 12.9886C59.2742 12.9208 59.0651 13.0414 59.0268 13.2434L58.9183 13.8125L58.8103 13.2434C58.772 13.0414 58.5625 12.9207 58.3682 12.9886L57.8203 13.1795L58.2597 12.8015C58.4157 12.6672 58.4157 12.4258 58.2597 12.2916L57.8203 11.9134L58.3682 12.1044C58.5625 12.1722 58.772 12.0516 58.8103 11.8494L58.9183 11.2803Z" fill="black"/>
<path d="M59.6371 18.6787L59.7451 19.2478C59.7834 19.4498 59.9929 19.5706 60.1872 19.5028L60.7346 19.3119L60.2952 19.69C60.1397 19.8242 60.1397 20.0656 60.2952 20.1999L60.7346 20.5779L60.1872 20.3869C59.9929 20.319 59.7834 20.4399 59.7451 20.6421L59.6371 21.2112L59.5286 20.6421C59.4903 20.4399 59.2812 20.319 59.0864 20.3869L58.5391 20.5779L58.9784 20.1999C59.1344 20.0656 59.1344 19.8242 58.9784 19.69L58.5391 19.3119L59.0864 19.5028C59.2812 19.5706 59.4903 19.45 59.5286 19.2478L59.6371 18.6787Z" fill="black"/>
<defs>
<filter id="filter0_f_1182_104470" x="-4.87188" y="0.000195265" width="61.3219" height="41.401" filterUnits="userSpaceOnUse" color-interpolation-filters="sRGB">
<feFlood flood-opacity="0" result="BackgroundImageFix"/>
<feBlend mode="normal" in="SourceGraphic" in2="BackgroundImageFix" result="shape"/>
<feGaussianBlur stdDeviation="0.6" result="effect1_foregroundBlur_1182_104470"/>
</filter>
<filter id="filter1_f_1182_104470" x="13.5734" y="13.8166" width="29.7984" height="23.3258" filterUnits="userSpaceOnUse" color-interpolation-filters="sRGB">
<feFlood flood-opacity="0" result="BackgroundImageFix"/>
<feBlend mode="normal" in="SourceGraphic" in2="BackgroundImageFix" result="shape"/>
<feGaussianBlur stdDeviation="0.6" result="effect1_foregroundBlur_1182_104470"/>
</filter>
<linearGradient id="paint0_linear_1182_104470" x1="16.0576" y1="10.4481" x2="36.2916" y2="34.3045" gradientUnits="userSpaceOnUse">
<stop stop-color="white" stop-opacity="0"/>
<stop offset="1"/>
</linearGradient>
<linearGradient id="paint1_linear_1182_104470" x1="20.0667" y1="13.1515" x2="40.3009" y2="37.0083" gradientUnits="userSpaceOnUse">
<stop offset="0.502206" stop-color="white" stop-opacity="0"/>
<stop offset="1"/>
</linearGradient>
<linearGradient id="paint2_linear_1182_104470" x1="36.9051" y1="7.24646" x2="46.8063" y2="24.3961" gradientUnits="userSpaceOnUse">
<stop stop-color="#5349C1"/>
<stop offset="1" stop-color="#977FED"/>
</linearGradient>
</defs>
</svg>
