<svg width="321" height="260" viewBox="0 0 321 260" fill="none" xmlns="http://www.w3.org/2000/svg">
<path d="M40.86 228.519L9 168.379L40.5 154.779L75.94 221.359L40.86 228.519Z" fill="black"/>
<path d="M53.0209 228.509L20.4509 166.229L12.2109 169.089L43.0009 227.789L53.0209 228.509Z" fill="white"/>
<path d="M53.0202 229.509C53.0202 229.509 52.9702 229.509 52.9502 229.509L42.9302 228.789C42.5802 228.769 42.2801 228.559 42.1201 228.259L11.3302 169.559C11.2002 169.299 11.1802 168.999 11.2902 168.729C11.4002 168.459 11.6202 168.249 11.8902 168.149L20.1202 165.289C20.5802 165.119 21.1102 165.329 21.3302 165.769L53.9002 228.049C54.0702 228.369 54.0502 228.759 53.8502 229.059C53.6602 229.339 53.3502 229.509 53.0102 229.509H53.0202ZM43.6202 226.839L51.3002 227.389L19.9602 167.449L13.6402 169.649L43.6302 226.829L43.6202 226.839Z" fill="black"/>
<path d="M53.0192 228.509L20.4492 166.229L34.7592 159.779L65.5492 218.489L53.0192 228.509Z" fill="white"/>
<path d="M53.0205 229.509C52.9505 229.509 52.8805 229.509 52.8105 229.489C52.5205 229.429 52.2705 229.239 52.1305 228.979L19.5605 166.689C19.4305 166.449 19.4105 166.159 19.5005 165.899C19.5905 165.639 19.7805 165.429 20.0405 165.319L34.3605 158.879C34.8405 158.659 35.4105 158.859 35.6605 159.329L66.4405 218.029C66.6605 218.449 66.5505 218.979 66.1805 219.279L53.6505 229.299C53.4705 229.439 53.2505 229.519 53.0305 229.519L53.0205 229.509ZM21.8205 166.699L53.3405 226.969L64.2805 218.219L34.3205 161.079L21.8305 166.699H21.8205Z" fill="black"/>
<path d="M75.5717 219.559L42.2817 156.559L34.7617 159.779L65.5517 218.489L75.5717 219.559Z" fill="white"/>
<path d="M75.5709 220.559C75.5709 220.559 75.5009 220.559 75.4609 220.559L65.4409 219.489C65.1109 219.449 64.8209 219.259 64.6609 218.959L33.8809 160.259C33.7509 160.009 33.7309 159.719 33.8209 159.459C33.9109 159.199 34.1109 158.989 34.3709 158.879L41.8909 155.659C42.3709 155.449 42.9209 155.659 43.1709 156.109L76.4609 219.109C76.6309 219.439 76.6109 219.829 76.4009 220.139C76.2109 220.419 75.9009 220.579 75.5709 220.579V220.559ZM66.1909 217.549L73.8109 218.369L41.8309 157.849L36.1509 160.279L66.1809 217.549H66.1909Z" fill="black"/>
<path d="M285.269 164.679L289.649 152.509C289.649 152.509 286.609 148.299 280.789 150.629C274.969 152.959 270.859 158.949 270.859 158.949L285.269 164.679Z" fill="white"/>
<path d="M235.191 194.209C235.191 194.209 233.771 185.639 235.611 177.759C237.451 169.879 241.631 162.359 241.631 162.359C241.631 162.359 244.251 153.649 245.091 151.859C245.931 150.069 247.981 145.979 253.921 146.969C255.351 147.209 257.621 168.799 257.621 168.799C257.621 168.799 249.031 180.139 247.601 184.549C246.171 188.959 243.661 198.509 243.661 198.509L235.191 194.209Z" fill="white"/>
<path d="M74.1406 188.139C124.891 152.979 124.651 127.869 124.651 127.869C124.651 127.869 115.661 120.629 110.471 124.069C105.271 127.519 104.801 127.529 102.041 121.119C99.2906 114.719 99.2206 109.339 91.8906 115.569C86.7106 119.969 85.0206 118.809 79.1806 113.659C73.3406 108.509 64.1706 116.579 62.5806 121.149C60.9906 125.719 50.4206 135.729 53.6306 141.169C56.8406 146.609 51.6606 151.009 60.6106 156.339C69.5606 161.669 64.2906 161.289 63.1506 163.939C62.0106 166.589 64.0406 172.769 69.5106 171.469C74.9906 170.169 77.4106 172.599 74.1206 174.969C67.9906 179.389 74.1306 188.119 74.1306 188.119L74.1406 188.139Z" fill="black"/>
<path d="M93.0406 139.039C94.3506 141.529 95.5006 144.109 96.5706 146.699C96.6606 146.919 96.6106 147.229 96.3606 147.329C94.0906 148.239 91.6806 148.739 89.2206 148.809C84.7406 148.939 80.2406 147.599 76.6306 144.919C72.6806 141.989 69.8406 137.659 68.7606 132.859C68.6306 132.319 69.4106 132.129 69.6206 132.569C70.7206 130.699 73.0506 129.819 75.1306 129.579C77.4506 129.309 79.7706 129.679 82.0406 130.169C84.4906 130.689 86.7806 131.359 88.7006 133.059C90.5706 134.699 91.8906 136.859 93.0306 139.039H93.0406Z" fill="#080717"/>
<path d="M96.8126 146.792C98.3115 134.706 89.7295 123.694 77.6442 122.195C65.559 120.696 54.5468 129.278 53.0479 141.364C51.5491 153.449 60.131 164.461 72.2163 165.96C84.3016 167.459 95.3137 158.877 96.8126 146.792Z" fill="black"/>
<path d="M115.101 167.019C115.681 167.079 98.7308 179.909 97.8908 180.589C97.4508 180.939 93.2508 178.019 89.0708 175.069C87.6908 174.089 86.3308 173.109 85.0908 172.249C84.7108 171.969 84.3308 171.699 83.9808 171.469C83.8108 171.329 83.6208 171.219 83.4608 171.099C82.0008 170.099 80.9308 169.409 80.5508 169.319L89.3108 148.409C89.3108 148.409 114.521 166.959 115.101 167.019Z" fill="white"/>
<path d="M97.8299 181.659C96.9199 181.659 94.9999 180.489 88.4899 175.889L87.1699 174.949C86.2499 174.299 85.3599 173.659 84.5199 173.079C84.1299 172.789 83.7599 172.539 83.4199 172.309C83.2499 172.179 83.1599 172.119 83.0599 172.049L82.8699 171.919C81.4199 170.929 80.5399 170.379 80.2799 170.289C80.0199 170.199 79.7699 169.999 79.6599 169.749C79.5499 169.499 79.5099 169.199 79.6199 168.939L88.3799 148.029C88.4999 147.749 88.7399 147.529 89.0399 147.449C89.3399 147.369 89.6499 147.429 89.8999 147.609C99.4999 154.679 114.14 165.359 115.46 166.089C115.75 166.199 115.99 166.449 116.08 166.759C116.34 167.679 116.35 167.719 101.23 179.299C99.7599 180.429 98.7199 181.219 98.5299 181.379C98.3199 181.549 98.1399 181.669 97.8399 181.669L97.8299 181.659ZM81.8299 168.839C82.3099 169.119 82.9899 169.569 84.0199 170.269L84.1899 170.379C84.3299 170.469 84.4699 170.569 84.6099 170.679C84.9099 170.869 85.2999 171.149 85.6999 171.439C86.5199 172.009 87.4199 172.649 88.3499 173.309L89.6699 174.239C91.6999 175.669 96.2499 178.899 97.6399 179.519C98.0999 179.159 98.9499 178.509 100.03 177.689C103.52 175.019 111.04 169.259 113.54 167.159C111.32 165.679 105.51 161.539 89.7599 149.959L81.8499 168.839H81.8299Z" fill="black"/>
<path d="M91.6816 159.549C92.0716 159.739 92.1416 160.269 91.9916 160.829C90.9716 164.749 89.7216 168.669 88.2416 172.559C88.0716 172.999 87.9116 173.459 87.6916 173.879C86.3116 172.899 84.9516 171.919 83.7116 171.059C83.3316 170.779 82.9516 170.509 82.6016 170.279C82.6616 170.199 82.7316 170.119 82.7916 170.049C83.0816 169.689 83.3816 169.529 83.6516 169.509C83.8016 169.319 83.9616 169.129 84.1116 168.919C84.8016 167.959 85.4816 166.979 86.1616 166.019C87.5716 164.029 88.9816 162.039 90.3816 160.049C90.7216 159.559 91.3416 159.389 91.6816 159.559V159.549Z" fill="#080717"/>
<path d="M90.2007 154.299C90.0807 154.299 89.9607 154.279 89.8407 154.229C89.3307 154.029 89.0707 153.449 89.2707 152.939C90.1707 150.599 92.3607 148.859 94.8407 148.499C95.3907 148.419 95.8907 148.799 95.9707 149.349C96.0507 149.899 95.6707 150.399 95.1207 150.479C93.3707 150.729 91.7707 152.009 91.1307 153.659C90.9807 154.059 90.6007 154.299 90.2007 154.299Z" fill="black"/>
<path d="M86.2103 137.329C76.9403 135.839 70.4503 129.679 62.3403 134.409C53.1903 139.749 56.6203 153.799 56.2403 155.589C56.1003 156.259 55.8803 156.649 55.6003 156.989C55.2103 157.449 54.7303 157.579 54.2603 157.909C52.9603 158.829 54.0203 160.129 54.6903 161.029C55.4603 162.069 56.2503 163.099 57.1303 164.049C57.7403 164.709 58.4103 165.329 59.1103 165.889C59.3603 166.259 59.6003 166.639 59.8803 166.999C65.6603 174.399 75.6503 174.679 83.7503 169.919C102.95 158.639 92.1303 138.279 86.2103 137.329Z" fill="white"/>
<path d="M72.7498 174.079C67.3698 174.079 62.4198 171.869 59.0898 167.619C58.8298 167.279 58.5898 166.929 58.3598 166.579C57.6698 166.019 57.0098 165.399 56.3898 164.729C55.3898 163.639 54.5198 162.499 53.8798 161.619L53.7898 161.499C53.2398 160.759 52.4898 159.749 52.6698 158.609C52.7398 158.189 52.9698 157.589 53.6798 157.089C53.8798 156.949 54.0698 156.839 54.2598 156.739C54.5398 156.589 54.6998 156.489 54.8298 156.339C54.9898 156.149 55.1498 155.909 55.2598 155.369C55.2998 155.139 55.2198 154.239 55.1598 153.439C54.7798 148.869 53.8898 138.169 61.8398 133.539C67.6698 130.139 72.7398 131.979 78.0998 133.939C80.6998 134.889 83.3898 135.869 86.3698 136.349C90.0198 136.939 94.0998 142.729 95.2798 148.989C96.2498 154.149 96.0998 163.829 84.2498 170.789C80.4798 172.999 76.5098 174.079 72.7498 174.079ZM68.6298 133.659C66.7398 133.659 64.8398 134.109 62.8498 135.269C55.9898 139.269 56.7798 148.729 57.1598 153.279C57.2698 154.649 57.3198 155.329 57.2198 155.799C57.0598 156.549 56.7898 157.119 56.3698 157.629C55.9998 158.079 55.5698 158.309 55.2298 158.499C55.0998 158.569 54.9698 158.639 54.8298 158.729C54.7898 158.759 54.6598 158.859 54.6498 158.929C54.5998 159.229 55.1398 159.959 55.3998 160.309L55.4898 160.429C56.1098 161.269 56.9398 162.359 57.8598 163.369C58.4398 163.999 59.0698 164.579 59.7298 165.109C59.8098 165.169 59.8798 165.249 59.9398 165.339L60.0298 165.479C60.2298 165.789 60.4298 166.089 60.6598 166.389C64.9098 171.829 73.5398 174.759 83.2298 169.069C94.0198 162.729 94.1698 153.999 93.2998 149.359C92.1298 143.149 88.2198 138.679 86.0398 138.319C82.8798 137.809 80.0998 136.799 77.4098 135.819C74.3198 134.699 71.4798 133.659 68.6198 133.659H68.6298Z" fill="black"/>
<path d="M62.9705 168.909C61.8805 168.909 60.8305 168.629 59.9505 168.069C59.4805 167.779 59.3405 167.159 59.6405 166.689C59.9305 166.219 60.5505 166.079 61.0205 166.379C61.9705 166.979 63.2805 167.079 64.5005 166.639C65.7305 166.199 66.6705 165.299 67.0305 164.229C67.2105 163.709 67.7705 163.429 68.3005 163.599C68.8205 163.779 69.1105 164.339 68.9305 164.869C68.3805 166.519 66.9705 167.889 65.1805 168.529C64.4605 168.789 63.7105 168.909 62.9805 168.909H62.9705Z" fill="black"/>
<path d="M60.1799 150.519C59.8899 150.519 59.5999 150.389 59.3999 150.149C59.0499 149.719 59.1199 149.089 59.5399 148.739L59.6799 148.629C62.4499 146.339 64.8499 146.309 66.8299 148.539C67.1999 148.949 67.1599 149.579 66.7499 149.949C66.3399 150.319 65.7099 150.279 65.3399 149.869C63.9199 148.269 62.6099 148.799 60.9599 150.169L60.8099 150.289C60.6199 150.439 60.3999 150.509 60.1799 150.509V150.519Z" fill="black"/>
<path d="M61.7393 154.899C62.0993 155.999 63.0293 156.679 63.8293 156.419C64.6293 156.159 64.9693 155.059 64.6093 153.959C64.2493 152.859 63.3193 152.179 62.5193 152.439C61.7293 152.699 61.3793 153.799 61.7393 154.899Z" fill="black"/>
<path d="M92.2808 139.609C93.8508 142.819 95.1908 146.149 96.4208 149.519C96.5208 149.809 96.4208 150.219 96.0608 150.379C92.7908 151.839 89.3708 152.759 85.9408 153.109C79.6708 153.739 73.5308 152.409 68.7608 149.199C63.5508 145.679 60.0308 140.169 59.0208 133.839C58.9008 133.119 60.0008 132.789 60.2508 133.359C61.9808 130.739 65.3208 129.319 68.2608 128.779C71.5308 128.169 74.7308 128.429 77.8408 128.859C81.2108 129.309 84.3308 129.969 86.8308 132.049C89.2708 134.059 90.8908 136.809 92.2608 139.609H92.2808Z" fill="#080717"/>
<path d="M90.1992 153.299L98.7392 167.299C98.7392 167.299 109.899 159.489 114.179 151.599C118.459 143.709 96.5792 146.709 96.5792 146.709L90.2092 153.299H90.1992Z" fill="#080717"/>
<path d="M91.4901 145.239C93.5601 147.889 93.0901 151.709 90.4401 153.779C87.7901 155.849 83.9701 155.379 81.9001 152.729C79.8301 150.079 80.3001 146.259 82.9501 144.189C85.6001 142.119 89.4201 142.589 91.4901 145.239Z" fill="white"/>
<path d="M85.1398 152.049C84.7998 152.049 84.4698 151.879 84.2898 151.569C82.8698 149.239 83.4098 146.639 85.6598 145.109C86.1198 144.799 86.7398 144.919 87.0498 145.369C87.3598 145.829 87.2398 146.449 86.7898 146.759C85.4498 147.679 85.1498 149.119 85.9998 150.519C86.2898 150.989 86.1398 151.609 85.6698 151.899C85.5098 151.999 85.3298 152.049 85.1498 152.049H85.1398Z" fill="black"/>
<path d="M65.23 211.399L61.65 205.669C61.65 205.669 56.64 208.179 54.85 205.309C53.06 202.449 49.48 194.929 49.48 194.929C49.48 194.929 38.74 197.789 37.67 191.349C37.43 189.939 58.55 187.529 58.55 187.529L80.62 209.959L65.23 211.389V211.399Z" fill="white"/>
<path d="M65.2305 212.399C64.9005 212.399 64.5705 212.229 64.3805 211.929L61.2605 206.929C59.5605 207.589 55.7605 208.649 54.0005 205.849C52.5105 203.469 49.8705 198.059 48.9205 196.089C46.9905 196.489 42.1205 197.229 39.1105 195.289C37.7705 194.419 36.9505 193.159 36.6805 191.519C36.6305 191.199 36.7105 190.879 36.9105 190.609C38.0105 189.149 49.2205 187.589 58.4305 186.539C58.7405 186.499 59.0405 186.609 59.2605 186.829L81.3305 209.259C81.7205 209.649 81.7105 210.289 81.3205 210.669C80.9305 211.059 80.2905 211.049 79.9105 210.659L58.1805 188.579C49.8805 189.539 40.9005 190.909 38.7805 191.729C39.0205 192.529 39.4905 193.149 40.2005 193.599C43.2005 195.529 49.1705 193.979 49.2305 193.959C49.6905 193.839 50.1805 194.059 50.3905 194.499C50.4305 194.569 53.9605 201.999 55.7005 204.779C56.9705 206.819 61.1605 204.789 61.2105 204.779C61.6705 204.549 62.2305 204.709 62.5005 205.139L66.0805 210.869C66.3705 211.339 66.2305 211.959 65.7605 212.249C65.6005 212.349 65.4105 212.399 65.2305 212.399Z" fill="black"/>
<path d="M86.9508 205.909L111.291 224.049L108.901 229.299L36.8308 230.249L32.3008 214.619L33.6408 211.039C33.6408 211.039 37.3108 216.409 43.0408 214.259C45.8808 213.189 45.5708 212.589 44.5408 212.249C42.6708 211.639 41.3308 209.989 40.9408 208.069L40.6208 206.469C40.6208 206.469 45.6608 204.349 52.7008 211.389C53.7708 212.459 83.8408 210.319 83.8408 210.319L86.9408 205.909H86.9508Z" fill="white"/>
<path d="M36.8302 231.249C36.3902 231.249 35.9902 230.959 35.8702 230.529L31.3402 214.899C31.2802 214.689 31.2902 214.469 31.3602 214.269L32.7002 210.689C32.8302 210.339 33.1502 210.089 33.5202 210.049C33.8902 209.999 34.2602 210.169 34.4702 210.479C34.6002 210.669 37.7802 215.169 42.6902 213.329C43.0602 213.189 43.3602 213.069 43.5902 212.959C41.7502 212.119 40.3902 210.379 39.9702 208.269L39.6502 206.669C39.5602 206.199 39.8102 205.739 40.2402 205.549C40.4702 205.449 45.9202 203.279 53.2802 210.559C55.2702 211.019 70.0002 210.299 83.3002 209.359L86.1302 205.329C86.2902 205.109 86.5202 204.959 86.7902 204.919C87.0602 204.879 87.3302 204.939 87.5502 205.109L111.89 223.249C112.27 223.529 112.4 224.039 112.2 224.469L109.81 229.719C109.65 230.069 109.3 230.299 108.91 230.309L36.8402 231.259H36.8302V231.249ZM33.3502 214.659L37.5802 229.239L108.25 228.299L110.04 224.359L87.1702 207.319L84.6602 210.889C84.4902 211.139 84.2102 211.289 83.9102 211.309C53.3902 213.489 52.3702 212.479 51.9902 212.089C47.0802 207.179 43.3502 206.989 41.7802 207.199L41.9102 207.859C42.2402 209.489 43.3602 210.809 44.8402 211.289C46.0002 211.669 46.2602 212.319 46.2702 212.789C46.2902 213.869 45.1302 214.529 43.3802 215.179C39.3002 216.709 35.9002 214.829 33.9802 212.959L33.3502 214.649V214.659Z" fill="black"/>
<path d="M84.9199 205.679L98.7399 163.289C100.56 156.689 108.34 153.849 113.98 157.719C129.59 168.419 155.54 186.309 155.79 187.059C156.15 188.129 166.53 228.219 166.53 228.219L134.3 227.929C129.19 227.879 124.23 226.229 120.12 223.189L114.36 218.909L111.23 225.709L84.9199 205.659V205.679Z" fill="#FF6700"/>
<path d="M110.241 227.259C110.101 227.259 109.951 227.229 109.811 227.159C109.311 226.919 109.101 226.319 109.341 225.829C120.401 202.729 116.901 180.649 116.861 180.429C116.771 179.889 117.141 179.369 117.681 179.279C118.231 179.199 118.741 179.559 118.831 180.099C118.871 180.329 122.481 202.999 111.141 226.689C110.971 227.049 110.611 227.259 110.241 227.259Z" fill="black"/>
<path d="M166.529 226.909H261.029L285.729 165.809L269.259 159.139C269.259 159.139 255.519 169.279 248.139 185.829C245.629 191.449 244.199 200.229 244.199 200.229C244.199 200.229 207.299 179.139 196.949 178.109C175.829 175.999 155.789 186.539 155.789 186.539L166.529 226.919V226.909Z" fill="white"/>
<path d="M261.03 227.909H166.53C165.98 227.909 165.53 227.459 165.53 226.909C165.53 226.359 165.98 225.909 166.53 225.909H260.35L284.42 166.359L269.41 160.279C267.03 162.159 255.49 171.779 249.05 186.229C246.63 191.659 245.2 200.289 245.19 200.379C245.14 200.699 244.93 200.979 244.63 201.119C244.33 201.259 243.99 201.249 243.7 201.089C243.33 200.879 206.87 180.089 196.85 179.089C176.3 177.029 156.45 187.299 156.25 187.409C155.76 187.659 155.16 187.479 154.9 186.989C154.64 186.499 154.83 185.899 155.32 185.639C155.52 185.529 175.87 174.979 197.05 177.099C206.54 178.049 236.85 194.919 243.46 198.649C243.98 195.909 245.27 189.789 247.22 185.409C254.62 168.809 268.09 158.749 268.66 158.329C268.94 158.119 269.3 158.079 269.63 158.209L286.1 164.879C286.61 165.089 286.86 165.669 286.65 166.179L261.95 227.279C261.8 227.659 261.43 227.899 261.02 227.899L261.03 227.909Z" fill="black"/>
<path d="M274.67 153.949L269.52 138.479L307.63 125.799C310.83 124.739 313.28 130.319 311.35 134.109L290.81 152.239C290.81 152.239 284.22 144.409 274.67 153.949Z" fill="white"/>
<path d="M274.532 153.539L270.852 142.489L308.962 129.809C312.162 128.749 313.792 131.869 311.592 134.839L291.082 152.149C291.082 152.149 284.632 145.639 274.532 153.539Z" fill="black"/>
<path d="M274.67 154.949C274.59 154.949 274.52 154.949 274.44 154.919C274.1 154.839 273.83 154.589 273.72 154.259L268.57 138.789C268.49 138.539 268.51 138.259 268.62 138.029C268.74 137.789 268.95 137.609 269.2 137.529L307.31 124.849C308.74 124.369 310.22 124.839 311.33 126.129C312.94 127.999 313.71 131.659 312.23 134.559C312.17 134.669 312.1 134.769 312 134.859L291.46 152.989C291.26 153.169 291 153.259 290.72 153.239C290.45 153.219 290.2 153.089 290.03 152.889C290.01 152.869 287.84 150.369 284.34 150.229C281.45 150.139 278.42 151.609 275.36 154.669C275.17 154.859 274.91 154.959 274.65 154.959L274.67 154.949ZM270.78 139.109L275.12 152.149C278.23 149.409 281.36 148.099 284.47 148.219C287.56 148.349 289.77 149.909 290.85 150.869L310.54 133.489C311.51 131.389 310.94 128.739 309.82 127.439C309.24 126.759 308.61 126.529 307.95 126.749L270.79 139.119L270.78 139.109Z" fill="black"/>
<path d="M242.838 157.069L229.398 147.829L252.168 114.729C254.078 111.949 259.398 114.929 260.148 119.119L254.688 145.969C254.688 145.969 244.708 143.689 242.838 157.069Z" fill="white"/>
<path d="M242.491 156.819L232.891 150.219L255.651 117.129C257.561 114.349 260.741 115.859 260.781 119.559L254.851 145.729C254.851 145.729 245.771 144.419 242.481 156.819H242.491Z" fill="black"/>
<path d="M242.84 158.069C242.64 158.069 242.44 158.009 242.27 157.889L228.83 148.649C228.37 148.339 228.26 147.709 228.57 147.259L251.34 114.169C252.2 112.919 253.65 112.409 255.32 112.769C257.73 113.289 260.55 115.739 261.12 118.949C261.14 119.069 261.14 119.199 261.12 119.319L255.66 146.169C255.61 146.429 255.45 146.669 255.22 146.809C254.99 146.959 254.72 147.009 254.46 146.939C254.43 146.939 251.19 146.249 248.32 148.249C245.94 149.909 244.43 152.919 243.83 157.209C243.78 157.549 243.56 157.849 243.24 157.989C243.11 158.049 242.97 158.079 242.84 158.079V158.069ZM230.8 147.569L242.12 155.359C242.95 151.299 244.66 148.349 247.21 146.589C249.76 144.829 252.46 144.739 253.89 144.859L259.12 119.119C258.63 116.859 256.58 115.089 254.9 114.719C254.02 114.529 253.38 114.719 252.99 115.299L230.79 147.569H230.8Z" fill="black"/>
<path d="M285.731 166.939C285.611 166.939 285.501 166.919 285.381 166.879C284.861 166.689 284.601 166.109 284.791 165.589L289.871 151.879C290.061 151.359 290.641 151.099 291.161 151.289C291.681 151.479 291.941 152.059 291.751 152.579L286.671 166.289C286.521 166.689 286.141 166.939 285.731 166.939Z" fill="black"/>
<path d="M269.259 160.139C268.999 160.139 268.739 160.039 268.539 159.829C268.159 159.429 268.169 158.799 268.569 158.419L273.979 153.229C274.379 152.849 275.009 152.859 275.389 153.259C275.769 153.659 275.759 154.289 275.359 154.669L269.949 159.859C269.759 160.049 269.509 160.139 269.259 160.139Z" fill="black"/>
<path d="M234.54 195.939C234.02 195.939 233.58 195.539 233.54 195.009C233.51 194.589 232.83 184.749 234.64 177.509C236.72 169.169 241.86 156.799 241.92 156.679C242.13 156.169 242.72 155.929 243.23 156.139C243.74 156.349 243.98 156.939 243.77 157.449C243.72 157.569 238.64 169.799 236.59 177.999C234.86 184.919 235.54 194.769 235.54 194.869C235.58 195.419 235.17 195.899 234.61 195.939C234.59 195.939 234.56 195.939 234.54 195.939Z" fill="black"/>
<path d="M258.76 169.689C258.28 169.689 257.86 169.349 257.78 168.869L253.71 146.149C253.61 145.609 253.97 145.089 254.52 144.989C255.06 144.899 255.58 145.249 255.68 145.799L259.75 168.519C259.85 169.059 259.49 169.579 258.94 169.679C258.88 169.689 258.82 169.699 258.76 169.699V169.689Z" fill="black"/>
<path d="M240.32 164.659C240.18 164.659 240.05 164.629 239.91 164.569C239.41 164.349 239.18 163.749 239.4 163.249C240.74 160.229 245.36 157.969 249.09 157.139C252.64 156.349 255.61 156.719 257.26 158.139C257.68 158.499 257.72 159.129 257.36 159.549C257 159.969 256.37 160.009 255.95 159.649C254.8 158.659 252.4 158.439 249.52 159.089C245.67 159.949 242.1 162.089 241.23 164.059C241.06 164.429 240.7 164.649 240.32 164.649V164.659Z" fill="black"/>
<path d="M54.1401 191.119C54.1401 191.119 45.9601 195.299 49.3401 197.389C52.7301 199.479 59.5001 195.819 59.5001 195.819L54.1401 191.109V191.119Z" fill="white"/>
<path d="M52.02 199.039C50.87 199.039 49.76 198.819 48.82 198.239C47.71 197.549 47.5 196.679 47.53 196.069C47.63 193.519 52.27 190.949 53.69 190.229C54.18 189.979 54.78 190.169 55.03 190.669C55.28 191.159 55.09 191.759 54.6 192.019C52.23 193.229 49.57 195.229 49.53 196.159C49.53 196.269 49.64 196.409 49.88 196.549C52.25 198.019 57.29 195.889 59.04 194.949C59.53 194.689 60.13 194.869 60.4 195.349C60.66 195.839 60.48 196.439 60 196.709C59.44 197.009 55.54 199.049 52.04 199.049L52.02 199.039Z" fill="black"/>
</svg>
