<svg width="276" height="172" viewBox="0 0 276 172" fill="none" xmlns="http://www.w3.org/2000/svg">
<g clip-path="url(#clip0_451_9752)">
<path d="M136.723 124.331C120.235 124.331 109.143 120.982 103.723 114.359C98.9573 108.53 98.779 100.284 103.195 89.8525C104.311 87.2133 106.832 84.3114 109.496 81.2438C115.119 74.7708 121.493 67.4316 117.915 59.639C112.011 46.7837 113.771 33.7908 113.849 33.2467C114.419 26.755 120.048 19.3689 129.286 13.0304C137.867 7.14217 147.565 3.59297 154.601 3.77121C155.111 3.78372 155.511 4.20587 155.499 4.71558C155.486 5.21591 155.077 5.61304 154.579 5.61304C154.57 5.61304 154.564 5.61304 154.558 5.61304C147.95 5.44731 138.483 8.95898 130.33 14.5501C121.677 20.4884 116.198 27.5555 115.682 33.4563C115.657 33.6345 113.921 46.5242 119.591 58.8698C123.666 67.7412 116.583 75.8965 110.891 82.4508C108.324 85.4059 105.897 88.1983 104.893 90.5686C100.762 100.322 100.849 107.933 105.149 113.19C118.175 129.113 165.328 119.728 165.803 119.631C166.301 119.531 166.788 119.85 166.888 120.351C166.989 120.848 166.67 121.336 166.169 121.436C166.047 121.461 153.929 123.9 140.31 124.275C139.087 124.309 137.889 124.325 136.719 124.325L136.723 124.331Z" fill="#080717"/>
<path d="M120.532 58.8072C113.618 46.593 114.372 33.3562 114.372 33.3562C114.412 19.6722 137.479 2.25773 151.624 1.4103C153.797 0.806779 156.083 0.481566 158.451 0.48782C172.37 0.528472 183.622 11.8484 183.579 25.7669L183.557 33.4844C184.235 37.6778 184.623 41.4177 184.977 44.0257C186.593 56.0116 197.752 55.6333 203.102 61.8467C208.456 68.0601 203.068 73.4168 203.866 82.5071C204.569 90.5029 211.365 90.5342 216.059 99.143C212.756 104.256 208.854 108.94 204.447 113.099C191.09 115.935 172.774 115.879 172.774 115.879C172.774 115.879 92.6305 139.404 108.492 90.8938C111.154 82.751 127.153 70.4992 120.535 58.8041L120.532 58.8072Z" fill="#080717"/>
<path d="M201.367 42.459C201.667 27.7525 194.634 15.5446 194.634 15.5446C188.023 2.58608 159.073 -3.51166 146.048 2.07324C143.822 2.48288 141.623 3.20836 139.515 4.28094C127.115 10.6069 122.515 26.4204 129.242 39.6009L132.97 46.9088C134.377 51.1929 135.831 54.9141 136.769 57.5439C141.088 69.6424 130.95 74.3205 129.161 82.6291C127.372 90.9376 134.749 93.5831 138.408 102.567C141.623 110.466 135.572 113.565 135.522 123.85C140.926 127.208 146.658 129.885 152.587 131.839C165.866 128.497 182.181 120.172 182.181 120.172C182.181 120.172 264.989 106.288 227.53 67.4504C221.241 60.9305 201.082 56.537 201.367 42.459Z" fill="#080717"/>
<path d="M162.986 78.5045C173.149 77.0035 197.136 74.5488 197.136 74.5488L216.316 83.8674L271.256 138.803L256.048 171.994H88.7749L117.133 105.066C122.109 93.3267 132.532 84.7805 145.019 82.2038L162.986 78.4982V78.5045Z" fill="#FF6700"/>
<path d="M220.522 109.293C225.769 96.3851 219.557 81.6679 206.648 76.4212C193.739 71.1745 179.021 77.3853 173.774 90.2933C168.527 103.201 174.738 117.919 187.647 123.165C200.556 128.412 215.275 122.201 220.522 109.293Z" fill="#FF6700"/>
<path d="M224.215 147.822C223.977 147.822 223.743 147.731 223.564 147.55L210.524 134.479C210.164 134.119 210.164 133.534 210.524 133.175C210.883 132.815 211.468 132.815 211.825 133.175L224.865 146.246C225.225 146.605 225.225 147.19 224.865 147.55C224.687 147.728 224.45 147.819 224.215 147.819V147.822Z" fill="white"/>
<path d="M218.045 148.553C218.026 148.372 217.936 148.206 217.795 148.091C217.651 147.978 217.464 147.925 217.288 147.95L171.627 153.769C169.61 151.018 166.151 146.527 160.187 139.11C159.305 138.009 157.985 137.377 156.572 137.377H155.874L155.33 136.683C154.201 135.248 152.334 134.613 150.533 135.057L149.229 133.972C147.553 132.574 145.095 132.543 143.375 133.897L142.921 134.266C142.902 134.272 142.884 134.266 142.865 134.275L129.674 139.219C129.539 139.269 129.421 139.363 129.342 139.488L120.123 153.876C119.964 154.123 119.986 154.445 120.173 154.673C120.799 155.42 122.197 156.427 124.017 156.427C124.817 156.427 125.699 156.23 126.631 155.736C127.597 155.22 128.389 154.673 129.055 154.145L126.359 160.962C126.225 161.296 126.381 161.678 126.709 161.828C127.066 161.99 129.446 163.022 131.522 163.022C132.285 163.022 132.998 162.872 133.561 162.503C134.327 163.007 135.362 163.454 136.463 163.454C137.348 163.454 138.274 163.166 139.131 162.387C139.797 161.784 140.407 161.077 140.954 160.361C140.97 160.549 141.032 160.73 141.186 160.852C141.78 161.309 142.662 161.809 143.587 162.031C143.6 162.053 143.606 162.075 143.622 162.097C143.869 162.394 149.692 169.417 154.727 170.424C160.347 171.547 168.456 171.562 168.796 171.562H219.606C219.797 171.562 219.981 171.481 220.106 171.34C220.234 171.199 220.297 171.009 220.275 170.821L218.026 148.566L218.045 148.553Z" fill="white"/>
<path d="M171.508 155.389C171.051 155.389 170.654 155.048 170.595 154.585C170.532 154.082 170.888 153.619 171.392 153.554L217.257 147.709C217.757 147.647 218.223 148 218.286 148.507C218.348 149.01 217.992 149.473 217.488 149.535L171.623 155.38C171.583 155.386 171.545 155.386 171.505 155.386L171.508 155.389Z" fill="black"/>
<path d="M131.51 163.272C129.471 163.272 127.197 162.316 126.615 162.05C126.165 161.846 125.956 161.327 126.137 160.871L132.736 144.179C133.477 142.302 134.696 140.639 136.26 139.366L143.221 133.706C145.035 132.277 147.621 132.315 149.385 133.781L150.596 134.788C152.447 134.382 154.358 135.051 155.521 136.53L155.993 137.13H156.569C158.057 137.13 159.446 137.793 160.378 138.953C174.679 156.749 174.679 157.788 174.679 158.285C174.679 158.782 174.266 159.207 173.756 159.207C173.293 159.207 172.909 158.863 172.843 158.416C172.402 157.253 166.967 150.095 158.939 140.11C158.361 139.388 157.494 138.975 156.569 138.975H155.543C155.258 138.975 154.993 138.844 154.817 138.622L154.07 137.671C153.279 136.664 151.928 136.261 150.711 136.664C150.405 136.764 150.026 136.718 149.782 136.514L148.203 135.198C147.105 134.282 145.492 134.26 144.369 135.145L137.42 140.798C136.1 141.871 135.072 143.275 134.446 144.857L128.182 160.699C129.821 161.302 131.935 161.743 132.732 161.146C133.139 160.84 133.717 160.924 134.021 161.331C134.327 161.737 134.243 162.316 133.836 162.619C133.201 163.094 132.376 163.269 131.506 163.269L131.51 163.272Z" fill="black"/>
<path d="M136.476 163.701C134.89 163.701 133.433 162.825 132.663 162.112C132.391 161.859 132.294 161.465 132.426 161.115L136.566 149.901C137.442 147.531 138.765 145.395 140.5 143.556L145.657 138.097C146.008 137.728 146.589 137.709 146.958 138.059C147.327 138.409 147.346 138.991 146.996 139.36L141.839 144.82C140.275 146.477 139.081 148.4 138.292 150.536L134.387 161.118C135.156 161.64 136.729 162.412 138.064 161.199C140.375 159.098 142.105 155.455 142.123 155.417C142.339 154.958 142.887 154.761 143.349 154.976C143.809 155.192 144.006 155.742 143.79 156.202C143.715 156.365 141.883 160.217 139.306 162.559C138.396 163.388 137.414 163.691 136.479 163.691L136.476 163.701Z" fill="black"/>
<path d="M144.529 162.387C143.218 162.387 141.87 161.678 141.045 161.043C140.741 160.808 140.613 160.414 140.723 160.048L142.702 153.407C143.525 150.649 145.092 148.184 147.237 146.283C151.715 142.312 152.219 142.059 152.434 141.952C152.888 141.724 153.441 141.908 153.67 142.365C153.895 142.818 153.713 143.369 153.263 143.597C153.119 143.678 152.35 144.21 148.46 147.662C146.571 149.338 145.188 151.505 144.466 153.935L142.684 159.917C143.412 160.342 144.726 160.933 145.407 160.155C146.94 158.407 150.718 153.297 150.755 153.244C150.811 153.166 150.883 153.097 150.961 153.041L155.684 149.67C156.1 149.373 156.672 149.47 156.969 149.882C157.263 150.295 157.169 150.871 156.753 151.168L152.15 154.454C151.559 155.255 148.259 159.689 146.793 161.365C146.142 162.106 145.342 162.384 144.525 162.384L144.529 162.387Z" fill="black"/>
<path d="M219.621 171.8H168.812C168.468 171.8 160.337 171.787 154.692 170.659C149.585 169.636 143.418 162.566 143.159 162.266C142.824 161.881 142.868 161.299 143.253 160.968C143.637 160.636 144.219 160.677 144.551 161.062C144.61 161.13 150.564 167.957 155.052 168.854C160.515 169.949 168.728 169.961 168.812 169.961H219.621C220.131 169.961 220.544 170.374 220.544 170.884C220.544 171.393 220.131 171.806 219.621 171.806V171.8Z" fill="black"/>
<path d="M124.023 156.677C122.115 156.677 120.645 155.621 119.992 154.833C119.735 154.523 119.707 154.085 119.923 153.747L129.139 139.36C129.242 139.197 129.395 139.072 129.574 139L141.939 134.053C142.411 133.866 142.946 134.094 143.137 134.566C143.328 135.038 143.096 135.576 142.624 135.764L130.534 140.601L121.887 154.098C122.587 154.639 123.998 155.336 125.887 154.329C128.964 152.687 130.24 150.639 130.252 150.617C130.518 150.183 131.084 150.045 131.516 150.308C131.95 150.57 132.091 151.133 131.829 151.568C131.769 151.668 130.306 154.057 126.75 155.952C125.777 156.471 124.858 156.674 124.02 156.674L124.023 156.677Z" fill="black"/>
<path d="M155.659 157.187C155.346 157.187 155.043 157.031 154.871 156.743C153.592 154.636 153.041 154.07 152.907 153.951C152.594 153.804 152.375 153.485 152.375 153.116C152.375 152.606 152.788 152.193 153.298 152.193C153.707 152.193 154.267 152.193 156.447 155.783C156.709 156.218 156.572 156.784 156.137 157.05C155.987 157.14 155.821 157.184 155.659 157.184V157.187Z" fill="black"/>
<path d="M270.158 166.158C277.948 158.368 277.948 145.738 270.158 137.948C262.367 130.158 249.736 130.158 241.945 137.948C234.155 145.738 234.155 158.368 241.945 166.158C249.736 173.947 262.367 173.947 270.158 166.158Z" fill="#FF6700"/>
<path d="M219.052 149.213C218.576 149.213 218.176 148.85 218.135 148.369C218.095 147.862 218.47 147.418 218.977 147.375L235.714 145.98C236.252 145.945 236.668 146.314 236.708 146.821C236.749 147.328 236.374 147.772 235.867 147.815L219.13 149.21C219.102 149.21 219.077 149.213 219.052 149.213Z" fill="white"/>
<path d="M19.3549 171.593H105.468L83.4209 89.3147C82.1512 84.5803 76.9567 80.9623 72.4722 81.6972L4.75045 92.7669C1.15406 93.3548 -0.744217 96.5882 0.272156 100.384L19.3549 171.593Z" fill="#080717"/>
<path d="M166.038 171.594H53.9869V162.256H162.914C164.637 162.256 166.038 163.654 166.038 165.38V171.594Z" fill="#080717"/>
<path d="M39.6607 132.928C41.2275 137.556 44.9991 140.461 48.0857 139.413C51.1723 138.369 52.4014 133.769 50.8346 129.141C49.2678 124.513 45.4963 121.608 42.4096 122.655C39.323 123.7 38.094 128.3 39.6607 132.928Z" fill="white"/>
<path d="M164.355 97.2918C174.947 94.3992 181.19 83.4671 178.297 72.8758L172.505 51.6713L142.289 59.9236L150.304 89.2709C151.968 95.3655 158.26 98.9585 164.355 97.2918Z" fill="white"/>
<path d="M148.043 80.9873L142.289 59.9204L161.481 54.6795L169.578 60.2112C167.007 69.5799 159.477 77.1442 148.04 80.9873H148.043Z" fill="#080717"/>
<path d="M148.315 72.0127C162.235 72.0534 173.556 60.8054 173.597 46.8869L173.644 31.1141C173.684 17.1956 162.435 5.87571 148.516 5.83506C134.596 5.79128 123.275 17.0424 123.235 30.9609L123.188 46.7337C123.144 60.6522 134.396 71.9721 148.315 72.0127Z" fill="white"/>
<path d="M150.314 4.25905C165.412 4.30595 177.618 16.1418 177.574 30.6982L177.559 36.1299C166.929 42.8343 152.528 41.6585 143.218 32.6307L131.153 20.9293C129.661 19.4815 128.385 17.9055 127.312 16.2419C132.207 9.00277 140.682 4.22465 150.311 4.25592L150.314 4.25905Z" fill="#080717"/>
<path d="M169.384 51.934C173.231 53.6695 177.759 51.959 179.495 48.1127L180.005 46.9838C181.74 43.1376 180.03 38.6096 176.183 36.8741C172.336 35.1386 167.808 36.8491 166.069 40.6954L165.56 41.8242C163.824 45.6705 165.535 50.1985 169.381 51.934H169.384Z" fill="white"/>
<path d="M126.23 41.7242C126.531 43.5816 127.735 44.9325 128.917 44.7418C130.099 44.551 130.815 42.8874 130.512 41.03C130.211 39.1725 129.007 37.8216 127.825 38.0124C126.643 38.2031 125.927 39.8667 126.23 41.7242Z" fill="#080717"/>
<path d="M119.797 37.9311C119.582 37.9311 119.366 37.856 119.194 37.7028C118.809 37.3682 118.768 36.7866 119.106 36.4019C123.406 31.4675 130.743 32.6557 131.052 32.7089C131.553 32.7933 131.891 33.2686 131.806 33.769C131.722 34.2693 131.246 34.607 130.746 34.5226C130.677 34.5132 124.11 33.4625 120.495 37.609C120.313 37.8185 120.057 37.9248 119.8 37.9248L119.797 37.9311Z" fill="#080717"/>
<path d="M143.071 40.1231C143.371 41.9806 144.575 43.3315 145.757 43.1407C146.94 42.95 147.656 41.2864 147.352 39.4289C147.052 37.5715 145.848 36.2206 144.666 36.4113C143.484 36.6021 142.768 38.2657 143.071 40.1231Z" fill="#080717"/>
<path d="M138.302 35.395C138.036 35.395 137.77 35.2793 137.589 35.0573C137.267 34.6633 137.323 34.0848 137.717 33.7596C142.774 29.6069 149.813 31.9866 150.11 32.0898C150.589 32.2555 150.842 32.7808 150.677 33.2624C150.511 33.744 149.982 33.9973 149.504 33.8315C149.441 33.8096 143.137 31.6926 138.887 35.1824C138.715 35.3231 138.508 35.3919 138.302 35.3919V35.395Z" fill="#080717"/>
<path d="M136.81 53.2723C136.407 53.2723 132.851 53.2067 131.553 51.3398C131.181 50.8051 130.837 49.8982 131.309 48.6099C132.282 45.9613 134.08 37.3682 134.096 37.2837C134.199 36.7865 134.69 36.4645 135.184 36.5708C135.681 36.674 136 37.1618 135.897 37.6621C135.822 38.0217 134.055 46.4741 133.036 49.2478C132.82 49.8357 132.948 50.1234 133.061 50.2891C133.652 51.1397 135.844 51.4274 136.813 51.4305C137.32 51.4305 137.733 51.8464 137.73 52.3561C137.73 52.8627 137.317 53.2723 136.81 53.2723Z" fill="#080717"/>
<path d="M138.03 59.4733C137.545 59.4733 137.138 59.0949 137.11 58.6071C137.079 58.1005 137.467 57.6627 137.973 57.6314C142.408 57.3688 145.01 53.7445 145.035 53.707C145.329 53.2911 145.901 53.191 146.317 53.4819C146.733 53.7727 146.836 54.3449 146.545 54.7608C146.42 54.9391 143.427 59.1512 138.083 59.4701C138.064 59.4701 138.045 59.4701 138.026 59.4701L138.03 59.4733Z" fill="#080717"/>
<path d="M170.601 48.2097C170.119 48.2097 169.716 47.8375 169.681 47.3497C169.247 40.8736 173.4 39.0818 173.578 39.0099C174.047 38.816 174.585 39.038 174.782 39.5102C174.976 39.9793 174.754 40.514 174.288 40.711C174.15 40.7735 171.179 42.1401 171.52 47.2278C171.555 47.7344 171.17 48.1753 170.663 48.2097C170.641 48.2097 170.623 48.2097 170.601 48.2097Z" fill="#080717"/>
</g>
<defs>
<clipPath id="clip0_451_9752">
<rect width="276" height="172" fill="white"/>
</clipPath>
</defs>
</svg>
