<svg width="377" height="362" viewBox="0 0 377 362" fill="none" xmlns="http://www.w3.org/2000/svg">
<path d="M180.664 203.153L163.432 241.785C166.864 244.249 179.079 251.813 200.474 269.572C223.094 288.349 237.817 285.201 245.169 273.326L275.196 223.538C278.557 226.366 306.809 244.935 296.08 214.878C282.942 178.071 261.866 197.643 254.202 205.871C246.538 214.1 212.479 230.936 212.479 230.936L180.664 203.153Z" fill="white"/>
<path fill-rule="evenodd" clip-rule="evenodd" d="M150.709 154.714C151.684 154.912 152.314 155.863 152.117 156.838L148.838 172.998C153.981 176.312 161.325 181.893 169.584 189.525C173.53 193.171 177.689 197.289 181.922 201.858L212.755 228.784C212.876 228.723 213.007 228.657 213.147 228.587C214.089 228.113 215.445 227.425 217.095 226.575C220.398 224.873 224.878 222.52 229.595 219.912C234.315 217.302 239.253 214.447 243.478 211.741C247.75 209.005 251.139 206.516 252.884 204.643C254.832 202.551 257.672 199.695 261.058 197.183C264.428 194.684 268.46 192.436 272.791 191.709C277.204 190.968 281.841 191.828 286.211 195.388C290.51 198.891 294.437 204.912 297.778 214.272C299.147 218.106 299.926 221.252 300.194 223.808C300.46 226.346 300.238 228.457 299.436 230.1C298.595 231.822 297.202 232.853 295.555 233.309C293.983 233.745 292.243 233.645 290.566 233.307C287.212 232.63 283.503 230.871 280.5 229.174C278.62 228.112 276.941 227.03 275.712 226.172L246.713 274.256L246.702 274.274C242.755 280.65 236.694 284.828 228.529 284.745C220.505 284.663 210.775 280.464 199.323 270.959C181.963 256.548 170.709 248.904 165.235 245.203L165.235 314.023C165.235 315.019 164.428 315.826 163.432 315.826C162.437 315.826 161.63 315.019 161.63 314.023L161.63 241.785C161.63 241.532 161.683 241.282 161.786 241.051L178.533 203.508C175 199.731 171.526 196.276 168.197 193.158C146.445 207.998 125.495 206.307 108.212 198.055C90.7229 189.705 76.9783 174.658 69.6428 163.343C69.1013 162.508 69.3394 161.392 70.1746 160.85C71.0098 160.309 72.1257 160.547 72.6672 161.382C79.7568 172.318 93.043 186.819 109.765 194.802C125.884 202.498 145.185 204.156 165.471 190.649C157.453 183.399 150.488 178.249 145.875 175.389C145.234 174.992 144.908 174.238 145.058 173.499L148.584 156.122C148.782 155.146 149.733 154.516 150.709 154.714ZM181.317 206.115L165.686 241.156C166.072 241.418 166.51 241.714 166.999 242.045C172.333 245.648 183.839 253.422 201.625 268.185C212.794 277.456 221.736 281.071 228.566 281.141C235.252 281.209 240.228 277.879 243.632 272.386C243.634 272.383 243.636 272.38 243.638 272.377L272.862 223.919C269.877 221.354 266.992 218.676 264.435 216.163C263.725 215.466 263.716 214.325 264.413 213.615C265.111 212.905 266.252 212.895 266.962 213.593C269.795 216.377 273.036 219.365 276.357 222.159C277.084 222.771 279.379 224.401 282.273 226.036C285.177 227.677 288.49 229.211 291.278 229.773C292.673 230.055 293.783 230.06 294.593 229.836C295.327 229.632 295.845 229.239 296.197 228.518C296.587 227.719 296.839 226.372 296.609 224.184C296.382 222.013 295.697 219.164 294.384 215.484C291.156 206.44 287.521 201.105 283.934 198.183C280.418 195.318 276.843 194.683 273.387 195.263C269.849 195.857 266.353 197.744 263.205 200.079C260.074 202.401 257.405 205.077 255.521 207.099C253.434 209.34 249.692 212.041 245.422 214.776C241.105 217.541 236.092 220.438 231.339 223.066C226.583 225.696 222.069 228.067 218.746 229.779C217.084 230.635 215.719 231.328 214.768 231.806C214.301 232.041 213.935 232.225 213.682 232.351L209.681 237.911C209.1 238.719 207.974 238.902 207.166 238.321C206.358 237.74 206.174 236.613 206.756 235.806L210.059 231.215L181.317 206.115Z" fill="black"/>
<path d="M29.0077 190.861C20.7941 202.591 17.511 222.474 20.7957 241.801L20.7956 307.873C27.6784 311.112 152.593 314.04 163.43 314.04L163.43 241.802L180.662 203.17C176.44 198.609 172.292 194.5 168.359 190.866C124.326 208.658 89.4831 179.971 75.7707 168.011C56.9174 170.369 37.2221 179.129 29.0077 190.861Z" fill="#FF6700"/>
<path fill-rule="evenodd" clip-rule="evenodd" d="M263.203 200.095C260.072 202.417 257.403 205.093 255.519 207.116C253.432 209.357 249.69 212.058 245.42 214.793C241.103 217.558 236.09 220.455 231.337 223.083C226.58 225.713 222.067 228.083 218.744 229.795C217.082 230.652 215.717 231.344 214.766 231.823C214.299 232.058 213.932 232.241 213.679 232.368L209.679 237.927C209.098 238.735 207.972 238.919 207.164 238.337C206.356 237.756 206.172 236.63 206.753 235.822L210.056 231.231L181.314 206.131L165.684 241.172C166.07 241.435 166.507 241.731 166.997 242.061C172.331 245.665 183.837 253.438 201.623 268.202C212.792 277.473 221.734 281.088 228.564 281.157C235.25 281.226 240.225 277.896 243.63 272.402C243.632 272.399 243.634 272.396 243.635 272.393L272.86 223.935C269.874 221.37 266.989 218.693 264.433 216.18C263.723 215.482 263.713 214.341 264.411 213.631C265.109 212.921 266.25 212.912 266.96 213.609C269.792 216.394 273.034 219.381 276.354 222.176C277.082 222.788 279.377 224.417 282.27 226.052C285.175 227.693 288.488 229.227 291.276 229.79C292.67 230.071 293.781 230.076 294.59 229.852C295.325 229.649 295.843 229.255 296.195 228.535C296.585 227.736 296.836 226.388 296.607 224.2C296.38 222.03 295.695 219.181 294.381 215.5C291.153 206.457 287.519 201.122 283.932 198.199C280.415 195.334 276.841 194.7 273.385 195.28C269.847 195.874 266.351 197.76 263.203 200.095ZM275.71 226.189C276.938 227.047 278.617 228.128 280.497 229.19C283.5 230.887 287.21 232.647 290.564 233.323C292.24 233.661 293.981 233.761 295.553 233.326C297.2 232.869 298.593 231.838 299.434 230.117C300.236 228.474 300.458 226.363 300.192 223.824C299.924 221.268 299.145 218.123 297.776 214.289C294.435 204.929 290.508 198.908 286.209 195.405C281.839 191.844 277.202 190.985 272.788 191.725C268.457 192.452 264.426 194.701 261.056 197.2C257.67 199.711 254.83 202.568 252.882 204.659C251.137 206.532 247.747 209.022 243.476 211.758C239.251 214.464 234.313 217.319 229.593 219.928C224.876 222.536 220.396 224.89 217.093 226.591C215.442 227.442 214.087 228.129 213.145 228.603C213.005 228.674 212.874 228.74 212.753 228.801L181.92 201.875C177.687 197.306 173.527 193.187 169.582 189.541C160.735 181.367 152.938 175.545 147.772 172.342C146.926 171.818 145.815 172.079 145.29 172.925C144.766 173.771 145.027 174.881 145.873 175.406C150.393 178.208 157.171 183.209 164.986 190.23C123.32 205.378 90.4077 178.385 76.9552 166.652C76.5684 166.315 76.0562 166.158 75.5469 166.222C65.9367 167.424 56.1129 170.256 47.6254 174.293C39.1636 178.318 31.8836 183.611 27.5313 189.826C18.9844 202.033 15.6997 222.37 18.9933 241.952L18.9932 307.873C18.9932 308.571 19.3964 309.206 20.028 309.503C20.732 309.835 21.8837 310.064 23.1384 310.257C24.4834 310.464 26.2224 310.665 28.285 310.862C32.4146 311.255 37.9277 311.637 44.3596 312.002C57.2281 312.733 73.8424 313.403 90.5687 313.972C124.011 315.109 157.977 315.842 163.43 315.842C164.425 315.842 165.232 315.035 165.232 314.04L165.232 245.219C170.707 248.92 181.96 256.565 199.321 270.975C210.772 280.481 220.502 284.68 228.527 284.762C236.692 284.845 242.752 280.667 246.7 274.291L246.711 274.273L275.71 226.189ZM167.965 192.96C124.001 210.051 89.1979 182.054 75.1989 169.902C66.2104 171.112 57.0676 173.793 49.1736 177.548C41.0208 181.426 34.346 186.378 30.4839 191.894C22.6254 203.117 19.3389 222.473 22.5723 241.499C22.5892 241.599 22.5977 241.7 22.5977 241.801L22.5977 306.507C22.9059 306.567 23.2685 306.63 23.6866 306.694C24.9328 306.886 26.5939 307.08 28.6268 307.274C32.6882 307.66 38.148 308.039 44.5641 308.403C57.3915 309.132 73.9737 309.801 90.6911 310.37C121.486 311.417 152.676 312.119 161.628 312.224L161.628 241.801C161.628 241.548 161.681 241.298 161.784 241.067L178.531 203.524C174.916 199.66 171.364 196.134 167.965 192.96Z" fill="black"/>
<path d="M203.134 266.385C208.639 273.51 202.273 273.506 185.965 286.108C161.732 305.885 128.125 318.787 82.8688 320.919C64.6568 321.776 47.946 299.62 37.7259 282.641C32.0994 273.294 27.8839 264.734 24.8098 256.92L65.0395 242.502C69.1633 255.956 74.6315 268.536 78.9933 275.63C132.969 285.175 164.843 265.655 164.843 265.655C170.038 265.496 188.893 247.956 203.134 266.385Z" fill="white"/>
<path fill-rule="evenodd" clip-rule="evenodd" d="M192.303 256.723C196.599 257.777 200.782 260.394 204.559 265.282C205.966 267.102 206.988 268.905 206.865 270.816C206.737 272.797 205.428 274.281 203.886 275.573C202.528 276.711 200.642 277.973 198.374 279.491C198.027 279.724 197.671 279.962 197.306 280.207C194.519 282.078 191.108 284.411 187.085 287.518C162.499 307.577 128.505 320.573 82.9532 322.718C73.0874 323.183 63.887 317.423 56.0405 309.757C48.1489 302.047 41.3238 292.113 36.1814 283.57C30.5097 274.147 26.2475 265.497 23.1323 257.579C22.9538 257.125 22.9668 256.618 23.1682 256.174C23.3696 255.73 23.7424 255.387 24.2014 255.222L64.4311 240.805C64.8948 240.638 65.4063 240.669 65.8467 240.89C66.287 241.111 66.6179 241.502 66.7622 241.973C70.7258 254.905 75.9227 266.957 80.1106 273.995C106.445 278.528 127.37 276.068 141.72 272.473C148.971 270.656 154.546 268.549 158.295 266.905C160.169 266.082 161.586 265.376 162.527 264.88C162.997 264.632 163.349 264.437 163.579 264.305C163.694 264.24 163.778 264.19 163.832 264.159L163.89 264.124L163.901 264.117M163.902 264.117C164.169 263.953 164.474 263.862 164.787 263.853C165.052 263.845 165.629 263.693 166.668 263.235C167.553 262.845 168.582 262.323 169.788 261.711C169.923 261.643 170.06 261.573 170.2 261.502C172.918 260.125 176.339 258.422 180.087 257.32C183.845 256.215 188.04 255.677 192.303 256.723M165.411 267.41C165.396 267.419 165.38 267.427 165.364 267.437C165.101 267.587 164.715 267.801 164.208 268.068C163.195 268.603 161.7 269.347 159.743 270.205C155.828 271.923 150.061 274.099 142.596 275.969C127.661 279.711 105.942 282.225 78.679 277.404C78.172 277.314 77.7274 277.012 77.4577 276.573C73.1885 269.63 67.9564 257.695 63.878 244.832L27.179 257.984C30.1445 265.227 34.1016 273.125 39.2695 281.711C44.3472 290.147 50.9875 299.781 58.5594 307.179C66.1763 314.621 74.4373 319.511 82.7836 319.118C127.734 317.001 160.948 304.198 184.825 284.711L184.863 284.681C188.986 281.495 192.479 279.107 195.297 277.215C195.669 276.964 196.028 276.724 196.374 276.493C198.678 274.949 200.375 273.813 201.571 272.81C202.971 271.638 203.241 270.998 203.268 270.583C203.299 270.097 203.053 269.228 201.707 267.486C198.364 263.159 194.851 261.059 191.444 260.223C188.004 259.379 184.491 259.782 181.105 260.778C177.709 261.776 174.553 263.337 171.829 264.717C171.688 264.789 171.548 264.86 171.409 264.93C170.227 265.53 169.104 266.1 168.122 266.533C167.25 266.918 166.303 267.283 165.411 267.41Z" fill="black"/>
<path d="M153.82 306.871C153.82 302.889 157.048 299.662 161.029 299.662H327.263C331.244 299.662 334.472 302.889 334.472 306.871V308.876C334.472 312.857 331.244 316.085 327.263 316.085H161.029C157.048 316.085 153.82 312.857 153.82 308.876V306.871Z" fill="#080717"/>
<path fill-rule="evenodd" clip-rule="evenodd" d="M327.263 303.266H161.029C159.038 303.266 157.425 304.88 157.425 306.871V308.876C157.425 310.867 159.038 312.48 161.029 312.48H327.263C329.254 312.48 330.867 310.867 330.867 308.876V306.871C330.867 304.88 329.254 303.266 327.263 303.266ZM161.029 299.662C157.048 299.662 153.82 302.889 153.82 306.871V308.876C153.82 312.857 157.048 316.085 161.029 316.085H327.263C331.244 316.085 334.472 312.857 334.472 308.876V306.871C334.472 302.889 331.244 299.662 327.263 299.662H161.029Z" fill="black"/>
<path d="M235.328 215.073C236.527 212.57 239.055 210.978 241.83 210.978H369.012C374.318 210.978 377.805 216.516 375.513 221.301L338.368 298.851C337.169 301.354 334.641 302.946 331.866 302.946H204.684C199.378 302.946 195.89 297.408 198.182 292.623L235.328 215.073Z" fill="#080717"/>
<path fill-rule="evenodd" clip-rule="evenodd" d="M369.012 214.582H241.83C240.442 214.582 239.178 215.379 238.579 216.63L201.433 294.18C200.287 296.573 202.031 299.342 204.684 299.342H331.866C333.253 299.342 334.517 298.545 335.117 297.294L372.263 219.744C373.409 217.351 371.665 214.582 369.012 214.582ZM241.83 210.978C239.055 210.978 236.527 212.57 235.328 215.073L198.182 292.623C195.89 297.408 199.378 302.946 204.684 302.946H331.866C334.641 302.946 337.169 301.354 338.368 298.851L375.513 221.301C377.805 216.516 374.318 210.978 369.012 210.978H241.83Z" fill="black"/>
<path d="M122.404 107.909C116.496 105.759 105.529 98.2867 108.929 85.5961C112.33 72.9055 122.622 76.7967 127.343 80.3287C133.063 83.6649 145.231 77.0222 154.198 70.9238C167.953 64.0065 197.895 81.8305 208.249 78.5963C232.951 70.8794 223.295 27.2038 183.239 25.9922C175.964 26.3092 161.165 25.4638 154.592 37.3029C131.139 10.616 62.5195 49.6969 82.6602 121.742C76.2133 124.785 69.7324 138.839 70.0463 153.388C70.1425 157.85 70.8781 162.36 72.4501 166.613C90.2036 164.914 100.001 158.55 103.342 157.209C109.439 154.762 118.59 123.323 122.404 107.909Z" fill="#080717"/>
<path d="M72.4501 166.613C70.8781 162.36 70.1425 157.85 70.0463 153.388C62.7753 156.715 49.7199 167.183 55.6661 182.44C61.4136 173.07 67.4462 167.091 72.4501 166.613Z" fill="#080717"/>
<path d="M151.074 156.742L146.485 173.869C150.023 176.373 163.089 184.031 167.083 189.636C177.507 176.115 167.516 159.221 165.332 154.095C160.588 156.788 155.747 157.984 151.074 156.742Z" fill="#080717"/>
<path fill-rule="evenodd" clip-rule="evenodd" d="M210.151 79.8455C216.112 77.5767 220.1 73.2341 222.084 67.9231C224.2 62.2609 224.011 55.595 221.725 49.2447C217.132 36.4907 204.037 24.8187 183.294 24.1913L183.228 24.1893L183.162 24.1922C182.516 24.2203 181.79 24.2387 181 24.2588C177.534 24.3468 172.835 24.4661 168.231 25.5751C163.135 26.8027 157.926 29.2848 154.294 34.3983C148.044 28.48 139.46 26.3216 130.43 27.3157C120.591 28.3989 110.108 33.2193 101.09 41.1447C83.2233 56.8461 70.9745 84.8369 80.5556 120.872C79.0968 121.841 77.7321 123.213 76.4949 124.83C74.8733 126.95 73.3962 129.588 72.1559 132.556C69.8046 138.183 68.2491 145.131 68.2341 152.265C64.5017 154.173 59.7509 157.615 56.4202 162.413C52.7112 167.756 50.76 174.813 53.9878 183.095L55.3057 186.477L57.2033 183.383C60.0275 178.779 62.8797 175.079 65.583 172.496C68.0089 170.177 70.1605 168.904 71.9421 168.515C118.437 205.635 155.065 199.526 168.06 191.152L168.322 190.983L168.511 190.737C174.169 183.399 174.229 175.176 172.695 168.324C171.489 162.938 169.224 158.153 167.845 155.24C167.775 155.093 167.708 154.951 167.643 154.814C176.766 149.08 185.3 138.436 191.572 129.246C194.897 124.374 197.635 119.838 199.542 116.52C200.496 114.86 201.244 113.503 201.753 112.559C202.008 112.086 202.204 111.717 202.337 111.465C202.403 111.339 202.453 111.242 202.488 111.175L202.527 111.1L202.537 111.079L202.54 111.074C202.54 111.073 202.541 111.071 200.937 110.25L202.541 111.071L202.564 111.026L202.585 110.98L200.937 110.25C202.585 110.98 202.585 110.98 202.585 110.98L202.593 110.962L202.613 110.916L202.688 110.743C202.753 110.593 202.847 110.373 202.966 110.089C203.204 109.523 203.54 108.703 203.939 107.682C204.737 105.643 205.787 102.793 206.797 99.552C208.649 93.6087 210.448 86.1042 210.151 79.8455ZM199.311 109.471L199.379 109.314C199.439 109.175 199.529 108.966 199.642 108.695C199.87 108.152 200.195 107.36 200.583 106.37C201.357 104.388 202.377 101.621 203.356 98.4795C205.12 92.8195 206.678 86.1707 206.575 80.7381C205.55 80.8295 204.468 80.8063 203.358 80.707C201.392 80.5311 199.22 80.1039 196.938 79.5391C193.629 78.7204 189.946 77.574 186.186 76.4036C184.789 75.9685 183.38 75.5301 181.976 75.1039C176.735 73.5129 171.5 72.0733 166.755 71.4463C162.028 70.822 158.054 71.0437 155.11 72.484C150.605 75.5415 145.246 78.7723 140.239 80.8315C137.718 81.8683 135.213 82.6388 132.906 82.9142C131.364 83.0982 129.83 83.0704 128.414 82.6966C126.255 89.0642 124.31 98.1492 124.207 107.928C124.045 123.265 128.401 139.979 143.137 150.832C145.985 152.93 148.793 154.271 151.538 155.001C155.594 156.079 159.937 155.086 164.444 152.528C173.319 147.492 182.023 136.843 188.595 127.214C191.855 122.438 194.544 117.984 196.417 114.724C197.354 113.095 198.085 111.766 198.582 110.846C198.83 110.387 199.019 110.03 199.146 109.789C199.183 109.717 199.215 109.655 199.242 109.605C199.26 109.57 199.275 109.541 199.288 109.516L199.311 109.471ZM128.331 78.817C129.289 79.3454 130.652 79.5532 132.478 79.3352C134.341 79.1128 136.511 78.4671 138.868 77.4979C143.578 75.5608 148.744 72.4545 153.185 69.434L153.283 69.3674L153.389 69.3142C157.312 67.3409 162.202 67.2091 167.227 67.873C172.288 68.5415 177.765 70.0587 183.023 71.6549C184.492 72.1008 185.941 72.5516 187.36 72.9936C191.081 74.1517 194.606 75.2491 197.804 76.0402C199.999 76.5835 201.972 76.9642 203.68 77.117C205.403 77.2712 206.737 77.1812 207.712 76.8766C213.343 75.1177 216.955 71.3527 218.708 66.6614C220.477 61.9261 220.38 56.1505 218.333 50.4658C214.264 39.1627 202.525 28.4026 183.251 27.7961C182.529 27.8267 181.756 27.847 180.941 27.8684C177.478 27.9593 173.266 28.0698 169.075 29.0793C163.943 30.3156 159.128 32.8468 156.169 38.1781L154.927 40.414L153.239 38.4931C147.852 32.3629 139.803 29.91 130.824 30.8985C121.83 31.8887 112.02 36.3375 103.469 43.8522C86.421 58.8344 74.5126 85.9009 84.3968 121.257L84.8064 122.723L83.4304 123.372C82.1724 123.966 80.7681 125.177 79.3576 127.02C77.9606 128.846 76.6283 131.202 75.4817 133.946C73.1869 139.438 71.6977 146.339 71.8489 153.349C71.9316 157.181 72.5036 161.022 73.6857 164.673C87.1322 163.164 95.5732 158.988 100.14 156.728C101.181 156.214 102.02 155.798 102.672 155.537C102.959 155.421 103.522 154.997 104.313 153.941C105.065 152.935 105.884 151.55 106.747 149.832C108.47 146.402 110.275 141.845 112.029 136.827C115.308 127.442 118.346 116.625 120.277 108.988C117.279 107.642 113.593 105.273 110.784 101.849C107.426 97.7567 105.314 92.1297 107.19 85.1301C108.102 81.7238 109.527 79.2434 111.373 77.5832C113.237 75.9057 115.402 75.1825 117.556 75.0793C121.689 74.8811 125.804 76.9506 128.331 78.817ZM121.31 119.095C119.611 125.162 117.575 131.882 115.431 138.016C113.658 143.091 111.794 147.816 109.968 151.45C109.056 153.265 108.129 154.858 107.199 156.1C106.308 157.291 105.251 158.385 104.014 158.882C103.498 159.089 102.781 159.446 101.857 159.906C97.7428 161.955 89.551 166.035 76.9779 167.88C119.107 200.218 151.702 195.827 164.337 189.153C162.263 186.955 159.001 184.447 155.584 182.069C153.506 180.623 151.436 179.269 149.654 178.113C149.374 177.931 149.099 177.754 148.832 177.581C147.424 176.669 146.221 175.89 145.444 175.341L144.42 174.616L148.884 157.957C146.239 157.046 143.606 155.654 141 153.734C128.644 144.635 123.117 131.808 121.31 119.095ZM152.376 158.851L148.558 173.1C149.172 173.507 149.918 173.99 150.771 174.542C151.042 174.718 151.324 174.9 151.616 175.089C153.404 176.249 155.514 177.629 157.643 179.111C160.972 181.427 164.524 184.108 166.946 186.668C170.439 180.971 170.44 174.747 169.178 169.112C168.073 164.178 166.073 159.941 164.682 156.994C164.615 156.854 164.55 156.716 164.487 156.582C160.573 158.501 156.474 159.47 152.376 158.851ZM120.676 105.181C118.32 103.969 115.641 102.087 113.57 99.5626C110.818 96.2086 109.146 91.7541 110.671 86.063C111.459 83.124 112.595 81.3318 113.783 80.2628C114.952 79.2111 116.293 78.7483 117.728 78.6796C120.262 78.5581 123.046 79.6782 125.177 81.0249C123.037 87.1682 121.084 95.7766 120.676 105.181ZM70.1001 165.288C69.19 162.343 68.6416 159.314 68.3931 156.29C65.3617 158.08 61.8846 160.862 59.3811 164.469C56.7943 168.195 55.2505 172.777 56.2869 178.159C58.5329 174.861 60.8234 172.059 63.0926 169.89C65.3602 167.723 67.7244 166.075 70.1001 165.288Z" fill="black"/>
<path d="M142.067 152.283C126.685 140.954 122.239 123.559 122.404 107.909C118.59 123.323 109.439 154.762 103.342 157.209C100.001 158.55 90.2036 164.914 72.4501 166.613C118.813 203.942 154.857 197.516 167.083 189.636C163.089 184.031 150.023 176.373 146.485 173.869L151.074 156.742C148.088 155.948 145.078 154.5 142.067 152.283Z" fill="white"/>
<path d="M200.936 110.249C200.936 110.249 209.537 90.8429 208.249 78.5963C197.895 81.8305 167.953 64.0065 154.198 70.9238C145.231 77.0222 133.063 83.6649 127.343 80.3287C124.884 86.8954 122.519 96.9764 122.404 107.909C122.239 123.559 126.685 140.954 142.067 152.283C145.078 154.5 148.088 155.948 151.074 156.742C155.747 157.984 160.588 156.788 165.332 154.095C183.862 143.581 200.936 110.249 200.936 110.249Z" fill="white"/>
<path d="M122.404 107.909C122.519 96.9764 124.884 86.8954 127.343 80.3287C122.622 76.7967 112.33 72.9055 108.929 85.5961C105.529 98.2867 116.496 105.759 122.404 107.909Z" fill="white"/>
<path fill-rule="evenodd" clip-rule="evenodd" d="M210.151 79.8455C216.112 77.5767 220.1 73.2341 222.084 67.9231C224.2 62.2609 224.011 55.595 221.725 49.2447C217.132 36.4907 204.037 24.8187 183.294 24.1913L183.228 24.1893L183.162 24.1922C182.516 24.2203 181.79 24.2387 181 24.2588C177.534 24.3468 172.835 24.4661 168.231 25.5751C163.135 26.8027 157.926 29.2848 154.294 34.3983C148.044 28.48 139.46 26.3216 130.43 27.3157C120.591 28.3989 110.108 33.2193 101.09 41.1447C83.2233 56.8461 70.9745 84.8369 80.5556 120.872C79.0968 121.841 77.7321 123.213 76.4949 124.83C74.8733 126.95 73.3962 129.588 72.1559 132.556C69.8046 138.183 68.2491 145.131 68.2341 152.265C64.5017 154.173 59.7509 157.615 56.4202 162.413C52.7112 167.756 50.76 174.813 53.9878 183.095L55.3057 186.477L57.2033 183.383C60.0275 178.779 62.8797 175.079 65.583 172.496C68.0089 170.177 70.1605 168.904 71.9421 168.515C118.437 205.635 155.065 199.526 168.06 191.152L168.322 190.983L168.511 190.737C174.169 183.399 174.229 175.176 172.695 168.324C171.489 162.938 169.224 158.153 167.845 155.24C167.775 155.093 167.708 154.951 167.643 154.814C176.766 149.08 185.3 138.436 191.572 129.246C194.897 124.374 197.635 119.838 199.542 116.52C200.496 114.86 201.244 113.503 201.753 112.559C202.008 112.086 202.204 111.717 202.337 111.465C202.403 111.339 202.453 111.242 202.488 111.175L202.527 111.1L202.537 111.079L202.54 111.074C202.54 111.073 202.541 111.071 200.937 110.25L202.541 111.071L202.564 111.026L202.585 110.98L200.937 110.25C202.585 110.98 202.585 110.98 202.585 110.98L202.593 110.962L202.613 110.916L202.688 110.743C202.753 110.593 202.847 110.373 202.966 110.089C203.204 109.523 203.54 108.703 203.939 107.682C204.737 105.643 205.787 102.793 206.797 99.552C208.649 93.6087 210.448 86.1042 210.151 79.8455ZM199.311 109.471L199.379 109.314C199.439 109.175 199.529 108.966 199.642 108.695C199.87 108.152 200.195 107.36 200.583 106.37C201.357 104.388 202.377 101.621 203.356 98.4795C205.12 92.8195 206.678 86.1707 206.575 80.7381C205.55 80.8295 204.468 80.8063 203.358 80.707C201.392 80.5311 199.22 80.1039 196.938 79.5391C193.629 78.7204 189.946 77.574 186.186 76.4036C184.789 75.9685 183.38 75.5301 181.976 75.1039C176.735 73.5129 171.5 72.0733 166.755 71.4463C162.028 70.822 158.054 71.0437 155.11 72.484C150.605 75.5415 145.246 78.7723 140.239 80.8315C137.718 81.8683 135.213 82.6388 132.906 82.9142C131.364 83.0982 129.83 83.0704 128.414 82.6966C126.255 89.0642 124.31 98.1492 124.207 107.928C124.045 123.265 128.401 139.979 143.137 150.832C145.985 152.93 148.793 154.271 151.538 155.001C155.594 156.079 159.937 155.086 164.444 152.528C173.319 147.492 182.023 136.843 188.595 127.214C191.855 122.438 194.544 117.984 196.417 114.724C197.354 113.095 198.085 111.766 198.582 110.846C198.83 110.387 199.019 110.03 199.146 109.789C199.183 109.717 199.215 109.655 199.242 109.605C199.26 109.57 199.275 109.541 199.288 109.516L199.311 109.471ZM128.331 78.817C129.289 79.3454 130.652 79.5532 132.478 79.3352C134.341 79.1128 136.511 78.4671 138.868 77.4979C143.578 75.5608 148.744 72.4545 153.185 69.434L153.283 69.3674L153.389 69.3142C157.312 67.3409 162.202 67.2091 167.227 67.873C172.288 68.5415 177.765 70.0587 183.023 71.6549C184.492 72.1008 185.941 72.5516 187.36 72.9936C191.081 74.1517 194.606 75.2491 197.804 76.0402C199.999 76.5835 201.972 76.9642 203.68 77.117C205.403 77.2712 206.737 77.1812 207.712 76.8766C213.343 75.1177 216.955 71.3527 218.708 66.6614C220.477 61.9261 220.38 56.1505 218.333 50.4658C214.264 39.1627 202.525 28.4026 183.251 27.7961C182.529 27.8267 181.756 27.847 180.941 27.8684C177.478 27.9593 173.266 28.0698 169.075 29.0793C163.943 30.3156 159.128 32.8468 156.169 38.1781L154.927 40.414L153.239 38.4931C147.852 32.3629 139.803 29.91 130.824 30.8985C121.83 31.8887 112.02 36.3375 103.469 43.8522C86.421 58.8344 74.5126 85.9009 84.3968 121.257L84.8064 122.723L83.4304 123.372C82.1724 123.966 80.7681 125.177 79.3576 127.02C77.9606 128.846 76.6283 131.202 75.4817 133.946C73.1869 139.438 71.6977 146.339 71.8489 153.349C71.9316 157.181 72.5036 161.022 73.6857 164.673C87.1322 163.164 95.5732 158.988 100.14 156.728C101.181 156.214 102.02 155.798 102.672 155.537C102.959 155.421 103.522 154.997 104.313 153.941C105.065 152.935 105.884 151.55 106.747 149.832C108.47 146.402 110.275 141.845 112.029 136.827C115.308 127.442 118.346 116.625 120.277 108.988C117.279 107.642 113.593 105.273 110.784 101.849C107.426 97.7567 105.314 92.1297 107.19 85.1301C108.102 81.7238 109.527 79.2434 111.373 77.5832C113.237 75.9057 115.402 75.1825 117.556 75.0793C121.689 74.8811 125.804 76.9506 128.331 78.817ZM121.31 119.095C119.611 125.162 117.575 131.882 115.431 138.016C113.658 143.091 111.794 147.816 109.968 151.45C109.056 153.265 108.129 154.858 107.199 156.1C106.308 157.291 105.251 158.385 104.014 158.882C103.498 159.089 102.781 159.446 101.857 159.906C97.7428 161.955 89.551 166.035 76.9779 167.88C119.107 200.218 151.702 195.827 164.337 189.153C162.263 186.955 159.001 184.447 155.584 182.069C153.506 180.623 151.436 179.269 149.654 178.113C149.374 177.931 149.099 177.754 148.832 177.581C147.424 176.669 146.221 175.89 145.444 175.341L144.42 174.616L148.884 157.957C146.239 157.046 143.606 155.654 141 153.734C128.644 144.635 123.117 131.808 121.31 119.095ZM152.376 158.851L148.558 173.1C149.172 173.507 149.918 173.99 150.771 174.542C151.042 174.718 151.324 174.9 151.616 175.089C153.404 176.249 155.514 177.629 157.643 179.111C160.972 181.427 164.524 184.108 166.946 186.668C170.439 180.971 170.44 174.747 169.178 169.112C168.073 164.178 166.073 159.941 164.682 156.994C164.615 156.854 164.55 156.716 164.487 156.582C160.573 158.501 156.474 159.47 152.376 158.851ZM120.676 105.181C118.32 103.969 115.641 102.087 113.57 99.5626C110.818 96.2086 109.146 91.7541 110.671 86.063C111.459 83.124 112.595 81.3318 113.783 80.2628C114.952 79.2111 116.293 78.7483 117.728 78.6796C120.262 78.5581 123.046 79.6782 125.177 81.0249C123.037 87.1682 121.084 95.7766 120.676 105.181ZM70.1001 165.288C69.19 162.343 68.6416 159.314 68.3931 156.29C65.3617 158.08 61.8846 160.862 59.3811 164.469C56.7943 168.195 55.2505 172.777 56.2869 178.159C58.5329 174.861 60.8234 172.059 63.0926 169.89C65.3602 167.723 67.7244 166.075 70.1001 165.288Z" fill="black"/>
<path fill-rule="evenodd" clip-rule="evenodd" d="M162.945 101.921C163.694 102.576 163.771 103.714 163.116 104.464L158.469 109.785C157.814 110.534 156.675 110.611 155.926 109.957C155.176 109.302 155.099 108.163 155.754 107.414L160.402 102.093C161.057 101.343 162.195 101.266 162.945 101.921ZM191.804 109.691C192.523 110.379 192.548 111.52 191.859 112.239L188.008 116.262C187.32 116.981 186.179 117.006 185.46 116.318C184.741 115.63 184.716 114.489 185.404 113.77L189.256 109.747C189.944 109.028 191.085 109.003 191.804 109.691ZM174.673 122.823C174.78 123.813 174.064 124.702 173.075 124.809L164.02 125.79C163.03 125.898 162.141 125.182 162.034 124.193C161.927 123.203 162.642 122.314 163.631 122.207L172.687 121.226C173.676 121.119 174.565 121.834 174.673 122.823ZM152.604 134.789C153.591 134.66 154.496 135.356 154.624 136.343C154.946 138.812 155.562 139.959 156.059 140.464C156.459 140.87 156.939 141.02 157.702 140.914C158.543 140.797 159.539 140.381 160.637 139.797C161.165 139.516 161.677 139.219 162.184 138.925L162.207 138.912C162.702 138.625 163.216 138.326 163.68 138.092C164.568 137.642 165.652 137.997 166.102 138.885C166.551 139.773 166.196 140.858 165.308 141.307C164.953 141.487 164.533 141.73 164.013 142.031L163.972 142.055C163.479 142.341 162.917 142.667 162.328 142.98C161.148 143.607 159.691 144.276 158.198 144.484C156.627 144.702 154.893 144.416 153.491 142.993C152.186 141.668 151.413 139.591 151.05 136.808C150.922 135.821 151.617 134.917 152.604 134.789Z" fill="black"/>
</svg>
