<svg width="21" height="20" viewBox="0 0 21 20" fill="none" xmlns="http://www.w3.org/2000/svg">
<path d="M10.5 8.18179V12.0545H15.8818C15.6455 13.3 14.9363 14.3546 13.8727 15.0636L17.1181 17.5818C19.009 15.8365 20.0999 13.2728 20.0999 10.2273C20.0999 9.51827 20.0363 8.83639 19.9181 8.1819L10.5 8.18179Z" fill="#4285F4"/>
<path d="M4.89568 11.9034L4.16371 12.4637L1.57275 14.4818C3.2182 17.7454 6.59068 20 10.4997 20C13.1997 20 15.4633 19.1091 17.1179 17.5819L13.8724 15.0636C12.9815 15.6636 11.8451 16.0273 10.4997 16.0273C7.89976 16.0273 5.69073 14.2728 4.89976 11.9091L4.89568 11.9034Z" fill="#34A853"/>
<path d="M1.57265 5.51819C0.890868 6.86359 0.5 8.38179 0.5 9.99994C0.5 11.6181 0.890868 13.1363 1.57265 14.4817C1.57265 14.4907 4.89998 11.8999 4.89998 11.8999C4.69998 11.2999 4.58177 10.6636 4.58177 9.99984C4.58177 9.33612 4.69998 8.69979 4.89998 8.0998L1.57265 5.51819Z" fill="#FBBC05"/>
<path d="M10.4999 3.98182C11.9727 3.98182 13.2818 4.49089 14.3272 5.47272L17.1908 2.60912C15.4545 0.990971 13.2 0 10.4999 0C6.59089 0 3.2182 2.24545 1.57275 5.51819L4.89998 8.10001C5.69084 5.73635 7.89996 3.98182 10.4999 3.98182Z" fill="#EA4335"/>
</svg>
