<svg width="91" height="30" viewBox="0 0 91 30" fill="none" xmlns="http://www.w3.org/2000/svg">
<g clip-path="url(#clip0_7_2426)">
<path d="M50.5536 12.3514C46.4785 12.3514 43.1611 15.461 43.1611 19.281C43.1611 23.1009 46.4785 26.2142 50.5536 26.2142C52.3017 26.2142 53.9091 25.6396 55.1762 24.6855V25.9805H57.946V19.281C57.946 15.461 54.6287 12.3514 50.5536 12.3514ZM50.5536 23.6178C48.0047 23.6178 45.931 21.6739 45.931 19.2819C45.931 16.8898 48.0047 14.9487 50.5536 14.9487C53.1025 14.9487 55.1762 16.8926 55.1762 19.2819C55.1762 21.6712 53.1025 23.6178 50.5536 23.6178Z" fill="#1B0166"/>
<path d="M90.6163 20.5833C90.7062 20.1617 90.7512 19.7264 90.7512 19.2819C90.7512 15.4619 87.4339 12.3523 83.3588 12.3523C79.2837 12.3523 75.9624 15.4619 75.9624 19.2819C75.9624 23.1018 79.2798 26.2151 83.3588 26.2151C85.6065 26.2151 87.6216 25.2702 88.9747 23.7837L86.6654 22.3036C85.8314 23.1146 84.6572 23.6178 83.3588 23.6178C81.288 23.6178 79.533 22.3393 78.9444 20.5796H87.7702V20.5833H90.6163ZM78.9444 17.9832C79.533 16.2272 81.289 14.9487 83.3588 14.9487C85.4286 14.9487 87.1816 16.2272 87.7702 17.9832H78.9444Z" fill="#1B0166"/>
<path d="M71.5453 9.32977V13.8802C70.2782 12.9224 68.6709 12.3514 66.9227 12.3514C62.8476 12.3514 59.5303 15.4611 59.5303 19.281C59.5303 23.101 62.8476 26.2143 66.9227 26.2143C70.9978 26.2143 74.3152 23.1046 74.3152 19.281V9.32977H71.5453ZM66.9227 23.6179C64.3738 23.6179 62.3001 21.674 62.3001 19.2819C62.3001 16.8899 64.3738 14.9488 66.9227 14.9488C69.4716 14.9488 71.5453 16.8927 71.5453 19.2819C71.5453 21.6712 69.4716 23.6179 66.9227 23.6179Z" fill="#1B0166"/>
<path d="M27.6385 12.7125H24.8687V25.9824H27.6385V12.7125Z" fill="#1B0166"/>
<path d="M36.1027 17.8466C35.5728 17.8319 35.0732 17.8182 34.6596 17.7495C33.9801 17.6376 33.1852 17.3169 32.9916 16.7532C32.9056 16.5021 32.9222 16.2803 33.0464 16.0558C33.2644 15.6599 33.7992 15.2868 34.4074 15.1063C35.389 14.8158 36.5398 14.8323 37.408 15.1494C37.6446 15.2355 38.414 15.5755 38.3974 16.3197L41.1672 16.3747C41.2034 14.7599 40.1485 13.3631 38.414 12.7298C36.9621 12.2001 35.1534 12.1625 33.5724 12.6309C32.2574 13.0204 31.1408 13.8553 30.5855 14.8653C30.1211 15.7084 30.0419 16.6368 30.3567 17.5506C30.8417 18.9611 32.2711 19.9912 34.1796 20.3074C34.7906 20.4082 35.4164 20.4256 36.0216 20.4421C37.3581 20.4788 38.2058 20.5383 38.7064 21.0433C39.074 21.4145 39.0378 22.1248 38.7904 22.5959C38.2302 23.6636 35.8769 23.9229 34.3419 23.3859C33.9938 23.264 33.6966 23.077 33.46 22.8305C32.9887 22.3411 32.8997 21.7151 32.889 21.3861L30.1201 21.4695C30.1602 22.6499 30.6158 23.7506 31.4009 24.5682C31.9396 25.1281 32.6035 25.5488 33.373 25.8182C34.1512 26.0904 35.1035 26.249 36.0832 26.249C38.1422 26.249 40.3254 25.5497 41.2748 23.7424C42.0794 22.2082 41.8624 20.4137 40.7351 19.2754C39.4093 17.9373 37.5751 17.8869 36.1017 17.8457" fill="#1B0166"/>
<path d="M28.1431 9.54966C28.1431 10.5294 27.2954 11.3231 26.2512 11.3231C25.207 11.3231 24.3594 10.5294 24.3594 9.54966C24.3594 8.56993 25.2061 7.77625 26.2512 7.77625C27.2964 7.77625 28.1431 8.56993 28.1431 9.54966Z" fill="#1B0166"/>
<path d="M15.2856 8.65612C11.3679 8.37934 8.32333 5.53088 7.96353 1.875H7.89216C7.54116 5.44565 4.54058 8.29685 0.75 8.68453V8.77709C4.54058 9.16569 7.54018 12.0297 7.89118 15.6004C8.25098 11.9445 11.3679 8.93198 15.2866 8.65612" fill="url(#paint0_linear_7_2426)"/>
<path d="M15.2855 8.65607V8.73214C15.2855 12.5182 12.0112 15.5875 7.97226 15.5875H7.89111V25.9823H12.9107V22.1487C13.8229 22.441 14.8143 22.573 15.8467 22.5006C19.4818 22.2458 22.414 19.4798 22.6614 16.0714C22.9556 12.0324 19.5327 8.65607 15.2855 8.65607Z" fill="#1B0166"/>
</g>
<defs>
<linearGradient id="paint0_linear_7_2426" x1="2.97331" y1="3.08752" x2="10.7204" y2="12.9258" gradientUnits="userSpaceOnUse">
<stop stop-color="#6D08E8"/>
<stop offset="1" stop-color="#CB63FE"/>
</linearGradient>
<clipPath id="clip0_7_2426">
<rect width="90" height="30" fill="white" transform="translate(0.75)"/>
</clipPath>
</defs>
</svg>
