<svg width="96" height="32" viewBox="0 0 96 32" fill="none" xmlns="http://www.w3.org/2000/svg">
<g clip-path="url(#clip0_229_1057)">
<path d="M53.1236 13.1748C48.7768 13.1748 45.2383 16.4918 45.2383 20.5664C45.2383 24.641 48.7768 27.9618 53.1236 27.9618C54.9882 27.9618 56.7028 27.3489 58.0543 26.3312V27.7126H61.0088V20.5664C61.0088 16.4918 57.4703 13.1748 53.1236 13.1748ZM53.1236 25.1923C50.4048 25.1923 48.1928 23.1189 48.1928 20.5673C48.1928 18.0158 50.4048 15.9453 53.1236 15.9453C55.8424 15.9453 58.0543 18.0188 58.0543 20.5673C58.0543 23.1159 55.8424 25.1923 53.1236 25.1923Z" fill="white"/>
<path d="M95.8574 21.9555C95.9533 21.5058 96.0013 21.0415 96.0013 20.5673C96.0013 16.4927 92.4628 13.1758 88.116 13.1758C83.7693 13.1758 80.2266 16.4927 80.2266 20.5673C80.2266 24.6419 83.7651 27.9628 88.116 27.9628C90.5136 27.9628 92.663 26.9549 94.1064 25.3693L91.6431 23.7905C90.7535 24.6556 89.501 25.1923 88.116 25.1923C85.9072 25.1923 84.0352 23.8286 83.4074 21.9516H92.8215V21.9555H95.8574ZM83.4074 19.1821C84.0352 17.309 85.9082 15.9453 88.116 15.9453C90.3238 15.9453 92.1937 17.309 92.8215 19.1821H83.4074Z" fill="white"/>
<path d="M75.5153 9.95166V14.8054C74.1637 13.7838 72.4492 13.1748 70.5845 13.1748C66.2377 13.1748 62.6992 16.4917 62.6992 20.5663C62.6992 24.6409 66.2377 27.9618 70.5845 27.9618C74.9313 27.9618 78.4698 24.6448 78.4698 20.5663V9.95166H75.5153ZM70.5845 25.1923C67.8657 25.1923 65.6537 23.1188 65.6537 20.5673C65.6537 18.0158 67.8657 15.9453 70.5845 15.9453C73.3033 15.9453 75.5153 18.0187 75.5153 20.5673C75.5153 23.1159 73.3033 25.1923 70.5845 25.1923Z" fill="white"/>
<path d="M28.6811 13.5601H25.7266V27.7146H28.6811V13.5601Z" fill="white"/>
<path d="M37.7096 19.0363C37.1443 19.0206 36.6114 19.006 36.1703 18.9327C35.4454 18.8134 34.5976 18.4712 34.3911 17.87C34.2993 17.6022 34.317 17.3656 34.4495 17.1261C34.6821 16.7037 35.2525 16.3059 35.9012 16.1133C36.9483 15.8034 38.1757 15.821 39.1018 16.1592C39.3542 16.2511 40.175 16.6138 40.1572 17.4076L43.1117 17.4663C43.1503 15.7438 42.025 14.2539 40.175 13.5784C38.6263 13.0133 36.6969 12.9733 35.0106 13.4728C33.6079 13.8883 32.4169 14.7789 31.8245 15.8562C31.3292 16.7556 31.2447 17.7459 31.5805 18.7205C32.0978 20.225 33.6225 21.3238 35.6582 21.6611C36.31 21.7686 36.9775 21.7872 37.623 21.8048C39.0486 21.8439 39.9528 21.9075 40.4868 22.4461C40.8789 22.842 40.8403 23.5997 40.5765 24.1022C39.9789 25.241 37.4687 25.5177 35.8313 24.9448C35.46 24.8148 35.143 24.6154 34.8906 24.3524C34.388 23.8304 34.2931 23.1627 34.2816 22.8117L31.3281 22.9007C31.3709 24.1598 31.8569 25.3339 32.6943 26.2059C33.2689 26.8032 33.9771 27.252 34.7978 27.5394C35.628 27.8297 36.6437 27.9988 37.6887 27.9988C39.885 27.9988 42.2138 27.2529 43.2264 25.3251C44.0847 23.6886 43.8532 21.7745 42.6508 20.5603C41.2366 19.1331 39.2802 19.0793 37.7085 19.0353" fill="white"/>
<path d="M29.2196 10.1863C29.2196 11.2314 28.3154 12.078 27.2016 12.078C26.0878 12.078 25.1836 11.2314 25.1836 10.1863C25.1836 9.14127 26.0867 8.29468 27.2016 8.29468C28.3164 8.29468 29.2196 9.14127 29.2196 10.1863Z" fill="white"/>
<path d="M15.5046 9.23319C11.3258 8.93796 8.07822 5.89961 7.69443 2H7.6183C7.24391 5.80869 4.04328 8.84998 0 9.2635V9.36223C4.04328 9.77673 7.24286 12.8317 7.61726 16.6404C8.00104 12.7408 11.3258 9.52745 15.5057 9.23319" fill="url(#paint0_linear_229_1057)"/>
<path d="M15.5046 9.23315V9.31429C15.5046 13.3527 12.0119 16.6267 7.70375 16.6267H7.61719V27.7145H12.9714V23.6252C13.9444 23.9371 15.0019 24.0779 16.1032 24.0006C19.9806 23.7289 23.1083 20.7785 23.3721 17.1428C23.686 12.8346 20.0349 9.23315 15.5046 9.23315Z" fill="white"/>
</g>
<defs>
<linearGradient id="paint0_linear_229_1057" x1="2.37153" y1="3.29335" x2="10.635" y2="13.7875" gradientUnits="userSpaceOnUse">
<stop stop-color="#6D08E8"/>
<stop offset="1" stop-color="#CB63FE"/>
</linearGradient>
<clipPath id="clip0_229_1057">
<rect width="96" height="32" fill="white"/>
</clipPath>
</defs>
</svg>
