<svg width="100" height="100" viewBox="0 0 100 100" fill="none" xmlns="http://www.w3.org/2000/svg">
<path d="M0 30C0 13.4315 13.4315 0 30 0H70C86.5685 0 100 13.4315 100 30V70C100 86.5685 86.5685 100 70 100H30C13.4315 100 0 86.5685 0 70V30Z" fill="#130177"/>
<path fill-rule="evenodd" clip-rule="evenodd" d="M70 3.5H30C15.3645 3.5 3.5 15.3645 3.5 30V70C3.5 84.6355 15.3645 96.5 30 96.5H70C84.6355 96.5 96.5 84.6355 96.5 70V30C96.5 15.3645 84.6355 3.5 70 3.5ZM30 0C13.4315 0 0 13.4315 0 30V70C0 86.5685 13.4315 100 30 100H70C86.5685 100 100 86.5685 100 70V30C100 13.4315 86.5685 0 70 0H30Z" fill="#9B8441"/>
<path fill-rule="evenodd" clip-rule="evenodd" d="M34.0035 10H65.9965V30.3993C63.2992 31.9964 60.452 34.029 57.7547 36.8603V17.8403H42.2453V36.8603C39.8477 34.3194 37.0005 32.2142 34.0035 30.3993V10ZM87.5 51.8149H78.9585V35.1906C75.2872 35.6261 68.0195 39.4011 64.2732 43.7568H76.7857V51.8875H12.5V35.9165H20.8916V43.7568H35.6518C30.9316 38.4573 20.8916 33.8838 12.5 34.1742V19.9456H32.8796V28.0762H26.0614C38.2712 32.068 47.0361 42.0095 49.9603 51.7349C49.9587 51.7498 49.956 51.7635 49.9511 51.7752C49.941 51.7993 49.9224 51.8149 49.8876 51.8149H50.0375C50.0375 51.784 50.0375 51.7663 50.0316 51.7505C50.029 51.7433 50.0252 51.7365 50.0196 51.729C50.0113 51.7178 49.9988 51.7052 49.9807 51.6874C53.6634 40.6063 62.6435 31.8449 73.9386 28.0762H67.0455V19.9456H78.9585V17.6225H87.5V51.8149ZM49.9807 51.6874L49.9625 51.6697C49.9625 51.6838 49.9625 51.6979 49.962 51.7114C49.9617 51.7195 49.9612 51.7273 49.9603 51.7349L49.9625 51.7423L49.9807 51.6874Z" fill="#FEFEFF"/>
<path fill-rule="evenodd" clip-rule="evenodd" d="M38.7238 76.0618V89.9275H34.9775V82.9583C34.9775 82.9583 35.4271 79.5463 31.6059 79.5463H12.5V76.2796H34.1533C35.1274 76.2796 35.1274 74.9002 34.1533 74.9002H12.5V71.706H35.4271C38.794 71.706 38.7718 72.9961 38.7327 75.26C38.7283 75.515 38.7238 75.7824 38.7238 76.0618ZM43.9685 66.8422V89.9275H40.2223V73.7387C40.2223 73.7387 40.6718 70.3267 36.8506 70.3267H12.5V67.0599H39.473C40.3721 67.0599 40.3721 65.6806 39.473 65.6806H12.5V62.4139H40.6718C44.0375 62.4791 44.0165 63.7162 43.9776 66.0199C43.9732 66.2804 43.9685 66.5545 43.9685 66.8422ZM49.2133 89.9275H45.542V64.4465C45.542 64.4465 45.9915 61.0345 42.1703 61.0345H12.5V57.8403H44.7927C45.6918 57.8403 45.6918 56.461 44.7927 56.461H12.5V53.2668H45.467C47.7897 53.7024 49.2133 55.9529 49.2133 58.2759V89.9275ZM87.5 74.9728H65.7717C64.7977 74.9728 64.7977 76.3521 65.7717 76.3521H87.5V79.6189H68.3941C64.498 79.6189 65.0225 83.0309 65.0225 83.0309V90.0001H61.2762V76.0618C61.2762 75.7776 61.2715 75.5065 61.2672 75.249V75.2394C61.2282 72.9365 61.2073 71.706 64.5729 71.706H87.5V74.9728ZM87.5 65.7532H60.527C59.6279 65.7532 59.6279 67.1325 60.527 67.1325H87.5V70.3993H63.1493C59.2532 70.3993 59.7777 73.8113 59.7777 73.8113V90.0001H56.0315V66.8422C56.0315 66.6585 56.0296 66.4803 56.0271 66.3076L56.0224 66.0198C55.9835 63.7169 55.9625 62.4864 59.3282 62.4864H87.5V65.7532ZM87.5 56.461H55.2073C54.3082 56.461 54.3082 57.8403 55.2073 57.8403H87.5V61.0345H57.9046C54.0834 61.0345 54.533 64.4465 54.533 64.4465V89.9275H50.7867V58.2759C50.7867 55.8803 52.2103 53.7024 54.533 53.2668H87.5V56.461Z" fill="#9B8441"/>
</svg>
