<svg width="100" height="100" viewBox="0 0 100 100" fill="none" xmlns="http://www.w3.org/2000/svg">
<g clip-path="url(#clip0_20_4201)">
<path d="M32.9688 39.6094C34.6094 43.125 36.5625 46.5625 39.1406 49.4531C40.0781 47.7344 40.7812 45.9375 41.5625 44.1406C44.6094 36.1719 46.25 27.7344 47.3437 19.375C48.125 13.0469 48.6719 6.5625 48.5938 0.234375C41.3281 0.390625 33.9062 2.26562 27.3437 5.54688C27.1875 5.625 26.9531 5.78125 26.7969 5.9375C26.6406 7.1875 26.7969 8.51562 26.7188 9.76562C26.9531 19.9219 28.75 30.2344 32.9688 39.6094Z" fill="#FFD229"/>
<path d="M56.7191 39.2188C57.8128 42.6562 59.0628 46.1719 60.7816 49.375C62.6566 47.1875 64.2191 44.7656 65.6253 42.2656C69.7659 34.5312 71.9534 25.7812 72.8128 17.0312C73.1253 13.3594 73.3597 9.60938 73.2034 5.9375C71.5628 4.92188 69.6878 4.21875 67.9691 3.4375C62.6566 1.40625 57.0316 0.3125 51.3284 0.15625C51.2503 3.28125 51.4066 6.40625 51.6409 9.45312C52.3441 19.5312 53.7503 29.5312 56.7191 39.2188Z" fill="#FFD229"/>
<path d="M14.6876 44.1406C18.4376 38.5937 20.7033 32.1875 22.1876 25.7031C23.5158 19.6875 24.2189 13.5156 24.2189 7.34375C23.8283 7.5 23.4376 7.73438 23.1251 7.96875C16.797 12.0312 11.3283 17.5 7.34388 23.9844C1.4845 33.4375 -1.0155 45.0781 0.390751 56.0938C6.25013 53.6719 11.172 49.2969 14.6876 44.1406Z" fill="#FFD229"/>
<path d="M94.1406 26.7188C90.625 20 85.4687 14.0625 79.2969 9.60938C78.125 8.82813 77.0312 7.96875 75.7812 7.34375C75.7812 12.2656 76.25 17.2656 77.1094 22.1875C78.4375 29.6094 80.7812 37.0312 84.8437 43.3594C88.3594 48.9062 93.4375 53.5938 99.6094 56.0938C100.859 46.0938 98.9062 35.625 94.1406 26.7188Z" fill="#FFD229"/>
<path d="M35 58.5156C34.6875 57.8906 34.0625 57.4219 33.5937 56.875C31.4844 54.4531 29.7656 51.7188 28.2812 48.9062C27.1094 46.6406 26.25 44.2188 25.4688 41.875C25 42.5781 24.7656 43.3594 24.5312 44.1406C23.125 48.125 21.0938 51.9531 18.5156 55.3125C14.5313 60.4688 9.21875 64.8438 3.04688 67.1094C3.125 67.5781 3.28125 68.0469 3.4375 68.4375C5 72.3438 7.03125 76.0938 9.53125 79.4531C10.5469 80.7031 11.4844 82.1094 12.6563 83.2031C13.4375 82.9688 14.0625 82.5 14.7656 82.1094C22.2656 77.2656 28.2031 70.2344 32.7344 62.6562C33.5938 61.3281 34.4531 60 35 58.5156Z" fill="#FFD229"/>
<path d="M50.6251 44.4531C50.3907 43.5938 50.4689 42.6563 49.922 41.9531C49.3751 42.6563 49.4532 43.6719 49.2189 44.4531C47.5782 52.8906 45.0782 61.25 41.7189 69.1406C37.8907 78.0469 32.8907 86.6406 25.8595 93.4375C25.547 93.8281 26.2501 93.9844 26.4845 94.1406C33.5157 97.8125 41.4845 99.8438 49.4532 99.9219C57.9688 100 66.6407 97.8906 74.0626 93.6719C67.0314 86.7188 61.797 78.0469 57.9688 68.9844C54.8438 61.0938 52.2657 52.8906 50.6251 44.4531Z" fill="#FFD229"/>
<path d="M75.3908 44.0625C75.1564 43.3594 75.0002 42.5781 74.5314 41.9531C74.0627 42.7344 73.8283 43.6719 73.5158 44.5312C71.6408 49.6094 68.8283 54.2969 65.1564 58.2812C64.7658 58.5938 65.0783 58.9844 65.2345 59.2969C66.8752 62.4219 68.7502 65.3906 70.7814 68.2031C74.7658 73.5938 79.5314 78.5156 85.2345 82.2656C85.8595 82.6563 86.4845 83.125 87.1877 83.2812C87.7345 82.8906 88.1252 82.2656 88.5158 81.7969C91.172 78.5938 93.3595 75.0781 95.1564 71.3281C95.7814 70 96.4064 68.5938 96.797 67.1875C93.4377 65.9375 90.3908 64.1406 87.6564 61.875C82.0314 57.1875 77.8127 50.9375 75.3908 44.0625Z" fill="#FFD229"/>
</g>
<defs>
<clipPath id="clip0_20_4201">
<rect width="100" height="100" fill="white"/>
</clipPath>
</defs>
</svg>
