<svg width="100" height="100" viewBox="0 0 100 100" fill="none" xmlns="http://www.w3.org/2000/svg">
<path fill-rule="evenodd" clip-rule="evenodd" d="M72.4433 74.1418C68.1238 77.5738 63.5675 80.6507 59.0705 83.9643C59.0705 83.9643 56.467 85.8578 55.4019 86.6271C55.1652 86.6271 54.8693 86.6862 54.751 86.5087C54.8693 82.6034 53.6267 77.9288 56.6445 75.1478C61.0823 69.9407 65.7569 64.9703 69.6031 59.4081C69.6031 59.4081 73.5675 53.7277 75.461 51.0058C76.0528 51.1241 76.2894 51.8342 76.3486 52.3075C78.4196 59.5856 79.0705 66.8637 72.4433 74.1418ZM49.1297 72.0708C49.0113 72.0708 48.8338 71.9525 48.7747 71.8342C43.035 65.0294 36.5261 57.3371 30.8457 50.5916C29.8397 48.8756 28.7747 47.2188 28.6563 44.9703C28.5971 43.2543 28.4788 41.6567 29.8989 39.4673C29.8989 39.4673 30.8457 38.1064 31.1415 37.6922C31.1415 37.6922 42.7983 21.3016 48.9522 13.491C49.0113 13.4318 49.0705 13.3726 49.1297 13.3726C49.1889 13.3726 49.3072 13.491 49.3072 13.491C55.461 21.2424 67.1178 37.6922 67.1178 37.6922C67.4137 38.1064 68.3604 39.4673 68.3604 39.4673C69.7806 41.6567 69.6622 43.2543 69.6031 44.9703C69.4847 47.2188 68.4196 48.8164 67.4137 50.5916C61.6741 57.3963 55.2244 65.0886 49.4255 71.8342C49.3664 71.9525 49.248 72.0117 49.1297 72.0708ZM43.4492 86.5087C43.3309 86.6862 43.035 86.6271 42.7983 86.6271C41.7332 85.917 39.1297 84.0235 39.1297 84.0235C34.6326 80.6507 30.0764 77.5738 25.7569 74.1418C19.1297 66.8637 19.8397 59.5856 21.8516 52.3075C21.9108 51.8342 22.1474 51.1241 22.7392 51.0058C24.6326 53.7277 28.538 59.4081 28.538 59.4081C32.3841 64.9703 37.0587 69.9407 41.4965 75.1478C44.6326 77.8697 43.39 82.5442 43.4492 86.5087ZM84.9285 52.4851C84.0409 49.0531 82.7392 46.5679 80.609 42.7217C79.8989 41.6567 79.0113 40.414 78.2421 39.1123C69.0705 25.562 51.0232 1.89333 49.3664 0.354871C49.248 0.236527 49.0705 0.236527 48.9522 0.354871C47.2954 1.89333 29.248 25.562 20.0764 39.1123C19.3072 40.414 18.4196 41.6567 17.7096 42.7217C15.5794 46.5679 14.2776 49.1123 13.39 52.4851C12.2658 57.8105 12.2066 63.2543 13.2125 68.5797C14.1593 73.0176 18.3605 77.5146 22.5616 80.8874L29.0113 86.0353C29.0113 86.0353 47.0587 99.0531 48.7747 99.8815C48.893 99.9407 49.0113 99.9998 49.1297 99.9998C49.248 99.9998 49.3664 99.9407 49.4847 99.8815C51.1415 99.0531 69.248 86.0353 69.248 86.0353L75.6977 80.8874C79.8989 77.5146 84.1001 73.0176 85.0468 68.5797C86.1119 63.3134 86.0528 57.8105 84.9285 52.4851Z" fill="#1E3F99"/>
</svg>
