<svg width="100" height="100" viewBox="0 0 100 100" fill="none" xmlns="http://www.w3.org/2000/svg">
<g clip-path="url(#clip0_20_4222)">
<path d="M5.15654 72.1095C5.15654 67.3439 5.23467 62.6564 5.15654 57.8907C5.15654 56.3282 5.70342 55.9376 7.10967 55.9376C9.76592 56.0157 12.4222 55.9376 15.0784 56.0157C16.6409 56.0939 17.0315 55.4689 17.0315 53.9845C16.9534 51.0157 16.9534 48.047 17.0315 45.0782C17.0315 43.7501 16.6409 43.1251 15.2347 43.2032C12.4222 43.2814 9.68779 43.2032 6.87529 43.2814C5.62529 43.2814 5.23467 42.8907 5.23467 41.6407C5.31279 36.0939 5.31279 30.547 5.23467 24.922C5.23467 23.5939 5.93779 23.047 6.87529 22.422C18.3597 15.7032 29.9222 9.06262 41.4065 2.34387C41.6409 2.18762 41.8753 2.10949 42.0315 1.95324C45.3909 -1.17176 48.2815 -0.312382 51.9534 2.10949C65.469 10.9376 79.2972 19.4532 92.969 27.9689C94.2972 28.8282 94.844 29.6876 94.844 31.3282C94.7659 39.7657 94.7659 48.2814 94.844 56.7189C94.844 58.2814 94.3753 58.8282 92.8128 58.7501C90.0003 58.672 87.2659 58.7501 84.4534 58.672C83.2034 58.672 82.5784 58.9845 82.6565 60.3907C82.7347 63.5157 82.7347 66.5626 82.6565 69.6876C82.6565 71.0157 83.1253 71.4845 84.4534 71.4845C87.2659 71.4064 90.0003 71.4845 92.8128 71.4845C93.9847 71.4845 94.5315 71.797 94.4534 73.1251C94.3753 77.5001 94.3753 81.8751 94.4534 86.2501C94.4534 87.7345 93.8284 88.2032 92.5784 88.5939C81.1722 92.1876 69.7659 95.7814 58.3597 99.5314C55.8597 100.313 53.9065 100.156 51.5628 99.2189C42.8128 95.7032 34.0628 92.3439 25.3128 88.9064C24.3753 88.5157 23.3597 88.3595 22.344 88.3595C17.2659 88.2814 12.1878 88.2814 7.18779 88.3595C5.39092 88.4376 4.92217 87.7345 5.00029 86.0939C5.23467 81.4064 5.15654 76.7189 5.15654 72.1095ZM12.1878 31.797C13.0472 31.5626 13.7503 31.4064 14.4534 31.172C23.1253 28.2814 31.7972 25.4689 40.469 22.422C42.5003 21.7189 44.0628 21.9532 45.7815 23.1251C50.7815 26.7189 55.9378 30.1564 61.094 33.5939C62.8128 34.7657 63.2034 36.2501 62.1097 38.1251C60.8597 40.3126 59.4534 40.7814 57.4222 39.6095C55.3128 38.3595 53.2815 36.9532 51.1722 35.6251C48.8284 34.1407 47.1878 34.6095 45.469 37.1095C43.9065 39.3751 44.1409 41.0157 46.4065 42.5782C51.719 46.3282 57.1097 50.0001 62.5003 53.5939C63.2034 54.0626 64.219 54.3751 65.1565 54.3751C72.1097 54.4532 79.0628 54.3751 86.0159 54.4532C87.5003 54.4532 88.1253 54.1407 88.1253 52.5001C88.0472 46.4064 88.0472 40.2345 88.1253 34.1407C88.1253 32.9689 87.7347 32.3439 86.7972 31.7189C73.7503 23.9845 60.6253 16.172 47.5784 8.35949C46.3284 7.57824 45.3128 7.65637 44.1409 8.35949C34.2972 14.1407 24.4534 19.922 14.6097 25.7032C11.4847 27.3439 11.2503 27.9689 12.1878 31.797ZM65.3909 76.5626C58.3597 76.5626 51.3284 76.5626 44.2972 76.5626C42.0315 76.5626 40.8597 75.1564 40.8597 72.7345C40.9378 70.4689 41.7972 69.6095 44.1409 69.6095C47.5003 69.6095 50.8597 69.6876 54.219 69.5314C56.719 69.4532 57.8909 68.047 57.8909 65.4689C57.8909 63.2032 56.1722 61.4064 53.9847 61.4064C40.5472 61.4064 27.0315 61.4064 13.594 61.4064C12.2659 61.4064 11.7972 61.797 11.7972 63.1251C11.8753 68.9845 11.8753 74.922 11.7972 80.7814C11.7972 82.1876 12.2659 82.6564 13.6722 82.6564C18.1253 82.5782 22.6565 82.5782 27.1097 82.6564C28.1253 82.6564 29.1409 82.8126 30.0784 83.2032C37.7347 86.172 45.3909 89.1407 52.969 92.1876C54.5315 92.8126 55.7815 92.8126 57.344 92.3439C66.8753 89.1407 76.4847 86.0157 86.094 82.8907C87.8128 82.3439 88.6722 81.5626 88.3597 79.6876C88.2815 79.297 88.2815 78.9064 88.3597 78.5157C88.5159 77.0314 87.969 76.5626 86.4847 76.5626C79.3753 76.6407 72.344 76.5626 65.3909 76.5626Z" fill="#F37D32"/>
</g>
<defs>
<clipPath id="clip0_20_4222">
<rect width="100" height="100" fill="white"/>
</clipPath>
</defs>
</svg>
