<svg width="100" height="100" viewBox="0 0 100 100" fill="none" xmlns="http://www.w3.org/2000/svg">
<g clip-path="url(#clip0_20_4231)">
<path d="M47.6563 0H52.422C64.7657 0.703125 76.8751 5.9375 85.547 14.8438C93.4376 22.8125 98.5157 33.4375 99.6876 44.5312C100.859 55.2344 98.5157 66.25 92.9688 75.5469C87.1876 85.3125 78.047 92.9688 67.422 96.875C56.4063 101.016 43.9845 101.016 32.9688 97.0312C21.8751 93.0469 12.2657 84.9219 6.48446 74.5312C1.01571 65.0781 -1.01554 53.75 0.468837 42.8906C2.18759 30.4688 8.90634 18.8281 18.7501 10.9375C26.8751 4.375 37.1876 0.546875 47.6563 0ZM44.3751 8.125C31.0157 9.76562 18.8282 18.3594 12.5782 30.3125C7.57821 39.6875 6.40634 50.9375 9.21884 61.0937C12.0313 71.4062 18.9063 80.5469 28.047 86.0938C36.5626 91.3281 46.9532 93.2812 56.797 91.6406C68.7501 89.8438 79.6095 82.5 85.9376 72.2656C91.172 63.8281 93.2813 53.5938 91.797 43.75C90.2345 32.8125 84.0626 22.6562 75.2345 16.1719C66.4845 9.53125 55.1563 6.64062 44.3751 8.125ZM23.2032 46.1719C28.2813 46.1719 33.4376 46.1719 38.5157 46.1719C38.5157 48.75 38.5157 51.25 38.5157 53.8281C33.4376 53.8281 28.2813 53.8281 23.2032 53.8281C23.2032 61.5625 23.2032 69.2188 23.2032 76.9531C31.5626 76.9531 39.8438 76.9531 48.2032 76.9531C48.2032 74.375 48.2032 71.7969 48.2032 69.2188C42.422 69.2188 36.7188 69.2188 30.9376 69.2188C30.9376 66.6406 30.9376 64.0625 30.9376 61.4844C36.0157 61.4844 41.172 61.4844 46.2501 61.4844C46.2501 53.8281 46.2501 46.0938 46.2501 38.4375C41.172 38.4375 36.0157 38.4375 30.9376 38.4375C30.9376 35.8594 30.9376 33.2812 30.9376 30.7813C36.7188 30.7813 42.422 30.7813 48.2032 30.7813C48.2032 28.2031 48.2032 25.625 48.2032 23.0469C39.8438 23.0469 31.5626 23.0469 23.2032 23.0469C23.2032 30.7812 23.2032 38.4375 23.2032 46.1719ZM52.0313 23.125C52.0313 25.7031 52.0313 28.2031 52.0313 30.7813C57.8126 30.7813 63.5157 30.7813 69.297 30.7813C69.297 33.3594 69.297 35.9375 69.297 38.5156C64.2188 38.5156 59.0626 38.5156 53.9845 38.5156C53.9845 46.25 53.9845 53.9062 53.9845 61.6406C59.0626 61.6406 64.2188 61.6406 69.297 61.6406C69.297 64.2188 69.297 66.7188 69.297 69.2969C63.5157 69.2969 57.8126 69.2969 52.0313 69.2969C52.0313 71.875 52.0313 74.4531 52.0313 77.0312C60.3126 77.0312 68.672 77.0312 76.9532 77.0312C76.9532 69.375 76.9532 61.6406 76.9532 53.9844C71.8751 53.9844 66.7188 53.9844 61.6407 53.9844C61.6407 51.4062 61.6407 48.8281 61.6407 46.25C66.7188 46.25 71.8751 46.25 76.9532 46.25C76.9532 38.5938 76.9532 30.8594 76.9532 23.2031C68.672 23.125 60.3126 23.125 52.0313 23.125Z" fill="#C3282B"/>
</g>
<defs>
<clipPath id="clip0_20_4231">
<rect width="100" height="100" fill="white"/>
</clipPath>
</defs>
</svg>
