<svg width="100" height="100" viewBox="0 0 100 100" fill="none" xmlns="http://www.w3.org/2000/svg">
<path d="M96.4465 50.3155C96.4459 59.4368 93.7405 68.353 88.6725 75.9368C83.6046 83.5206 76.4016 89.4313 67.9745 92.9214C59.5473 96.4115 50.2745 97.3244 41.3285 95.5445C32.3826 93.7647 24.1653 89.3721 17.7158 82.9221C11.2663 76.4722 6.87419 68.2546 5.09494 59.3085C3.31569 50.3624 4.22917 41.0897 7.71988 32.6627C11.2106 24.2358 17.1217 17.0333 24.7059 11.9658C32.29 6.89834 41.2065 4.1936 50.3277 4.1936C62.5595 4.19443 74.2899 9.05405 82.9388 17.7035C91.5876 26.3529 96.4465 38.0837 96.4465 50.3155Z" fill="white"/>
<path d="M73.5723 74.1875C71.2201 72.7896 68.5454 72.0261 65.8097 71.9719C63.1047 72.1089 60.4657 72.8567 58.091 74.1594C55.5333 75.5543 52.6867 76.3363 49.7754 76.4438C47.1286 76.3255 44.5452 75.5949 42.2285 74.3094C39.6603 72.9054 36.8004 72.1189 33.8754 72.0126C31.1739 72.143 28.5347 72.8698 26.1473 74.1407C23.5721 75.5152 20.7175 76.2847 17.8004 76.3907H17.2754C17.6191 76.8157 17.966 77.2344 18.3254 77.6407C21.2377 77.4523 24.0781 76.6549 26.6629 75.3C28.8864 74.0966 31.3505 73.4048 33.8754 73.275C36.6146 73.3845 39.2901 74.1336 41.6879 75.4625C44.1713 76.8215 46.9344 77.5903 49.7629 77.7094C52.8572 77.606 55.8854 76.7867 58.6097 75.3157C60.8181 74.0918 63.276 73.3865 65.7973 73.2532C68.3328 73.3107 70.8098 74.0268 72.9848 75.3313C75.5927 76.8701 78.56 77.6947 81.5879 77.7219C81.9566 77.3 82.3223 76.8625 82.6785 76.4219C82.3316 76.4469 82.0004 76.4625 81.6441 76.4625C78.7967 76.4344 76.0067 75.6585 73.5535 74.2126" fill="#887369"/>
<path d="M65.809 74.3625C63.1047 74.4985 60.4665 75.2464 58.0933 76.5501C55.5341 77.9408 52.6883 78.7215 49.7777 78.8313C47.1307 78.7134 44.5467 77.985 42.2277 76.7032C39.6614 75.2934 36.8007 74.5036 33.8746 74.3969C31.1721 74.5284 28.5325 75.2585 26.1465 76.5344C23.9938 77.6394 21.6691 78.3706 19.2715 78.6969C19.6309 79.0782 19.9934 79.4626 20.3652 79.8251C22.5459 79.3981 24.6589 78.678 26.6465 77.6844C28.8696 76.4801 31.3339 75.7883 33.859 75.6594C36.5985 75.7665 39.2746 76.5159 41.6715 77.8469C44.1565 79.2066 46.9223 79.9735 49.7527 80.0876C52.8454 79.986 55.872 79.1665 58.5933 77.6938C60.8027 76.4729 63.2602 75.7687 65.7809 75.6344C68.3173 75.6887 70.7953 76.4062 72.9683 77.7157C74.971 78.8575 77.1671 79.6203 79.4465 79.9657C79.8277 79.5844 80.2121 79.1969 80.5746 78.8063C78.0938 78.5973 75.6902 77.8406 73.5371 76.5907C71.1838 75.1958 68.5096 74.4336 65.7746 74.3782" fill="#887369"/>
<path d="M65.8096 76.7468C63.1071 76.8789 60.4694 77.6203 58.0939 78.9156C55.5358 80.3093 52.6895 81.0912 49.7783 81.1999C47.1301 81.0841 44.5452 80.3533 42.2283 79.0656C39.6601 77.6607 36.8005 76.8722 33.8752 76.7624C31.1727 76.894 28.5331 77.624 26.1471 78.8999C24.6004 79.6545 22.9859 80.2613 21.3252 80.7124C21.6846 81.0562 22.0596 81.3843 22.4346 81.7249C23.8807 81.2626 25.2942 80.704 26.6658 80.0531C28.8889 78.8488 31.3532 78.1569 33.8783 78.0281C36.6179 78.1352 39.294 78.8845 41.6908 80.2156C44.1743 81.5804 46.9406 82.3506 49.7721 82.4656C52.865 82.3631 55.8916 81.5425 58.6127 80.0687C60.822 78.8478 63.2795 78.1436 65.8002 78.0093C68.3363 78.0658 70.8138 78.7832 72.9877 80.0906C74.3736 80.8415 75.8308 81.4529 77.3377 81.9156L78.4877 80.8906C76.7642 80.4741 75.1053 79.8254 73.5564 78.9624C71.204 77.5656 68.5293 76.8032 65.7939 76.7499" fill="#887369"/>
<path d="M65.8129 79.1375C63.1083 79.2713 60.4697 80.0194 58.0973 81.325C55.5375 82.7135 52.6917 83.492 49.7817 83.5999C47.1343 83.4841 44.5499 82.7556 42.2317 81.4718C39.6645 80.0652 36.8039 79.2786 33.8785 79.1749C31.1759 79.3033 28.5358 80.0325 26.1504 81.3093C25.2348 81.7218 24.3004 82.1406 23.3379 82.5C23.7129 82.8125 24.0942 83.1093 24.4817 83.4093C25.2285 83.0968 25.9535 82.7843 26.6691 82.4718C28.8931 81.2695 31.3569 80.5777 33.8816 80.4468C36.6212 80.5539 39.2973 81.3032 41.6941 82.6343C44.1779 83.9981 46.9442 84.7672 49.7754 84.8812C52.868 84.7797 55.8946 83.9602 58.616 82.4875C60.8238 81.2626 63.2821 80.5583 65.8035 80.4281C68.3394 80.4834 70.8169 81.1997 72.991 82.5062C73.7285 82.8843 74.4754 83.2531 75.2879 83.5968C75.666 83.3093 76.0473 83.0062 76.4254 82.7031C75.4461 82.3167 74.4884 81.8775 73.5566 81.3874C71.2034 79.9926 68.5292 79.2303 65.7941 79.1749" fill="#887369"/>
<path d="M65.8094 81.522C63.1051 81.6579 60.4669 82.4058 58.0937 83.7095C55.5333 85.0961 52.6879 85.8746 49.7781 85.9845C47.1307 85.8686 44.5463 85.1401 42.2281 83.8563C39.661 82.4497 36.8004 81.6631 33.875 81.5595C31.1727 81.6899 28.5331 82.4189 26.1469 83.6938C25.8781 83.8126 25.6094 83.9376 25.3438 84.0501C25.7406 84.3407 26.1375 84.6251 26.5375 84.8876C26.5809 84.8772 26.6229 84.8614 26.6625 84.8407C28.8864 83.6384 31.3503 82.9466 33.875 82.8157C36.6141 82.9255 39.2896 83.6746 41.6875 85.0032C44.171 86.3681 46.9372 87.1383 49.7687 87.2532C52.8613 87.1489 55.8876 86.3285 58.6094 84.8563C60.8189 83.6364 63.2764 82.9333 65.7969 82.8001C68.3322 82.8536 70.8096 83.5677 72.9843 84.872L73.2625 85.0095C73.6625 84.7438 74.05 84.472 74.4437 84.1938L73.5531 83.7501C71.1998 82.3552 68.5257 81.593 65.7906 81.5376" fill="#887369"/>
<path d="M58.1033 86.0781C55.5434 87.4657 52.6975 88.2432 49.7877 88.35C47.1439 88.2377 44.5624 87.5124 42.2471 86.2312C39.6782 84.8225 36.8156 84.0338 33.8877 83.9281C31.6624 83.9885 29.4746 84.5155 27.4658 85.475C27.9033 85.7625 28.344 86.0281 28.794 86.2875C30.4025 85.5913 32.1321 85.2175 33.8846 85.1875C36.6237 85.2972 39.2992 86.0463 41.6971 87.375C44.1826 88.7335 46.9481 89.5003 49.7783 89.6156C52.8709 89.5141 55.8976 88.6946 58.6189 87.2219C60.8283 86.0009 63.2857 85.2968 65.8064 85.1625C67.6488 85.1559 69.4697 85.5583 71.1377 86.3406C71.5752 86.0812 72.0064 85.825 72.4377 85.55C70.3909 84.4788 68.1166 83.915 65.8064 83.9062C63.1031 84.042 60.466 84.79 58.0939 86.0938" fill="#887369"/>
<path d="M50 0C40.111 0 30.444 2.93245 22.2215 8.42652C13.9991 13.9206 7.59043 21.7295 3.80604 30.8658C0.021664 40.0021 -0.968502 50.0555 0.960758 59.7545C2.89002 69.4536 7.65205 78.3627 14.6447 85.3553C21.6373 92.3479 30.5465 97.11 40.2455 99.0392C49.9445 100.968 59.9979 99.9783 69.1342 96.194C78.2705 92.4096 86.0794 86.001 91.5735 77.7785C97.0676 69.556 100 59.8891 100 50C100 36.7392 94.7322 24.0215 85.3553 14.6447C75.9785 5.26784 63.2608 0 50 0ZM50 92.0312C41.6884 92.0319 33.5632 89.5678 26.652 84.9507C19.7407 80.3336 14.3538 73.7708 11.1723 66.0921C7.99091 58.4135 7.15787 49.9639 8.77855 41.8118C10.3992 33.6597 14.4009 26.1713 20.2774 20.2934C26.154 14.4155 33.6415 10.4122 41.7932 8.78974C49.945 7.16724 58.3947 7.9984 66.0741 11.1781C73.7535 14.3578 80.3175 19.7433 84.9361 26.6535C89.5548 33.5638 92.0206 41.6884 92.0219 50C92.0231 55.5192 90.9371 60.9845 88.8259 66.0839C86.7146 71.1833 83.6195 75.8169 79.7173 79.72C75.8151 83.6231 71.1822 86.7192 66.0833 88.8316C60.9843 90.944 55.5192 92.0312 50 92.0312Z" fill="#E71618"/>
<path d="M73.6628 37.6094C73.151 39.1587 72.1812 40.5164 70.8816 41.5031C68.9316 43.0656 56.0003 50.9844 54.5316 52.8062C53.2732 54.7537 52.677 57.0553 52.8316 59.3687V74.5719H54.8472V70.6312C54.9914 68.7011 55.8256 66.8874 57.1972 65.5219C61.2984 62.166 65.6126 59.0793 70.1128 56.2812C71.4133 55.2501 72.427 53.9022 73.0568 52.3668C73.6867 50.8313 73.9115 49.1598 73.7097 47.5125V37.125L73.6628 37.6094Z" fill="#009B3B"/>
<path d="M52.8467 51.8749C54.2748 50.0749 67.6186 41.9343 69.5311 40.3781C70.6865 39.5917 71.6564 38.5628 72.3732 37.3629C73.09 36.1631 73.5363 34.8213 73.6811 33.4312V16.4031C73.4249 18.853 72.3414 21.1424 70.6092 22.8937C68.6498 25.4625 59.6717 30.3187 55.2373 33.4343C53.4405 34.4305 51.9409 35.8864 50.8921 37.6529C49.8433 39.4194 49.2829 41.4331 49.2686 43.4874V74.5906H51.2592V58.3562C51.0644 56.0847 51.6234 53.8124 52.8498 51.8906" fill="#009B3B"/>
<path d="M42.7158 34.2687C38.0733 30.8032 33.6239 27.0862 29.3877 23.1343C27.6713 21.3259 26.5765 19.0171 26.2627 16.5437V32.3593C26.3349 34.1788 26.8262 35.9571 27.6983 37.5555C28.5705 39.154 29.7999 40.5295 31.2908 41.5749C35.2346 44.4562 40.7939 48.6437 42.4596 50.3249C44.6881 52.7803 45.8523 56.019 45.6971 59.3312V74.5906H47.6658V44.1656C47.9039 42.2121 47.5614 40.2318 46.6811 38.4717C45.8008 36.7117 44.4217 35.2499 42.7158 34.2687Z" fill="#009B3B"/>
</svg>
