<svg width="100" height="100" viewBox="0 0 100 100" fill="none" xmlns="http://www.w3.org/2000/svg">
<g clip-path="url(#clip0_20_4270)">
<path d="M100 50C100 77.6142 77.6142 100 50 100C22.3858 100 0 77.6142 0 50C0 22.3858 22.3858 0 50 0C77.6142 0 100 22.3858 100 50Z" fill="url(#paint0_linear_20_4270)"/>
<path d="M37.2997 16.0499C37.0247 16.6249 37.4747 17.2999 37.4497 18.0499V18.3999L37.4997 19.9999H54.5247C62.2497 19.9999 71.0497 18.6999 78.6497 15.0499C78.9497 14.9249 79.2497 15.1999 79.1997 15.4749V15.5499L75.5497 24.4249C73.6247 28.5999 69.1497 29.9499 53.8747 29.9999H37.4997V45.2249L67.2247 37.0249C67.8497 36.8499 71.0247 36.1999 73.0497 38.3999C75.3497 40.8749 77.4997 43.1499 78.9997 45.2249C79.3997 45.7249 79.2497 46.1749 78.5747 45.9749C77.0497 45.5749 76.4997 46.1499 74.9997 46.5499V67.4999H83.3997C88.3747 67.4999 88.6247 66.6499 89.3497 66.1499C89.5497 65.9999 89.9247 65.9999 89.9747 66.2999C90.0497 66.5999 89.9247 66.8749 89.2247 68.2999C88.4747 69.6999 85.9747 74.0499 84.4497 75.9249C83.3801 77.1925 82.0486 78.2132 80.5466 78.9167C79.0447 79.6202 77.4081 79.9898 75.7497 79.9999H24.7497C23.0084 80.0569 21.2767 79.72 19.6837 79.0144C18.0907 78.3088 16.6776 77.2528 15.5497 75.9249C13.7838 73.5016 12.1963 70.9533 10.7997 68.2999C10.0497 66.8749 9.94966 66.5999 10.0247 66.2999C10.0747 65.9999 10.4497 65.9999 10.6497 66.1499C11.3497 66.6499 11.6247 67.4749 16.1497 67.4999H24.9997V25.2499C24.9997 23.7499 26.5997 22.1499 28.4997 20.6249C30.8747 18.7499 34.5497 16.3749 36.9497 15.0749C37.2997 14.8749 37.8497 15.0249 37.2997 16.0749V16.0499ZM62.4997 49.4249L37.4997 56.4249V67.4999H62.4997V49.4249Z" fill="white"/>
</g>
<defs>
<linearGradient id="paint0_linear_20_4270" x1="50" y1="0" x2="50" y2="100" gradientUnits="userSpaceOnUse">
<stop stop-color="#50496B"/>
<stop offset="1" stop-color="#59548C"/>
</linearGradient>
<clipPath id="clip0_20_4270">
<rect width="100" height="100" fill="white"/>
</clipPath>
</defs>
</svg>
