<svg width="100" height="100" viewBox="0 0 100 100" fill="none" xmlns="http://www.w3.org/2000/svg">
<path d="M68.8286 77.8816C68.8286 77.8816 69.3887 76.8603 69.6889 78.316C69.6889 78.316 70.2968 86.1869 65.6702 90.9912C62.5899 94.1974 55.4986 98.7832 47.4587 96.7787C47.4587 96.7787 60.3044 95.8895 63.5788 83.0721L63.9371 81.6315C63.9371 81.6315 67.1687 80.8084 68.8286 77.8816ZM53.218 3.00452C53.2105 3.01723 53.2105 3.03501 53.2105 3.04009C53.1348 3.69557 53.5636 4.27483 54.1615 4.34597C54.6913 4.42473 55.1706 4.05888 55.3245 3.5228C55.6171 3.74638 55.8694 3.9852 56.0737 4.18336C54.9234 4.19353 54.7417 4.78549 53.7579 4.57462C53.2407 4.48062 52.7009 3.90136 52.6756 3.18745C52.8976 3.08074 52.9557 3.05788 53.218 3.00452ZM54.0303 2.96133C54.2423 2.98674 54.4542 3.0528 54.6535 3.12901C54.6787 3.20269 54.7039 3.28144 54.7039 3.36783C54.7039 3.63713 54.5021 3.85817 54.2599 3.85817C54.0152 3.85817 53.8134 3.63713 53.8134 3.36783C53.8134 3.20014 53.9042 3.0528 54.0303 2.96133ZM98.1376 38.3089C98.1123 38.159 98.0922 38.0218 98.0594 37.8694C98.0594 37.8694 97.8929 37.0564 97.4009 35.7683C97.3202 35.5549 97.2445 35.372 97.1714 35.2119C97.1411 35.1281 97.1058 35.0519 97.078 34.9858C96.1926 32.9228 94.5805 30.0291 91.7475 27.209C91.7475 27.209 94.7344 26.9727 91.4473 23.3218C91.4473 23.3218 86.0083 16.8915 75.5517 12.0212C69.9285 9.40942 63.6369 10.4892 64.2297 16.8077C64.6384 21.2385 60.5364 22.9331 57.3048 22.5241C53.5132 22.0464 51.2301 18.9189 51.8381 16.3453C52.4738 13.5887 53.9118 11.4597 56.046 9.81084C57.489 8.68281 58.5031 7.89521 61.1293 7.3566C62.7262 7.01615 64.8225 6.50295 65.3902 8.32458C66.485 7.74023 68.43 4.06396 62.1081 4.00552C62.1081 4.00552 61.1545 1.94508 59.0278 2.36683C59.0278 2.36683 52.7362 -3.84499 45.7331 3.85817C45.7331 3.85817 42.9783 4.95064 42.8269 3.89374C43.4526 4.38662 44.4642 2.88003 43.0817 2.3592C42.4233 2.10514 41.664 2.80635 41.5454 3.47453C41.4521 3.99028 41.6034 5.1234 42.9833 5.33427C43.3592 5.40287 44.0202 5.33427 44.0202 5.33427L43.556 5.88812C41.4672 6.79258 39.4389 6.08375 39.0504 4.59241C39.5348 4.8795 40.0797 4.51366 40.2437 3.96996C40.4152 3.41357 40.0141 2.63868 39.2068 2.51672C38.0691 2.34904 37.5292 3.68286 37.7739 4.84901C38.1448 6.65538 39.941 7.94094 42.2568 7.62337L41.8582 8.23311C41.8582 8.23311 39.5348 11.1497 37.6579 14.4678C35.7305 17.8316 27.9151 21.5434 29.2497 13.5227C29.6735 10.9821 25.4555 7.92061 18.1093 13.0018C14.1966 15.7203 9.37064 19.8005 5.81108 26.4011C5.81108 26.4011 4.22176 28.9163 6.84792 29.0027C6.84792 29.0027 1.48461 31.5687 1.27018 43.6773L1.25 43.6798C1.25 43.6798 1.25504 44.16 1.26261 44.8637C1.2727 45.2728 1.28027 45.6945 1.29541 46.1188C1.33577 47.4679 1.39884 49.071 1.52497 49.9246C1.52497 49.9246 2.12034 57.2213 3.37413 58.5119C3.37413 58.5119 3.4372 58.5373 3.52297 58.55C3.89634 58.8905 4.41602 58.9438 5.08201 58.2375C5.08706 58.235 5.09462 58.2274 5.10724 58.2223C5.11985 58.3138 6.71674 66.4996 10.0846 73.3567C12.7637 78.786 17.7435 86.7509 15.791 88.6868C13.8535 90.6126 11.1189 86.7788 11.5402 88.3159C12.4509 91.5806 15.7783 92.0506 17.5695 90.6279C22.2012 86.9465 15.4252 78.1128 13.3162 66.8756C17.7309 64.9626 17.5594 57.9149 17.5594 57.9149C17.5594 57.9149 23.8864 57.7624 25.8314 50.2219C25.8314 50.2219 33.455 52.4221 37.0852 45.7199C37.0852 45.7199 37.0751 45.6716 37.055 45.5827C37.0953 45.5472 37.118 45.5217 37.1559 45.4862C37.9051 47.821 39.4263 49.9246 41.4016 51.7107C41.4016 51.7107 41.0131 54.9805 37.4435 56.1288C37.4435 56.1288 33.0665 54.2513 28.339 56.1288C23.9948 57.8412 25.7456 62.5693 28.9015 61.4311C27.9479 60.9153 27.6679 59.3503 29.2017 59.02C29.6079 59.3579 30.0216 59.5485 30.4278 59.6298V59.6501C30.4782 59.6298 34.3481 60.3488 37.0222 59.2792C37.2164 59.2208 37.4056 59.1395 37.5923 59.02C37.6074 59.0023 37.6428 58.9997 37.6629 58.9896L37.6478 58.9769C37.8976 58.8168 38.1347 58.6085 38.3617 58.3493C39.3532 58.4103 39.9687 59.9321 38.6064 60.6384C41.2528 61.2177 42.2013 58.4103 41.109 56.9012C41.109 56.9012 41.7346 56.4896 42.4233 55.9053C42.4233 55.9053 43.2482 55.0897 43.8789 54.137C43.8789 54.137 46.4647 56.2101 51.2806 57.3737C51.2806 57.3737 48.7705 61.5784 45.0469 62.3914C45.0469 62.3914 39.7644 60.6587 36.1922 62.8894C36.1922 62.8894 34.2623 63.9158 34.5676 66.0626C34.7971 67.6683 36.0711 68.7963 37.9783 68.5245C37.1962 68.1459 35.4858 66.1897 37.6629 65.3436C38.0413 65.9483 38.5711 66.2735 39.169 66.4183C39.164 66.431 39.1564 66.4437 39.1564 66.4437C39.1564 66.4437 42.4738 67.2237 46.553 65.5012C46.717 65.4478 46.8658 65.3868 47.002 65.3081C47.05 65.2878 47.1055 65.275 47.1559 65.242C47.1559 65.242 47.1509 65.2344 47.1509 65.2268C47.4132 65.0515 47.6201 64.8508 47.6983 64.6043C48.7351 64.4163 50.2337 64.9295 49.6736 66.9341C50.9123 66.7435 52.9229 64.4595 49.9662 62.6531C49.9662 62.6531 51.7246 61.7842 53.1272 60.5089L55.2362 58.3392C59.381 58.954 62.5496 62.9199 62.5496 67.7547C62.5496 71.7231 59.1843 76.408 55.6171 77.3582C55.7483 77.3176 55.8795 77.2871 55.9905 77.2464L55.5389 77.3785C55.5566 77.3709 55.5919 77.3658 55.6171 77.3582C55.0647 77.4827 54.439 77.5488 53.6721 77.5132C50.0117 77.3862 52.1761 73.0925 52.1761 73.0925C51.6413 73.0315 51.0384 73.2119 50.5162 73.809C49.936 74.4848 49.7241 75.7983 49.9107 77.1118C49.7241 77.0559 49.555 77 49.4087 76.9365C46.1822 75.5468 46.437 73.1027 46.437 73.1027C45.5742 73.4711 44.9385 74.594 45.3219 76.4385C45.8466 78.908 48.9572 79.9801 51.4395 80.2825C52.938 81.723 55.1883 83.2296 60.4708 82.3658C60.4708 82.3658 58.1247 94.7208 42.5696 94.1847C42.5696 94.1847 37.8244 92.4012 37.9858 88.4582C38.2028 83.1254 41.8582 81.2301 41.8582 81.2301C40.5035 81.0802 37.2467 81.3876 35.7507 85.8312C35.0999 87.8179 35.2386 91.0903 37.055 93.3489C31.1795 91.7788 26.7421 87.2946 28.5206 81.1895C28.8082 80.2139 29.3834 79.2027 30.1427 78.3897C34.5676 74.1901 41.1468 76.7358 41.1468 76.7358C40.8945 75.2902 39.0101 73.2983 35.7507 73.1027C32.335 72.902 25.9348 75.0031 25.4631 82.7977C25.0216 90.0181 29.5549 95.2213 40.8163 96.8244L40.9627 96.9667C40.9627 96.9667 47.8068 101.84 57.489 99.2329C57.489 99.2329 77.0022 95.1806 72.8397 72.7953C72.8397 72.7953 77.4286 57.8946 67.812 49.3251C73.7631 54.2208 80.8973 51.3728 80.8973 51.3728C80.3801 64.9498 86.1673 66.6749 86.1673 66.6749L86.3514 66.5631C86.3514 66.5631 75.6652 89.8428 81.8534 92.7925C84.0078 93.8163 86.5154 93.3184 87.802 90.5694C88.854 88.2981 85.466 92.7544 83.5108 90.8133C81.1748 88.5115 84.0532 82.8637 86.8938 77.0432C90.8293 69.025 93.4907 63.1333 94.018 59.1903C94.018 59.1903 94.5957 59.5968 95.2566 59.2792C95.2844 59.3097 95.3096 59.3351 95.3348 59.3376C96.8611 58.9413 97.8727 52.5008 98.0291 51.4439C99.1668 45.5472 98.7657 41.1417 98.1376 38.3089Z" fill="#00A4E4"/>
</svg>
