<svg width="100" height="100" viewBox="0 0 100 100" fill="none" xmlns="http://www.w3.org/2000/svg">
<path d="M40.5469 58.125H7.57812V7.57812H15.0781V50.4688H40.5469V58.125Z" fill="#6D7071"/>
<path d="M84.9219 7.57812V27.4219H61.25V7.57812H53.75V58.125H61.25V35H84.9219V58.125H92.4219V7.57812H84.9219Z" fill="#6D7071"/>
<path fill-rule="evenodd" clip-rule="evenodd" d="M7.5 92.4249H18.1146V73.8999H7.5V92.4249Z" fill="#CED629"/>
<path fill-rule="evenodd" clip-rule="evenodd" d="M18.1143 92.4249H28.7342V73.8999H18.1143V92.4249Z" fill="#47B9C0"/>
<path fill-rule="evenodd" clip-rule="evenodd" d="M28.7314 92.4249H39.3461V73.8999H28.7314V92.4249Z" fill="#8B3F92"/>
<path fill-rule="evenodd" clip-rule="evenodd" d="M39.3467 92.4249H49.9613V73.8999H39.3467V92.4249Z" fill="#ED8068"/>
<path fill-rule="evenodd" clip-rule="evenodd" d="M49.9636 92.4249H60.5782V73.8999H49.9609L49.9636 92.4249Z" fill="#0080BE"/>
<path fill-rule="evenodd" clip-rule="evenodd" d="M60.5732 92.4249H71.1932V73.8999H60.5732V92.4249Z" fill="#F5BF0E"/>
<path fill-rule="evenodd" clip-rule="evenodd" d="M71.1934 92.4249H81.808V73.8999H71.1934V92.4249Z" fill="#94988D"/>
<path fill-rule="evenodd" clip-rule="evenodd" d="M81.8076 92.4249H92.4249V73.8999H81.8076V92.4249Z" fill="#F08D1D"/>
</svg>
