<svg width="100" height="100" viewBox="0 0 100 100" fill="none" xmlns="http://www.w3.org/2000/svg">
<g clip-path="url(#clip0_20_4258)">
<path d="M100 50.1561C100.703 76.4061 77.8125 101.094 48.0469 99.9999C21.6406 98.9843 0 76.6405 0 49.9999C0 23.6718 21.5625 -0.46887 50.9375 -0.000120013C79.1406 0.46863 100.625 24.0624 100 50.1561ZM92.1094 46.953C92.0312 40.7811 89.8438 32.0311 84.8438 24.0624C76.7969 11.4061 65.4688 4.06238 50.3906 3.67175C39.2188 3.35925 29.6094 7.89051 21.7969 15.7811C5.85938 31.953 3.51562 58.3593 16.0938 77.1874C27.2656 93.828 46.4844 100.469 64.0625 93.5936C80.7031 87.1874 92.0312 69.5311 92.1094 46.953Z" fill="#0047B6"/>
<path d="M65.5465 64.2187C63.0465 66.9531 60.7808 69.375 58.1246 72.2656C54.9996 68.9844 51.8746 65.7812 48.9058 62.5781C46.0152 59.4531 46.0933 59.4531 49.1402 56.4062C50.5465 55 51.7183 53.3594 52.6558 52.1875C57.4215 56.6406 61.5621 60.5469 65.5465 64.2187Z" fill="#FF7300"/>
<path d="M63.3594 48.8281C58.9844 44.2188 55.3906 40.4687 51.9531 36.5625C51.5625 36.1719 51.4844 34.8437 51.875 34.4531C53.8281 32.1094 55.9375 30 58.4375 27.2656C62.5781 31.5625 66.25 35.3125 69.8437 39.1406C70.2344 39.5312 70.2344 40.8594 69.8437 41.3281C67.8906 43.75 65.9375 45.8594 63.3594 48.8281Z" fill="#FF7300"/>
<path d="M56.1719 45.625C52.1875 49.5313 48.2031 53.5156 44.5312 57.1875C41.5625 54.7656 38.8281 52.5 36.25 50.3125C40.625 45.7813 44.5312 41.7969 48.5937 37.5781C51.0937 40.2344 53.4375 42.7344 56.1719 45.625Z" fill="#FF7300"/>
<path d="M48.6721 66.6406C51.2502 69.375 53.5158 71.7969 56.2502 74.6094C52.6564 78.125 48.9064 81.7969 45.0002 85.3906C44.6096 85.7812 43.4377 85.9375 43.2033 85.625C41.5627 83.9062 39.6096 82.1875 38.8283 80.0781C38.3596 78.8281 39.2971 76.4844 40.3127 75.2344C42.7346 72.3438 45.7033 69.6875 48.6721 66.6406Z" fill="#FF7300"/>
<path d="M61.4062 54.4531C65 50.7812 68.9062 46.7969 73.125 42.5C74.8438 44.375 76.9531 46.0156 78.125 48.125C79.0625 49.9219 78.5938 52.1875 76.875 53.8281C74.0625 56.5625 71.3281 59.375 68.4375 62.2656C66.0156 59.6094 63.6719 56.9531 61.4062 54.4531Z" fill="#FF7300"/>
<path d="M29.0626 27.5C33.5938 32.0312 37.5001 35.9375 41.5626 40.0781C38.9844 42.5781 36.4844 44.9219 34.2188 47.1094C31.1719 44.2187 27.7344 41.3281 24.6876 38.0469C23.1251 36.4062 23.4376 34.1406 24.8438 32.2656C26.1719 30.7812 27.5001 29.2969 29.0626 27.5Z" fill="#FF7300"/>
<path d="M48.2812 33.0469C45.7031 30.4688 42.8906 27.7344 40.1562 24.9219C37.7344 22.3438 37.7344 19.5312 40.1562 17.0312C41.3281 15.8594 42.5 14.7656 43.8281 13.5156C47.9687 17.6562 51.9531 21.6406 56.0938 25.7813C53.5938 28.125 51.0937 30.4688 48.2812 33.0469Z" fill="#FF7300"/>
<path d="M41.3277 60.0781C37.4214 63.8281 33.437 67.6563 29.1402 71.7188C27.9683 70.625 26.4058 69.375 25.1558 67.8906C23.2027 65.5469 23.2808 63.0469 25.4683 60.8594C28.2808 58.0469 31.2495 55.3125 34.2183 52.5C36.3277 54.7656 38.6714 57.3438 41.3277 60.0781Z" fill="#FF7300"/>
</g>
<defs>
<clipPath id="clip0_20_4258">
<rect width="100" height="100" fill="white"/>
</clipPath>
</defs>
</svg>
