<svg width="100" height="100" viewBox="0 0 100 100" fill="none" xmlns="http://www.w3.org/2000/svg">
<path d="M20.3263 64.8019C14.7083 64.8019 10.1826 60.2763 10.1826 54.6583V44.9049H19.936V35.5416H10.1826V25.7881H0.819336V54.6583C0.819336 65.4261 9.55847 74.1652 20.3263 74.1652C26.2562 74.1652 31.5622 71.5122 35.1514 67.2988C32.2645 63.8656 30.4697 59.496 30.4697 54.6583C30.4697 60.1982 25.8662 64.8019 20.3263 64.8019Z" fill="#0050F0"/>
<path d="M60.1203 54.6583C60.1203 60.2763 55.5946 64.8019 49.9767 64.8019C44.3587 64.8019 39.833 60.2763 39.833 54.6583V44.9049H49.5866V35.5416H39.833V25.7881H30.4697V54.6583C30.4697 59.496 32.2645 63.9435 35.1514 67.2988C38.7407 71.5122 44.0465 74.1652 49.9767 74.1652C55.9068 74.1652 61.2126 71.5122 64.8019 67.2988C61.8368 63.8656 60.1203 59.496 60.1203 54.6583Z" fill="#F68B1F"/>
<path d="M79.6269 35.1514C75.8815 35.1514 72.4484 36.1658 69.4834 37.9604V25.7881H60.1201V54.6583C60.1201 59.496 61.9147 63.9435 64.8018 67.2988C68.3909 71.5122 73.6969 74.1652 79.6269 74.1652C90.3947 74.1652 99.1338 65.4261 99.1338 54.6583C99.1338 43.8905 90.3947 35.1514 79.6269 35.1514ZM79.6269 64.8019C74.0089 64.8019 69.4834 60.2763 69.4834 54.6583C69.4834 49.0403 74.0089 44.5147 79.6269 44.5147C85.2448 44.5147 89.7705 49.0403 89.7705 54.6583C89.7705 60.2763 85.1669 64.8019 79.6269 64.8019Z" fill="#002D63"/>
</svg>
