<svg width="100" height="100" viewBox="0 0 100 100" fill="none" xmlns="http://www.w3.org/2000/svg">
<g clip-path="url(#clip0_20_4198)">
<path d="M74.1177 97.3529C74.1177 99.7069 77.3541 100 79.1188 100H80.5904C85.0023 99.7098 85.0022 97.9421 85.0022 97.3529V2.64716C85.2925 0.290259 82.059 0 80.001 0H79.1303C77.3539 0 74.1177 0.290259 74.1177 2.64716V97.3529Z" fill="#E1091D"/>
<path d="M15 97.3529C15 99.7069 18.2364 100 20.0011 100H21.4729C25.8848 99.7098 25.8847 97.9421 25.8847 97.3529V2.64716C25.8847 0.290259 22.9415 0 20.8836 0H20.0128C17.9404 0 15 0.290259 15 2.64716V97.3529Z" fill="#E1091D"/>
<path d="M34.7061 97.3529C34.7061 99.7069 37.9426 100 39.7074 100H41.4721C45.884 99.7098 45.8841 97.9421 45.8841 97.3529V2.64716C45.8841 0.290259 42.6477 0 40.883 0H39.7074C37.9426 0 34.7061 0.290259 34.7061 2.64716V97.3529Z" fill="#E1091D"/>
<path d="M54.4116 97.3529C54.4116 99.7069 57.6479 100 59.4128 100H60.8843C65.2963 99.7098 65.2963 97.9421 65.2963 97.3529V2.64716C65.2963 0.290259 62.0599 0 60.2952 0H59.4244C57.648 0 54.4116 0.290259 54.4116 2.64716V97.3529Z" fill="#E1091D"/>
<path d="M2.64714 44.4128C0.2903 44.4128 0 47.6492 0 49.414V51.1788C0.290296 55.5907 2.05795 55.5907 2.64714 55.5907H97.3529C99.7069 55.5907 100 52.3543 100 50.5896V49.414C100 47.6492 99.7098 44.4128 97.3529 44.4128H2.64714Z" fill="#E1091D"/>
</g>
<defs>
<clipPath id="clip0_20_4198">
<rect width="100" height="100" fill="white"/>
</clipPath>
</defs>
</svg>
