<svg width="140" height="140" viewBox="0 0 140 140" fill="none" xmlns="http://www.w3.org/2000/svg">
<mask id="mask0_3652_1098" style="mask-type:luminance" maskUnits="userSpaceOnUse" x="0" y="0" width="140" height="140">
<path d="M140 0H0V140H140V0Z" fill="white"/>
</mask>
<g mask="url(#mask0_3652_1098)">
<g filter="url(#filter0_f_3652_1098)">
<path d="M52.9656 118.748L37.5789 127.596L-9.84766 93.5608L8.02405 83.2393L52.9656 118.748Z" fill="url(#paint0_linear_3652_1098)"/>
</g>
<g filter="url(#filter1_f_3652_1098)">
<path d="M81.4646 104.129L66.0782 112.977L6.69629 70.6433L24.568 60.3215L81.4646 104.129Z" fill="url(#paint1_linear_3652_1098)"/>
</g>
<g filter="url(#filter2_f_3652_1098)">
<path d="M110.695 88.4285L95.3076 97.2777L27.7529 52.5069L46.1356 37.8814L110.695 88.4285Z" fill="url(#paint2_linear_3652_1098)"/>
</g>
<path d="M80.984 41.0673C81.3189 41.2606 81.3177 41.5741 80.9829 41.7674L67.507 49.5478C67.1723 49.7411 66.6292 49.7415 66.2944 49.5483L59.0246 45.3511C58.6897 45.1578 58.6897 44.8438 59.0246 44.6505L73.1075 36.5196L80.984 41.0673Z" fill="#1C1C1C" stroke="#AAAAAA" stroke-width="1.4" stroke-linejoin="round"/>
<path d="M80.8774 41.5941C81.2123 41.4009 81.4829 41.5585 81.4829 41.945V104.421L67.3919 112.556C67.0573 112.75 66.7854 112.594 66.7852 112.208V49.7301L80.8774 41.5941Z" fill="#D9D9D9"/>
<path d="M80.8774 41.5941C81.2123 41.4009 81.4829 41.5585 81.4829 41.945V104.421L67.3919 112.556C67.0573 112.75 66.7854 112.594 66.7852 112.208V49.7301L80.8774 41.5941Z" stroke="#AAAAAA" stroke-width="1.4" stroke-linejoin="round"/>
<path d="M67.1639 49.1323L59.1235 44.4901C58.4521 44.1025 57.9086 44.4187 57.9111 45.1955L58.1182 108.481L66.402 113.265C66.9392 113.575 67.374 113.322 67.3719 112.7L67.1639 49.1323Z" fill="#AAAAAA"/>
<path d="M110.13 16.688C110.465 16.8813 110.464 17.1948 110.129 17.3881L96.6527 25.1685C96.3179 25.3618 95.7754 25.3623 95.4406 25.1691L88.171 20.9724C87.8362 20.7792 87.8362 20.465 88.171 20.2718L102.254 12.1409L110.13 16.688Z" fill="#1C1C1C" stroke="#AAAAAA" stroke-width="1.4" stroke-linejoin="round"/>
<path d="M110.022 17.2149C110.357 17.0217 110.628 17.1793 110.628 17.5658V88.4414L96.5373 96.5777C96.2025 96.7702 95.9307 96.6139 95.9307 96.2266V25.3509L110.022 17.2149Z" fill="#D9D9D9"/>
<path d="M110.022 17.2149C110.357 17.0217 110.628 17.1793 110.628 17.5658V88.4414L96.5373 96.5777C96.2025 96.7702 95.9307 96.6139 95.9307 96.2266V25.3509L110.022 17.2149Z" stroke="#AAAAAA" stroke-width="1.4" stroke-linejoin="round"/>
<path d="M96.3095 24.753L88.2688 20.1109C87.598 19.7234 87.0543 20.0393 87.0566 20.8156L87.2643 92.5026L95.5476 97.2848C96.0843 97.5951 96.5195 97.3419 96.5171 96.7213L96.3095 24.753Z" fill="#AAAAAA"/>
<path d="M51.8387 66.8691C52.1735 67.0624 52.1735 67.3765 51.8387 67.5698L38.3626 75.3503C38.0278 75.544 37.4838 75.544 37.1489 75.3503L29.8712 71.1485C29.5364 70.9551 29.5364 70.6411 29.8712 70.4477L43.9541 62.317L51.8387 66.8691Z" fill="#1C1C1C" stroke="#AAAAAA" stroke-width="1.4" stroke-linejoin="round"/>
<path d="M51.7305 67.3961C52.0652 67.2029 52.3362 67.3604 52.3362 67.747V119.023L38.2455 127.158C37.9106 127.352 37.6387 127.194 37.6387 126.808V75.5322L51.7305 67.3961Z" fill="#D9D9D9"/>
<path d="M51.7305 67.3961C52.0652 67.2029 52.3362 67.3604 52.3362 67.747V119.023L38.2455 127.158C37.9106 127.352 37.6387 127.194 37.6387 126.808V75.5322L51.7305 67.3961Z" stroke="#AAAAAA" stroke-width="1.4" stroke-linejoin="round"/>
<path d="M38.0184 74.9338L29.979 70.2927C29.3072 69.9048 28.7635 70.2217 28.7666 70.9991L28.9728 123.083L37.2557 127.865C37.7931 128.176 38.2282 127.923 38.2257 127.301L38.0184 74.9338Z" fill="#AAAAAA"/>
<path d="M22.4736 111.343L66.1555 53.7156L79.2234 65.5267L102.657 28.6138V18.7006L117.526 24.6402L102.657 57.0686V47.1554L79.2234 84.0688L66.1555 72.2574L22.4736 129.885V111.343Z" fill="url(#paint3_linear_3652_1098)"/>
<path d="M22.4736 111.343L66.1555 53.7156L79.2234 65.5267L102.657 28.6138V18.7006L117.526 24.6402L102.657 57.0686V47.1554L79.2234 84.0688L66.1555 72.2574L22.4736 129.885V111.343Z" fill="url(#paint4_linear_3652_1098)"/>
<path d="M22.4736 111.343L66.1555 53.7156L79.2234 65.5267L102.657 28.6138V18.7006L117.526 24.6402L102.657 57.0686V47.1554L79.2234 84.0688L66.1555 72.2574L22.4736 129.885V111.343Z" stroke="#AAAAAA" stroke-width="1.4" stroke-linejoin="round"/>
<path d="M29.2089 64.7607C29.5996 66.816 31.6738 68.0697 33.658 67.4995L33.8494 67.438L34.9762 67.0438L34.0739 67.822C32.4877 69.1875 32.4377 71.6097 33.9246 73.0412L34.0739 73.1767L34.9762 73.9539L33.8494 73.5607C31.8733 72.8721 29.7499 74.0372 29.2522 76.0396L29.2089 76.2368L28.9856 77.4105L28.7623 76.2368C28.3716 74.1816 26.2978 72.9275 24.3132 73.4992L24.1219 73.5607L22.9951 73.9527L23.8986 73.1767C25.4848 71.8112 25.534 69.389 24.0466 67.9575L23.8986 67.822L22.9951 67.045L24.1219 67.438C26.0981 68.1267 28.2226 66.9613 28.7202 64.9577L28.7623 64.7607L28.9856 63.5859L29.2089 64.7607Z" fill="#1C1C1C" stroke="#AAAAAA" stroke-width="1.4" stroke-linejoin="round"/>
<path d="M23.3807 56.8585L23.6543 58.2971C23.7514 58.8078 24.2802 59.113 24.7719 58.9417L26.156 58.459L25.0453 59.4147C24.6512 59.7541 24.6512 60.3642 25.0453 60.7036L26.156 61.6595L24.7719 61.1766C24.2802 61.0053 23.7514 61.3103 23.6543 61.8209L23.3807 63.2596L23.1073 61.8209C23.0102 61.3103 22.4812 61.005 21.9897 61.1766L20.6055 61.6595L21.7163 60.7036C22.1104 60.3642 22.1104 59.7541 21.7163 59.4147L20.6055 58.459L21.9897 58.9417C22.4812 59.113 23.0102 58.808 23.1073 58.2971L23.3807 56.8585Z" fill="#AAAAAA"/>
<path d="M16.9667 66.8458L17.2401 68.2844C17.3372 68.7951 17.8662 69.1004 18.3577 68.929L19.7419 68.4463L18.6313 69.4021C18.2371 69.7414 18.2371 70.3517 18.6313 70.691L19.7419 71.6468L18.3577 71.164C17.8662 70.9926 17.3372 71.2976 17.2401 71.8082L16.9667 73.2469L16.6932 71.8082C16.5961 71.2976 16.0672 70.9924 15.5755 71.164L14.1914 71.6468L15.3021 70.691C15.6963 70.3517 15.6963 69.7414 15.3021 69.4021L14.1914 68.4463L15.5755 68.929C16.0672 69.1004 16.5961 68.7954 16.6932 68.2844L16.9667 66.8458Z" fill="#AAAAAA"/>
<path d="M111.173 72.4353C111.563 74.4906 113.638 75.7445 115.621 75.174L115.812 75.1122L116.939 74.719L116.038 75.4972C114.451 76.8622 114.401 79.2842 115.888 80.7157L116.038 80.851L116.939 81.628L115.812 81.2349C113.837 80.5465 111.713 81.712 111.216 83.714L111.173 83.9112L110.949 85.0849L110.726 83.9112C110.335 81.8567 108.261 80.6025 106.276 81.1742L106.085 81.2349L104.959 81.6269L105.862 80.851C107.449 79.486 107.498 77.064 106.01 75.6325L105.862 75.4972L104.959 74.7202L106.085 75.1122C108.061 75.8017 110.186 74.6361 110.684 72.6324L110.726 72.4353L110.949 71.2607L111.173 72.4353Z" fill="#1C1C1C" stroke="#AAAAAA" stroke-width="1.4" stroke-linejoin="round"/>
<path d="M115.493 65.9967L115.767 67.4353C115.864 67.946 116.393 68.2513 116.885 68.0799L118.269 67.5972L117.158 68.553C116.764 68.8923 116.764 69.5026 117.158 69.8418L118.269 70.7977L116.885 70.3149C116.393 70.1435 115.864 70.4485 115.767 70.9591L115.493 72.3978L115.22 70.9591C115.123 70.4485 114.594 70.1432 114.103 70.3149L112.718 70.7977L113.828 69.8418C114.223 69.5026 114.223 68.8923 113.828 68.553L112.718 67.5972L114.103 68.0799C114.594 68.2513 115.123 67.9463 115.22 67.4353L115.493 65.9967Z" fill="#AAAAAA"/>
<path d="M121.044 75.2139L121.317 76.6524C121.415 77.1634 121.944 77.469 122.435 77.2975L123.82 76.8145L122.709 77.77C122.315 78.1095 122.315 78.7197 122.709 79.0592L123.82 80.0147L122.435 79.5329C121.944 79.3614 121.415 79.6659 121.317 80.1769L121.044 81.6154L120.771 80.1769C120.673 79.6659 120.145 79.3614 119.653 79.5329L118.269 80.0147L119.379 79.0592C119.774 78.7197 119.774 78.1095 119.379 77.77L118.269 76.8145L119.653 77.2975C120.145 77.469 120.673 77.1634 120.771 76.6524L121.044 75.2139Z" fill="#AAAAAA"/>
</g>
<defs>
<filter id="filter0_f_3652_1098" x="-11.2477" y="81.8393" width="65.6135" height="47.1567" filterUnits="userSpaceOnUse" color-interpolation-filters="sRGB">
<feFlood flood-opacity="0" result="BackgroundImageFix"/>
<feBlend mode="normal" in="SourceGraphic" in2="BackgroundImageFix" result="shape"/>
<feGaussianBlur stdDeviation="0.7" result="effect1_foregroundBlur_3652_1098"/>
</filter>
<filter id="filter1_f_3652_1098" x="5.29629" y="58.9215" width="77.5686" height="55.4551" filterUnits="userSpaceOnUse" color-interpolation-filters="sRGB">
<feFlood flood-opacity="0" result="BackgroundImageFix"/>
<feBlend mode="normal" in="SourceGraphic" in2="BackgroundImageFix" result="shape"/>
<feGaussianBlur stdDeviation="0.7" result="effect1_foregroundBlur_3652_1098"/>
</filter>
<filter id="filter2_f_3652_1098" x="26.3529" y="36.4814" width="85.7414" height="62.1963" filterUnits="userSpaceOnUse" color-interpolation-filters="sRGB">
<feFlood flood-opacity="0" result="BackgroundImageFix"/>
<feBlend mode="normal" in="SourceGraphic" in2="BackgroundImageFix" result="shape"/>
<feGaussianBlur stdDeviation="0.7" result="effect1_foregroundBlur_3652_1098"/>
</filter>
<linearGradient id="paint0_linear_3652_1098" x1="3.37966" y1="92.4921" x2="38.4213" y2="121.513" gradientUnits="userSpaceOnUse">
<stop stop-color="#1C1C1C" stop-opacity="0"/>
<stop offset="0.422853" stop-color="white" stop-opacity="0.15"/>
<stop offset="1" stop-color="white" stop-opacity="0.5"/>
</linearGradient>
<linearGradient id="paint1_linear_3652_1098" x1="22.4412" y1="71.3063" x2="64.0594" y2="105.867" gradientUnits="userSpaceOnUse">
<stop stop-color="#1C1C1C" stop-opacity="0"/>
<stop offset="0.422853" stop-color="white" stop-opacity="0.15"/>
<stop offset="1" stop-color="white" stop-opacity="0.5"/>
</linearGradient>
<linearGradient id="paint2_linear_3652_1098" x1="36.6803" y1="43.4114" x2="91.7399" y2="88.8042" gradientUnits="userSpaceOnUse">
<stop stop-color="#1C1C1C" stop-opacity="0"/>
<stop offset="0.310131" stop-color="white" stop-opacity="0.15"/>
<stop offset="1" stop-color="white" stop-opacity="0.5"/>
</linearGradient>
<linearGradient id="paint3_linear_3652_1098" x1="70.0002" y1="37.5549" x2="98.099" y2="86.2225" gradientUnits="userSpaceOnUse">
<stop stop-color="#5349C1"/>
<stop offset="1" stop-color="#977FED"/>
</linearGradient>
<linearGradient id="paint4_linear_3652_1098" x1="22.4736" y1="74.2928" x2="117.526" y2="74.2928" gradientUnits="userSpaceOnUse">
<stop stop-color="#6D08E8"/>
<stop offset="1" stop-color="#CB63FE"/>
</linearGradient>
</defs>
</svg>
