<svg width="106" height="106" viewBox="0 0 106 106" fill="none" xmlns="http://www.w3.org/2000/svg">
<g filter="url(#filter0_f_3652_1034)">
<path d="M58.3183 51.7405L44.0631 71.2558L26.0282 72.3332L45.2094 42.2261L58.3183 51.7405Z" fill="url(#paint0_linear_3652_1034)"/>
</g>
<g filter="url(#filter1_f_3652_1034)">
<path d="M69.4444 53.3502L55.1892 72.8653L37.1544 73.9427L54.8403 46.9861L69.4444 53.3502Z" fill="url(#paint1_linear_3652_1034)"/>
</g>
<path d="M56.3769 50.2079C58.1881 51.8976 58.5068 54.8978 51.9238 64.1017C49.0895 68.0646 48.2117 70.5249 46.5635 71.0167C45.8673 71.2245 44.715 71.4618 44.347 71.3553C43.6182 71.1444 43.2933 70.1095 43.211 68.6152C42.9936 64.6658 43.6102 60.4309 44.9425 57.1227C43.7229 57.5249 42.5051 57.2422 41.4761 56.3181C40.4471 55.394 39.6637 53.8795 39.2463 52.0074C38.8289 50.1352 38.8006 48.0087 39.1656 45.9546C39.5306 43.9005 40.2688 42.0323 41.2669 40.6368C42.1238 39.4388 43.1121 38.7655 44.1649 38.3917C45.2178 38.0179 46.1386 37.8901 46.5647 37.8804C47.8358 37.8516 47.266 38.8005 48.0351 39.7197C48.982 40.8516 49.6484 42.5295 49.9321 44.4957C50.2157 46.4619 50.1009 48.6078 49.6052 50.6037C51.7406 49.0639 54.5657 48.5183 56.3769 50.2079Z" fill="#AAAAAA"/>
<path d="M42.9081 40.5428C43.8443 39.234 44.9664 38.4248 46.1118 38.2297L46.2226 38.2129C47.3693 38.0576 48.4727 38.528 49.3737 39.5537L49.4602 39.6545C50.3481 40.7158 50.9813 42.2732 51.2699 44.0996L51.2965 44.2772C51.4986 45.6764 51.4918 47.1701 51.2834 48.6308L51.239 48.9225C51.1778 49.3009 51.2505 49.6499 51.3818 49.8701C51.5051 50.0769 51.6944 50.1931 51.9012 50.1021L51.9427 50.081C53.8667 48.9841 56.1239 48.7306 57.6694 50.0277L57.8165 50.1582C58.2575 50.5698 58.5843 51.0407 58.7457 51.6297C58.9033 52.2046 58.9152 52.9341 58.6729 53.9251C58.4276 54.9266 57.925 56.1818 57.0648 57.77C56.2064 59.3556 54.9999 61.2577 53.3583 63.5528C51.7169 65.8478 50.3708 67.5162 49.2732 68.6682C48.1733 69.8221 47.3332 70.4462 46.701 70.6707C46.0734 70.8934 45.6679 70.7183 45.4035 70.3117C45.1495 69.9209 44.9989 69.2759 44.9376 68.4081L44.9265 68.232C44.7437 64.9107 45.1617 61.3871 46.1029 58.4102L46.1959 58.1241C46.3132 57.7704 46.2925 57.3914 46.1989 57.1175C46.1113 56.8611 45.9499 56.6667 45.7454 56.66L45.7038 56.6613C44.8425 56.7386 44.0032 56.4625 43.258 55.8497L43.1101 55.7227C42.1453 54.8562 41.4036 53.4535 40.9909 51.7192L40.9519 51.5501C40.5605 49.7945 40.5225 47.8079 40.8418 45.8776L40.8737 45.6913C41.2271 43.7027 41.9418 41.8938 42.9081 40.5428Z" fill="#D9D9D9"/>
<path d="M42.9081 40.5428C43.8443 39.234 44.9664 38.4248 46.1118 38.2297L46.2226 38.2129C47.3693 38.0576 48.4727 38.528 49.3737 39.5537L49.4602 39.6545C50.3481 40.7158 50.9813 42.2732 51.2699 44.0996L51.2965 44.2772C51.4986 45.6764 51.4918 47.1701 51.2834 48.6308L51.239 48.9225C51.1778 49.3009 51.2505 49.6499 51.3818 49.8701C51.5051 50.0769 51.6944 50.1931 51.9012 50.1021L51.9427 50.081C53.8667 48.9841 56.1239 48.7306 57.6694 50.0277L57.8165 50.1582C58.2575 50.5698 58.5843 51.0407 58.7457 51.6297C58.9033 52.2046 58.9152 52.9341 58.6729 53.9251C58.4276 54.9266 57.925 56.1818 57.0648 57.77C56.2064 59.3556 54.9999 61.2577 53.3583 63.5528C51.7169 65.8478 50.3708 67.5162 49.2732 68.6682C48.1733 69.8221 47.3332 70.4462 46.701 70.6707C46.0734 70.8934 45.6679 70.7183 45.4035 70.3117C45.1495 69.9209 44.9989 69.2759 44.9376 68.4081L44.9265 68.232C44.7437 64.9107 45.1617 61.3871 46.1029 58.4102L46.1959 58.1241C46.3132 57.7704 46.2925 57.3914 46.1989 57.1175C46.1113 56.8611 45.9499 56.6667 45.7454 56.66L45.7038 56.6613C44.8425 56.7386 44.0032 56.4625 43.258 55.8497L43.1101 55.7227C42.1453 54.8562 41.4036 53.4535 40.9909 51.7192L40.9519 51.5501C40.5605 49.7945 40.5225 47.8079 40.8418 45.8776L40.8737 45.6913C41.2271 43.7027 41.9418 41.8938 42.9081 40.5428Z" stroke="#AAAAAA" stroke-width="0.5" stroke-linejoin="round"/>
<path d="M67.1045 50.2974C69.1003 52.1729 69.4586 55.4808 62.2426 65.5698C59.3706 69.5851 57.5168 72.2223 56.0589 73.2446C53.7362 73.5581 52.8224 73.0949 52.6725 70.4745C52.4234 66.1216 53.0909 61.461 54.5474 57.8263C53.2074 58.2601 51.8675 57.9392 50.7335 56.9129C49.5996 55.8868 48.7343 54.2122 48.2705 52.1463C47.8068 50.0804 47.7702 47.7375 48.1664 45.4772C48.5626 43.217 49.3698 41.1645 50.4639 39.6348C51.5577 38.1054 53.3183 37.353 54.7711 36.9354C56.1655 36.6131 56.7733 36.4097 57.8176 37.6641C58.8618 38.9184 59.6856 41.7853 60.0027 43.9537C60.3194 46.1222 60.1988 48.4854 59.6585 50.6805C62.0029 49.0007 65.1081 48.4218 67.1045 50.2974Z" fill="#AAAAAA"/>
<path d="M52.153 39.5766C53.182 38.1382 54.4169 37.2531 55.6795 37.0466L55.8018 37.0287C57.0661 36.8661 58.2846 37.3948 59.2814 38.5357L59.3771 38.6477C60.3597 39.8278 61.062 41.5546 61.3847 43.576L61.415 43.7725C61.7225 45.8784 61.6053 48.1729 61.0809 50.304C61.053 50.4179 61.0647 50.5423 61.1114 50.6219C61.1577 50.7017 61.2303 50.7226 61.2969 50.6749C63.5775 49.0409 66.5622 48.4829 68.4997 50.1998L68.5915 50.283C69.0788 50.7413 69.4427 51.2665 69.6242 51.925C69.8019 52.5692 69.8155 53.3831 69.5499 54.4789C69.2818 55.5855 68.7306 56.9675 67.7881 58.7122C66.8472 60.4533 65.5247 62.5403 63.7249 65.0564C61.9253 67.5729 60.4485 69.4018 59.2435 70.6635C58.0362 71.927 57.1117 72.6096 56.4141 72.8532C55.7214 73.095 55.2685 72.8993 54.9713 72.4408C54.6865 72.0013 54.5183 71.2814 54.4485 70.3215L54.436 70.1262C54.1907 65.839 54.8491 61.2561 56.277 57.6935C56.3184 57.59 56.3229 57.4612 56.2891 57.364C56.2593 57.2786 56.2048 57.2311 56.145 57.2358L56.1192 57.2412C54.8588 57.6488 53.5985 57.3691 52.5197 56.445L52.416 56.3539C51.3148 55.3574 50.4742 53.7312 50.0238 51.7248C49.5874 49.7811 49.5407 47.585 49.888 45.4546L49.9226 45.2487C50.3071 43.0543 51.0911 41.0613 52.153 39.5766Z" fill="url(#paint2_linear_3652_1034)" stroke="#AAAAAA" stroke-width="0.5" stroke-linejoin="round"/>
<path d="M58.6193 56.19C58.4734 55.8686 58.5215 55.375 58.7269 55.0877C58.8254 54.95 58.9478 54.8789 59.0675 54.8904L59.1446 54.898C59.4961 54.9324 59.8292 54.4667 59.8886 53.858L59.9016 53.7245C59.9217 53.5177 59.9884 53.324 60.0872 53.1858C60.2927 52.8988 60.5776 52.9264 60.7237 53.2482L61.0142 53.8878C61.1324 54.148 61.1449 54.5222 61.0492 54.8466C60.9418 55.2098 60.716 55.445 60.4908 55.4228C60.2021 55.3947 59.9284 55.7775 59.8797 56.2779C59.8417 56.6677 59.6605 57.0012 59.4347 57.1037C59.2329 57.1954 59.0282 57.0902 58.9098 56.8296L58.6193 56.19Z" fill="#AAAAAA"/>
<path d="M65.5397 47.0901C65.9704 47.7007 66.83 47.8021 67.3908 47.3238L67.4443 47.2753L67.7522 46.9809L67.5738 47.3671C67.2595 48.0454 67.601 48.8407 68.2961 49.0865L68.3647 49.1085L68.7727 49.2279L68.3485 49.2664C67.6042 49.3344 67.0857 50.0266 67.2196 50.7516L67.2346 50.822L67.3355 51.2366L67.0893 50.888C66.6587 50.2773 65.7993 50.1756 65.2384 50.6546L65.1853 50.703L64.8767 50.9969L65.0558 50.6112C65.37 49.9327 65.0282 49.1379 64.3331 48.8921L64.2649 48.8699L63.8565 48.7506L64.2811 48.7119C65.0254 48.644 65.5442 47.9513 65.4099 47.2264L65.3944 47.1561L65.2938 46.741L65.5397 47.0901Z" fill="#1C1C1C" stroke="#AAAAAA" stroke-width="0.5" stroke-linejoin="round"/>
<path d="M66.283 44.4386L66.5846 44.8659C66.6915 45.0177 66.9085 45.0389 67.0433 44.9105L67.4219 44.5491L67.2019 45.0239C67.1238 45.1925 67.2139 45.391 67.3922 45.4431L67.8946 45.5899L67.3733 45.6372C67.1879 45.6542 67.0611 45.8314 67.105 46.0118L67.2283 46.5201L66.9271 46.0926C66.8202 45.9408 66.6029 45.9198 66.4685 46.0481L66.0899 46.4095L66.3099 45.9346C66.388 45.7661 66.2979 45.5676 66.1195 45.5155L65.6172 45.3688L66.1385 45.3214C66.3235 45.3045 66.4507 45.1272 66.4067 44.9467L66.283 44.4386Z" fill="#AAAAAA"/>
<path d="M69.0975 46.5704L69.3991 46.9977C69.506 47.1495 69.7229 47.1707 69.8577 47.0423L70.2363 46.6809L70.0164 47.1559C69.9383 47.3245 70.0284 47.523 70.2066 47.5747L70.7091 47.7218L70.1878 47.7691C70.0024 47.786 69.8755 47.9631 69.9195 48.1436L70.0428 48.6518L69.7415 48.2244C69.6346 48.0725 69.4174 48.0517 69.283 48.18L68.9044 48.5414L69.1243 48.0663C69.2021 47.8982 69.112 47.6998 68.934 47.6475L68.4317 47.5006L68.9529 47.4532C69.1379 47.4364 69.2651 47.259 69.2211 47.0785L69.0975 46.5704Z" fill="#AAAAAA"/>
<path d="M39.0056 46.7471C39.4362 47.3577 40.2958 47.4591 40.8568 46.9807L40.91 46.9324L41.2182 46.6378L41.0397 47.0241C40.7256 47.7024 41.067 48.4974 41.762 48.7433L41.8305 48.7653L42.2387 48.8848L41.8142 48.9234C41.0699 48.9913 40.5515 49.6837 40.6855 50.4084L40.7005 50.4789L40.8012 50.8935L40.5553 50.5449C40.1247 49.9342 39.2651 49.8327 38.7042 50.3117L38.651 50.3599L38.3425 50.6538L38.5217 50.2681C38.8358 49.5898 38.4941 48.7949 37.7991 48.549L37.7309 48.5268L37.3224 48.4076L37.7468 48.369C38.4911 48.3011 39.0099 47.6084 38.8758 46.8833L38.8604 46.813L38.7595 46.3981L39.0056 46.7471Z" fill="#1C1C1C" stroke="#AAAAAA" stroke-width="0.5" stroke-linejoin="round"/>
<path d="M35.9435 45.0383L36.2449 45.4657C36.3519 45.6175 36.5689 45.6386 36.7035 45.5103L37.0823 45.1489L36.8623 45.6237C36.7842 45.7923 36.8743 45.9907 37.0526 46.0428L37.555 46.1896L37.0336 46.237C36.8484 46.2539 36.7214 46.4312 36.7653 46.6116L36.8888 47.1198L36.5874 46.6924C36.4805 46.5407 36.2634 46.5195 36.1289 46.6479L35.7501 47.0094L35.9701 46.5345C36.0481 46.3659 35.958 46.1675 35.7797 46.1154L35.2774 45.9686L35.7988 45.9212C35.9839 45.9043 36.1109 45.727 36.067 45.5465L35.9435 45.0383Z" fill="#AAAAAA"/>
<path d="M35.3321 49.2331L35.6335 49.6605C35.7405 49.8122 35.9576 49.8334 36.0922 49.7051L36.471 49.3437L36.2509 49.8185C36.1729 49.9871 36.263 50.1855 36.4413 50.2376L36.9436 50.3844L36.4222 50.4318C36.2371 50.4487 36.1101 50.626 36.1539 50.8064L36.2775 51.3146L35.9761 50.8872C35.8691 50.7355 35.652 50.7143 35.5175 50.8427L35.1387 51.2041L35.3587 50.7293C35.4368 50.5607 35.3467 50.3623 35.1684 50.3102L34.666 50.1634L35.1874 50.116C35.3726 50.0991 35.4996 49.9218 35.4557 49.7413L35.3321 49.2331Z" fill="#AAAAAA"/>
<defs>
<filter id="filter0_f_3652_1034" x="25.5283" y="41.7261" width="33.29" height="31.1071" filterUnits="userSpaceOnUse" color-interpolation-filters="sRGB">
<feFlood flood-opacity="0" result="BackgroundImageFix"/>
<feBlend mode="normal" in="SourceGraphic" in2="BackgroundImageFix" result="shape"/>
<feGaussianBlur stdDeviation="0.25" result="effect1_foregroundBlur_3652_1034"/>
</filter>
<filter id="filter1_f_3652_1034" x="36.6543" y="46.4861" width="33.29" height="27.9566" filterUnits="userSpaceOnUse" color-interpolation-filters="sRGB">
<feFlood flood-opacity="0" result="BackgroundImageFix"/>
<feBlend mode="normal" in="SourceGraphic" in2="BackgroundImageFix" result="shape"/>
<feGaussianBlur stdDeviation="0.25" result="effect1_foregroundBlur_3652_1034"/>
</filter>
<linearGradient id="paint0_linear_3652_1034" x1="32.8275" y1="56.1278" x2="48.4815" y2="61.5161" gradientUnits="userSpaceOnUse">
<stop offset="0.107334" stop-color="#1C1C1C" stop-opacity="0"/>
<stop offset="0.545039" stop-color="white" stop-opacity="0.15"/>
<stop offset="1" stop-color="white" stop-opacity="0.5"/>
</linearGradient>
<linearGradient id="paint1_linear_3652_1034" x1="43.9537" y1="57.7375" x2="59.6076" y2="63.1257" gradientUnits="userSpaceOnUse">
<stop offset="0.107334" stop-color="#1C1C1C" stop-opacity="0"/>
<stop offset="0.545039" stop-color="white" stop-opacity="0.15"/>
<stop offset="1" stop-color="white" stop-opacity="0.5"/>
</linearGradient>
<linearGradient id="paint2_linear_3652_1034" x1="48.5257" y1="58.2981" x2="68.4525" y2="49.2481" gradientUnits="userSpaceOnUse">
<stop stop-color="#6D08E8"/>
<stop offset="1" stop-color="#CB63FE"/>
</linearGradient>
</defs>
</svg>
