<svg width="118" height="26" viewBox="0 0 118 26" fill="none" xmlns="http://www.w3.org/2000/svg">
<path d="M0 25.8711H27.3926V0.0898438L0 0.0898438L0 25.8711ZM39.2643 20.786C36.1183 20.786 34.0283 19.114 33.9623 16.386H36.1843C36.2283 17.794 37.3063 18.718 39.2643 18.718C41.2663 18.718 42.3883 17.794 42.3883 16.386C42.3883 14.868 40.8483 14.626 39.1103 14.318C36.8663 13.922 34.2923 13.482 34.2923 10.248C34.2923 7.63 36.2723 5.826 39.2863 5.826C42.2343 5.826 44.2143 7.542 44.3023 10.116H42.1683C42.1023 8.84 41.1123 7.894 39.3303 7.894C37.4823 7.894 36.4483 8.862 36.4483 10.182C36.4483 11.7 38.0103 11.942 39.7483 12.25C42.0143 12.646 44.5883 13.086 44.5883 16.32C44.5883 19.07 42.4763 20.786 39.2643 20.786ZM46.8275 20.5V6.112L57.4095 6.112V8.18H49.0715V12.14H56.1335V14.208H49.0715V18.432H57.4095V20.5H46.8275ZM59.538 20.5V12.03C59.538 8.224 61.738 5.826 65.764 5.826C69.834 5.826 72.056 8.224 72.056 12.03V20.5H69.812V15.946H61.716V20.5H59.538ZM61.716 13.878L69.812 13.878V12.03C69.812 9.434 68.448 7.894 65.764 7.894C63.08 7.894 61.716 9.434 61.716 12.03V13.878ZM74.6713 20.5V6.112H80.8533C84.3953 6.112 85.9353 8.07 85.9353 10.732C85.9353 12.888 84.9233 14.582 82.6573 15.154L86.4633 20.5H83.7793L80.3473 15.352H76.9153V20.5H74.6713ZM76.9153 13.284H80.8753C82.9653 13.284 83.6693 12.184 83.6693 10.732C83.6693 9.258 82.9433 8.18 80.8753 8.18H76.9153V13.284ZM95.3083 20.786C90.8203 20.786 87.6523 17.618 87.6523 13.306C87.6523 8.994 90.8203 5.826 95.3083 5.826C98.9823 5.826 101.798 7.982 102.678 11.15H100.302C99.5323 9.192 97.7063 7.894 95.3083 7.894C92.1183 7.894 89.9183 10.182 89.9183 13.306C89.9183 16.43 92.1183 18.718 95.3083 18.718C97.7063 18.718 99.5323 17.42 100.302 15.462H102.678C101.798 18.63 98.9823 20.786 95.3083 20.786ZM104.9 20.5V6.112H107.144V12.162H115.174V6.112L117.418 6.112V20.5H115.174V14.23H107.144V20.5H104.9Z" fill="#1B0166"/>
</svg>
