<svg width="56" height="56" viewBox="0 0 56 56" fill="none" xmlns="http://www.w3.org/2000/svg">
<g filter="url(#filter0_f_3869_35224)">
<path d="M39.5508 43.5825L18.0057 50.119L4.80371 40.4593L28.1483 24.7227L39.5508 43.5825Z" fill="url(#paint0_linear_3869_35224)"/>
</g>
<path d="M17.0908 21.5897C17.0908 20.1789 18.2756 18.484 19.4745 18.1798L40.0676 12.9532C40.8836 12.7461 41.4487 13.2677 41.4487 14.228V41.5589C41.4487 42.9695 40.2636 44.6642 39.065 44.9685L18.472 50.1952C17.656 50.4025 17.0908 49.8807 17.0908 48.9203V21.5897Z" fill="black"/>
<path d="M17.0908 19.8338C17.0908 19.186 17.5881 18.4012 18.1461 18.1684L38.9293 9.49856C39.1595 9.40267 39.3306 9.53009 39.3306 9.79707V40.5059C39.3306 40.83 39.0821 41.2222 38.8033 41.3384L19.8998 49.224C18.2902 49.8954 17.0908 49.0037 17.0908 47.1348V19.8338Z" fill="#D9D9D9"/>
<path d="M17.0908 19.8338C17.0908 19.186 17.5881 18.4012 18.1461 18.1684L38.9293 9.49856C39.1595 9.40267 39.3306 9.53009 39.3306 9.79707V40.5059C39.3306 40.83 39.0821 41.2222 38.8033 41.3384L19.8998 49.224C18.2902 49.8954 17.0908 49.0037 17.0908 47.1348V19.8338Z" stroke="black" stroke-width="1.05" stroke-linejoin="round"/>
<path d="M34.6708 6.38268C34.9606 6.17657 35.2548 6.05534 35.5232 6.03014L35.6364 6.02539L36.5621 6.03401L37.3 6.96653C37.4136 7.11041 37.4743 7.3156 37.4743 7.55935V34.7099C37.4743 35.6404 36.8582 36.7657 36.0443 37.3431L35.9651 37.3972L19.2369 48.3508C18.3094 48.958 17.5084 48.6172 17.4555 47.6173L17.4529 47.5183L17.3526 20.3304C17.3493 19.4334 17.9225 18.3455 18.7036 17.748L18.7798 17.6919L34.6708 6.38268Z" fill="black" stroke="black" stroke-width="1.05" stroke-linejoin="round"/>
<path d="M35.0781 6.11669C36.0665 5.41469 36.9448 5.7852 36.9448 6.90383V34.0874C36.9448 34.9859 36.3703 36.0716 35.5895 36.668L35.5134 36.7239L19.2196 48.2948C18.2311 48.9969 17.3526 48.6269 17.3525 47.5081V19.399C17.3525 19.0264 17.5834 18.5781 17.9017 18.3181L17.966 18.2686L35.0781 6.11669Z" fill="url(#paint1_linear_3869_35224)" stroke="black" stroke-width="1.05" stroke-linejoin="round"/>
<path d="M35.0669 6.12138C36.0617 5.4115 36.9462 5.78403 36.9462 6.91298V34.325C36.9462 35.2302 36.3695 36.3246 35.5853 36.9265L35.5087 36.9829L21.6014 46.9084C21.1751 47.2126 20.7959 47.0527 20.7959 46.569L20.7963 17.0056L20.7994 16.9292C20.8276 16.5706 21.0491 16.1615 21.3473 15.9166L21.4125 15.8665L35.0669 6.12138Z" fill="white" stroke="black" stroke-width="1.05" stroke-linejoin="round"/>
<path d="M22.1279 18.6297C22.0825 18.2422 22.3078 17.7117 22.6314 17.4448L24.0958 16.2364C24.4193 15.9695 24.7184 16.0672 24.7638 16.4546C24.8093 16.8421 24.5839 17.3726 24.2604 17.6395L22.796 18.8479C22.4725 19.1148 22.1734 19.0172 22.1279 18.6297Z" fill="black"/>
<path d="M25.3032 15.9492C25.2461 15.5274 25.5291 14.9499 25.9353 14.6593L26.3031 14.3962C26.7093 14.1056 27.0848 14.212 27.1419 14.6338C27.199 15.0556 26.916 15.633 26.5098 15.9237L26.142 16.1868C25.7359 16.4773 25.3603 16.371 25.3032 15.9492Z" fill="black"/>
<path d="M27.685 14.1958C27.628 13.8795 27.911 13.4463 28.3172 13.2284L28.6849 13.0311C29.0911 12.8131 29.4666 12.8929 29.5237 13.2092C29.5808 13.5256 29.2978 13.9587 28.8916 14.1767L28.5239 14.3739C28.1177 14.5919 27.7422 14.5121 27.685 14.1958Z" fill="black"/>
<path d="M20.5312 16.3496V47.8568" stroke="black" stroke-width="1.05" stroke-linecap="round"/>
<path d="M17.5687 15.9841C17.7155 16.732 18.4947 17.1882 19.2401 16.9807L19.312 16.9583L19.7353 16.8149L19.3963 17.098C18.8005 17.5949 18.7816 18.4763 19.3402 18.9972L19.3963 19.0466L19.7353 19.3293L19.312 19.1863C18.5697 18.9357 17.7719 19.3597 17.585 20.0885L17.5687 20.1602L17.4848 20.5872L17.4009 20.1602C17.2542 19.4122 16.4751 18.9559 15.7296 19.1639L15.6577 19.1863L15.2344 19.3289L15.5738 19.0466C16.1697 18.5497 16.1882 17.6683 15.6294 17.1474L15.5738 17.098L15.2344 16.8153L15.6577 16.9583C16.4001 17.2089 17.1982 16.7849 17.3851 16.0558L17.4009 15.9841L17.4848 15.5566L17.5687 15.9841Z" fill="white" stroke="black" stroke-width="1.05" stroke-linejoin="round"/>
<path d="M14.4399 12.9082L14.5443 13.5033C14.5813 13.7145 14.7831 13.8407 14.9708 13.7699L15.4989 13.5701L15.0751 13.9655C14.9247 14.1059 14.9247 14.3583 15.0751 14.4987L15.4989 14.894L14.9708 14.6943C14.7831 14.6234 14.5813 14.7496 14.5443 14.9608L14.4399 15.5559L14.3355 14.9608C14.2985 14.7496 14.0966 14.6233 13.9091 14.6943L13.3809 14.894L13.8047 14.4987C13.9551 14.3583 13.9551 14.1059 13.8047 13.9655L13.3809 13.5701L13.9091 13.7699C14.0966 13.8407 14.2985 13.7146 14.3355 13.5033L14.4399 12.9082Z" fill="black"/>
<path d="M19.6034 13.7031L19.6947 14.2387C19.7272 14.4288 19.9038 14.5424 20.0679 14.4787L20.5301 14.2989L20.1592 14.6547C20.0276 14.7811 20.0276 15.0082 20.1592 15.1345L20.5301 15.4903L20.0679 15.3106C19.9038 15.2469 19.7272 15.3603 19.6947 15.5505L19.6034 16.086L19.5121 15.5505C19.4797 15.3603 19.3031 15.2467 19.1389 15.3106L18.6768 15.4903L19.0476 15.1345C19.1792 15.0082 19.1792 14.7811 19.0476 14.6547L18.6768 14.2989L19.1389 14.4787C19.3031 14.5424 19.4797 14.4289 19.5121 14.2387L19.6034 13.7031Z" fill="black"/>
<path d="M40.742 32.9744C40.8974 33.8012 41.7225 34.3051 42.5118 34.0761L42.5879 34.0513L43.0362 33.8927L42.677 34.2056C42.0464 34.7551 42.0264 35.7292 42.6176 36.3049L42.677 36.3593L43.0362 36.6718L42.5879 36.5137C41.8018 36.2368 40.9573 36.7051 40.7596 37.5107L40.742 37.59L40.6533 38.062L40.5647 37.59C40.4093 36.7633 39.5842 36.2589 38.7949 36.4888L38.7188 36.5137L38.2705 36.6713L38.6301 36.3593C39.2608 35.8099 39.2807 34.8358 38.6891 34.2601L38.6301 34.2056L38.2705 33.8931L38.7188 34.0513C39.5048 34.3281 40.3499 33.8594 40.548 33.0537L40.5647 32.9744L40.6533 32.502L40.742 32.9744Z" fill="white" stroke="black" stroke-width="1.05" stroke-linejoin="round"/>
<path d="M42.771 37.5312L42.8751 38.0667C42.9121 38.2569 43.1142 38.3703 43.3016 38.3069L43.83 38.1271L43.4062 38.4828C43.2557 38.6091 43.2557 38.8363 43.4062 38.9626L43.83 39.3183L43.3016 39.1385C43.1142 39.0747 42.9121 39.1885 42.8751 39.3782L42.771 39.9141L42.6663 39.3782C42.6294 39.1885 42.4277 39.0747 42.2399 39.1385L41.7119 39.3183L42.1357 38.9626C42.2862 38.8363 42.2862 38.6091 42.1357 38.4828L41.7119 38.1271L42.2399 38.3069C42.4277 38.3703 42.6294 38.2569 42.6663 38.0667L42.771 37.5312Z" fill="black"/>
<path d="M44.8891 33.8242L44.9937 34.4192C45.0307 34.6305 45.2323 34.757 45.4202 34.686L45.9482 34.4863L45.5244 34.8814C45.3739 35.0219 45.3739 35.2742 45.5244 35.4146L45.9482 35.8098L45.4202 35.6101C45.2323 35.5396 45.0307 35.6656 44.9937 35.8769L44.8891 36.4719L44.7849 35.8769C44.748 35.6656 44.5459 35.5391 44.3585 35.6101L43.8301 35.8098L44.2539 35.4146C44.4043 35.2742 44.4043 35.0219 44.2539 34.8814L43.8301 34.4863L44.3585 34.686C44.5459 34.757 44.748 34.6305 44.7849 34.4192L44.8891 33.8242Z" fill="black"/>
<defs>
<filter id="filter0_f_3869_35224" x="3.75371" y="23.6727" width="36.8471" height="27.4965" filterUnits="userSpaceOnUse" color-interpolation-filters="sRGB">
<feFlood flood-opacity="0" result="BackgroundImageFix"/>
<feBlend mode="normal" in="SourceGraphic" in2="BackgroundImageFix" result="shape"/>
<feGaussianBlur stdDeviation="0.525" result="effect1_foregroundBlur_3869_35224"/>
</filter>
<linearGradient id="paint0_linear_3869_35224" x1="16.2216" y1="30.903" x2="29.7443" y2="46.8465" gradientUnits="userSpaceOnUse">
<stop stop-color="white" stop-opacity="0"/>
<stop offset="1"/>
</linearGradient>
<linearGradient id="paint1_linear_3869_35224" x1="27.1487" y1="9.9836" x2="41.8445" y2="36.1859" gradientUnits="userSpaceOnUse">
<stop stop-color="#5349C1"/>
<stop offset="1" stop-color="#977FED"/>
</linearGradient>
</defs>
</svg>
