<svg width="56" height="56" viewBox="0 0 56 56" fill="none" xmlns="http://www.w3.org/2000/svg">
<g filter="url(#filter0_f_3869_35318)">
<path d="M41.4619 25.9814L25.7602 47.474C19.7519 46.7268 14.9924 46.6765 8.15244 41.169C2.77593 36.8399 1.84766 25.9814 1.84766 25.9814L23.9946 11.7832L41.4619 25.9814Z" fill="url(#paint0_linear_3869_35318)"/>
</g>
<path d="M27.8413 11.5883C36.2823 16.4618 42.0258 28.2372 40.6692 37.8894C40.0343 42.4083 37.3643 45.7687 34.4667 47.4501C34.4667 47.4501 27.5243 49.1443 22.9289 46.542C22.6268 46.3709 22.3281 46.1907 22.0331 46.002C14.0753 40.9094 8.79303 29.5479 10.1011 20.2408C10.8496 14.9146 13.7347 11.9429 19.0922 9.37305C19.0922 9.37305 24.7605 9.80952 27.8413 11.5883Z" fill="black"/>
<path d="M43.1647 36.6827C44.4994 27.1861 38.8488 15.6006 30.5437 10.8056C22.2386 6.01067 14.4241 9.82208 13.0894 19.3186C11.7548 28.8152 17.4054 40.4007 25.7105 45.1957C34.0156 49.9906 41.8301 46.1792 43.1647 36.6827Z" fill="url(#paint1_linear_3869_35318)" stroke="black" stroke-width="1.05" stroke-linejoin="round"/>
<path d="M39.7685 34.7306C40.8033 27.3676 36.4221 18.3848 29.9829 14.6671C23.5436 10.9493 17.4847 13.9045 16.4499 21.2676C15.4151 28.6307 19.7962 37.6134 26.2355 41.3311C32.6748 45.0489 38.7337 42.0937 39.7685 34.7306Z" fill="white"/>
<path d="M36.2438 32.6949C36.9654 27.5608 33.9105 21.2973 29.4205 18.705C24.9305 16.1127 20.7058 18.1733 19.9842 23.3074C19.2627 28.4415 22.3176 34.705 26.8075 37.2973C31.2975 39.8896 35.5223 37.829 36.2438 32.6949Z" fill="#D9D9D9"/>
<path d="M28.5751 22.4403C30.9431 23.8074 32.5539 27.1106 32.1736 29.8182C31.7928 32.5259 29.5647 33.6127 27.1971 32.2452C24.8292 30.8782 23.2181 27.5751 23.5986 24.8675C23.9792 22.1599 26.2072 21.0732 28.5751 22.4403Z" fill="black"/>
<path d="M48.6418 26.4199H29.1826V27.1458H48.6418V26.4199Z" fill="black"/>
<path d="M44.4401 25.3301H48.9025L48.2026 26.4215H43.7402L44.4401 25.3301Z" fill="black"/>
<path d="M44.4401 28.2379H48.9025L48.2026 27.1465H43.7402L44.4401 28.2379Z" fill="black"/>
<g opacity="0.4" filter="url(#filter1_f_3869_35318)">
<path d="M40.4636 43.0518L27.9307 28.166L27.3754 28.6335L39.9083 43.5193L40.4636 43.0518Z" fill="black"/>
<path opacity="0.5" d="M38.5931 39.6875L41.467 43.101L40.1815 43.2689L37.3076 39.8549L38.5931 39.6875Z" fill="black"/>
<path opacity="0.5" d="M36.3643 41.5608L39.2382 44.9743L39.6227 43.7358L36.7488 40.3223L36.3643 41.5608Z" fill="black"/>
</g>
<path d="M13.0978 12.8505C13.2566 13.6858 14.0996 14.1954 14.906 13.9636L14.9838 13.9386L15.4418 13.7784L15.075 14.0947C14.4304 14.6497 14.41 15.6341 15.0143 16.2159L15.075 16.271L15.4418 16.5869L14.9838 16.4271C14.1807 16.1472 13.3176 16.6207 13.1154 17.4347L13.0978 17.5148L13.007 17.9918L12.9163 17.5148C12.7575 16.6794 11.9146 16.1697 11.108 16.4021L11.0303 16.4271L10.5723 16.5864L10.9395 16.271C11.5842 15.716 11.6041 14.7316 10.9997 14.1498L10.9395 14.0947L10.5723 13.7789L11.0303 13.9386C11.8335 14.2186 12.6969 13.745 12.8991 12.9306L12.9163 12.8505L13.007 12.373L13.0978 12.8505Z" fill="white" stroke="black" stroke-width="1.05" stroke-linejoin="round"/>
<path d="M9.23053 13.8848L9.34168 14.4695C9.38113 14.677 9.59611 14.801 9.79588 14.7314L10.3585 14.5352L9.90702 14.9237C9.74685 15.0616 9.74685 15.3096 9.90702 15.4475L10.3585 15.836L9.79588 15.6398C9.59611 15.5701 9.38113 15.6941 9.34168 15.9016L9.23053 16.4863L9.11934 15.9016C9.07989 15.6941 8.8649 15.57 8.66514 15.6398L8.10254 15.836L8.55399 15.4475C8.71416 15.3096 8.71416 15.0616 8.55399 14.9237L8.10254 14.5352L8.66514 14.7314C8.8649 14.801 9.07989 14.6771 9.11934 14.4695L9.23053 13.8848Z" fill="black"/>
<path d="M10.8526 10.4824L10.9637 11.0671C11.0031 11.2747 11.2181 11.3988 11.4179 11.3291L11.9805 11.1329L11.5291 11.5214C11.3689 11.6593 11.3689 11.9073 11.5291 12.0452L11.9805 12.4337L11.4179 12.2375C11.2181 12.1678 11.0031 12.2917 10.9637 12.4993L10.8526 13.084L10.7414 12.4993C10.7019 12.2917 10.487 12.1677 10.2872 12.2375L9.72461 12.4337L10.176 12.0452C10.3362 11.9073 10.3362 11.6593 10.176 11.5214L9.72461 11.1329L10.2872 11.3291C10.487 11.3988 10.7019 11.2748 10.7414 11.0671L10.8526 10.4824Z" fill="black"/>
<path d="M43.5977 34.8134C43.7565 35.6484 44.5996 36.1582 45.4061 35.9263L45.4839 35.9016L45.9419 35.7414L45.5749 36.0576C44.9306 36.6124 44.9102 37.5968 45.5142 38.1786L45.5749 38.2336L45.9419 38.5494L45.4839 38.3901C44.6807 38.1098 43.8177 38.5835 43.6152 39.3977L43.5977 39.4778L43.5071 39.9543L43.4161 39.4778C43.2572 38.6423 42.4146 38.1326 41.6081 38.3649L41.5303 38.3901L41.0723 38.5494L41.4393 38.2336C42.0841 37.6788 42.104 36.6944 41.4995 36.1126L41.4393 36.0576L41.0723 35.7418L41.5303 35.9016C42.3335 36.1814 43.197 35.7077 43.399 34.8936L43.4161 34.8134L43.5071 34.3359L43.5977 34.8134Z" fill="white" stroke="black" stroke-width="1.05" stroke-linejoin="round"/>
<path d="M47.7442 36.2676L47.8557 36.8522C47.895 37.0599 48.1098 37.1837 48.3095 37.114L48.8723 36.9181L48.4209 37.3065C48.2606 37.4445 48.2606 37.6924 48.4209 37.8304L48.8723 38.2188L48.3095 38.0225C48.1098 37.9528 47.895 38.077 47.8557 38.2842L47.7442 38.8689L47.6333 38.2842C47.5935 38.077 47.3787 37.9528 47.179 38.0225L46.6162 38.2188L47.0676 37.8304C47.2279 37.6924 47.2279 37.4445 47.0676 37.3065L46.6162 36.9181L47.179 37.114C47.3787 37.1837 47.5935 37.0599 47.6333 36.8522L47.7442 36.2676Z" fill="black"/>
<path d="M45.4933 32.1191L45.6042 32.7038C45.6436 32.9115 45.8589 33.0357 46.0585 32.966L46.6213 32.7697L46.1699 33.158C46.0096 33.296 46.0096 33.544 46.1699 33.682L46.6213 34.0703L46.0585 33.874C45.8589 33.8048 45.6436 33.9286 45.6042 34.1362L45.4933 34.7209L45.3818 34.1362C45.3425 33.9286 45.1277 33.8043 44.9276 33.874L44.3652 34.0703L44.8166 33.682C44.9769 33.544 44.9769 33.296 44.8166 33.158L44.3652 32.7697L44.9276 32.966C45.1277 33.0357 45.3425 32.9115 45.3818 32.7038L45.4933 32.1191Z" fill="black"/>
<defs>
<filter id="filter0_f_3869_35318" x="0.797656" y="10.7332" width="41.7143" height="37.7914" filterUnits="userSpaceOnUse" color-interpolation-filters="sRGB">
<feFlood flood-opacity="0" result="BackgroundImageFix"/>
<feBlend mode="normal" in="SourceGraphic" in2="BackgroundImageFix" result="shape"/>
<feGaussianBlur stdDeviation="0.525" result="effect1_foregroundBlur_3869_35318"/>
</filter>
<filter id="filter1_f_3869_35318" x="24.225" y="25.016" width="20.3918" height="23.1086" filterUnits="userSpaceOnUse" color-interpolation-filters="sRGB">
<feFlood flood-opacity="0" result="BackgroundImageFix"/>
<feBlend mode="normal" in="SourceGraphic" in2="BackgroundImageFix" result="shape"/>
<feGaussianBlur stdDeviation="1.575" result="effect1_foregroundBlur_3869_35318"/>
</filter>
<linearGradient id="paint0_linear_3869_35318" x1="10.6495" y1="23.4724" x2="38.1257" y2="45.0012" gradientUnits="userSpaceOnUse">
<stop stop-color="white" stop-opacity="0"/>
<stop offset="1"/>
</linearGradient>
<linearGradient id="paint1_linear_3869_35318" x1="12.8431" y1="19.1764" x2="45.2514" y2="23.7311" gradientUnits="userSpaceOnUse">
<stop stop-color="#5349C1"/>
<stop offset="1" stop-color="#977FED"/>
</linearGradient>
</defs>
</svg>
