<svg width="56" height="56" viewBox="0 0 56 56" fill="none" xmlns="http://www.w3.org/2000/svg">
<g clip-path="url(#clip0_3869_35250)">
<g filter="url(#filter0_f_3869_35250)">
<path d="M39.7889 33.4015L13.4344 48.3796L0 33.4015L27.016 16.7676L39.7889 33.4015Z" fill="url(#paint0_linear_3869_35250)"/>
</g>
<path d="M12.3496 21.9191C12.3496 20.6853 13.2121 19.185 14.2759 18.568L35.0001 6.55082C35.4825 6.27105 35.9473 6.21142 36.3027 6.38373L37.305 6.86983L37.0391 32.994C37.0265 34.2246 36.1678 35.7065 35.1127 36.3186L13.5655 48.8131L12.611 47.4642C12.4398 47.2222 12.3496 46.8871 12.3496 46.4924V46.444V21.9191Z" fill="black"/>
<path d="M13.7879 20.2457L36.0464 7.33859C36.9774 6.79883 37.7319 7.23652 37.7319 8.31604V26.7742C37.7319 26.9284 37.6243 27.1161 37.4913 27.1933L30.3493 31.3347C29.9508 31.5661 29.6273 32.1288 29.6273 32.5914V40.0565C29.6273 40.2105 29.5193 40.3976 29.3863 40.4749L15.2325 48.6823C14.3017 49.2222 13.5469 48.7847 13.5469 47.7054V20.665C13.5469 20.5108 13.6549 20.3228 13.7879 20.2457Z" fill="#D9D9D9"/>
<path d="M13.7879 20.2457L36.0464 7.33859C36.9774 6.79883 37.7319 7.23652 37.7319 8.31604V26.7742C37.7319 26.9284 37.6243 27.1161 37.4913 27.1933L30.3493 31.3347C29.9508 31.5661 29.6273 32.1288 29.6273 32.5914V40.0565C29.6273 40.2105 29.5193 40.3976 29.3863 40.4749L15.2325 48.6823C14.3017 49.2222 13.5469 48.7847 13.5469 47.7054V20.665C13.5469 20.5108 13.6549 20.3228 13.7879 20.2457Z" stroke="black" stroke-width="1.05" stroke-linejoin="round"/>
<path d="M15.2325 19.408L36.0464 7.33859C36.9774 6.79883 37.7319 7.23652 37.7319 8.31604V10.7068L13.5469 24.7312V22.3403C13.5469 21.2608 14.3016 19.9478 15.2325 19.408Z" fill="#D9D9D9" stroke="black" stroke-width="1.05"/>
<g filter="url(#filter1_f_3869_35250)">
<path d="M37.9799 35.2847L17.4634 47.5581L15.8281 22.7096L36.6152 13.4395L37.9799 35.2847Z" fill="url(#paint1_linear_3869_35250)"/>
</g>
<path d="M38.0103 8.55082L17.1963 20.6203C16.2654 21.1601 15.7363 22.443 16.0145 23.4859L22.5508 47.9864C22.8291 49.0293 23.8092 49.437 24.7401 48.8972L45.5541 36.8278C46.485 36.288 47.0141 35.005 46.7359 33.9622L40.1996 9.46162C39.9213 8.41879 38.9412 8.01102 38.0103 8.55082Z" fill="white" stroke="black" stroke-width="1.05"/>
<path d="M38.0103 8.55082L17.1963 20.6203C16.2654 21.1601 15.7363 22.443 16.0145 23.4859L22.5508 47.9864C22.8291 49.0293 23.8092 49.437 24.7401 48.8972L45.5541 36.8278C46.485 36.288 47.0141 35.005 46.7359 33.9622L40.1996 9.46162C39.9213 8.41879 38.9412 8.01102 38.0103 8.55082Z" fill="white" stroke="black" stroke-width="1.05"/>
<path d="M17.1954 20.6203L38.0094 8.55089C38.9403 8.01108 39.9204 8.41899 40.199 9.46174L40.8148 11.7711L16.6296 25.7954L16.0136 23.486C15.7354 22.4432 16.2646 21.1601 17.1954 20.6203Z" fill="url(#paint2_linear_3869_35250)" stroke="black" stroke-width="1.05"/>
<path d="M37.3367 20.0957L40.7867 32.8304L38.7797 34.1489L35.888 23.5068L35.8222 23.5451L33.6882 26.9618L33.1289 24.8647L35.3931 21.2227L37.3367 20.0957Z" fill="black"/>
<path d="M26.6107 40.9038L26.1756 39.2729L28.906 32.7927C29.1641 32.1606 29.3726 31.611 29.5325 31.1437C29.6919 30.6764 29.793 30.2547 29.8347 29.8791C29.8768 29.5036 29.8518 29.1433 29.7596 28.7985C29.6549 28.4051 29.4853 28.1146 29.2512 27.9271C29.0163 27.7355 28.7387 27.6435 28.419 27.651C28.0987 27.6586 27.7614 27.7652 27.4065 27.971C27.0408 28.1831 26.7431 28.4541 26.5133 28.7841C26.2825 29.11 26.1321 29.4711 26.0623 29.8675C25.9961 30.2621 26.0198 30.6722 26.1334 31.0981L24.216 32.21C24.005 31.4187 23.9827 30.6377 24.1492 29.867C24.3156 29.0959 24.6385 28.3864 25.1179 27.7383C25.601 27.0882 26.21 26.55 26.9451 26.1238C27.691 25.6912 28.3879 25.4673 29.0362 25.4521C29.6845 25.4369 30.2369 25.6108 30.6934 25.9737C31.1535 26.3346 31.4765 26.8639 31.6628 27.5617C31.787 28.0282 31.8296 28.5327 31.7907 29.0754C31.7513 29.618 31.604 30.2798 31.3482 31.0604C31.0956 31.839 30.7133 32.8267 30.2003 34.0233L28.8657 37.3195L28.8884 37.4047L33.7333 34.5953L34.2366 36.4817L26.6107 40.9038Z" fill="black"/>
<path d="M15.5518 17.8843C15.5518 17.1662 15.7638 16.4643 16.161 15.8673C16.5581 15.2703 17.1226 14.805 17.7831 14.5302C18.4436 14.2555 19.1704 14.1836 19.8715 14.3237C20.5727 14.4637 21.2167 14.8095 21.7223 15.3172C22.2277 15.8249 22.572 16.4718 22.7115 17.176C22.8509 17.8802 22.7794 18.6102 22.5058 19.2735C22.2322 19.9369 21.7689 20.5039 21.1745 20.9028C20.5801 21.3017 19.8812 21.5146 19.1663 21.5146V20.5154C19.6845 20.5154 20.191 20.3611 20.6218 20.072C21.0526 19.7829 21.3884 19.3719 21.5867 18.8911C21.7849 18.4104 21.8368 17.8813 21.7357 17.3709C21.6346 16.8606 21.3851 16.3917 21.0188 16.0238C20.6524 15.6558 20.1856 15.4052 19.6774 15.3037C19.1693 15.2021 18.6425 15.2543 18.1638 15.4534C17.6851 15.6525 17.276 15.9898 16.9881 16.4225C16.7003 16.8552 16.5466 17.3639 16.5466 17.8843H15.5518Z" fill="black"/>
<path d="M23.0488 13.648C23.0488 12.9299 23.2608 12.228 23.658 11.631C24.0552 11.034 24.6197 10.5687 25.2801 10.2939C25.9406 10.0191 26.6674 9.94727 27.3686 10.0873C28.0699 10.2274 28.714 10.5732 29.2191 11.0809C29.7247 11.5886 30.069 12.2355 30.2085 12.9397C30.348 13.6439 30.2766 14.3739 30.0027 15.0372C29.7293 15.7006 29.2659 16.2676 28.6714 16.6665C28.0773 17.0654 27.3783 17.2783 26.6634 17.2783V16.2791C27.1815 16.2791 27.688 16.1248 28.119 15.8357C28.5495 15.5466 28.8855 15.1356 29.0838 14.6548C29.2821 14.1741 29.334 13.645 29.2325 13.1346C29.1315 12.6243 28.8822 12.1554 28.5156 11.7875C28.1496 11.4195 27.6826 11.1689 27.1745 11.0673C26.6663 10.9658 26.1396 11.018 25.6609 11.2171C25.1822 11.4162 24.773 11.7535 24.4852 12.1861C24.1973 12.6189 24.0437 13.1276 24.0437 13.648H23.0488Z" fill="black"/>
<path d="M29.8892 10.0417C29.8313 9.30631 29.9976 8.57061 30.3665 7.93264C30.7354 7.29463 31.2887 6.78465 31.9537 6.47053C32.6182 6.15641 33.362 6.05313 34.0867 6.17438C34.8111 6.29567 35.4816 6.63576 36.009 7.14936C36.5363 7.66297 36.895 8.3257 37.0382 9.04935C37.1809 9.77295 37.1007 10.5231 36.8088 11.1999C36.5164 11.8768 36.0256 12.4481 35.4019 12.8378C34.7786 13.2275 34.0515 13.4171 33.3175 13.3815L33.3657 12.3835C33.8977 12.4093 34.4246 12.2719 34.8764 11.9894C35.3287 11.7069 35.6841 11.2929 35.8959 10.8023C36.1077 10.3118 36.1656 9.76811 36.0623 9.24367C35.9584 8.71922 35.6985 8.23889 35.3162 7.86664C34.9343 7.49439 34.4482 7.2479 33.9232 7.16002C33.3981 7.0721 32.8587 7.14699 32.3772 7.37463C31.8953 7.60227 31.494 7.97192 31.2271 8.43433C30.9597 8.89673 30.8387 9.42993 30.8809 9.9629L29.8892 10.0417Z" fill="black"/>
<path d="M12.9409 17.8866C13.096 18.7066 13.9199 19.2067 14.708 18.9793L14.7841 18.9547L15.2316 18.7975L14.8732 19.1079C14.2432 19.6526 14.2233 20.619 14.814 21.1901L14.8732 21.2441L15.2316 21.5541L14.7841 21.3973C13.9991 21.1226 13.1557 21.5874 12.958 22.3864L12.9409 22.465L12.8522 22.9331L12.7635 22.465C12.6083 21.645 11.7845 21.1447 10.9963 21.3728L10.9202 21.3973L10.4727 21.5537L10.8315 21.2441C11.4616 20.6994 11.4811 19.733 10.8904 19.162L10.8315 19.1079L10.4727 18.7979L10.9202 18.9547C11.7052 19.2295 12.5491 18.7646 12.7467 17.9652L12.7635 17.8866L12.8522 17.418L12.9409 17.8866Z" fill="white" stroke="black" stroke-width="1.05" stroke-linejoin="round"/>
<path d="M10.6219 14.7344L10.7305 15.3083C10.7691 15.512 10.9792 15.6338 11.1745 15.5655L11.7242 15.3729L11.2831 15.7542C11.1265 15.8896 11.1265 16.133 11.2831 16.2684L11.7242 16.6497L11.1745 16.4571C10.9792 16.3888 10.7691 16.5104 10.7305 16.7141L10.6219 17.288L10.5133 16.7141C10.4747 16.5104 10.2646 16.3886 10.0694 16.4571L9.51953 16.6497L9.9607 16.2684C10.1173 16.133 10.1173 15.8896 9.9607 15.7542L9.51953 15.3729L10.0694 15.5655C10.2646 15.6338 10.4747 15.5122 10.5133 15.3083L10.6219 14.7344Z" fill="black"/>
<path d="M8.07506 18.7188L8.18368 19.2927C8.22224 19.4964 8.43234 19.6182 8.62758 19.5498L9.17741 19.3572L8.7362 19.7385C8.57966 19.8739 8.57966 20.1174 8.7362 20.2527L9.17741 20.634L8.62758 20.4414C8.43234 20.3731 8.22224 20.4947 8.18368 20.6985L8.07506 21.2724L7.96639 20.6985C7.92783 20.4947 7.71772 20.3729 7.52249 20.4414L6.97266 20.634L7.41387 20.2527C7.57041 20.1174 7.57041 19.8739 7.41387 19.7385L6.97266 19.3572L7.52249 19.5498C7.71772 19.6182 7.92783 19.4965 7.96639 19.2927L8.07506 18.7188Z" fill="black"/>
<path d="M45.2665 28.4472C45.6279 29.1988 46.5524 29.4678 47.2554 29.0432L47.3222 28.9997L47.7142 28.7315L47.4477 29.1245C46.9797 29.8145 47.2095 30.7532 47.9274 31.1512L47.9983 31.188L48.4246 31.3941L47.9519 31.3592C47.1229 31.2978 46.4278 31.9662 46.4426 32.789L46.4463 32.8696L46.4815 33.3448L46.2753 32.9156C45.9139 32.164 44.9894 31.8949 44.2868 32.3199L44.2196 32.3636L43.8276 32.6308L44.0945 32.2384C44.5626 31.5487 44.3327 30.6104 43.6149 30.2119L43.544 30.1752L43.1172 29.969L43.5903 30.0044C44.4194 30.0653 45.1145 29.3971 45.0992 28.5736L45.0955 28.4933L45.0603 28.0176L45.2665 28.4472Z" fill="white" stroke="black" stroke-width="1.05" stroke-linejoin="round"/>
<path d="M46.872 25.6191L46.9804 26.1931C47.0193 26.3968 47.2293 26.5186 47.4244 26.4502L47.9744 26.2576L47.5333 26.6389C47.3766 26.7743 47.3766 27.0178 47.5333 27.1531L47.9744 27.5344L47.4244 27.3418C47.2293 27.2735 47.0193 27.3951 46.9804 27.5989L46.872 28.1728L46.7631 27.5989C46.7246 27.3951 46.5147 27.2733 46.3196 27.3418L45.7695 27.5344L46.2107 27.1531C46.3673 27.0178 46.3673 26.7743 46.2107 26.6389L45.7695 26.2576L46.3196 26.4502C46.5147 26.5186 46.7246 26.3969 46.7631 26.1931L46.872 25.6191Z" fill="black"/>
<path d="M49.6474 28.7246L49.7563 29.2985C49.7947 29.5023 50.0047 29.6241 50.2002 29.5557L50.7498 29.3631L50.3087 29.7444C50.152 29.88 50.152 30.1234 50.3087 30.2588L50.7498 30.64L50.2002 30.4473C50.0047 30.3789 49.7947 30.5008 49.7563 30.7042L49.6474 31.2781L49.5389 30.7042C49.5005 30.5008 49.2901 30.3789 49.095 30.4473L48.5449 30.64L48.9861 30.2588C49.1427 30.1234 49.1427 29.88 48.9861 29.7444L48.5449 29.3631L49.095 29.5557C49.2901 29.6241 49.5005 29.5024 49.5389 29.2985L49.6474 28.7246Z" fill="black"/>
</g>
<defs>
<filter id="filter0_f_3869_35250" x="-1.05" y="15.7176" width="41.8891" height="33.7113" filterUnits="userSpaceOnUse" color-interpolation-filters="sRGB">
<feFlood flood-opacity="0" result="BackgroundImageFix"/>
<feBlend mode="normal" in="SourceGraphic" in2="BackgroundImageFix" result="shape"/>
<feGaussianBlur stdDeviation="0.525" result="effect1_foregroundBlur_3869_35250"/>
</filter>
<filter id="filter1_f_3869_35250" x="14.7781" y="12.3895" width="24.2514" height="36.2191" filterUnits="userSpaceOnUse" color-interpolation-filters="sRGB">
<feFlood flood-opacity="0" result="BackgroundImageFix"/>
<feBlend mode="normal" in="SourceGraphic" in2="BackgroundImageFix" result="shape"/>
<feGaussianBlur stdDeviation="0.525" result="effect1_foregroundBlur_3869_35250"/>
</filter>
<linearGradient id="paint0_linear_3869_35250" x1="12.7418" y1="24.1967" x2="29.0078" y2="43.2914" gradientUnits="userSpaceOnUse">
<stop stop-color="white" stop-opacity="0"/>
<stop offset="1"/>
</linearGradient>
<linearGradient id="paint1_linear_3869_35250" x1="22.5334" y1="25.617" x2="38.7993" y2="44.7114" gradientUnits="userSpaceOnUse">
<stop stop-color="white" stop-opacity="0"/>
<stop offset="1"/>
</linearGradient>
<linearGradient id="paint2_linear_3869_35250" x1="27.5305" y1="14.316" x2="29.904" y2="18.4093" gradientUnits="userSpaceOnUse">
<stop stop-color="#5349C1"/>
<stop offset="1" stop-color="#977FED"/>
</linearGradient>
<clipPath id="clip0_3869_35250">
<rect width="56" height="56" fill="white"/>
</clipPath>
</defs>
</svg>
