<svg width="56" height="56" viewBox="0 0 56 56" fill="none" xmlns="http://www.w3.org/2000/svg">
<g filter="url(#filter0_f_3869_35280)">
<path d="M41.2315 38.6296L19.1062 51.0994L1.75098 36.7919L22.5343 23.7559L41.2315 38.6296Z" fill="url(#paint0_linear_3869_35280)"/>
</g>
<path d="M32.0462 7.6174C32.8203 7.17041 33.4766 7.37326 33.7061 8.04603L34.0584 7.84258C34.943 7.33202 35.6598 7.74597 35.6598 8.76719C35.6598 9.78849 34.943 11.0304 34.0584 11.541L26.0663 16.1553C25.1818 16.6659 24.4648 16.252 24.4648 15.2307C24.4648 14.2094 25.1819 12.9675 26.0663 12.4568L26.4183 12.2536C26.6478 11.3158 27.3039 10.3554 28.0781 9.90839L32.0462 7.6174Z" fill="black"/>
<mask id="mask0_3869_35280" style="mask-type:luminance" maskUnits="userSpaceOnUse" x="24" y="7" width="12" height="10">
<path d="M32.0443 7.6174C32.8183 7.17041 33.4746 7.37326 33.7042 8.04603L34.0565 7.84258C34.9411 7.33202 35.6579 7.74597 35.6579 8.76719C35.6579 9.78849 34.9411 11.0304 34.0565 11.541L26.0644 16.1553C25.1799 16.6659 24.4629 16.252 24.4629 15.2307C24.4629 14.2094 25.1799 12.9675 26.0644 12.4568L26.4164 12.2536C26.6459 11.3158 27.3019 10.3554 28.0762 9.90839L32.0443 7.6174Z" fill="white"/>
</mask>
<g mask="url(#mask0_3869_35280)">
<path d="M33.7065 8.04578L33.2915 8.44313C33.3504 8.61601 33.5177 8.65923 33.7065 8.5503V8.04578ZM26.4187 12.2533V12.7578C26.6074 12.6489 26.7748 12.4125 26.8337 12.1714L26.4187 12.2533ZM32.0466 7.61716V8.12167C32.6264 7.78697 33.1192 7.93782 33.2915 8.44313L33.7065 8.04578L34.1215 7.64844C33.8347 6.80822 33.0153 6.55331 32.0466 7.11265V7.61716ZM33.7065 8.04578V8.5503L34.0588 8.34685V7.84234V7.33783L33.7065 7.54127V8.04578ZM34.0588 7.84234V8.34685C34.7021 7.97553 35.2234 8.27664 35.2234 9.01924L35.6602 8.76694L36.097 8.51469C36.097 7.21481 35.1843 6.68797 34.0588 7.33783V7.84234ZM35.6602 8.76694L35.2234 9.01924C35.2234 9.76188 34.7021 10.6649 34.0588 11.0363V11.5408V12.0453C35.1843 11.3953 36.097 9.8146 36.097 8.51469L35.6602 8.76694ZM34.0588 11.5408V11.0363L26.0667 15.6505V16.155V16.6595L34.0588 12.0453V11.5408ZM26.0667 16.155V15.6505C25.4235 16.0218 24.9021 15.7208 24.9021 14.9782L24.4652 15.2304L24.0283 15.4827C24.0283 16.7826 24.9409 17.3095 26.0667 16.6595V16.155ZM24.4652 15.2304L24.9021 14.9782C24.9022 14.2355 25.4235 13.3324 26.0667 12.9611V12.4566V11.9521C24.9409 12.602 24.0283 14.1828 24.0283 15.4827L24.4652 15.2304ZM26.0667 12.4566V12.9611L26.4187 12.7578V12.2533V11.7488L26.0667 11.9521V12.4566ZM26.4187 12.2533L26.8337 12.1714C27.0061 11.4672 27.4988 10.7474 28.0785 10.4127L28.0785 9.90815V9.40364C27.1098 9.96301 26.2903 11.164 26.0037 12.3352L26.4187 12.2533ZM28.0785 9.90815L28.0785 10.4127L32.0466 8.12167V7.61716V7.11265L28.0785 9.40364V9.90815Z" fill="black"/>
</g>
<path d="M18.1777 18.5465C18.1777 17.4287 18.9625 16.0695 19.9305 15.5106L40.2426 3.78338C41.2108 3.22447 42.6054 4.53338 42.6054 4.53338L41.9953 36.1073C41.9953 37.2252 41.2108 38.5845 40.2426 39.1432L21.0089 50.2479L19.7637 51.8346C19.7637 51.8346 18.1777 50.9765 18.1777 49.8586V18.5465Z" fill="black"/>
<path d="M41.3368 4.88598L21.0146 16.6191C20.17 17.1067 19.4854 18.2925 19.4854 19.2677V50.5917C19.4854 51.5669 20.17 51.9622 21.0146 51.4746L41.3368 39.7415C42.1814 39.2539 42.8661 38.068 42.8661 37.0928V5.76887C42.8661 4.79365 42.1814 4.39837 41.3368 4.88598Z" fill="url(#paint1_linear_3869_35280)" stroke="black" stroke-width="1.05" stroke-linejoin="round"/>
<path d="M40.7825 7.86541L21.4766 19.0117V48.4955L40.7825 37.3492V7.86541Z" fill="#C0C7D2"/>
<path d="M34.736 23.8515L28.2751 20.1213C27.9312 19.9227 27.4914 20.0405 27.2928 20.3845L27.1312 20.6644C26.9326 21.0084 27.0504 21.4482 27.3944 21.6468L33.8553 25.377C34.1992 25.5755 34.639 25.4577 34.8376 25.1137L34.9992 24.8338C35.1978 24.4899 35.08 24.0501 34.736 23.8515Z" fill="white"/>
<path d="M21.4766 19.5148C21.4766 19.2362 21.6722 18.8974 21.9135 18.7581L40.3455 8.11632C40.5868 7.97699 40.7823 8.08992 40.7823 8.36858V30.1567V36.8432C40.7823 37.1219 40.5868 37.4608 40.3455 37.6L34.2435 41.1231L21.9135 48.2418C21.6722 48.3814 21.4766 48.2683 21.4766 47.9896V19.5148Z" fill="#D9D9D9"/>
<path d="M21.4766 19.5148C21.4766 19.2362 21.6722 18.8974 21.9135 18.7581L40.3455 8.11632C40.5868 7.97699 40.7823 8.08992 40.7823 8.36858V30.1567V36.8432C40.7823 37.1219 40.5868 37.4608 40.3455 37.6L34.2435 41.1231L21.9135 48.2418C21.6722 48.3814 21.4766 48.2683 21.4766 47.9896V19.5148Z" stroke="black" stroke-width="1.05" stroke-linejoin="round"/>
<path d="M21.915 19.0114L40.3473 8.36953C40.4676 8.30003 40.5655 8.35675 40.5655 8.49599V32.0381L21.6963 42.9322V19.3901C21.6963 19.2508 21.7943 19.081 21.915 19.0114Z" fill="white" stroke="black" stroke-width="1.05" stroke-linejoin="round"/>
<path d="M24.2803 23.8658C24.2803 23.4686 24.5591 22.9857 24.9031 22.7871L37.3605 15.5948C37.7045 15.3962 37.9832 15.5572 37.9832 15.9544C37.9832 16.3515 37.7045 16.8345 37.3605 17.0331L24.9031 24.2253C24.5591 24.4239 24.2803 24.2629 24.2803 23.8658Z" fill="#D9D9D9"/>
<path d="M24.2803 27.1008C24.2803 26.7036 24.5591 26.2207 24.9031 26.0221L32.9402 21.3819C33.2841 21.1834 33.5628 21.3443 33.5628 21.7415C33.5628 22.1386 33.2841 22.6216 32.9402 22.8202L24.9031 27.4604C24.5591 27.6589 24.2803 27.498 24.2803 27.1008Z" fill="#D9D9D9"/>
<path d="M34.4473 21.2304C34.4473 20.8333 34.726 20.3503 35.0699 20.1518L36.0344 19.5948C36.3783 19.3962 36.6574 19.5572 36.6574 19.9544C36.6574 20.3515 36.3783 20.8345 36.0344 21.0331L35.0699 21.59C34.726 21.7886 34.4473 21.6276 34.4473 21.2304Z" fill="#D9D9D9"/>
<path d="M22.874 38.5504L42.1799 27.4043C42.1799 27.4043 43.2549 27.4879 43.2549 29.0578C43.2549 30.6275 40.7828 32.0342 40.7828 32.0342L21.6191 43.0986C21.6191 43.0986 23.949 41.7739 23.949 40.204C23.949 38.6341 22.874 38.5504 22.874 38.5504Z" fill="#D9D9D9" stroke="black" stroke-width="1.05" stroke-linejoin="round"/>
<path d="M33.0424 8.46501C33.8164 8.0181 34.4727 8.22091 34.7023 8.89368L35.0546 8.69023C35.9387 8.17971 36.656 8.59362 36.656 9.61484C36.656 10.6361 35.9387 11.8779 35.0546 12.3887L27.0624 17.0029C26.1779 17.5135 25.4609 17.0996 25.4609 16.0783C25.4609 15.057 26.1779 13.8151 27.0624 13.3045L27.4144 13.1012C27.644 12.1634 28.3 11.203 29.0742 10.756L33.0424 8.46501Z" fill="#D9D9D9"/>
<mask id="mask1_3869_35280" style="mask-type:luminance" maskUnits="userSpaceOnUse" x="25" y="8" width="12" height="10">
<path d="M33.0424 8.46501C33.8164 8.0181 34.4727 8.22091 34.7023 8.89368L35.0546 8.69023C35.9387 8.17971 36.656 8.59362 36.656 9.61484C36.656 10.6361 35.9387 11.8779 35.0546 12.3887L27.0624 17.0029C26.1779 17.5135 25.4609 17.0996 25.4609 16.0783C25.4609 15.057 26.1779 13.8151 27.0624 13.3045L27.4144 13.1012C27.644 12.1634 28.3 11.203 29.0742 10.756L33.0424 8.46501Z" fill="white"/>
</mask>
<g mask="url(#mask1_3869_35280)">
<path d="M34.7026 8.89341L34.2877 9.29076C34.3465 9.46364 34.5139 9.50686 34.7026 9.39793V8.89341ZM27.4148 13.101V13.6055C27.6035 13.4965 27.7709 13.2601 27.8298 13.0191L27.4148 13.101ZM33.0428 8.46475V8.9693C33.6226 8.6346 34.1149 8.78549 34.2877 9.29076L34.7026 8.89341L35.1176 8.49607C34.8309 7.65585 34.0115 7.40103 33.0428 7.96024V8.46475ZM34.7026 8.89341V9.39793L35.055 9.19448V8.68997V8.18542L34.7026 8.3889V8.89341ZM35.055 8.68997V9.19448C35.6978 8.82324 36.2195 9.12427 36.2195 9.86683L36.6564 9.61457L37.0932 9.36232C37.0932 8.0624 36.1804 7.53569 35.055 8.18542V8.68997ZM36.6564 9.61457L36.2195 9.86683C36.2195 10.6094 35.6978 11.5125 35.055 11.8839V12.3884V12.8929C36.1804 12.243 37.0932 10.6622 37.0932 9.36232L36.6564 9.61457ZM35.055 12.3884V11.8839L27.0628 16.4981V17.0026V17.5072L35.055 12.8929V12.3884ZM27.0628 17.0026V16.4981C26.4196 16.8695 25.8982 16.5684 25.8982 15.8257L25.4613 16.078L25.0244 16.3303C25.0244 17.6302 25.937 18.1571 27.0628 17.5072V17.0026ZM25.4613 16.078L25.8982 15.8257C25.8982 15.0831 26.4196 14.18 27.0628 13.8087V13.3042V12.7997C25.937 13.4496 25.0244 15.0303 25.0244 16.3303L25.4613 16.078ZM27.0628 13.3042V13.8087L27.4148 13.6055V13.101V12.5964L27.0628 12.7997V13.3042ZM27.4148 13.101L27.8298 13.0191C28.0022 12.3148 28.4949 11.595 29.0746 11.2602V10.7558V10.2513C28.1059 10.8106 27.2864 12.0116 26.9998 13.1828L27.4148 13.101ZM29.0746 10.7558V11.2602L33.0428 8.9693V8.46475V7.96024L29.0746 10.2513V10.7558Z" fill="black"/>
</g>
<path d="M18.9307 14.685C19.0714 15.4257 19.8189 15.8775 20.5339 15.672L20.6029 15.6499L21.009 15.5078L20.6838 15.7882C20.1123 16.2803 20.0942 17.1532 20.63 17.6691L20.6838 17.7179L21.009 17.9979L20.6029 17.8563C19.8908 17.6081 19.1256 18.028 18.9463 18.7497L18.9307 18.8207L18.8502 19.2436L18.7697 18.8207C18.6289 18.08 17.8816 17.6281 17.1664 17.8341L17.0975 17.8563L16.6914 17.9975L17.017 17.7179C17.5886 17.2258 17.6063 16.353 17.0704 15.8371L17.017 15.7882L16.6914 15.5082L17.0975 15.6499C17.8096 15.8981 18.5753 15.4781 18.7545 14.7561L18.7697 14.685L18.8502 14.2617L18.9307 14.685Z" fill="white" stroke="black" stroke-width="1.05" stroke-linejoin="round"/>
<path d="M16.045 11.7578L16.1436 12.2762C16.1786 12.4603 16.3692 12.5703 16.5464 12.5086L17.0452 12.3346L16.6449 12.679C16.5029 12.8013 16.5029 13.0212 16.6449 13.1435L17.0452 13.4879L16.5464 13.3139C16.3692 13.2522 16.1786 13.3621 16.1436 13.5461L16.045 14.0645L15.9465 13.5461C15.9115 13.3621 15.7209 13.2521 15.5438 13.3139L15.0449 13.4879L15.4452 13.1435C15.5872 13.0212 15.5872 12.8013 15.4452 12.679L15.0449 12.3346L15.5438 12.5086C15.7209 12.5703 15.9115 12.4604 15.9465 12.2762L16.045 11.7578Z" fill="black"/>
<path d="M20.7365 12.4414L20.835 12.9598C20.87 13.1439 21.0606 13.2539 21.2378 13.1921L21.7366 13.0181L21.3363 13.3626C21.1943 13.4849 21.1943 13.7048 21.3363 13.8271L21.7366 14.1715L21.2378 13.9975C21.0606 13.9358 20.87 14.0457 20.835 14.2297L20.7365 14.7481L20.6379 14.2297C20.6029 14.0457 20.4123 13.9357 20.2352 13.9975L19.7363 14.1715L20.1366 13.8271C20.2786 13.7048 20.2786 13.4849 20.1366 13.3626L19.7363 13.0181L20.2352 13.1921C20.4123 13.2539 20.6029 13.144 20.6379 12.9598L20.7365 12.4414Z" fill="black"/>
<path d="M44.1962 32.005C44.3371 32.7458 45.0846 33.1977 45.7997 32.9921L45.8687 32.9699L46.2748 32.8278L45.9494 33.1082C45.378 33.6005 45.36 34.4733 45.8956 34.9892L45.9494 35.0379L46.2748 35.3179L45.8687 35.1763C45.1565 34.9282 44.3913 35.3482 44.2118 36.0697L44.1962 36.1407L44.1159 36.5637L44.0356 36.1407C43.8948 35.4003 43.1473 34.9484 42.4321 35.1544L42.3632 35.1763L41.957 35.3175L42.2829 35.0379C42.8542 34.546 42.8719 33.6732 42.3363 33.1574L42.2829 33.1082L41.957 32.8282L42.3632 32.9699C43.0754 33.2183 43.841 32.7983 44.0201 32.076L44.0356 32.005L44.1159 31.582L44.1962 32.005Z" fill="white" stroke="black" stroke-width="1.05" stroke-linejoin="round"/>
<path d="M48.0002 32.8535L48.099 33.3719C48.1339 33.5556 48.3243 33.6658 48.5018 33.604L49.0004 33.4299L48.6001 33.7747C48.458 33.8966 48.458 34.1165 48.6001 34.2388L49.0004 34.5836L48.5018 34.4095C48.3243 34.3477 48.1339 34.4574 48.099 34.6416L48.0002 35.16L47.9018 34.6416C47.8669 34.4574 47.676 34.3477 47.499 34.4095L47 34.5836L47.4002 34.2388C47.5423 34.1165 47.5423 33.8966 47.4002 33.7747L47 33.4299L47.499 33.604C47.676 33.6658 47.8669 33.556 47.9018 33.3719L48.0002 32.8535Z" fill="black"/>
<path d="M45.9978 29.7637L46.0966 30.2821C46.1315 30.4662 46.322 30.5764 46.4994 30.5146L46.998 30.3405L46.5978 30.6848C46.4557 30.8072 46.4557 31.0271 46.5978 31.1494L46.998 31.4937L46.4994 31.3197C46.322 31.2583 46.1315 31.368 46.0966 31.5522L45.9978 32.0706L45.8994 31.5522C45.8646 31.368 45.6737 31.2579 45.4967 31.3197L44.998 31.4937L45.3983 31.1494C45.54 31.0271 45.54 30.8072 45.3983 30.6848L44.998 30.3405L45.4967 30.5146C45.6737 30.5764 45.8646 30.4662 45.8994 30.2821L45.9978 29.7637Z" fill="black"/>
<defs>
<filter id="filter0_f_3869_35280" x="0.700976" y="22.7059" width="41.5805" height="29.4438" filterUnits="userSpaceOnUse" color-interpolation-filters="sRGB">
<feFlood flood-opacity="0" result="BackgroundImageFix"/>
<feBlend mode="normal" in="SourceGraphic" in2="BackgroundImageFix" result="shape"/>
<feGaussianBlur stdDeviation="0.525" result="effect1_foregroundBlur_3869_35280"/>
</filter>
<linearGradient id="paint0_linear_3869_35280" x1="16.7093" y1="32.4468" x2="32.1385" y2="45.7571" gradientUnits="userSpaceOnUse">
<stop stop-color="white" stop-opacity="0"/>
<stop offset="1"/>
</linearGradient>
<linearGradient id="paint1_linear_3869_35280" x1="31.205" y1="10.6095" x2="46.5163" y2="37.1295" gradientUnits="userSpaceOnUse">
<stop stop-color="#5349C1"/>
<stop offset="1" stop-color="#977FED"/>
</linearGradient>
</defs>
</svg>
